<svg width="72" height="71" viewBox="0 0 72 71" fill="none" xmlns="http://www.w3.org/2000/svg">
    <path d="M28.0671 60.8377C42.326 65.2283 57.4444 57.2285 61.835 42.9696C66.2257 28.7107 58.2259 13.5922 43.967 9.2016C29.7081 4.81096 14.5896 12.8108 10.199 27.0697C5.80834 41.3286 13.8082 56.447 28.0671 60.8377Z" fill="#F7B239"/>
    <path d="M18.2756 44.407C11.8479 32.2596 15.6126 17.4311 26.5538 9.71438C25.481 10.117 24.4219 10.5922 23.3821 11.1422C10.1951 18.1201 5.16155 34.4669 12.1394 47.6539C19.1172 60.841 35.464 65.8745 48.651 58.8967C49.6905 58.3466 50.6792 57.738 51.6157 57.0776C39.081 61.7829 24.7032 56.5544 18.2756 44.407Z" fill="#E09B2D"/>
    <path d="M37.6158 47.3195C37.2143 48.6235 36.5652 49.7563 35.7747 50.6402C34.3236 52.2635 32.3928 53.0449 30.6333 52.5031C28.8738 51.9613 27.717 50.2292 27.4303 48.0707C27.2728 46.8949 27.3733 45.5933 27.7748 44.2893C28.9137 40.5904 32.041 38.2693 34.7586 39.1061C37.4762 39.9429 38.7548 43.6206 37.6158 47.3195Z" fill="black"/>
    <path d="M29.6162 40.9685C31.0674 39.3451 32.9982 38.5638 34.7577 39.1056C36.5171 39.6474 37.6739 41.3796 37.9606 43.538C37.7978 43.5219 35.3036 43.7044 33.5106 43.1555C31.3332 42.4892 29.7907 41.0637 29.6162 40.9685Z" fill="#F2F2F2"/>
    <path d="M48.0228 58.0536C47.8381 58.6533 47.6127 59.1357 47.3593 59.5367C43.9268 61.1255 40.1566 62.0012 36.2842 62.038C37.5162 58.8945 40.0249 59.4756 41.1175 55.9273C42.2667 52.1952 39.5515 51.3591 40.7007 47.6271C41.8498 43.8951 44.565 44.7312 45.7142 40.9991C46.8497 37.3117 44.2103 36.4515 45.2587 32.8295C47.7036 33.7583 50.086 35.1987 51.9156 36.4563C51.8399 38.9111 53.5797 40.007 52.6195 43.1253C51.4704 46.8573 48.7553 46.0212 47.6061 49.7533C46.4569 53.4854 49.172 54.3215 48.0228 58.0536Z" fill="#2197D8"/>
    <path d="M24.6347 34.5093C23.4855 38.2413 26.2007 39.0773 25.0515 42.8094C23.9023 46.5415 21.1873 45.7054 20.0381 49.4375C18.9455 52.9858 21.3465 53.9165 20.5969 57.2086C17.416 54.9998 14.7914 52.1551 12.8471 48.9107C12.8631 48.4365 12.9481 47.9109 13.1328 47.3112C14.282 43.5791 16.9971 44.4151 18.1463 40.6831C19.2954 36.9511 16.5803 36.1151 17.7295 32.383C18.6897 29.2646 20.7446 29.3372 22.0629 27.2652C24.2831 27.2546 27.063 27.4037 29.6069 28.0111C28.4362 31.5952 25.7701 30.8218 24.6347 34.5093Z" fill="#2197D8"/>
    <path d="M35.0534 38.1491C31.8123 37.1511 28.1178 39.7733 26.818 43.9946C26.3877 45.3919 26.2564 46.8473 26.438 48.2026C26.7897 50.8509 28.2481 52.8163 30.3389 53.4601C32.4297 54.1039 34.741 53.2992 36.5215 51.3077C37.4338 50.2874 38.1434 49.0102 38.5732 47.6143C39.8728 43.393 38.2939 39.1469 35.0534 38.1491ZM34.4641 40.063C35.54 40.3943 36.3239 41.3201 36.7272 42.5519C35.8732 42.5435 34.7137 42.4769 33.8035 42.1983C33.7994 42.197 33.7954 42.1958 33.7913 42.1945C32.7083 41.861 31.7918 41.3125 31.1592 40.8723C32.1936 40.0624 33.3765 39.7281 34.4641 40.063ZM35.0286 49.973C33.7837 51.3653 32.2508 51.9535 30.9281 51.5462C29.6055 51.139 28.669 49.7905 28.4229 47.9378C28.2792 46.8663 28.3861 45.7065 28.7317 44.5839C28.9872 43.7543 29.353 43.0039 29.7922 42.3587C30.5329 42.8959 31.7238 43.6533 33.2019 44.1084C33.207 44.1099 33.2123 44.1116 33.2174 44.1131C34.4434 44.4884 35.8788 44.5603 37.0342 44.5548C37.0378 45.3452 36.9183 46.1832 36.6592 47.0249C36.3137 48.1468 35.7499 49.1661 35.0286 49.973Z" fill="black"/>
    <path d="M51.8193 24.3358C49.4538 23.6074 46.9439 24.1619 45.1054 25.8189L46.4463 27.3064C47.7562 26.1257 49.5444 25.7306 51.23 26.2495C52.9156 26.7686 54.172 28.1012 54.5909 29.8143C54.6777 30.1694 54.944 30.4335 55.2697 30.5338C55.4367 30.5852 55.6194 30.5936 55.8015 30.549C56.3386 30.4176 56.6675 29.8757 56.5362 29.3386C55.9481 26.9345 54.1848 25.0642 51.8193 24.3358Z" fill="black"/>
    <path d="M33.6774 22.3004C33.0895 19.8962 31.3262 18.026 28.9608 17.2976C28.9607 17.2976 28.9609 17.2976 28.9607 17.2976C26.5955 16.5693 24.0853 17.1238 22.2468 18.7807C21.8362 19.1509 21.8032 19.7841 22.1735 20.1947C22.2989 20.3339 22.4545 20.4298 22.6217 20.4813C22.9473 20.5815 23.3162 20.5129 23.5876 20.2682C24.8976 19.0876 26.6861 18.6925 28.3716 19.2115C30.0571 19.7305 31.3134 21.0631 31.7323 22.7762C31.8636 23.3133 32.4057 23.6423 32.9427 23.5109C33.4798 23.3794 33.8087 22.8375 33.6774 22.3004Z" fill="black"/>
    <path d="M44.2618 8.24463C29.498 3.6985 13.7883 12.0111 9.24219 26.775C6.90737 34.3575 7.90813 42.6128 11.9883 49.4243C14.0482 52.8618 16.7525 55.7571 20.0257 58.0299C22.3888 59.6718 24.9952 60.9381 27.773 61.7934C30.5499 62.6485 33.4167 63.0676 36.294 63.0393C40.2788 63.0012 44.1434 62.1286 47.78 60.4453L47.7802 60.4452C54.985 57.1088 60.4561 50.8464 62.791 43.2638C67.3371 28.5 59.0249 12.7905 44.2618 8.24463ZM14.0899 47.6049C14.5686 46.0501 15.3062 45.4974 16.24 44.7974C17.2679 44.0272 18.4328 43.154 19.1032 40.9768C19.7736 38.7996 19.3016 37.4225 18.8851 36.2074C18.5066 35.1034 18.2079 34.2315 18.6866 32.6767C19.1649 31.1233 19.9022 30.5709 20.8353 29.8713C21.3984 29.4494 22.0237 28.9798 22.5795 28.266C24.6547 28.2795 26.5359 28.4378 28.1953 28.738C27.7551 29.4821 27.198 29.9018 26.5408 30.3943C25.5131 31.1644 24.3482 32.0373 23.678 34.2137C23.0076 36.3909 23.4797 37.7681 23.8962 38.9831C24.2746 40.0871 24.5734 40.959 24.0947 42.5138C23.6159 44.0686 22.8783 44.6214 21.9445 45.3213C20.9167 46.0916 19.7517 46.9647 19.0813 49.1419C18.411 51.3189 18.883 52.6959 19.2993 53.9109C19.4577 54.3732 19.605 54.8053 19.6834 55.272C17.3839 53.4206 15.4336 51.203 13.8684 48.6583C13.9024 48.3262 13.9746 47.9792 14.0899 47.6049ZM41.8564 51.4526C41.478 50.3486 41.179 49.4767 41.6577 47.9219C42.1365 46.3671 42.8743 45.8144 43.8081 45.1144C44.8359 44.3442 46.0009 43.4711 46.6713 41.2939C47.3415 39.1173 46.8694 37.7404 46.4528 36.5255C46.1864 35.7487 45.962 35.0881 46.0166 34.2255C47.5567 34.9104 49.2013 35.8378 50.9251 36.9941C50.9832 37.8969 51.236 38.6369 51.4641 39.3025C51.8424 40.4058 52.141 41.2773 51.6626 42.8307C51.1839 44.3855 50.4461 44.9382 49.5123 45.6381C48.4845 46.4084 47.3195 47.2815 46.6491 49.4587C45.9787 51.6359 46.4507 53.0131 46.8672 54.2281C47.2457 55.3321 47.5447 56.2041 47.0659 57.7589C46.9507 58.133 46.8154 58.4606 46.6563 58.7543C43.9309 59.9779 41.0712 60.7143 38.1285 60.9515C38.4558 60.6098 38.8207 60.3352 39.2117 60.0422C40.2395 59.2719 41.4042 58.3987 42.0745 56.2218C42.7449 54.0446 42.2728 52.6675 41.8564 51.4526ZM49.2028 57.4388C49.5099 55.771 49.1168 54.6151 48.7616 53.5788C48.3832 52.4748 48.0842 51.6028 48.5629 50.048C49.0417 48.4932 49.7795 47.9405 50.7133 47.2406C51.7411 46.4703 52.9061 45.5972 53.5765 43.42C54.2237 41.3181 53.8054 39.9626 53.401 38.7782C54.1738 39.3754 54.6337 39.7718 54.6413 39.7785C54.7497 39.8723 54.8727 39.9388 55.0016 39.9785C55.3693 40.0917 55.7855 39.9867 56.0535 39.677C56.4157 39.2591 56.3704 38.6268 55.9524 38.2646C55.8956 38.2153 54.5356 37.0414 52.4828 35.631C50.8341 34.4977 49.2421 33.5551 47.7277 32.8145C49.3416 32.7066 51.4192 32.7984 53.6489 33.485C54.1774 33.6478 54.7378 33.3512 54.9005 32.8227C55.0632 32.2942 54.7669 31.7339 54.2382 31.5711C48.6309 29.8444 43.9891 31.4248 43.7943 31.4928C43.386 31.6356 43.1155 32.0244 43.1237 32.4568C43.1319 32.8893 43.4167 33.2677 43.83 33.395C43.916 33.4214 44.0027 33.4513 44.089 33.4794C43.8367 35.0595 44.2156 36.1742 44.5586 37.1744C44.9371 38.2781 45.2359 39.1499 44.7574 40.7038C44.2787 42.2586 43.5409 42.8114 42.6071 43.5113C41.5792 44.2816 40.4143 45.1547 39.7439 47.3319C39.0735 49.5091 39.5455 50.8863 39.962 52.1013C40.3405 53.2053 40.6395 54.0772 40.1607 55.632C39.682 57.1865 38.9444 57.7394 38.0106 58.4393C37.2075 59.0414 36.3115 59.7141 35.6388 61.0337C33.1816 60.9972 30.7369 60.6102 28.3623 59.879C25.9869 59.1476 23.7477 58.0923 21.6955 56.7403C21.8816 55.2709 21.5192 54.2108 21.1938 53.2612C20.8154 52.1572 20.5167 51.2852 20.9954 49.7306C21.4741 48.1758 22.2117 47.623 23.1455 46.9231C24.1733 46.1528 25.3383 45.2797 26.0087 43.1025C26.6791 40.9253 26.2071 39.5481 25.7906 38.3331C25.4121 37.2291 25.1133 36.3572 25.5921 34.8024C26.0706 33.2485 26.8081 32.6958 27.7418 31.9962C28.588 31.362 29.5283 30.6536 30.2084 29.2052C30.2961 29.2307 30.3849 29.2549 30.4714 29.2815C30.8848 29.4088 31.3332 29.2562 31.5832 28.9032C31.8333 28.5502 31.8283 28.0766 31.5709 27.7289C31.4479 27.5632 28.4992 23.6456 22.8904 21.9185C22.3618 21.7557 21.8015 22.0523 21.6387 22.5808C21.476 23.1093 21.7724 23.6696 22.301 23.8324C24.5315 24.5192 26.3012 25.6121 27.5749 26.609C25.9055 26.3693 24.059 26.253 22.0584 26.2626C19.5677 26.2738 17.7827 26.4796 17.7079 26.4883C17.1587 26.5526 16.7656 27.0499 16.8299 27.5992C16.8774 28.0057 17.1623 28.3269 17.53 28.4402C17.659 28.4799 17.7981 28.494 17.9405 28.4773C17.9506 28.476 18.5522 28.4067 19.5288 28.3477C18.5281 29.0996 17.4197 29.985 16.7724 32.0871C16.102 34.2643 16.574 35.6415 16.9906 36.8565C17.369 37.9605 17.6678 38.8324 17.189 40.3872C16.7103 41.942 15.9727 42.4948 15.0389 43.1947C14.1623 43.8516 13.1871 44.5863 12.5028 46.138C9.74484 40.2963 9.23987 33.5865 11.1559 27.364C15.377 13.6556 29.9638 5.93702 43.6724 10.1582C57.3801 14.3791 65.0981 28.9657 60.877 42.6743C58.9611 48.897 54.7691 54.1605 49.2028 57.4388Z" fill="black"/>
</svg>