<svg width="71" height="71" viewBox="0 0 71 71" fill="none" xmlns="http://www.w3.org/2000/svg">
    <path d="M27.5055 61.4357C41.7643 65.8263 56.8827 57.8265 61.2733 43.5677C65.664 29.3088 57.6642 14.1905 43.4053 9.79983C29.1465 5.40921 14.0281 13.409 9.63748 27.6678C5.24687 41.9267 13.2466 57.0451 27.5055 61.4357Z" fill="#F7B239"/>
    <path d="M17.7138 45.0049C11.2862 32.8575 15.051 18.0292 25.9921 10.3124C24.9194 10.7151 23.8603 11.1901 22.8206 11.7402C9.63366 18.718 4.60015 35.0647 11.5779 48.2516C18.5557 61.4385 34.9024 66.472 48.0893 59.4942C49.1287 58.9442 50.1174 58.3356 51.0538 57.6752C38.5193 62.3806 24.1416 57.1521 17.7138 45.0049Z" fill="#E09B2D"/>
    <path d="M49.4677 26.3922C48.3884 24.3525 45.8599 23.5739 43.8202 24.6532C41.7805 25.7325 41.0019 28.261 42.0812 30.3007L45.9897 37.6872L53.3762 33.7787C55.4159 32.6994 56.1945 30.1709 55.1152 28.1312C54.0359 26.0914 51.5074 25.3128 49.4677 26.3922Z" fill="#F95428"/>
    <path d="M29.059 20.1077C27.9797 18.068 25.4512 17.2894 23.4115 18.3687C21.3718 19.448 20.5932 21.9765 21.6725 24.0162L25.581 31.4027L32.9675 27.4942C35.0072 26.4149 35.7858 23.8864 34.7065 21.8467C33.6273 19.8069 31.0988 19.0283 29.059 20.1077Z" fill="#F95428"/>
    <path d="M21.6147 34.293L47.6432 42.3078C47.1934 43.7687 46.5196 45.0992 45.6718 46.2741L21.0136 38.6813C20.9734 37.2329 21.1649 35.7539 21.6147 34.293Z" fill="white"/>
    <path d="M21.0137 38.6812L45.6717 46.274C44.0005 48.5894 41.6522 50.2956 39.0016 51.1961C38.5633 49.3807 37.2059 47.8368 35.2908 47.2471C34.1208 46.8868 32.9231 46.9385 31.8517 47.3197C31.1802 46.4018 30.2178 45.685 29.0478 45.3248C27.1339 44.7354 25.142 45.248 23.7596 46.5028C22.0748 44.2672 21.093 41.5357 21.0137 38.6812Z" fill="#A81004"/>
    <path d="M35.2907 47.2471C37.2058 47.8368 38.5631 49.3807 39.0015 51.1961C36.3815 52.0879 33.4668 52.1906 30.6215 51.3145C27.7762 50.4383 25.4241 48.7139 23.7595 46.5028C25.1419 45.248 27.1338 44.7354 29.0477 45.3247C30.2177 45.685 31.1801 46.4018 31.8516 47.3197C32.923 46.9386 34.1207 46.8868 35.2907 47.2471Z" fill="#F95428"/>
    <path d="M27.2102 62.3915C12.4469 57.8456 4.13437 42.1362 8.68041 27.3727C13.2264 12.6093 28.9357 4.29682 43.6991 8.84279C58.4626 13.3888 66.7751 29.0982 62.2292 43.8615C57.6831 58.6251 41.9738 66.9376 27.2102 62.3915ZM43.1098 10.7566C29.4017 6.53561 14.8153 14.2539 10.5943 27.962C6.3732 41.6701 14.0915 56.2567 27.7995 60.4777C41.5077 64.6988 56.0942 56.9805 60.3153 43.2722C64.5363 29.5643 56.8179 14.9777 43.1098 10.7566Z" fill="black"/>
    <path d="M45.6951 38.6441C45.4503 38.5687 45.2341 38.3998 45.1049 38.1554L41.1963 30.7689C40.5492 29.546 40.4171 28.1443 40.8243 26.822C41.2315 25.4997 42.1293 24.4152 43.3521 23.7681C44.5749 23.1209 45.9767 22.9889 47.299 23.396C48.3233 23.7114 49.2048 24.321 49.851 25.1484C50.8505 24.8279 51.9224 24.8197 52.9466 25.135C54.2689 25.5422 55.3534 26.44 56.0006 27.6628C57.3363 30.1873 56.3692 33.3278 53.8448 34.6637L46.4583 38.5722C46.2137 38.7015 45.9401 38.7195 45.6951 38.6441ZM46.7094 25.3098C45.8984 25.0601 45.0385 25.1412 44.2885 25.538C43.5384 25.9349 42.9877 26.6001 42.738 27.4112C42.4882 28.2223 42.5694 29.0821 42.9663 29.8321L46.4065 36.3337L52.9081 32.8935C54.4566 32.0741 55.0498 30.1478 54.2304 28.5992C53.8335 27.849 53.1682 27.2985 52.3571 27.0487C51.546 26.799 50.6862 26.8801 49.9362 27.2769C49.7016 27.401 49.427 27.427 49.1733 27.3489C48.9196 27.2707 48.7072 27.095 48.583 26.8602C48.1859 26.1101 47.5205 25.5596 46.7094 25.3098Z" fill="black"/>
    <path d="M25.286 32.3597C25.0412 32.2843 24.825 32.1155 24.6958 31.8711L20.7873 24.4846C19.4515 21.9601 20.4186 18.8196 22.943 17.4837C24.1659 16.8366 25.5676 16.7045 26.8899 17.1117C27.914 17.427 28.7957 18.0367 29.4417 18.864C30.4412 18.5434 31.5131 18.5352 32.5374 18.8507C33.8596 19.2578 34.9442 20.1556 35.5914 21.3784C36.9272 23.9028 35.9601 27.0435 33.4356 28.3793L26.049 32.2876C25.8046 32.4171 25.5309 32.4351 25.286 32.3597ZM26.3003 19.0254C25.4893 18.7757 24.6294 18.8569 23.8794 19.2536C22.3309 20.073 21.7378 21.9993 22.5571 23.5479L25.9974 30.0495L32.499 26.6092C34.0475 25.7898 34.6406 23.8635 33.8213 22.3149C33.4244 21.5648 32.759 21.0142 31.948 20.7645C31.1369 20.5147 30.2771 20.5959 29.5271 20.9927C29.2925 21.1168 29.0179 21.1427 28.7642 21.0646C28.5104 20.9865 28.298 20.8107 28.1737 20.5759C27.7767 19.8258 27.1115 19.2752 26.3003 19.0254Z" fill="black"/>
    <path d="M30.327 52.2715C27.3651 51.3595 24.8175 49.5729 22.9597 47.105C21.1165 44.6594 20.0974 41.756 20.0128 38.709C19.9687 37.1166 20.1858 35.5316 20.658 33.9982C20.8207 33.4697 21.3811 33.1731 21.9096 33.3359L47.9381 41.3506C48.4666 41.5133 48.7631 42.0738 48.6004 42.6023C48.1282 44.1356 47.4161 45.5681 46.4839 46.8599C46.4839 46.8599 46.4839 46.8599 46.4839 46.86C44.6999 49.3315 42.224 51.1588 39.3241 52.1441C36.3999 53.1395 33.2888 53.1835 30.327 52.2715ZM22.3144 35.5561C22.0862 36.5743 21.9855 37.6123 22.0144 38.6534C22.0875 41.2823 22.9674 43.788 24.5592 45.9001C26.1619 48.0292 28.36 49.5704 30.9161 50.3575C33.4722 51.1446 36.1565 51.1067 38.6788 50.2482C41.1834 49.3972 43.3205 47.8203 44.8597 45.6879L44.8596 45.688C45.4692 44.8432 45.9699 43.9283 46.3541 42.9584L22.3144 35.5561Z" fill="black"/>
    <path d="M45.9666 45.3179L21.3086 37.7251L20.7193 39.6389L45.3773 47.2317L45.9666 45.3179Z" fill="black"/>
    <path d="M38.0661 51.6007C38.0552 51.544 38.0418 51.4878 38.0284 51.4325C37.659 49.903 36.4972 48.6663 34.9959 48.204C34.069 47.9186 33.0977 47.939 32.187 48.263C31.7698 48.4115 31.3047 48.2682 31.0434 47.9109C30.4726 47.1307 29.6806 46.5673 28.7529 46.2817C27.2514 45.8193 25.5958 46.1881 24.4323 47.2441C24.3888 47.2836 24.346 47.3225 24.3051 47.3633L22.8912 45.9451C22.9552 45.8813 23.0216 45.8197 23.0878 45.76C24.7709 44.2322 27.1681 43.6984 29.3422 44.3678C30.4539 44.7101 31.4315 45.3286 32.2046 46.1728C33.3186 45.9094 34.4741 45.9481 35.5853 46.2902C37.7586 46.9594 39.4407 48.7493 39.9748 50.9611C39.9955 51.0463 40.0158 51.1346 40.0329 51.2234L38.0661 51.6007Z" fill="black"/>
</svg>