<svg width="71" height="71" viewBox="0 0 71 71" fill="none" xmlns="http://www.w3.org/2000/svg">
    <path d="M27.2863 61.1365C41.5451 65.5271 56.6635 57.5273 61.0541 43.2685C65.4447 29.0096 57.4449 13.8913 43.1861 9.50064C28.9272 5.11002 13.8089 13.1098 9.41825 27.3686C5.02763 41.6275 13.0274 56.7459 27.2863 61.1365Z" fill="#F95428"/>
    <path d="M17.4946 44.7056C11.067 32.5582 14.8318 17.7299 25.7728 10.0132C24.7001 10.4158 23.6409 10.891 22.6013 11.4411C9.41439 18.4189 4.38088 34.7656 11.3586 47.9525C18.3364 61.1394 34.6831 66.1729 47.87 59.1951C48.9095 58.6451 49.8982 58.0365 50.8346 57.3761C38.3 62.0813 23.9224 56.8529 17.4946 44.7056Z" fill="#E54728"/>
    <path d="M29.2869 41.5447C29.0088 41.4591 28.7701 41.2536 28.6526 40.9628C28.4455 40.4501 28.693 39.8663 29.2058 39.6592C30.729 39.0435 32.4437 38.9742 34.0343 39.4639C35.5508 39.9309 36.8866 40.8917 37.7958 42.1694C38.1163 42.6199 38.011 43.2451 37.5606 43.5658C37.11 43.8864 36.485 43.781 36.1642 43.3306C35.5088 42.4096 34.5431 41.7161 33.4449 41.378C32.293 41.0233 31.054 41.0723 29.9562 41.516C29.7343 41.6054 29.4991 41.6101 29.2869 41.5447Z" fill="#E54728"/>
    <path d="M43.4805 8.54366C28.717 3.99763 13.0076 12.3101 8.46159 27.0737C3.91556 41.8372 12.2281 57.5466 26.9916 62.0926C41.7552 66.6387 57.4645 58.326 62.0105 43.5626C66.5564 28.7991 58.244 13.0897 43.4805 8.54366ZM27.581 60.1786C13.8728 55.9575 6.15438 41.3712 10.3754 27.663C14.5965 13.9548 29.1831 6.23645 42.8912 10.4575C56.5994 14.6786 64.3178 29.265 60.0967 42.9733C55.8756 56.6816 41.289 64.3996 27.581 60.1786Z" fill="black"/>
    <path d="M28.1918 30.1468C28.3179 29.7374 28.3682 29.3226 28.3526 28.9171C28.7229 29.0741 29.1156 29.2195 29.5344 29.3484C30.6428 29.6897 31.9248 29.9194 33.4017 29.9684C33.9543 29.9868 34.4172 29.5537 34.4357 29.0008C34.454 28.448 34.0199 27.9853 33.4681 27.9668C26.1082 27.7232 24.498 22.4972 24.4322 22.2717C24.2808 21.742 23.73 21.4337 23.1992 21.5827C22.6667 21.7319 22.3561 22.2846 22.5053 22.817C22.5219 22.8767 22.8616 24.0545 23.8805 25.4347C22.6106 25.7074 21.5197 26.6394 21.1111 27.9665C20.5099 29.9187 21.6091 31.996 23.5614 32.5972C25.5136 33.1983 27.5907 32.099 28.1918 30.1468Z" fill="black"/>
    <path d="M35.6553 35.5634C30.9159 34.1041 25.7888 35.7535 22.897 39.6678C22.5685 40.1126 22.6627 40.7394 23.1074 41.0681C23.5525 41.397 24.179 41.3026 24.5078 40.8578C26.8951 37.6263 31.1382 36.2679 35.066 37.4774C38.9931 38.6866 41.7367 42.1964 41.8927 46.211C41.9097 46.6474 42.2035 47.0078 42.5986 47.1293C42.7037 47.1617 42.8161 47.1772 42.9322 47.1727C43.4848 47.1512 43.9152 46.6859 43.8938 46.1333C43.7046 41.2701 40.3937 37.0225 35.6553 35.5634Z" fill="black"/>
    <path d="M52.9158 30.7382C52.5631 30.3148 51.9325 30.2579 51.5076 30.6086C51.3289 30.756 47.057 34.1741 40.8331 30.2348C40.3663 29.9393 39.7474 30.0781 39.4515 30.5454C39.1558 31.0126 39.2949 31.6311 39.7621 31.927C41.011 32.7174 42.1998 33.2484 43.3083 33.5898C43.727 33.7187 44.1334 33.8194 44.5279 33.8979C44.2869 34.2244 44.0952 34.5956 43.9691 35.0051C43.368 36.9573 44.4672 39.0346 46.4194 39.6358C48.3717 40.2369 50.449 39.1377 51.0501 37.1855C51.4588 35.8583 51.0811 34.4741 50.1845 33.5344C51.8034 32.9664 52.7467 32.1836 52.7939 32.1437C53.2151 31.7883 53.2685 31.1614 52.9158 30.7382Z" fill="black"/>
    <path d="M25.4501 29.8986C25.9787 30.0614 26.5391 29.7648 26.7018 29.2363C26.8645 28.7078 26.568 28.1474 26.0395 27.9847C25.511 27.8219 24.9506 28.1185 24.7878 28.647C24.6251 29.1755 24.9216 29.7359 25.4501 29.8986Z" fill="white"/>
    <path d="M48.289 36.9312C48.8175 37.094 49.3779 36.7974 49.5407 36.2689C49.7034 35.7404 49.4069 35.18 48.8784 35.0173C48.3498 34.8545 47.7895 35.151 47.6267 35.6796C47.464 36.2081 47.7605 36.7685 48.289 36.9312Z" fill="white"/>
</svg>