<svg width="294" height="278" viewBox="0 0 294 278" fill="none" xmlns="http://www.w3.org/2000/svg">
    <path d="M38.2456 135.848L101.731 130.461L128.43 152.931L64.9134 158.291L38.2456 135.848Z" fill="#706F6F"/>
    <path d="M160.77 58.5956L166.521 124.866L193.244 147.356L187.493 81.0856L160.77 58.5956Z" fill="#EDEDED"/>
    <path d="M229.871 119.365L235.605 185.621L262.346 208.126L256.612 141.87L229.871 119.365Z" fill="#EDEDED"/>
    <path d="M107.347 196.618L134.072 219.109L262.346 208.126L235.621 185.634L107.347 196.618Z" fill="#706F6F"/>
    <path d="M166.397 124.787L160.72 58.5537L32.5063 69.6757L38.1575 135.94L101.746 130.395L107.397 196.659L235.637 185.506L229.991 119.299L166.397 124.787Z" fill="#EABE63"/>
</svg>