<svg width="351" height="355" viewBox="0 0 351 355" fill="none" xmlns="http://www.w3.org/2000/svg">
    <path d="M10.694 292.771C7.62473 292.771 4.38494 290.42 1.04285 285.751C0.974642 285.649 0.974642 285.478 1.11105 285.41C1.21336 285.342 1.38388 285.342 1.45208 285.478C4.79418 290.147 7.99986 292.43 10.9668 292.26C13.3881 292.123 15.0933 290.488 16.8666 288.716C18.6741 286.944 20.5157 285.104 23.2098 285.001C26.2109 284.865 29.3483 286.876 32.4858 290.965C32.5881 291.067 32.554 291.237 32.4517 291.34C32.3494 291.442 32.1789 291.408 32.0766 291.306C29.0414 287.353 26.0744 285.41 23.2439 285.547C20.7203 285.683 19.0151 287.353 17.2077 289.125C15.4343 290.863 13.5927 292.669 10.9668 292.805C10.9327 292.771 10.7963 292.771 10.694 292.771Z" fill="black"/>
    <path d="M332.149 266.532C329.489 266.532 326.726 264.521 323.862 260.534C323.793 260.432 323.793 260.262 323.93 260.194C324.032 260.125 324.203 260.125 324.271 260.262C327.101 264.249 329.864 266.191 332.387 266.055C334.468 265.953 335.9 264.521 337.401 263.022C338.935 261.488 340.538 259.921 342.857 259.819C345.449 259.682 348.109 261.42 350.803 264.93C350.905 265.032 350.871 265.203 350.769 265.305C350.667 265.407 350.496 265.373 350.394 265.271C347.802 261.897 345.278 260.228 342.857 260.364C340.709 260.466 339.276 261.897 337.742 263.431C336.241 264.93 334.672 266.464 332.387 266.6C332.319 266.532 332.217 266.532 332.149 266.532Z" fill="black"/>
    <path d="M55.2666 55.0511C50.9356 55.0511 46.3658 51.7116 41.6595 45.1348C41.5913 45.0325 41.5913 44.8621 41.7278 44.794C41.8301 44.7258 42.0006 44.7258 42.0688 44.8621C46.8091 51.5412 51.413 54.7785 55.71 54.54C59.2226 54.3355 61.6098 51.9842 64.1675 49.4966C66.6911 47.009 69.3171 44.4191 73.1366 44.2147C77.3654 44.0102 81.7647 46.8386 86.1981 52.6317C86.3004 52.7339 86.2663 52.9043 86.164 53.0065C86.0616 53.1087 85.8911 53.0747 85.7888 52.9724C81.4577 47.3157 77.1949 44.5555 73.1707 44.7599C69.5558 44.9303 66.9981 47.452 64.5427 49.8714C62.0531 52.325 59.4613 54.8807 55.7782 55.0852C55.5736 55.0511 55.4372 55.0511 55.2666 55.0511Z" fill="black"/>
    <path d="M323.805 124.139L328.714 128.571L324.279 133.477L319.37 129.045L323.805 124.139Z" fill="#FFD6D3"/>
    <path d="M37.0897 222.743C37.0556 222.743 37.0215 222.743 36.9533 222.709C36.8169 222.641 36.7828 222.47 36.851 222.368L40.6705 215.519C40.7387 215.382 40.9093 215.348 41.0116 215.416C41.148 215.485 41.1821 215.655 41.1139 215.757L37.2943 222.607C37.2943 222.709 37.192 222.743 37.0897 222.743Z" fill="black"/>
    <path d="M173.877 51.3027C173.843 51.3027 173.774 51.3027 173.74 51.2687L166.92 47.418C166.783 47.3498 166.749 47.1795 166.817 47.0772C166.886 46.9409 167.056 46.9068 167.158 46.975L173.979 50.8257C174.115 50.8938 174.149 51.0642 174.081 51.1664C174.081 51.2346 173.979 51.3027 173.877 51.3027Z" fill="black"/>
    <path d="M333.342 215.859C333.308 215.859 333.24 215.859 333.206 215.825L326.385 211.975C326.249 211.906 326.215 211.736 326.283 211.634C326.351 211.498 326.522 211.463 326.624 211.532L333.445 215.382C333.581 215.45 333.615 215.621 333.547 215.723C333.513 215.825 333.445 215.859 333.342 215.859Z" fill="black"/>
    <path d="M191.167 143.515C191.133 143.515 191.064 143.515 191.03 143.481L184.448 139.221C184.346 139.153 184.312 138.982 184.38 138.88C184.448 138.778 184.619 138.744 184.721 138.812L191.303 143.072C191.405 143.14 191.44 143.31 191.371 143.412C191.337 143.481 191.235 143.515 191.167 143.515Z" fill="black"/>
    <path d="M159.349 103.304C159.281 103.304 159.247 103.27 159.178 103.236C159.076 103.134 159.042 102.997 159.144 102.861L164.192 96.8634C164.294 96.7612 164.43 96.7271 164.567 96.8293C164.669 96.9315 164.703 97.0678 164.601 97.2041L159.554 103.202C159.485 103.27 159.417 103.304 159.349 103.304Z" fill="black"/>
    <path d="M289.554 241.451C289.452 241.451 289.384 241.417 289.35 241.315L285.257 234.636C285.189 234.499 285.223 234.363 285.325 234.295C285.462 234.227 285.598 234.261 285.666 234.363L289.759 241.042C289.827 241.178 289.793 241.315 289.691 241.383C289.622 241.417 289.588 241.451 289.554 241.451Z" fill="black"/>
    <path d="M269.774 295.259C269.706 295.259 269.638 295.224 269.57 295.156C269.467 295.054 269.501 294.884 269.604 294.781L275.606 289.772C275.708 289.67 275.879 289.704 275.981 289.806C276.083 289.908 276.049 290.079 275.947 290.181L269.945 295.19C269.877 295.259 269.808 295.259 269.774 295.259Z" fill="black"/>
    <path d="M247.335 354.382C247.301 354.382 247.266 354.382 247.232 354.348L240.139 351.008C240.003 350.94 239.968 350.804 240.003 350.667C240.071 350.531 240.207 350.497 240.344 350.531L247.437 353.871C247.573 353.939 247.608 354.075 247.573 354.211C247.539 354.348 247.437 354.382 247.335 354.382Z" fill="black"/>
    <path d="M324.373 353.802C324.305 353.802 324.237 353.768 324.203 353.734C324.1 353.632 324.1 353.462 324.203 353.359L329.761 347.839C329.864 347.737 330.034 347.737 330.137 347.839C330.239 347.941 330.239 348.111 330.137 348.214L324.578 353.734C324.51 353.768 324.441 353.802 324.373 353.802Z" fill="black"/>
    <path d="M118.937 112.096C118.766 112.096 118.664 111.959 118.698 111.823L119.175 104.019C119.175 103.883 119.312 103.747 119.448 103.781C119.585 103.781 119.687 103.917 119.687 104.054L119.209 111.857C119.175 111.993 119.073 112.096 118.937 112.096Z" fill="black"/>
    <path d="M77.5016 90.2865C77.4334 90.2865 77.3652 90.2524 77.3311 90.2184L71.67 84.8002C71.5677 84.6979 71.5677 84.5275 71.67 84.4253C71.7723 84.3231 71.9428 84.3231 72.0451 84.4253L77.7062 89.8435C77.8085 89.9457 77.8085 90.1161 77.7062 90.2184C77.638 90.2524 77.5698 90.2865 77.5016 90.2865Z" fill="black"/>
    <path d="M94.0418 153.874C93.9736 153.874 93.9054 153.84 93.8371 153.806L88.6194 147.979C88.5171 147.876 88.5512 147.706 88.6535 147.604C88.7558 147.501 88.9263 147.536 89.0286 147.638L94.2464 153.465C94.3487 153.567 94.3146 153.738 94.2123 153.84C94.1441 153.84 94.11 153.874 94.0418 153.874Z" fill="black"/>
    <path d="M328.875 81.0518C328.807 81.0518 328.705 81.0178 328.671 80.9496L323.998 74.6795C323.93 74.5772 323.93 74.4069 324.067 74.3387C324.169 74.2706 324.339 74.2706 324.408 74.4069L329.08 80.677C329.148 80.7792 329.148 80.9496 329.012 81.0178C328.977 81.0518 328.909 81.0518 328.875 81.0518Z" fill="black"/>
    <path d="M274.787 43.2606C274.719 43.2606 274.685 43.2265 274.617 43.1925C274.515 43.0902 274.48 42.9539 274.583 42.8176L279.494 36.7179C279.596 36.6156 279.732 36.5816 279.869 36.6838C279.971 36.786 280.005 36.9223 279.903 37.0586L274.992 43.1584C274.924 43.2265 274.856 43.2606 274.787 43.2606Z" fill="black"/>
    <path d="M288.054 117.037L280.244 116.321C280.108 116.321 280.005 116.185 280.005 116.049C280.005 115.912 280.142 115.81 280.278 115.81L288.088 116.526C288.224 116.526 288.327 116.662 288.327 116.798C288.292 116.935 288.19 117.037 288.054 117.037Z" fill="black"/>
    <path d="M322.532 174.729C322.463 174.729 322.429 174.729 322.395 174.695C322.293 174.627 322.259 174.456 322.327 174.354L326.965 168.05C327.033 167.948 327.204 167.914 327.306 167.982C327.408 168.05 327.442 168.22 327.374 168.323L322.736 174.627C322.702 174.695 322.6 174.729 322.532 174.729Z" fill="black"/>
    <path d="M22.971 169.617C22.9028 169.617 22.8346 169.583 22.7664 169.549L17.4464 163.79C17.3441 163.688 17.3441 163.518 17.4464 163.415C17.5487 163.313 17.7192 163.313 17.8215 163.415L23.1416 169.174C23.2439 169.277 23.2439 169.447 23.1416 169.549C23.0734 169.617 23.0393 169.617 22.971 169.617Z" fill="black"/>
    <path d="M307.151 326.916C309.807 326.916 311.96 324.765 311.96 322.111C311.96 319.457 309.807 317.306 307.151 317.306C304.496 317.306 302.343 319.457 302.343 322.111C302.343 324.765 304.496 326.916 307.151 326.916Z" fill="#FFD6D3"/>
    <path d="M20.3112 99.7599C21.9498 99.7599 23.2782 98.4326 23.2782 96.7952C23.2782 95.1579 21.9498 93.8306 20.3112 93.8306C18.6726 93.8306 17.3442 95.1579 17.3442 96.7952C17.3442 98.4326 18.6726 99.7599 20.3112 99.7599Z" fill="#FFD6D3"/>
    <path d="M129.816 55.801C131.944 55.801 133.669 54.077 133.669 51.9503C133.669 49.8236 131.944 48.0996 129.816 48.0996C127.687 48.0996 125.962 49.8236 125.962 51.9503C125.962 54.077 127.687 55.801 129.816 55.801Z" fill="#FFD6D3"/>
    <path fill-rule="evenodd" clip-rule="evenodd" d="M52.9478 129.032C53.664 129.475 54.4824 129.679 55.3009 129.679C56.9719 129.679 58.5407 128.827 59.4274 127.294C60.7233 125.045 59.973 122.114 57.6881 120.819C55.4373 119.524 52.5044 120.308 51.2085 122.557C49.9126 124.806 50.6629 127.737 52.9478 129.032ZM51.6518 122.83C52.4362 121.467 53.8685 120.717 55.335 120.717C56.0511 120.717 56.7673 120.888 57.4493 121.262C59.4955 122.421 60.1776 125.045 59.0181 127.055C57.8586 129.1 55.2326 129.782 53.2206 128.623C51.1744 127.464 50.4923 124.84 51.6518 122.83Z" fill="black"/>
    <path fill-rule="evenodd" clip-rule="evenodd" d="M336.582 48.4402C336.821 48.5766 337.094 48.6447 337.332 48.6447C337.844 48.6447 338.356 48.3721 338.594 47.895C339.003 47.1794 338.765 46.2934 338.049 45.8845C337.332 45.4756 336.446 45.7141 336.036 46.4297C335.627 47.1453 335.866 48.0313 336.582 48.4402ZM336.855 48.0313C336.412 47.7586 336.241 47.1453 336.514 46.7023C336.787 46.2252 337.367 46.0548 337.81 46.3615C338.253 46.6341 338.424 47.2475 338.151 47.6905C338.015 47.8949 337.81 48.0653 337.571 48.1335C337.333 48.2016 337.094 48.1676 336.855 48.0313Z" fill="black"/>
    <path d="M187.328 241.228C182.177 251.726 171.84 259.361 159.32 260.52C142.843 262.053 127.969 251.794 123.056 236.729L134.894 229.06C134.007 222.312 131.551 214.098 127.457 206.327C133.086 198.113 142.194 192.387 152.906 191.398C167.2 190.069 180.3 197.601 186.714 209.496C183.814 219.926 184.701 231.48 187.328 241.228Z" fill="black"/>
    <path d="M134.894 229.026L123.056 236.695C122.271 234.275 121.726 231.753 121.487 229.129C120.702 220.71 122.988 212.734 127.457 206.259C131.551 214.064 134.041 222.278 134.894 229.026Z" fill="#00BE75"/>
    <path d="M219.805 222.585L214.995 222.994C213.153 230.799 208.649 238.331 206.876 247.636C206.5 249.511 206.261 251.419 206.159 253.328L191.524 252.68C189.921 249.374 188.454 245.489 187.328 241.262C190.057 235.707 191.353 229.367 190.739 222.755C190.296 217.949 188.897 213.484 186.714 209.462C186.919 208.747 187.123 208.065 187.362 207.349C190.228 198.76 195.447 192.148 198.176 184.956C199.711 180.9 200.462 176.674 199.541 171.834C199.507 171.732 199.507 171.596 199.473 171.459C198.688 167.642 196.3 161.711 198.756 155.099C199.848 152.168 202.543 147.43 205.682 147.601C209.502 147.805 211.549 155.235 211.686 155.678C213.528 162.563 210.594 168.289 209.502 171.902C209.468 172.005 209.434 172.141 209.4 172.243C208.07 177.015 208.411 181.275 209.536 185.433C210.082 187.444 210.833 189.455 211.652 191.466C211.617 191.671 211.549 191.841 211.515 192.012C209.843 199.169 213.153 204.997 214.483 208.849C214.517 208.985 214.551 209.087 214.62 209.224L218.338 208.917C219.464 213.382 219.873 217.983 219.805 222.585Z" fill="#00BE75"/>
    <path d="M198.176 184.956C199.711 180.9 200.462 176.674 199.541 171.834L209.4 172.277C208.069 177.049 208.411 181.309 209.536 185.467L198.176 184.956Z" fill="black"/>
    <path d="M219.805 222.584C219.634 234.275 216.155 245.727 211.959 253.566L206.159 253.294C206.296 251.385 206.534 249.476 206.876 247.602C208.65 238.331 213.153 230.765 214.995 222.959L219.805 222.584Z" fill="black"/>
    <path fill-rule="evenodd" clip-rule="evenodd" d="M206.159 253.566L211.993 253.839C212.061 253.839 212.163 253.771 212.197 253.703C216.974 244.773 219.907 233.15 220.078 222.584C220.078 222.482 220.078 222.414 220.01 222.38C219.941 222.346 219.873 222.312 219.805 222.312L214.995 222.721C214.858 222.755 214.79 222.823 214.756 222.925C213.937 226.402 212.607 229.776 211.174 233.389L211.167 233.406C209.43 237.831 207.625 242.428 206.637 247.568C206.296 249.408 206.057 251.351 205.92 253.294C205.92 253.375 205.942 253.413 205.968 253.459C205.974 253.471 205.982 253.484 205.989 253.498C206.023 253.532 206.091 253.566 206.159 253.566ZM211.822 253.294L206.432 253.055C206.569 251.215 206.807 249.408 207.183 247.67C208.125 242.661 209.896 238.15 211.614 233.776C211.638 233.715 211.662 233.654 211.686 233.593C213.084 230.049 214.415 226.674 215.234 223.232L219.566 222.857C219.361 233.219 216.462 244.568 211.822 253.294Z" fill="black"/>
    <path d="M218.372 208.917L214.654 209.224C214.62 209.087 214.586 208.985 214.517 208.849C213.187 204.997 209.912 199.203 211.55 192.011C211.584 191.841 211.652 191.636 211.686 191.466C213.903 196.783 216.701 202.271 218.338 208.712C218.338 208.815 218.338 208.849 218.372 208.917Z" fill="black"/>
    <path fill-rule="evenodd" clip-rule="evenodd" d="M214.381 209.326C214.415 209.428 214.517 209.496 214.62 209.496L218.372 209.122C218.441 209.122 218.509 209.087 218.543 209.019C218.577 208.951 218.577 208.883 218.577 208.815L218.543 208.644C217.36 203.882 215.507 199.656 213.714 195.567L213.665 195.454C213.501 195.081 213.337 194.713 213.174 194.348C212.728 193.345 212.291 192.364 211.891 191.364C211.857 191.262 211.754 191.194 211.652 191.194C211.549 191.228 211.447 191.296 211.413 191.398C211.393 191.516 211.362 191.634 211.333 191.745C211.312 191.827 211.291 191.905 211.277 191.978C209.893 197.912 211.881 202.945 213.344 206.649C213.36 206.69 213.376 206.73 213.392 206.77C213.733 207.554 214.006 208.269 214.245 208.951L214.381 209.326ZM213.865 206.469C212.436 202.865 210.503 197.993 211.754 192.284C212.232 193.409 212.709 194.534 213.255 195.693C213.272 195.731 213.289 195.77 213.306 195.809C215.064 199.829 216.883 203.986 218.065 208.678L214.824 208.951L214.756 208.781C214.576 208.267 214.358 207.715 214.129 207.138C214.055 206.95 213.979 206.758 213.903 206.565L213.865 206.469Z" fill="black"/>
    <path fill-rule="evenodd" clip-rule="evenodd" d="M217.178 294.058C217.212 294.126 217.28 294.16 217.383 294.16L238.772 292.319C238.875 292.319 238.943 292.251 238.977 292.149C243.31 280.731 246.005 261.44 239.421 244.739C237.582 240.08 235.174 236.085 232.836 232.206C232.745 232.055 232.654 231.904 232.564 231.753C232.497 231.643 232.431 231.534 232.365 231.425C230.391 228.173 228.527 225.1 227.174 221.869C225.195 217.199 224.581 212.905 225.229 208.371C225.246 208.303 225.255 208.244 225.263 208.184C225.272 208.124 225.28 208.065 225.297 207.997C225.378 207.459 225.501 206.88 225.633 206.258C225.668 206.091 225.705 205.92 225.741 205.747L225.746 205.721C226.565 201.803 227.68 196.463 225.331 190.75C225.263 190.512 224.41 188.535 223.08 186.626C221.306 184.138 219.532 182.911 217.758 183.047C213.869 183.354 211.89 190.069 211.549 191.398C211.515 191.466 211.515 191.5 211.549 191.568C211.799 192.141 212.049 192.721 212.302 193.307C212.635 194.079 212.974 194.863 213.323 195.658L213.374 195.775C215.132 199.795 216.951 203.952 218.133 208.644L214.688 208.951C214.585 208.951 214.517 209.019 214.483 209.053C214.449 209.087 214.415 209.189 214.449 209.258C215.882 213.586 215.984 217.915 214.824 222.891C214.824 222.993 214.824 223.061 214.892 223.13C214.926 223.198 215.029 223.232 215.097 223.232L219.6 222.857C219.395 233.218 216.496 244.568 211.856 253.294L206.193 253.055C206.057 253.055 205.92 253.157 205.92 253.294C204.829 269.142 211.003 284.719 217.178 294.058ZM217.519 293.649C211.481 284.412 205.408 269.109 206.398 253.566L211.924 253.839C212.026 253.839 212.129 253.805 212.163 253.703C216.939 244.773 219.873 233.15 220.043 222.584C220.043 222.482 220.043 222.414 219.975 222.38C219.907 222.346 219.839 222.312 219.77 222.312L215.336 222.687C216.427 217.881 216.291 213.655 214.96 209.428L218.372 209.121C218.44 209.121 218.508 209.087 218.542 209.019C218.576 208.951 218.576 208.883 218.576 208.815L218.542 208.644C217.359 203.882 215.506 199.656 213.713 195.566L213.664 195.454C213.552 195.199 213.441 194.948 213.331 194.699C212.839 193.583 212.37 192.519 211.924 191.432C212.845 187.921 214.926 183.763 217.655 183.559C219.6 183.422 221.374 185.297 222.5 186.933C223.83 188.842 224.683 190.853 224.717 190.955C227.037 196.545 225.945 201.793 225.126 205.645C225.104 205.753 225.081 205.861 225.059 205.968C224.912 206.669 224.772 207.337 224.683 207.929C224.665 207.983 224.656 208.047 224.647 208.115C224.639 208.176 224.631 208.24 224.615 208.303C223.966 212.939 224.581 217.302 226.593 222.073C228.024 225.442 229.964 228.641 232.007 232.009L232.017 232.026L232.149 232.242C234.531 236.163 236.998 240.224 238.84 244.943C244.913 260.383 243.036 279.606 238.465 291.842L217.519 293.649Z" fill="black"/>
    <path fill-rule="evenodd" clip-rule="evenodd" d="M214.824 223.164C214.892 223.232 214.96 223.266 215.029 223.266L226.9 222.244C227.003 222.209 227.071 222.175 227.105 222.107C227.139 222.039 227.139 221.937 227.105 221.869C225.126 217.199 224.512 212.905 225.161 208.372C225.161 208.303 225.161 208.235 225.092 208.167C225.058 208.133 224.956 208.099 224.888 208.099L214.619 208.985C214.517 208.985 214.449 209.053 214.414 209.087C214.38 209.121 214.346 209.224 214.38 209.292C215.813 213.62 215.915 217.949 214.756 222.925C214.756 223.027 214.756 223.096 214.824 223.164ZM215.336 222.721C216.427 217.915 216.291 213.689 214.96 209.462L224.581 208.644C224.001 213.041 224.581 217.233 226.457 221.766L215.336 222.721Z" fill="black"/>
    <path d="M105.18 326.778L82.494 326.539C75.8758 314.065 71.0315 293.887 76.1487 276.539C78.9802 266.927 84.5067 259.395 87.27 251.317C88.8052 246.784 89.4874 242.08 88.2593 236.729C88.2252 236.593 88.1911 236.456 88.157 236.32C87.1336 232.128 84.2679 225.618 86.7583 218.222C87.4065 216.279 88.6346 213.62 90.2721 211.78C93.1036 217.744 97.1291 223.164 101.598 227.799C101.052 231.276 99.8583 234.241 99.2783 236.456C99.2442 236.593 99.2101 236.729 99.176 236.865C97.8796 242.182 98.3913 246.886 99.8241 251.487C102.349 259.565 107.636 267.2 110.4 276.948C115.483 294.33 111.252 314.44 105.18 326.778Z" fill="#00BE75"/>
    <path d="M87.27 251.317C88.8052 246.784 89.4875 242.08 88.2593 236.729L99.2101 236.831C97.9137 242.148 98.4255 246.852 99.8583 251.453L87.27 251.317Z" fill="black"/>
    <path d="M101.666 227.765C97.1632 223.129 93.1377 217.71 90.3403 211.745C91.4661 210.484 92.7625 209.598 94.1953 209.632C98.4596 209.735 100.984 217.846 101.155 218.358C102.144 221.766 102.11 224.936 101.666 227.765Z" fill="black"/>
    <path fill-rule="evenodd" clip-rule="evenodd" d="M101.496 227.969C101.53 228.004 101.598 228.038 101.666 228.038C101.666 228.038 101.7 228.038 101.769 228.004C101.871 227.969 101.939 227.901 101.939 227.799C102.485 224.391 102.314 221.289 101.393 218.29C101.291 217.949 98.6642 209.496 94.1952 209.394C92.7966 209.36 91.4661 210.11 90.1356 211.609C90.0674 211.678 90.0674 211.78 90.1015 211.882C92.7624 217.506 96.6174 222.925 101.496 227.969ZM101.462 227.254C96.8224 222.38 93.1721 217.199 90.6136 211.814C91.8076 210.519 92.9675 209.871 94.1615 209.905C98.2552 210.007 100.78 218.119 100.882 218.46C101.701 221.255 101.905 224.118 101.462 227.254Z" fill="black"/>
    <path d="M117.734 240.41C117.7 240.41 117.666 240.41 117.598 240.376C112.037 237.343 106.272 232.946 101.428 227.936C101.36 227.867 101.36 227.799 101.36 227.731C101.905 224.391 101.735 221.357 100.848 218.426C100.745 218.085 98.221 209.973 94.1273 209.871C92.8991 209.837 91.671 210.519 90.477 211.916C90.4088 211.984 90.3405 212.018 90.2382 211.984C90.17 211.984 90.0676 211.916 90.0335 211.848C89.0783 209.837 88.2937 207.826 87.6796 205.815C86.1786 201.009 85.6327 196.306 85.121 191.773C84.7117 188.092 84.3023 184.615 83.4153 181.309C82.1531 176.572 80.1062 172.993 76.9336 169.959C76.8312 169.891 76.763 169.789 76.6606 169.721C76.1489 169.244 75.569 168.766 74.9549 168.255C72.0211 165.801 67.9956 162.393 66.4604 156.701C65.6417 153.667 64.9935 148.078 67.825 146.305C71.1682 144.192 77.07 148.862 77.7182 149.407C82.3236 153.19 83.7906 158.235 84.8481 161.882C85.0528 162.631 85.2916 163.347 85.4963 163.961C85.5304 164.097 85.5645 164.199 85.6327 164.301C87.1338 168.426 89.59 171.766 93.3767 174.833C96.0718 177.015 99.1421 178.855 102.417 180.764C106.272 183.047 110.298 185.433 114.084 188.671C119.372 193.17 123.943 199.067 127.662 206.156C127.73 206.292 127.696 206.429 127.559 206.497C127.423 206.565 127.287 206.531 127.218 206.395C123.534 199.373 118.997 193.545 113.743 189.08C109.99 185.876 105.999 183.525 102.144 181.241C98.8692 179.298 95.7989 177.458 93.0697 175.276C89.2148 172.141 86.6903 168.732 85.1893 164.506C85.1551 164.404 85.121 164.267 85.0528 164.165C84.8481 163.518 84.6093 162.802 84.4046 162.052C83.3471 158.439 81.9143 153.497 77.4453 149.816C77.2065 149.611 71.2706 144.772 68.132 146.748C66.7333 147.635 66.3922 149.611 66.324 151.111C66.2557 152.747 66.4945 154.792 67.0062 156.599C68.5073 162.154 72.4304 165.46 75.3302 167.88C75.9442 168.391 76.5242 168.903 77.0359 169.38C77.1382 169.482 77.2065 169.55 77.3088 169.653C80.5497 172.754 82.6648 176.435 83.927 181.241C84.814 184.581 85.2234 188.092 85.6327 191.773C86.1445 196.306 86.6903 200.975 88.1572 205.713C88.7372 207.588 89.4877 209.462 90.3405 211.337C91.5687 210.042 92.8309 209.394 94.1273 209.428C96.0035 209.462 97.7775 210.928 99.3468 213.757C100.575 215.904 101.223 218.085 101.325 218.324C102.212 221.289 102.417 224.357 101.871 227.731C106.613 232.605 112.242 236.934 117.666 239.899L122.852 236.525C122.954 236.456 123.125 236.49 123.193 236.593C123.261 236.695 123.227 236.865 123.125 236.934L117.803 240.376C117.837 240.41 117.803 240.41 117.734 240.41Z" fill="black"/>
    <path d="M83.6882 181.241C82.5965 177.049 80.7202 173.197 77.1382 169.789L85.428 164.404C87.0996 169.073 89.8629 172.345 93.2402 175.038L83.6882 181.241Z" fill="black"/>
    <path fill-rule="evenodd" clip-rule="evenodd" d="M136.293 163.177C137.111 163.688 139.261 164.983 142.058 164.983C142.297 164.983 142.501 164.983 142.808 164.949C146.038 164.711 148.218 162.815 149.279 161.891L149.29 161.882C151.985 159.53 155.84 154.042 157.887 147.601C160.821 138.262 158.433 132.638 155.874 129.536C152.497 125.446 146.902 123.129 141.58 123.606C134.996 124.219 130.971 128.82 129.879 130.218C126.604 134.444 125.478 140.307 126.706 146.783C128.037 153.838 131.96 160.586 136.293 163.177ZM141.614 124.151C142.058 124.117 142.535 124.083 142.979 124.083C147.687 124.083 152.463 126.264 155.431 129.911C157.887 132.911 160.207 138.398 157.341 147.498C155.328 153.838 151.542 159.223 148.881 161.541C147.891 162.427 145.776 164.233 142.706 164.472C139.772 164.71 137.521 163.347 136.565 162.768C132.369 160.246 128.514 153.633 127.218 146.714C126.024 140.375 127.116 134.649 130.288 130.559C131.312 129.195 135.235 124.73 141.614 124.151Z" fill="black"/>
    <path d="M142.467 163.756C146.575 163.756 149.904 160.43 149.904 156.326C149.904 152.222 146.575 148.896 142.467 148.896C138.36 148.896 135.03 152.222 135.03 156.326C135.03 160.43 138.36 163.756 142.467 163.756Z" fill="black"/>
    <path d="M148.438 125.037C148.403 125.037 148.369 125.037 148.369 125.037C148.233 125.003 148.165 124.833 148.199 124.73C148.949 122.481 149.529 120.265 148.847 117.709C148.301 115.664 146.698 112.12 144.173 111.983C141.546 111.847 139.568 115.357 138.851 117.232C138.033 119.482 138.306 121.458 138.92 124.424C138.954 124.56 138.851 124.696 138.715 124.73C138.578 124.765 138.442 124.662 138.408 124.526C137.794 121.458 137.487 119.447 138.374 117.062C139.124 115.051 141.273 111.302 144.207 111.472C147.039 111.642 148.779 115.392 149.359 117.573C150.075 120.265 149.461 122.549 148.676 124.867C148.642 124.969 148.54 125.037 148.438 125.037Z" fill="black"/>
    <path d="M138.408 123.026C139.431 122.617 141.546 121.901 144.241 122.174C146.322 122.413 147.892 123.128 148.813 123.64C148.71 123.981 148.608 124.321 148.506 124.662C147.277 124.253 145.469 123.81 143.252 123.81C141.41 123.81 139.909 124.117 138.783 124.424C138.647 123.946 138.51 123.503 138.408 123.026Z" fill="black"/>
    <path d="M39.271 237.104C39.1686 237.104 39.1004 237.07 39.0322 236.968C38.9639 236.831 38.998 236.695 39.1345 236.627L189.955 151.52C190.091 151.452 190.228 151.486 190.296 151.622C190.364 151.759 190.33 151.895 190.193 151.963L39.3733 237.07C39.3392 237.07 39.3051 237.104 39.271 237.104Z" fill="black"/>
    <path d="M201.315 351.557C201.281 351.557 201.247 351.557 201.213 351.557C201.076 351.523 201.008 351.352 201.076 351.216C219.907 302.306 240.342 253.294 261.834 205.543C264.597 199.408 267.395 193.239 270.192 187.138C270.26 187.001 270.397 186.967 270.533 187.001C270.67 187.069 270.704 187.206 270.67 187.342C267.872 193.443 265.075 199.646 262.312 205.747C240.854 253.464 220.419 302.477 201.554 351.386C201.52 351.489 201.417 351.557 201.315 351.557Z" fill="black"/>
    <path d="M228.231 39.283C228.197 39.283 228.163 39.283 228.129 39.2489C227.993 39.1807 227.924 39.0444 227.993 38.9081C228.402 37.9196 230.585 32.9094 231.916 30.4894C232.155 30.0463 232.734 29.0238 233.621 28.9557C233.997 28.9216 234.508 29.092 234.781 29.501C235.191 30.1486 234.747 31.0348 234.543 31.4778C234.372 31.8528 234.201 32.1936 234.031 32.5004C235.498 30.2508 236.18 29.6032 236.999 29.6714C237.408 29.7055 237.818 29.9441 238.022 30.2849C238.5 31.1029 237.749 32.1936 237.169 33.0798L236.658 33.8637C235.805 35.1589 234.986 36.3859 234.133 37.6811L234.031 37.8174C233.963 37.9196 233.792 37.9537 233.69 37.8856C233.587 37.8174 233.553 37.647 233.621 37.5447L233.69 37.4084L233.724 37.3743C234.577 36.0791 235.395 34.8521 236.248 33.5569L236.76 32.773C237.238 32.0573 237.92 31.0348 237.613 30.5235C237.511 30.319 237.238 30.1827 236.999 30.1486C236.385 30.0804 235.634 30.9325 234.031 33.5229C233.656 34.1364 232.496 35.9769 232.12 36.6585C231.984 36.9653 231.95 37.0676 231.779 37.0676C231.711 37.0676 231.677 37.0335 231.609 36.9994C231.438 36.863 231.506 36.6926 231.677 36.42L231.779 36.1814C232.12 35.4315 232.837 33.8637 234.133 31.2052C234.304 30.8984 234.679 30.1486 234.406 29.7396C234.27 29.5351 233.997 29.3987 233.69 29.4328C233.076 29.4669 232.598 30.319 232.393 30.6939C231.063 33.0798 228.914 38.0901 228.504 39.0785C228.402 39.2148 228.334 39.283 228.231 39.283Z" fill="black"/>
    <path d="M231.165 46.5427C231.097 46.5427 231.029 46.5086 230.995 46.4745C230.892 46.3723 230.892 46.2018 230.995 46.0996C234.338 42.6912 236.624 40.3735 238.329 38.8057L238.363 38.7716C238.909 38.2604 240.342 36.9311 240.035 36.1472C240.001 36.0108 239.899 35.9427 239.83 35.8745C239.353 35.6359 238.295 36.6243 237.408 37.4083C236.76 38.0218 236.112 38.6694 235.498 39.3851C235.395 39.4874 235.259 39.5215 235.157 39.4192C235.054 39.351 235.02 39.1806 235.088 39.0784C235.975 37.7491 236.897 36.4539 237.818 35.261L237.988 35.0224C238.739 34.0681 239.455 33.1478 239.182 32.6707C239.114 32.5343 238.943 32.398 238.773 32.398C238.227 32.2957 237.545 33.1478 236.487 34.5112C235.737 35.4996 234.952 36.5562 234.099 37.6809C234.031 37.7832 233.86 37.8173 233.724 37.7491C233.622 37.6809 233.587 37.5105 233.656 37.4083L233.69 37.3742C234.509 36.2494 235.327 35.1928 236.078 34.2044C237.34 32.5684 238.022 31.7504 238.875 31.8867C239.216 31.9549 239.523 32.1594 239.66 32.4321C240.069 33.1819 239.285 34.1703 238.398 35.3292L238.227 35.5678C237.92 35.9768 237.613 36.3858 237.272 36.8288C238.363 35.8404 239.285 35.0565 240.035 35.4314C240.24 35.5337 240.41 35.7382 240.513 35.9768C240.922 37.0674 239.421 38.4649 238.705 39.1465L238.67 39.1806C236.965 40.7485 234.713 43.0661 231.37 46.4745C231.268 46.5086 231.234 46.5427 231.165 46.5427Z" fill="black"/>
    <path d="M231.165 46.5428C231.131 46.5428 231.063 46.5428 231.029 46.5087L223.83 42.0437C223.728 41.9756 223.694 41.8392 223.728 41.737L223.967 41.1576C225.093 38.4309 225.98 36.2836 226.526 34.8862C226.696 34.409 227.105 33.3524 227.958 33.1479C228.265 33.0797 228.743 33.1138 229.05 33.4206C229.562 33.8977 229.425 34.7498 229.289 35.3974C229.05 36.6585 228.777 37.8514 228.436 39.1125C228.402 39.2489 228.265 39.317 228.129 39.283C227.992 39.2489 227.924 39.1125 227.958 38.9762C228.299 37.7492 228.572 36.5563 228.811 35.3293C228.914 34.6817 229.016 34.1022 228.709 33.8296C228.538 33.6592 228.265 33.6592 228.061 33.6932C227.447 33.8296 227.14 34.7158 226.969 35.0907C226.423 36.4881 225.536 38.6695 224.41 41.3961L224.24 41.7711L231.233 46.0997C231.37 46.1678 231.404 46.3383 231.302 46.4405C231.336 46.5087 231.233 46.5428 231.165 46.5428Z" fill="black"/>
    <path fill-rule="evenodd" clip-rule="evenodd" d="M299.599 50.2918C290.661 44.7021 280.256 38.6012 268.452 32.2616C255.864 25.5131 246.175 20.9799 233.417 20.8777H231.813C231.643 21.7979 231.199 23.5021 229.903 25.2404C229.698 25.5131 228.265 27.3877 226.014 28.4102C221.202 30.5832 215.977 27.1903 215.381 26.8035C215.36 26.7898 215.345 26.7799 215.336 26.7741C211.447 29.7053 201.963 37.7491 199.336 51.0757C197.835 58.5741 197.221 74.3208 205.75 78.0699C211.447 80.558 218.338 76.5021 220.521 75.0706C220.931 77.0815 222.261 86.7272 222.466 89.1812C230.346 86.9658 238.5 84.4436 246.892 81.6487C254.124 79.2288 261.083 76.7407 267.736 74.2185C265.518 68.288 263.267 62.3574 261.015 56.4269C259.446 52.3028 257.877 48.1786 256.273 44.0545C258.013 44.8214 259.761 45.5882 261.509 46.355L261.512 46.3561C263.26 47.1227 265.007 47.8892 266.746 48.6558C271.471 50.7348 276.204 52.8053 280.937 54.8757C285.671 56.9464 290.404 59.0171 295.13 61.0963C296.597 57.4494 298.098 53.8706 299.599 50.2918ZM238.466 39.0102C236.692 40.6462 234.304 43.0662 231.165 46.3041C229.437 45.2188 227.709 44.1513 225.967 43.0758L225.967 43.0757C225.303 42.6652 224.636 42.2535 223.967 41.8392C225.229 38.8057 226.184 36.454 226.764 34.9543C226.778 34.9218 226.793 34.8856 226.808 34.8465C226.992 34.3934 227.336 33.5433 228.027 33.3864C228.3 33.3183 228.675 33.3864 228.914 33.5909C229.323 33.9659 229.221 34.6816 229.084 35.3292C228.914 36.2495 228.641 37.5106 228.231 39.0102C228.47 38.4308 230.756 33.1138 232.12 30.5916C232.393 30.1144 232.905 29.2282 233.621 29.1942C233.963 29.1601 234.372 29.3305 234.543 29.6372C234.866 30.1537 234.516 30.9146 234.333 31.3122L234.304 31.3755C233.1 33.7805 232.401 35.3089 232.03 36.119L232.03 36.1201C231.939 36.3197 231.867 36.4757 231.813 36.5903C232.128 36.0185 232.995 34.6075 233.488 33.8053C233.582 33.6511 233.663 33.5194 233.724 33.4205C235.464 30.6257 236.214 29.8417 236.931 29.9099C237.238 29.944 237.579 30.1144 237.749 30.3871C238.125 31.0688 237.442 32.0913 236.896 32.9093C236.368 33.6932 235.864 34.4515 235.361 35.2099L235.361 35.2109C234.858 35.9689 234.355 36.727 233.826 37.5106C234.679 36.3176 235.498 35.261 236.214 34.3408C237.374 32.807 238.056 31.989 238.739 32.1253C238.977 32.1594 239.216 32.3298 239.353 32.5343C239.662 33.1215 238.99 34.017 238.2 35.0683C238.119 35.1764 238.037 35.2861 237.954 35.3974C237.272 36.2835 236.316 37.5787 235.259 39.1806C236.009 38.2945 236.692 37.6469 237.169 37.2038C238.261 36.2154 239.25 35.3292 239.864 35.636C240.103 35.7382 240.206 35.9768 240.206 36.045C240.578 36.9448 239.339 38.1553 238.651 38.8279L238.651 38.8282C238.583 38.8944 238.521 38.9553 238.466 39.0102ZM231.847 36.5903C231.745 36.7607 231.711 36.8289 231.711 36.863C231.711 36.863 231.745 36.7607 231.847 36.5903Z" fill="black"/>
    <path d="M306.456 60.7896C306.32 60.7896 306.217 60.6874 306.217 60.5851C306.149 60.1761 306.115 59.8012 306.081 59.3922C306.047 58.9491 306.047 58.472 306.081 58.0289C305.876 58.1311 305.671 58.1993 305.433 58.3015C304.375 58.6765 303.454 58.7787 303.01 58.7787C302.703 58.7787 302.396 58.7787 302.089 58.7446C301.953 58.7446 301.851 58.6083 301.851 58.472C301.851 58.3356 301.987 58.2334 302.124 58.2334C302.396 58.2674 302.703 58.2674 302.976 58.2674C303.386 58.2674 304.239 58.1652 305.228 57.8244C305.569 57.688 305.91 57.5517 306.217 57.3813C306.285 57.3472 306.388 57.3472 306.49 57.3813C306.558 57.4494 306.627 57.5176 306.592 57.6199C306.524 58.1993 306.524 58.7787 306.558 59.3581C306.592 59.733 306.627 60.108 306.695 60.4829C306.729 60.6192 306.627 60.7556 306.49 60.7896C306.456 60.7896 306.456 60.7896 306.456 60.7896Z" fill="black"/>
    <path d="M303.727 65.6976C303.59 65.6976 303.454 65.6976 303.352 65.6636C303.113 65.5954 302.942 65.4931 302.942 65.4931C302.738 65.3568 302.533 65.2205 302.396 65.0501C302.396 65.0501 302.328 64.9478 302.26 64.7774C302.26 64.7433 302.123 64.4706 302.123 64.1639C302.123 63.6185 303.113 62.9028 304.341 62.5279C304.477 62.4938 304.614 62.562 304.648 62.6983C304.682 62.8346 304.614 62.971 304.477 63.005C303.249 63.3459 302.669 63.9594 302.635 64.1298C302.635 64.3343 302.738 64.5388 302.738 64.5388C302.772 64.6411 302.84 64.7092 302.84 64.7092C302.942 64.8115 303.045 64.9137 303.215 65.016C303.215 65.016 303.352 65.0841 303.522 65.1523C304.17 65.3227 305.364 64.7433 305.774 64.4706C307.411 63.4822 308.23 62.971 308.605 62.2552C308.708 62.0507 308.81 61.2327 309.015 60.0057C309.253 58.3356 309.288 57.4494 308.878 56.5973C308.776 56.4269 308.708 56.2906 308.639 56.1883C308.469 55.9157 308.23 55.6771 307.923 55.4044C306.149 53.8366 303.966 52.9163 302.533 52.3028C302.362 52.2346 302.192 52.1665 302.021 52.0983C301.782 51.996 301.339 51.7915 300.827 51.553C299.701 51.0417 298.132 50.3259 297.689 50.1555C297.552 50.1214 297.484 49.951 297.552 49.8147C297.586 49.6784 297.757 49.6102 297.893 49.6784C298.337 49.8488 299.872 50.5304 301.066 51.0758C301.578 51.3144 302.021 51.5189 302.26 51.6211C302.396 51.6893 302.567 51.7575 302.772 51.8256C304.136 52.405 306.456 53.3935 308.298 55.0295C308.639 55.3362 308.878 55.6089 309.083 55.9157C309.151 56.0179 309.253 56.1883 309.356 56.3928C309.867 57.3812 309.833 58.3356 309.56 60.1079C309.322 61.6758 309.253 62.2552 309.117 62.4938C308.673 63.3118 307.821 63.8571 306.115 64.8796C305.842 65.016 304.682 65.6976 303.727 65.6976Z" fill="black"/>
    <path d="M305.978 63.2435C305.535 63.2435 304.989 63.1754 304.341 63.039C303.181 62.7664 302.021 62.3574 301.202 62.0165C300.997 61.9484 300.861 61.8802 300.759 61.8461L300.656 61.812C300.349 61.6757 300.042 61.5394 299.701 61.403C299.701 61.403 299.189 61.1644 298.78 60.994C296.631 59.9715 295.3 58.54 294.686 57.7902C294.584 57.6879 294.618 57.5175 294.72 57.4153C294.823 57.313 294.993 57.3471 295.096 57.4493C295.676 58.1651 296.938 59.5284 298.985 60.5169C299.394 60.7214 299.872 60.9259 299.872 60.9259C300.179 61.0622 300.52 61.1985 300.827 61.3349L300.929 61.369C301.032 61.403 301.168 61.4712 301.373 61.5394C302.157 61.8461 303.317 62.2892 304.409 62.5278C305.774 62.8345 306.695 62.8005 307.036 62.3915C307.206 62.221 307.309 61.8461 307.24 61.5735C307.138 61.2667 306.831 61.0281 306.285 60.7895C306.081 60.7214 305.91 60.6532 305.739 60.585L305.637 60.5509C305.33 60.4487 305.057 60.3464 304.75 60.2101C304.204 59.9715 303.658 59.7329 303.147 59.4603C302.874 59.3239 302.601 59.1535 302.328 59.0172C302.226 58.949 302.157 58.9149 302.055 58.8468C301.987 58.8127 301.953 58.7786 301.919 58.7445C301.68 58.6082 301.441 58.4718 301.202 58.3014C301.1 58.2333 301.066 58.0628 301.134 57.9606C301.202 57.8583 301.373 57.8243 301.475 57.8924C301.714 58.0628 301.953 58.1992 302.191 58.3355C302.226 58.3696 302.294 58.4037 302.328 58.4037C302.396 58.4378 302.499 58.5059 302.567 58.54C302.84 58.7104 303.113 58.8468 303.385 58.9831C303.897 59.2558 304.443 59.4944 304.955 59.7329C305.228 59.8352 305.535 59.9715 305.808 60.0738L305.91 60.1079C306.081 60.176 306.285 60.2442 306.49 60.3124C307.172 60.6191 307.582 60.9599 307.718 61.403C307.889 61.9143 307.684 62.4255 307.411 62.7323C307.172 63.0731 306.66 63.2435 305.978 63.2435Z" fill="black"/>
    <path d="M303.727 59.5284C303.659 59.5284 303.59 59.4943 303.522 59.4262C303.42 59.3239 303.454 59.1535 303.556 59.0512L304.853 57.9265C304.955 57.8242 305.126 57.8583 305.228 57.9606C305.33 58.0628 305.296 58.2332 305.194 58.3355L303.898 59.4602C303.863 59.5284 303.795 59.5284 303.727 59.5284Z" fill="black"/>
    <path d="M301.611 64.5729C301.373 64.5729 301.134 64.5389 300.895 64.4025C300.486 64.198 300.144 63.789 300.042 63.38C300.042 63.3459 300.042 63.3459 300.042 63.3118C299.974 62.9369 300.11 62.5961 300.417 62.2553C300.588 62.0508 300.861 61.8122 301.168 61.5736C301.27 61.5054 301.441 61.5054 301.509 61.6418C301.577 61.744 301.577 61.9144 301.441 61.9826C301.168 62.1871 300.929 62.3916 300.793 62.562C300.588 62.8006 300.486 63.0392 300.52 63.2096V63.2437C300.588 63.4823 300.793 63.789 301.1 63.9254C301.577 64.1639 302.089 63.9594 302.26 63.8913C302.396 63.8231 302.532 63.8913 302.601 64.0276C302.669 64.1639 302.601 64.3003 302.464 64.3684C302.328 64.4707 301.987 64.5729 301.611 64.5729Z" fill="black"/>
    <path d="M300.281 63.5844H300.247C300.11 63.5503 299.94 63.5163 299.837 63.4481C299.394 63.2095 299.019 62.7664 298.95 62.3233C298.95 62.2893 298.95 62.2552 298.95 62.2211C298.916 61.8121 299.155 61.369 299.667 60.9259C299.769 60.8237 299.94 60.8237 300.042 60.96C300.144 61.0622 300.144 61.2327 300.008 61.3349C299.633 61.6758 299.462 61.9825 299.462 62.2211V62.2552C299.496 62.4938 299.735 62.8346 300.042 63.005C300.144 63.0391 300.213 63.0732 300.315 63.1073C300.452 63.1413 300.554 63.2436 300.52 63.414C300.52 63.5163 300.417 63.5844 300.281 63.5844Z" fill="black"/>
    <path d="M300.588 62.6643H300.554C300.418 62.6303 300.315 62.4939 300.349 62.3576C300.383 62.2213 300.52 62.119 300.656 62.1531C300.793 62.1872 300.895 62.3235 300.861 62.4598C300.827 62.5962 300.725 62.6643 300.588 62.6643Z" fill="black"/>
    <path d="M299.189 62.4937C299.121 62.4937 299.087 62.4937 299.019 62.4255C298.678 62.1869 298.439 61.812 298.405 61.4712C298.371 61.1644 298.439 60.8576 298.678 60.5509C298.746 60.4486 298.916 60.4146 299.019 60.4827C299.121 60.5509 299.155 60.7213 299.087 60.8236C298.951 61.0281 298.882 61.1985 298.916 61.3689C298.951 61.5734 299.121 61.812 299.326 61.9824C299.428 62.0506 299.462 62.221 299.36 62.3573C299.36 62.4596 299.292 62.4937 299.189 62.4937Z" fill="black"/>
    <path d="M298.644 153.531C298.2 154.724 297.586 156.36 296.836 158.337C295.812 157.758 294.584 158.167 294.209 158.985C293.765 159.871 294.277 161.2 295.505 161.575C294.516 164.097 293.561 166.653 292.571 169.176C290.32 174.97 288.068 180.798 285.817 186.592C282.746 184.07 281.893 181.821 281.723 180.219C281.484 178.037 282.439 176.606 283.019 171.357C283.087 170.607 283.258 169.244 282.917 167.574C282.61 166.074 281.996 164.336 280.836 162.325C280.87 162.188 280.938 162.052 280.972 161.95C281.45 160.655 281.962 159.359 282.473 158.03C283.463 156.94 284.486 155.815 285.476 154.724C286.533 153.565 287.591 152.406 288.648 151.248C288.75 151.145 288.853 151.009 288.955 150.907C292.162 151.793 295.403 152.679 298.644 153.531Z" fill="black"/>
    <path d="M254.636 184.138C253.476 184.581 251.838 185.229 249.894 185.945C249.655 184.786 248.529 184.138 247.642 184.377C246.721 184.649 246.039 185.911 246.585 187.069C244.06 188.024 241.536 188.944 239.011 189.898C233.212 192.046 227.447 194.193 221.647 196.34C221.477 192.318 222.568 190.205 223.66 189.012C225.127 187.376 226.798 187.172 231.063 184.104C231.677 183.661 232.768 182.877 233.792 181.514C233.962 181.275 234.576 180.491 235.122 179.332C235.736 178.037 236.043 176.844 236.214 175.958C240.751 175.447 245.323 174.97 249.86 174.458C251.429 177.696 253.032 180.934 254.636 184.138Z" fill="black"/>
    <path d="M226.014 15.0835C225.877 15.0835 225.775 14.9812 225.775 14.879C225.741 14.7426 225.843 14.6063 225.98 14.5722C227.378 14.2996 228.402 13.0385 228.368 11.607C228.368 11.232 228.265 10.8912 228.129 10.5844C228.095 10.5163 228.095 10.4822 228.061 10.4481C227.89 10.1073 227.685 9.83461 227.412 9.59602C226.833 9.08477 226.116 8.8121 225.331 8.84619C224.308 8.88027 223.353 9.45969 222.875 10.3799C222.705 10.6867 222.602 11.0275 222.568 11.3684C222.534 11.5047 222.432 11.607 222.295 11.5729C222.159 11.5388 222.056 11.4365 222.091 11.3002C222.159 10.8912 222.261 10.5163 222.466 10.1414C223.046 9.08477 224.137 8.4031 225.366 8.36902C226.253 8.33493 227.14 8.64168 227.788 9.25519C228.095 9.52786 228.368 9.86869 228.538 10.2436C228.572 10.3118 228.606 10.3459 228.606 10.414C228.777 10.789 228.879 11.198 228.879 11.641C228.948 13.3111 227.754 14.8108 226.082 15.1176C226.048 15.0835 226.014 15.0835 226.014 15.0835Z" fill="black"/>
    <path d="M207.183 9.01668C208.07 8.70992 209.502 8.09642 210.935 6.83533C212.197 5.71057 212.948 4.51764 213.323 3.73372C213.835 4.61989 215.097 6.52857 217.485 7.926C219.839 9.32343 222.091 9.49385 223.114 9.52793C223.251 9.35751 223.489 9.15301 223.796 8.98259C223.83 8.94851 224.24 8.70992 224.752 8.60767C225.809 8.36909 226.798 8.81217 227.037 8.94851C227.003 8.74401 226.935 8.47134 226.867 8.1305C226.696 7.44883 225.536 3.05205 221.442 1.00703C219.191 -0.117726 217.11 -0.0154749 216.394 0.0186087C215.643 0.0526922 211.686 0.291277 209.127 3.59739C207.456 5.71057 207.217 7.99417 207.183 9.01668Z" fill="black"/>
    <path d="M215.097 27.3878C215.029 27.3878 214.961 27.3537 214.892 27.2855C214.79 27.1833 214.824 27.0129 214.927 26.9106C216.121 25.9222 217.349 24.9678 218.543 23.9794L218.372 23.4C218.304 23.0933 218.202 22.7865 218.133 22.5138C217.929 22.5479 217.724 22.582 217.519 22.582C216.871 22.6502 216.257 22.6161 215.643 22.5138C210.969 21.764 207.592 16.5833 207.012 11.982C206.876 10.9595 206.876 9.93698 207.012 8.91448C207.046 8.77814 207.148 8.67589 207.285 8.70998C207.421 8.74406 207.524 8.84631 207.49 8.98264C207.353 9.97107 207.353 10.9595 207.49 11.9479C208.035 16.3447 211.242 21.3209 215.677 22.0367C216.257 22.1389 216.837 22.1389 217.417 22.1048C217.69 22.0707 217.963 22.0367 218.236 22.0026C218.372 21.9685 218.509 22.0707 218.543 22.2071C218.645 22.582 218.713 22.9569 218.816 23.3318L219.02 24.0476C219.054 24.1498 219.02 24.2521 218.952 24.3203C217.69 25.3428 216.462 26.3312 215.199 27.3537C215.199 27.3537 215.165 27.3878 215.097 27.3878Z" fill="black"/>
    <path d="M232.53 21.2867C232.495 21.2867 232.495 21.2867 232.53 21.2867L228.913 21.1163C228.811 21.1163 228.709 21.0481 228.675 20.9459L226.594 14.6404C226.56 14.5041 226.628 14.3677 226.764 14.3336C226.901 14.2996 227.037 14.3677 227.071 14.5041L229.084 20.6391L232.495 20.8095C232.632 20.8095 232.734 20.9459 232.734 21.0822C232.768 21.1844 232.666 21.2867 232.53 21.2867Z" fill="black"/>
    <path d="M223.183 19.0713C223.148 19.1735 221.784 21.798 218.748 23.7067C218.714 23.6044 218.679 23.5022 218.645 23.3658C218.543 22.9227 218.406 22.5137 218.27 22.1047C218.543 22.0366 218.816 21.9684 219.123 21.8661C220.999 21.1845 222.296 20.0256 223.183 19.0713Z" fill="black"/>
    <path d="M231.949 106.564C231.915 106.564 231.881 106.564 231.847 106.53C231.71 106.496 231.642 106.325 231.71 106.189L231.915 105.678C232.631 103.769 233.28 102.133 234.474 99.2359C236.009 95.5208 237.51 91.942 239.113 88.261C239.181 88.1246 239.318 88.0565 239.454 88.1246C239.591 88.1928 239.659 88.3291 239.591 88.4655C237.987 92.1124 236.486 95.7253 234.951 99.4404C233.757 102.337 233.143 103.974 232.393 105.848L232.188 106.359C232.154 106.496 232.052 106.564 231.949 106.564Z" fill="black"/>
    <path d="M233.314 176.538C233.178 176.538 233.075 176.435 233.075 176.333C233.007 175.856 225.979 128.207 228.299 116.789C228.367 116.516 228.402 116.244 228.47 115.971C228.606 115.358 228.777 114.71 228.981 113.994C229.561 111.983 230.346 109.734 231.677 106.291C229.527 101.52 227.719 96.5434 226.355 91.499C226.184 90.8174 225.979 90.1357 225.809 89.4199C225.706 89.0109 225.604 88.636 225.536 88.227C225.502 88.0907 225.604 87.9543 225.741 87.9202C225.877 87.8862 226.014 87.9884 226.048 88.1247C226.15 88.4997 226.252 88.9087 226.321 89.2836C226.491 89.9653 226.662 90.681 226.866 91.3286C228.265 96.4071 230.073 101.383 232.222 106.155C232.256 106.223 232.256 106.291 232.222 106.359C230.858 109.87 230.073 112.12 229.493 114.131C229.289 114.812 229.118 115.46 229.016 116.073C228.947 116.346 228.879 116.619 228.845 116.891C226.764 127.082 232.529 169.346 233.587 175.992L238.875 175.413C242.525 175.004 246.209 174.629 249.86 174.22L250.405 174.152L248.222 136.012C248.12 134.444 248.051 132.876 247.949 131.309L247.403 121.595C247.403 121.561 247.403 121.493 247.437 121.458C248.086 120.334 248.734 119.209 249.382 118.05C249.382 118.05 249.382 118.05 249.382 118.016C249.484 117.88 249.552 117.709 249.621 117.573C249.621 117.539 249.655 117.539 249.655 117.539C251.292 114.54 252.862 111.438 254.294 108.37C255.045 106.768 255.761 105.132 256.478 103.428C259.412 96.5093 261.902 90.5106 262.891 83.0122C262.994 82.2624 263.062 81.4784 263.13 80.7286C263.198 80.0469 263.232 79.3653 263.267 78.6495C263.301 77.6952 263.335 76.7067 263.335 75.7524C263.335 75.6161 263.437 75.4797 263.574 75.4797C263.71 75.4797 263.812 75.582 263.846 75.7183C263.846 76.6727 263.846 77.6611 263.778 78.6495C263.744 79.3653 263.71 80.081 263.642 80.7627C263.574 81.5466 263.505 82.3305 263.403 83.0804C262.414 90.6128 259.855 96.6456 256.921 103.599C256.205 105.337 255.488 106.939 254.738 108.575C253.305 111.677 251.736 114.778 250.064 117.812C250.064 117.812 250.064 117.846 250.03 117.846C249.962 117.982 249.894 118.118 249.791 118.289C249.791 118.289 249.791 118.289 249.791 118.323C249.143 119.482 248.495 120.606 247.847 121.697L248.393 131.343C248.495 132.911 248.563 134.478 248.666 136.046L250.849 174.424C250.849 174.561 250.747 174.663 250.61 174.697L249.825 174.799C246.175 175.208 242.491 175.583 238.841 175.992L233.314 176.538C233.348 176.538 233.348 176.538 233.314 176.538Z" fill="black"/>
    <path d="M278.584 162.495C278.516 162.495 278.447 162.461 278.413 162.427C269.885 155.031 261.765 147.021 254.26 138.637C252.009 136.114 249.894 133.763 247.949 131.479C247.847 131.377 247.881 131.206 247.983 131.104C248.085 131.002 248.256 131.036 248.358 131.138C250.303 133.422 252.418 135.774 254.67 138.296C262.107 146.612 270.158 154.554 278.584 161.882L279.539 160.825C280.46 159.837 281.347 158.848 282.268 157.826C283.257 156.735 284.281 155.61 285.27 154.52C286.225 153.497 287.147 152.44 288.102 151.418L288.75 150.702C288.818 150.634 288.886 150.532 288.955 150.464L285.1 145.794C285.1 145.794 285.1 145.794 285.1 145.76C284.827 145.419 284.52 145.078 284.247 144.738L279.334 138.807C271.01 128.718 262.652 118.664 254.328 108.575C254.226 108.473 254.26 108.302 254.363 108.2C254.465 108.098 254.635 108.132 254.738 108.234C263.062 118.323 271.42 128.377 279.744 138.466L284.656 144.397C284.929 144.738 285.236 145.078 285.509 145.419C285.509 145.419 285.509 145.419 285.509 145.453L289.5 150.259C289.569 150.361 289.569 150.498 289.5 150.6C289.364 150.736 289.262 150.873 289.125 151.009L288.477 151.725C287.522 152.747 286.601 153.804 285.646 154.826C284.656 155.917 283.633 157.042 282.643 158.132C281.722 159.121 280.835 160.109 279.914 161.132L278.788 162.359C278.72 162.495 278.652 162.495 278.584 162.495Z" fill="black"/>
    <path d="M280.938 162.188C280.869 162.188 280.835 162.188 280.801 162.154L279.573 161.234C279.471 161.166 279.437 160.995 279.505 160.893C279.573 160.791 279.744 160.757 279.846 160.825L281.074 161.745C281.176 161.813 281.21 161.984 281.142 162.086C281.108 162.154 281.006 162.188 280.938 162.188Z" fill="black"/>
    <path d="M247.608 81.376C247.676 81.5123 247.744 81.6486 247.744 81.8191C247.813 82.3985 247.403 82.9438 246.823 83.0461C246.243 83.1142 245.698 82.7052 245.595 82.1258V82.0917L247.608 81.376Z" fill="black"/>
    <path d="M255.215 81.9213C255.818 81.9213 256.307 81.433 256.307 80.8307C256.307 80.2283 255.818 79.74 255.215 79.74C254.612 79.74 254.124 80.2283 254.124 80.8307C254.124 81.433 254.612 81.9213 255.215 81.9213Z" fill="black"/>
    <path d="M263.539 78.6494C263.505 79.3993 263.471 80.0809 263.403 80.7285C263.027 80.5922 262.72 80.2513 262.686 79.8423C262.584 79.297 262.993 78.7517 263.539 78.6494Z" fill="black"/>
    <path d="M226.593 91.4308C226.389 90.715 226.218 90.0334 226.047 89.3858C226.627 89.3517 227.105 89.7607 227.207 90.3401C227.275 90.7832 227.003 91.2263 226.593 91.4308Z" fill="black"/>
    <path d="M234.644 90.4423C235.247 90.4423 235.736 89.954 235.736 89.3517C235.736 88.7493 235.247 88.261 234.644 88.261C234.041 88.261 233.553 88.7493 233.553 89.3517C233.553 89.954 234.041 90.4423 234.644 90.4423Z" fill="black"/>
    <path d="M243.173 89.3176C243.776 89.3176 244.264 88.8293 244.264 88.2269C244.264 87.6245 243.776 87.1362 243.173 87.1362C242.57 87.1362 242.081 87.6245 242.081 88.2269C242.081 88.8293 242.57 89.3176 243.173 89.3176Z" fill="black"/>
    <path d="M251.702 88.1928C252.304 88.1928 252.793 87.7045 252.793 87.1021C252.793 86.4998 252.304 86.0115 251.702 86.0115C251.099 86.0115 250.61 86.4998 250.61 87.1021C250.61 87.7045 251.099 88.1928 251.702 88.1928Z" fill="black"/>
    <path d="M260.23 87.0681C260.833 87.0681 261.322 86.5798 261.322 85.9774C261.322 85.375 260.833 84.8867 260.23 84.8867C259.627 84.8867 259.138 85.375 259.138 85.9774C259.138 86.5798 259.627 87.0681 260.23 87.0681Z" fill="black"/>
    <path d="M231.676 97.5659C232.279 97.5659 232.768 97.0776 232.768 96.4752C232.768 95.8728 232.279 95.3845 231.676 95.3845C231.073 95.3845 230.584 95.8728 230.584 96.4752C230.584 97.0776 231.073 97.5659 231.676 97.5659Z" fill="black"/>
    <path d="M240.205 96.4411C240.808 96.4411 241.297 95.9528 241.297 95.3504C241.297 94.7481 240.808 94.2598 240.205 94.2598C239.602 94.2598 239.113 94.7481 239.113 95.3504C239.113 95.9528 239.602 96.4411 240.205 96.4411Z" fill="black"/>
    <path d="M248.733 95.3503C249.336 95.3503 249.825 94.862 249.825 94.2596C249.825 93.6573 249.336 93.1689 248.733 93.1689C248.13 93.1689 247.642 93.6573 247.642 94.2596C247.642 94.862 248.13 95.3503 248.733 95.3503Z" fill="black"/>
    <path d="M257.262 94.2258C257.865 94.2258 258.354 93.7375 258.354 93.1351C258.354 92.5327 257.865 92.0444 257.262 92.0444C256.659 92.0444 256.17 92.5327 256.17 93.1351C256.17 93.7375 256.659 94.2258 257.262 94.2258Z" fill="black"/>
    <path d="M236.691 102.747C237.294 102.747 237.782 102.258 237.782 101.656C237.782 101.053 237.294 100.565 236.691 100.565C236.088 100.565 235.599 101.053 235.599 101.656C235.599 102.258 236.088 102.747 236.691 102.747Z" fill="black"/>
    <path d="M245.22 101.622C245.823 101.622 246.311 101.133 246.311 100.531C246.311 99.9287 245.823 99.4404 245.22 99.4404C244.617 99.4404 244.128 99.9287 244.128 100.531C244.128 101.133 244.617 101.622 245.22 101.622Z" fill="black"/>
    <path d="M253.748 100.497C254.351 100.497 254.84 100.009 254.84 99.4063C254.84 98.804 254.351 98.3157 253.748 98.3157C253.145 98.3157 252.657 98.804 252.657 99.4063C252.657 100.009 253.145 100.497 253.748 100.497Z" fill="black"/>
    <path d="M232.87 109.972C233.473 109.972 233.962 109.484 233.962 108.882C233.962 108.279 233.473 107.791 232.87 107.791C232.267 107.791 231.778 108.279 231.778 108.882C231.778 109.484 232.267 109.972 232.87 109.972Z" fill="black"/>
    <path d="M241.399 108.848C242.002 108.848 242.49 108.359 242.49 107.757C242.49 107.155 242.002 106.666 241.399 106.666C240.796 106.666 240.307 107.155 240.307 107.757C240.307 108.359 240.796 108.848 241.399 108.848Z" fill="black"/>
    <path d="M249.928 107.757C250.531 107.757 251.019 107.268 251.019 106.666C251.019 106.064 250.531 105.575 249.928 105.575C249.325 105.575 248.836 106.064 248.836 106.666C248.836 107.268 249.325 107.757 249.928 107.757Z" fill="black"/>
    <path d="M229.527 116.244C229.254 116.278 228.981 116.209 228.742 116.039C228.879 115.391 229.049 114.744 229.254 114.096C229.834 114.028 230.38 114.437 230.482 115.017C230.516 115.63 230.107 116.175 229.527 116.244Z" fill="black"/>
    <path d="M237.885 115.153C238.488 115.153 238.977 114.665 238.977 114.062C238.977 113.46 238.488 112.972 237.885 112.972C237.282 112.972 236.793 113.46 236.793 114.062C236.793 114.665 237.282 115.153 237.885 115.153Z" fill="black"/>
    <path d="M246.413 114.028C247.016 114.028 247.505 113.54 247.505 112.938C247.505 112.335 247.016 111.847 246.413 111.847C245.811 111.847 245.322 112.335 245.322 112.938C245.322 113.54 245.811 114.028 246.413 114.028Z" fill="black"/>
    <path d="M254.942 112.904C255.545 112.904 256.034 112.415 256.034 111.813C256.034 111.21 255.545 110.722 254.942 110.722C254.339 110.722 253.851 111.21 253.851 111.813C253.851 112.415 254.339 112.904 254.942 112.904Z" fill="black"/>
    <path d="M233.587 121.765C234.19 121.765 234.678 121.277 234.678 120.675C234.678 120.072 234.19 119.584 233.587 119.584C232.984 119.584 232.495 120.072 232.495 120.675C232.495 121.277 232.984 121.765 233.587 121.765Z" fill="black"/>
    <path d="M242.081 120.64C242.684 120.64 243.173 120.152 243.173 119.55C243.173 118.947 242.684 118.459 242.081 118.459C241.479 118.459 240.99 118.947 240.99 119.55C240.99 120.152 241.479 120.64 242.081 120.64Z" fill="black"/>
    <path d="M250.61 119.516C251.213 119.516 251.701 119.027 251.701 118.425C251.701 117.823 251.213 117.334 250.61 117.334C250.007 117.334 249.518 117.823 249.518 118.425C249.518 119.027 250.007 119.516 250.61 119.516Z" fill="black"/>
    <path d="M259.139 118.425C259.741 118.425 260.23 117.937 260.23 117.334C260.23 116.732 259.741 116.244 259.139 116.244C258.536 116.244 258.047 116.732 258.047 117.334C258.047 117.937 258.536 118.425 259.139 118.425Z" fill="black"/>
    <path d="M230.073 128.037C230.676 128.037 231.164 127.548 231.164 126.946C231.164 126.344 230.676 125.855 230.073 125.855C229.47 125.855 228.981 126.344 228.981 126.946C228.981 127.548 229.47 128.037 230.073 128.037Z" fill="black"/>
    <path d="M238.601 126.912C239.204 126.912 239.693 126.424 239.693 125.821C239.693 125.219 239.204 124.73 238.601 124.73C237.999 124.73 237.51 125.219 237.51 125.821C237.51 126.424 237.999 126.912 238.601 126.912Z" fill="black"/>
    <path d="M247.096 125.821C247.699 125.821 248.188 125.333 248.188 124.73C248.188 124.128 247.699 123.64 247.096 123.64C246.493 123.64 246.004 124.128 246.004 124.73C246.004 125.333 246.493 125.821 247.096 125.821Z" fill="black"/>
    <path d="M255.624 124.696C256.227 124.696 256.716 124.208 256.716 123.606C256.716 123.003 256.227 122.515 255.624 122.515C255.021 122.515 254.533 123.003 254.533 123.606C254.533 124.208 255.021 124.696 255.624 124.696Z" fill="black"/>
    <path d="M264.153 123.571C264.756 123.571 265.245 123.083 265.245 122.481C265.245 121.878 264.756 121.39 264.153 121.39C263.55 121.39 263.062 121.878 263.062 122.481C263.062 123.083 263.55 123.571 264.153 123.571Z" fill="black"/>
    <path d="M234.781 134.172C235.384 134.172 235.872 133.683 235.872 133.081C235.872 132.479 235.384 131.99 234.781 131.99C234.178 131.99 233.689 132.479 233.689 133.081C233.689 133.683 234.178 134.172 234.781 134.172Z" fill="black"/>
    <path d="M243.309 133.047C243.912 133.047 244.401 132.559 244.401 131.956C244.401 131.354 243.912 130.865 243.309 130.865C242.707 130.865 242.218 131.354 242.218 131.956C242.218 132.559 242.707 133.047 243.309 133.047Z" fill="black"/>
    <path d="M251.838 131.922C252.441 131.922 252.929 131.434 252.929 130.831C252.929 130.229 252.441 129.741 251.838 129.741C251.235 129.741 250.746 130.229 250.746 130.831C250.746 131.434 251.235 131.922 251.838 131.922Z" fill="black"/>
    <path d="M260.367 130.831C260.969 130.831 261.458 130.343 261.458 129.741C261.458 129.138 260.969 128.65 260.367 128.65C259.764 128.65 259.275 129.138 259.275 129.741C259.275 130.343 259.764 130.831 260.367 130.831Z" fill="black"/>
    <path d="M268.895 129.707C269.498 129.707 269.987 129.218 269.987 128.616C269.987 128.014 269.498 127.525 268.895 127.525C268.292 127.525 267.804 128.014 267.804 128.616C267.804 129.218 268.292 129.707 268.895 129.707Z" fill="black"/>
    <path d="M231.267 140.443C231.87 140.443 232.359 139.955 232.359 139.352C232.359 138.75 231.87 138.262 231.267 138.262C230.664 138.262 230.175 138.75 230.175 139.352C230.175 139.955 230.664 140.443 231.267 140.443Z" fill="black"/>
    <path d="M239.795 139.318C240.398 139.318 240.887 138.83 240.887 138.228C240.887 137.625 240.398 137.137 239.795 137.137C239.192 137.137 238.704 137.625 238.704 138.228C238.704 138.83 239.192 139.318 239.795 139.318Z" fill="black"/>
    <path d="M248.563 138.193C248.529 138.193 248.495 138.193 248.461 138.193C247.881 138.262 247.335 137.853 247.233 137.273C247.164 136.694 247.574 136.148 248.154 136.046C248.222 136.046 248.324 136.046 248.392 136.046C248.461 136.762 248.529 137.478 248.563 138.193Z" fill="black"/>
    <path d="M256.853 137.103C257.456 137.103 257.945 136.614 257.945 136.012C257.945 135.41 257.456 134.921 256.853 134.921C256.25 134.921 255.761 135.41 255.761 136.012C255.761 136.614 256.25 137.103 256.853 137.103Z" fill="black"/>
    <path d="M265.381 135.978C265.984 135.978 266.473 135.49 266.473 134.887C266.473 134.285 265.984 133.797 265.381 133.797C264.778 133.797 264.29 134.285 264.29 134.887C264.29 135.49 264.778 135.978 265.381 135.978Z" fill="black"/>
    <path d="M273.91 134.853C274.513 134.853 275.002 134.365 275.002 133.763C275.002 133.16 274.513 132.672 273.91 132.672C273.307 132.672 272.818 133.16 272.818 133.763C272.818 134.365 273.307 134.853 273.91 134.853Z" fill="black"/>
    <path d="M236.828 146.476C237.43 146.476 237.919 145.987 237.919 145.385C237.919 144.783 237.43 144.294 236.828 144.294C236.225 144.294 235.736 144.783 235.736 145.385C235.736 145.987 236.225 146.476 236.828 146.476Z" fill="black"/>
    <path d="M245.356 145.351C245.959 145.351 246.448 144.863 246.448 144.26C246.448 143.658 245.959 143.17 245.356 143.17C244.753 143.17 244.265 143.658 244.265 144.26C244.265 144.863 244.753 145.351 245.356 145.351Z" fill="black"/>
    <path d="M262.413 143.102C263.016 143.102 263.505 142.613 263.505 142.011C263.505 141.408 263.016 140.92 262.413 140.92C261.811 140.92 261.322 141.408 261.322 142.011C261.322 142.613 261.811 143.102 262.413 143.102Z" fill="black"/>
    <path d="M270.942 142.011C271.545 142.011 272.033 141.523 272.033 140.92C272.033 140.318 271.545 139.83 270.942 139.83C270.339 139.83 269.85 140.318 269.85 140.92C269.85 141.523 270.339 142.011 270.942 142.011Z" fill="black"/>
    <path d="M280.528 139.932C280.46 140.409 280.085 140.818 279.607 140.886C279.027 140.954 278.481 140.545 278.379 139.966C278.311 139.386 278.72 138.841 279.3 138.739C279.368 138.739 279.437 138.739 279.505 138.739C279.846 139.114 280.187 139.523 280.528 139.932Z" fill="black"/>
    <path d="M233.314 152.747C233.917 152.747 234.405 152.259 234.405 151.656C234.405 151.054 233.917 150.566 233.314 150.566C232.711 150.566 232.222 151.054 232.222 151.656C232.222 152.259 232.711 152.747 233.314 152.747Z" fill="black"/>
    <path d="M241.843 151.622C242.446 151.622 242.934 151.134 242.934 150.532C242.934 149.929 242.446 149.441 241.843 149.441C241.24 149.441 240.751 149.929 240.751 150.532C240.751 151.134 241.24 151.622 241.843 151.622Z" fill="black"/>
    <path d="M267.428 148.282C268.031 148.282 268.52 147.794 268.52 147.192C268.52 146.589 268.031 146.101 267.428 146.101C266.825 146.101 266.336 146.589 266.336 147.192C266.336 147.794 266.825 148.282 267.428 148.282Z" fill="black"/>
    <path d="M275.957 147.157C276.56 147.157 277.049 146.669 277.049 146.067C277.049 145.464 276.56 144.976 275.957 144.976C275.354 144.976 274.865 145.464 274.865 146.067C274.865 146.669 275.354 147.157 275.957 147.157Z" fill="black"/>
    <path d="M285.27 145.658C285.1 145.862 284.861 145.965 284.588 146.033C284.008 146.101 283.462 145.692 283.36 145.112C283.292 144.669 283.53 144.26 283.872 144.056C284.383 144.567 284.827 145.112 285.27 145.658Z" fill="black"/>
    <path d="M238.021 158.882C238.624 158.882 239.113 158.394 239.113 157.792C239.113 157.189 238.624 156.701 238.021 156.701C237.418 156.701 236.93 157.189 236.93 157.792C236.93 158.394 237.418 158.882 238.021 158.882Z" fill="black"/>
    <path d="M246.55 157.758C247.153 157.758 247.642 157.269 247.642 156.667C247.642 156.064 247.153 155.576 246.55 155.576C245.947 155.576 245.458 156.064 245.458 156.667C245.458 157.269 245.947 157.758 246.55 157.758Z" fill="black"/>
    <path d="M272.136 154.417C272.739 154.417 273.228 153.929 273.228 153.327C273.228 152.724 272.739 152.236 272.136 152.236C271.533 152.236 271.044 152.724 271.044 153.327C271.044 153.929 271.533 154.417 272.136 154.417Z" fill="black"/>
    <path d="M280.664 153.292C281.267 153.292 281.756 152.804 281.756 152.202C281.756 151.599 281.267 151.111 280.664 151.111C280.062 151.111 279.573 151.599 279.573 152.202C279.573 152.804 280.062 153.292 280.664 153.292Z" fill="black"/>
    <path d="M289.296 150.498C289.159 150.634 289.057 150.77 288.92 150.907C288.818 151.009 288.716 151.145 288.613 151.248C288.511 151.384 288.374 151.486 288.272 151.622C288.204 151.486 288.136 151.35 288.136 151.213C288.067 150.668 288.409 150.157 288.92 150.021C289.023 150.191 289.159 150.327 289.296 150.498Z" fill="black"/>
    <path d="M234.508 165.154C235.111 165.154 235.599 164.665 235.599 164.063C235.599 163.46 235.111 162.972 234.508 162.972C233.905 162.972 233.416 163.46 233.416 164.063C233.416 164.665 233.905 165.154 234.508 165.154Z" fill="black"/>
    <path d="M243.036 164.029C243.639 164.029 244.128 163.54 244.128 162.938C244.128 162.336 243.639 161.847 243.036 161.847C242.434 161.847 241.945 162.336 241.945 162.938C241.945 163.54 242.434 164.029 243.036 164.029Z" fill="black"/>
    <path d="M277.151 159.564C277.754 159.564 278.242 159.076 278.242 158.473C278.242 157.871 277.754 157.383 277.151 157.383C276.548 157.383 276.059 157.871 276.059 158.473C276.059 159.076 276.548 159.564 277.151 159.564Z" fill="black"/>
    <path d="M239.42 171.323C240.023 171.323 240.512 170.834 240.512 170.232C240.512 169.63 240.023 169.141 239.42 169.141C238.817 169.141 238.329 169.63 238.329 170.232C238.329 170.834 238.817 171.323 239.42 171.323Z" fill="black"/>
    <path d="M247.949 170.198C248.552 170.198 249.041 169.71 249.041 169.107C249.041 168.505 248.552 168.017 247.949 168.017C247.346 168.017 246.857 168.505 246.857 169.107C246.857 169.71 247.346 170.198 247.949 170.198Z" fill="black"/>
</svg>
