<svg width="121" height="117" viewBox="0 0 121 117" fill="none" xmlns="http://www.w3.org/2000/svg">
    <path d="M70.5535 56.4712C62.3243 51.205 53.6867 46.3543 45.1803 41.5399C41.8916 39.6847 36.2018 36.8509 32.2981 37.7007C26.7368 38.9145 30.9869 46.6325 32.5425 49.5632C37.2691 58.4291 44.2138 65.4614 51.2076 72.454C54.3963 75.6343 57.9383 78.5777 61.5423 81.2758C63.9338 83.0674 66.4583 84.7067 68.8714 86.4645C70.4828 87.6383 73.4939 90.0757 75.5339 90.1345C74.1268 86.6934 70.2849 83.7362 69.7154 79.9881C69.1148 76.0658 73.5225 74.5769 76.0259 77.3067C78.9652 80.5055 81.0906 85.273 83.3845 88.9611C84.9145 91.4123 89.8477 96.5045 87.8244 99.5549C86.0005 102.294 81.0058 102.066 78.1381 102.688C73.074 103.793 67.6668 105.675 62.5208 106.11C59.5213 106.363 56.1896 104.575 57.8891 101.27C59.7197 97.7042 68.2354 97.6806 71.7089 96.8166C70.2167 95.1968 67.0473 94.0828 65.1353 92.8592C62.9116 91.4362 60.8871 89.832 58.7103 88.3915C54.3987 85.5374 49.8766 81.6581 46.2381 78.0119C37.6523 69.4069 27.8101 59.63 23.6541 47.7575C21.9309 42.8437 21.2585 36.7147 25.6773 33.0008C30.3335 29.0827 36.8618 30.3279 42.05 32.2946C55.1724 37.261 66.2507 46.5349 78.7557 52.7446C81.4046 54.0598 84.4968 55.6468 87.5105 55.8539C90.7158 56.0768 90.425 54.0267 89.9791 51.4025C89.0194 45.7782 85.77 41.7281 81.7007 38.0317C74.0731 31.1203 65.2115 25.7107 57.5563 18.8054C53.7554 15.3758 49.1919 12.0993 44.9342 9.16095C43.2621 8.00779 41.0566 7.26129 41.6134 4.55454C42.2261 1.5749 45.0067 1.77525 47.2104 2.58002C50.0455 3.62263 52.94 6.35347 55.3568 8.16121C57.7115 9.91741 59.9278 11.8343 62.2387 13.6218C67.0489 17.3293 72.1142 20.8794 76.9096 24.6842C85.7739 31.7222 95.9438 39.002 97.2597 51.194C99.2301 69.3017 79.6082 62.2656 70.5535 56.4712Z" fill="#EABE63"/>
</svg>
