<svg width="97" height="101" viewBox="0 0 97 101" fill="none" xmlns="http://www.w3.org/2000/svg">
    <path d="M19.7574 69.8335C21.6295 67.7804 28.3546 61.6956 28.396 67.226C28.427 71.4123 21.3463 74.4651 19.3733 78.0174C21.6918 77.8472 24.4756 76.664 26.8419 76.037C30.0959 75.1799 33.3142 74.1106 36.5488 73.0561C37.8665 72.6279 39.1785 72.2714 40.4844 71.8452C42.0653 71.3361 43.1191 71.5143 42.2981 70.1624C41.9468 69.5855 40.6819 69.125 40.0781 68.7156C38.7717 67.8195 37.595 66.7593 36.3323 65.8261C34.5895 64.5449 31.9602 63.7001 31.203 61.3926C30.3646 58.8571 31.9669 56.3784 34.4789 54.7934C37.1387 53.1121 40.3148 52.4279 43.1202 51.6365C44.2365 51.3197 49.9551 50.4385 50.6745 49.3107C50.8482 49.0328 44.0723 43.9449 43.6312 43.6196C41.6015 42.1281 39.4922 39.2808 42.279 36.5089C45.0593 33.7441 50.7325 33.4375 53.9934 32.7151C56.1082 32.2436 58.2275 31.7891 60.3387 31.2888C61.921 30.9093 64.9909 30.7571 66.4073 29.5974C66.1263 29.8289 58.5582 20.2199 58.1818 19.2222C55.4738 12.2099 66.2191 11.2282 70.2841 10.5204C72.3549 10.1628 85.6169 6.35557 82.7129 12.3828C81.4559 14.9968 77.236 14.8576 75.1269 15.2572C71.809 15.8892 68.4865 16.5042 65.1632 17.1312C66.774 19.6396 69.0143 21.5669 70.7511 23.9591C72.1879 25.9367 75.3631 28.293 73.5907 31.669C71.7149 35.2458 65.6474 35.9629 62.6012 36.7014C60.2214 37.2777 57.8536 37.7751 55.4802 38.3443C54.0463 38.6923 51.3803 38.8279 50.1024 39.6389C50.6811 40.8083 52.0308 41.2305 52.9957 41.9436C54.2865 42.8896 55.3179 44.1638 56.5576 45.1659C58.1312 46.4468 60.6046 47.7141 59.1134 50.7817C57.6633 53.7714 53.1242 54.7914 50.5408 55.5798C48.5075 56.2025 46.4682 56.6786 44.4332 57.2485C43.3115 57.5602 39.662 58.031 38.8938 59.0374C38.6198 59.4035 45.7097 64.136 46.277 64.5635C48.744 66.4281 53.2727 70.0444 49.2902 74.1385C46.0824 77.4376 38.6128 78.5444 34.7162 79.778C29.8799 81.3098 24.8785 83.0117 20.0341 83.9073C21.6352 85.7266 23.7262 87.1071 25.7636 88.426C27.3072 89.4229 29.5777 90.3768 29.487 92.7067C29.4142 94.514 27.7068 96.2553 25.8481 96.2928C23.8192 96.3421 21.7483 94.043 20.3048 93.0348C18.3911 91.7004 16.4568 90.2574 14.462 88.9902C12.9111 88.0123 10.2429 86.7728 9.35536 85.1549C6.7135 80.3332 16.4652 73.094 19.7574 69.8335C20.3197 69.2169 18.7819 70.8048 19.7574 69.8335Z" fill="#EABE63"/>
</svg>
