<svg width="323" height="244" viewBox="0 0 323 244" fill="none" xmlns="http://www.w3.org/2000/svg">
    <path d="M251.435 11.9048C248.446 11.9048 245.309 9.61967 242.098 5.12308C242.024 5.0125 242.024 4.82822 242.172 4.7545C242.282 4.68079 242.467 4.68079 242.541 4.82822C245.751 9.32481 248.815 11.5363 251.693 11.352C254.018 11.2414 255.642 9.61967 257.377 7.96109C259.111 6.26565 260.92 4.4965 263.54 4.34907C266.456 4.20164 269.482 6.15508 272.508 10.0988C272.619 10.2094 272.582 10.3937 272.471 10.5042C272.361 10.6148 272.176 10.578 272.066 10.4674C269.15 6.67108 266.271 4.79136 263.577 4.93879C261.178 5.04936 259.517 6.67108 257.783 8.36652C256.085 10.062 254.314 11.7943 251.767 11.9417C251.656 11.868 251.546 11.9048 251.435 11.9048Z" fill="black"/>
    <path d="M284.54 220.997C279.299 220.997 273.727 216.942 268.043 208.981C267.969 208.871 267.969 208.686 268.117 208.613C268.228 208.539 268.412 208.539 268.486 208.686C274.28 216.795 279.816 220.739 285.057 220.481C289.301 220.259 292.253 217.385 295.317 214.325C298.38 211.303 301.591 208.17 306.167 207.949C311.297 207.691 316.611 211.119 322 218.159C322.11 218.269 322.074 218.453 321.963 218.564C321.852 218.675 321.668 218.638 321.557 218.527C316.279 211.672 311.112 208.281 306.204 208.539C301.812 208.76 298.712 211.819 295.686 214.768C292.659 217.753 289.522 220.812 285.057 221.07C284.872 220.997 284.725 220.997 284.54 220.997Z" fill="black"/>
    <path d="M16.9711 48.0618C12.8008 48.0618 8.40893 44.8552 3.90639 38.5526C3.83258 38.442 3.83258 38.2577 3.98021 38.184C4.09092 38.1103 4.27545 38.1103 4.34927 38.2577C8.88871 44.6341 13.2805 47.7301 17.3771 47.5089C20.6986 47.3247 23.0237 45.0764 25.4226 42.6806C27.8584 40.2849 30.368 37.8155 34.0217 37.6312C38.0814 37.4469 42.2887 40.1375 46.5698 45.7029C46.6805 45.8135 46.6436 45.9978 46.5329 46.1084C46.4222 46.2189 46.2376 46.1821 46.1269 46.0715C41.9934 40.6535 37.9338 38.0366 34.0586 38.2209C30.6264 38.4052 28.1906 40.8009 25.8286 43.1229C23.4297 45.4818 20.957 47.9144 17.414 48.0987C17.2664 48.0618 17.1188 48.0618 16.9711 48.0618Z" fill="black"/>
    <path fill-rule="evenodd" clip-rule="evenodd" d="M57.6047 95.4237C57.6416 95.5342 57.7154 95.5711 57.8261 95.5711C57.8694 95.5711 57.9 95.5584 57.9253 95.548C57.9432 95.5406 57.9585 95.5342 57.9738 95.5342L64.0264 92.0696C64.174 91.9959 64.2109 91.8485 64.1371 91.7011L60.6679 85.6565C60.5941 85.509 60.4465 85.4722 60.2989 85.5459L54.2463 89.0105C54.0986 89.0842 54.0617 89.2316 54.1355 89.3791L57.6047 95.4237ZM57.9365 94.9077L54.7257 89.3423L60.2985 86.1357L63.5093 91.7011L57.9365 94.9077Z" fill="black"/>
    <path fill-rule="evenodd" clip-rule="evenodd" d="M140.2 8.88254C140.2 8.99311 140.311 9.10369 140.459 9.10369H140.533L145.293 8.36654C145.367 8.36654 145.441 8.32968 145.478 8.25597C145.515 8.18225 145.515 8.10854 145.515 8.03482L144.777 3.28023C144.777 3.20651 144.74 3.1328 144.666 3.09594C144.592 3.05908 144.518 3.05908 144.445 3.05908L139.684 3.79623C139.536 3.83309 139.425 3.98052 139.462 4.12794L140.2 8.88254ZM140.68 8.51401L140.053 4.31227L144.26 3.6857L144.888 7.88744L140.68 8.51401Z" fill="black"/>
    <path d="M106.838 15.8486C106.801 15.8486 106.764 15.8486 106.727 15.8117C106.579 15.738 106.505 15.5906 106.579 15.4432L108.941 9.54598C109.015 9.39855 109.163 9.32483 109.31 9.39855C109.458 9.47226 109.532 9.61969 109.458 9.76712L107.096 15.6643C107.059 15.7749 106.948 15.8486 106.838 15.8486Z" fill="black"/>
    <path d="M51.2937 11.9786C51.2198 11.9786 51.146 11.9418 51.0722 11.8681C50.9615 11.7575 50.9984 11.5732 51.1091 11.4626L55.9807 7.40832C56.0914 7.29774 56.276 7.3346 56.3867 7.44517C56.4974 7.55575 56.4605 7.74003 56.3498 7.8506L51.5151 11.9418C51.4413 11.9786 51.3675 11.9786 51.2937 11.9786Z" fill="black"/>
    <path d="M5.78867 6.63425C5.67795 6.63425 5.60414 6.5974 5.56723 6.48683L2.20878 1.10565C2.13497 0.995083 2.17188 0.810796 2.3195 0.737081C2.46712 0.663367 2.61475 0.700224 2.68856 0.810796L6.04701 6.19197C6.12082 6.3394 6.08392 6.48683 5.9732 6.56054C5.89939 6.63425 5.86248 6.63425 5.78867 6.63425Z" fill="black"/>
    <path d="M115.732 59.9669C115.658 59.9669 115.584 59.93 115.51 59.8563C115.399 59.7457 115.436 59.5615 115.547 59.4509L120.345 55.286C120.456 55.1754 120.64 55.2123 120.751 55.3229C120.862 55.4334 120.825 55.6177 120.714 55.7283L115.916 59.8932C115.842 59.9669 115.805 59.9669 115.732 59.9669Z" fill="black"/>
    <path d="M277.897 151.852C277.823 151.852 277.712 151.815 277.675 151.742L273.948 146.618C273.874 146.508 273.874 146.324 274.022 146.25C274.132 146.176 274.317 146.176 274.391 146.324L278.118 151.447C278.192 151.557 278.192 151.742 278.044 151.815C278.008 151.852 277.934 151.852 277.897 151.852Z" fill="black"/>
    <path d="M248.077 189.336C247.966 189.336 247.855 189.262 247.818 189.152C247.782 189.004 247.855 188.857 248.003 188.82L254.019 186.83C254.166 186.793 254.314 186.867 254.351 187.014C254.388 187.161 254.314 187.309 254.166 187.346L248.151 189.336C248.151 189.299 248.114 189.336 248.077 189.336Z" fill="black"/>
    <path d="M241.544 226.894C241.507 226.894 241.507 226.894 241.544 226.894C241.36 226.857 241.249 226.746 241.286 226.599L242.098 220.296C242.135 220.149 242.245 220.038 242.393 220.075C242.541 220.112 242.651 220.222 242.614 220.37L241.803 226.672C241.803 226.783 241.655 226.894 241.544 226.894Z" fill="black"/>
    <path d="M299.081 234.486C299.007 234.486 298.933 234.45 298.897 234.413C298.786 234.302 298.786 234.118 298.897 234.007L303.547 229.658C303.657 229.548 303.842 229.548 303.953 229.658C304.063 229.769 304.063 229.953 303.953 230.064L299.302 234.413C299.229 234.45 299.155 234.486 299.081 234.486Z" fill="black"/>
    <path d="M194.489 196.523C194.452 196.523 194.379 196.523 194.342 196.486C194.231 196.413 194.194 196.228 194.268 196.118L197.774 190.81C197.848 190.7 198.032 190.663 198.143 190.737C198.254 190.81 198.291 190.995 198.217 191.105L194.711 196.413C194.674 196.486 194.6 196.523 194.489 196.523Z" fill="black"/>
    <path d="M194.674 232.312C194.6 232.312 194.526 232.275 194.489 232.238L190.023 227.705C189.913 227.594 189.913 227.41 190.023 227.299C190.134 227.189 190.319 227.189 190.429 227.299L194.895 231.833C195.006 231.943 195.006 232.128 194.895 232.238C194.784 232.275 194.711 232.312 194.674 232.312Z" fill="black"/>
    <path d="M298.638 182.149C298.564 182.149 298.454 182.112 298.417 182.038C298.343 181.928 298.343 181.743 298.49 181.67L303.62 177.947C303.731 177.873 303.916 177.873 303.989 178.021C304.063 178.131 304.063 178.316 303.916 178.389L298.786 182.112C298.749 182.149 298.712 182.149 298.638 182.149Z" fill="black"/>
    <path d="M313.991 121.187C313.954 121.187 313.917 121.187 313.88 121.15C313.733 121.076 313.696 120.929 313.733 120.782L316.353 114.995C316.427 114.848 316.574 114.811 316.722 114.848C316.87 114.921 316.906 115.069 316.87 115.216L314.249 121.003C314.175 121.15 314.102 121.187 313.991 121.187Z" fill="black"/>
    <path d="M26.4194 78.0638C26.3455 78.0638 26.2717 78.0269 26.2348 77.9901L21.8799 73.3829C21.7692 73.2723 21.7692 73.088 21.8799 72.9775C21.9906 72.8669 22.1752 72.8669 22.2859 72.9775L26.6408 77.5846C26.7515 77.6952 26.7515 77.8795 26.6408 77.9901C26.567 78.0638 26.4932 78.0638 26.4194 78.0638Z" fill="black"/>
    <path d="M38.1182 127.268C38.0444 127.268 38.0075 127.268 37.9706 127.232C37.8599 127.158 37.823 126.974 37.8968 126.863L41.6981 121.777C41.7719 121.666 41.9565 121.629 42.0672 121.703C42.1779 121.777 42.2148 121.961 42.141 122.071L38.3397 127.158C38.3028 127.232 38.229 127.268 38.1182 127.268Z" fill="black"/>
    <path d="M7.634 157.749C7.52329 157.749 7.44947 157.713 7.41257 157.602L4.16484 152.147C4.09102 152 4.12793 151.852 4.27555 151.779C4.42318 151.705 4.5708 151.742 4.64461 151.889L7.89235 157.344C7.96616 157.491 7.92925 157.639 7.78163 157.713C7.74472 157.749 7.70782 157.749 7.634 157.749Z" fill="black"/>
    <path d="M32.3244 206.807C32.2875 206.807 32.2506 206.807 32.2137 206.807C32.0661 206.77 31.9923 206.585 32.0661 206.438L34.2435 200.467C34.2804 200.32 34.465 200.246 34.6126 200.32C34.7602 200.357 34.834 200.541 34.7602 200.688L32.5828 206.659C32.5458 206.733 32.4351 206.807 32.3244 206.807Z" fill="black"/>
    <path d="M42.8421 241.305C42.7313 241.305 42.6206 241.231 42.5837 241.121L40.7384 235.039C40.7015 234.892 40.7753 234.744 40.9229 234.708C41.0706 234.671 41.2182 234.744 41.2551 234.892L43.1004 240.973C43.1373 241.121 43.0635 241.268 42.9159 241.305C42.879 241.305 42.879 241.305 42.8421 241.305Z" fill="black"/>
    <path d="M1.2861 230.543C1.17538 230.543 1.10157 230.469 1.02776 230.395C0.953946 230.248 1.02776 230.1 1.13848 230.027L6.85892 227.262C7.00654 227.189 7.15416 227.262 7.22798 227.373C7.30179 227.52 7.22798 227.668 7.11726 227.741L1.39682 230.506C1.35991 230.543 1.32301 230.543 1.2861 230.543Z" fill="black"/>
    <path d="M260.699 97.414C260.625 97.414 260.551 97.3771 260.477 97.3034C260.367 97.1928 260.404 97.0085 260.514 96.898L265.497 92.9911C265.607 92.8805 265.792 92.9174 265.903 93.0279C266.013 93.1385 265.976 93.3228 265.866 93.4334L260.883 97.3402C260.81 97.414 260.773 97.414 260.699 97.414Z" fill="black"/>
    <path d="M306.794 14.8167C306.758 14.8167 306.721 14.8167 306.721 14.8167L300.668 12.8633C300.52 12.8264 300.447 12.679 300.484 12.5316C300.52 12.3841 300.668 12.3104 300.816 12.3473L306.868 14.2639C307.016 14.3007 307.09 14.4482 307.053 14.5956C307.053 14.743 306.942 14.8167 306.794 14.8167Z" fill="black"/>
    <path d="M301 64.2424C300.815 64.2424 300.705 64.095 300.741 63.9476L301.147 57.6081C301.147 57.4607 301.295 57.3501 301.443 57.3501C301.59 57.3501 301.701 57.4975 301.701 57.645L301.295 63.9844C301.258 64.1318 301.147 64.2424 301 64.2424Z" fill="black"/>
    <path d="M242.319 75.7418C244.072 75.7418 245.493 74.3227 245.493 72.5721C245.493 70.8215 244.072 69.4023 242.319 69.4023C240.567 69.4023 239.146 70.8215 239.146 72.5721C239.146 74.3227 240.567 75.7418 242.319 75.7418Z" fill="#FFDEE9"/>
    <path fill-rule="evenodd" clip-rule="evenodd" d="M285.389 118.128C285.721 118.791 286.385 119.16 287.086 119.16C287.382 119.16 287.64 119.086 287.935 118.976C288.858 118.497 289.264 117.354 288.784 116.432C288.563 115.953 288.157 115.622 287.677 115.474C287.197 115.327 286.717 115.364 286.238 115.585C285.758 115.806 285.426 116.211 285.278 116.69C285.13 117.17 285.167 117.686 285.389 118.128ZM286.496 116.064C286.681 115.953 286.865 115.916 287.087 115.916C287.234 115.916 287.382 115.953 287.529 115.99C287.862 116.101 288.157 116.322 288.304 116.653C288.637 117.317 288.378 118.128 287.714 118.459C287.05 118.791 286.238 118.533 285.906 117.87C285.758 117.538 285.721 117.169 285.832 116.838C285.942 116.506 286.164 116.211 286.496 116.064Z" fill="black"/>
    <path fill-rule="evenodd" clip-rule="evenodd" d="M10.6231 108.213C10.9553 108.877 11.6196 109.245 12.3208 109.245C12.616 109.245 12.9113 109.171 13.1696 109.061C13.6494 108.84 13.9816 108.434 14.1292 107.955C14.2768 107.476 14.2399 106.96 14.0185 106.518C13.5387 105.596 12.3946 105.191 11.472 105.67C10.9922 105.891 10.66 106.297 10.5124 106.776C10.3648 107.255 10.4017 107.771 10.6231 108.213ZM11.7303 106.149C11.9149 106.038 12.1363 106.002 12.3208 106.002C12.8006 106.002 13.2804 106.296 13.5387 106.739C13.6864 107.07 13.7233 107.439 13.6126 107.771C13.5018 108.103 13.2804 108.397 12.9482 108.545C12.2839 108.877 11.472 108.619 11.1399 107.955C10.8077 107.292 11.066 106.481 11.7303 106.149Z" fill="black"/>
    <path fill-rule="evenodd" clip-rule="evenodd" d="M214.308 206.217C214.898 207.322 216.005 207.986 217.186 207.986C217.666 207.986 218.146 207.875 218.552 207.617C220.139 206.843 220.766 204.927 219.991 203.342C219.622 202.605 218.958 202.015 218.146 201.757C217.334 201.499 216.485 201.573 215.71 201.941C214.972 202.31 214.382 202.973 214.123 203.784C213.865 204.595 213.939 205.443 214.308 206.217ZM215.969 202.457C216.338 202.273 216.744 202.162 217.15 202.162C217.445 202.162 217.74 202.199 217.998 202.31C218.663 202.531 219.179 203.01 219.512 203.637C220.176 204.927 219.622 206.512 218.331 207.175C217.039 207.838 215.452 207.286 214.788 205.996C214.455 205.369 214.419 204.632 214.64 203.968C214.861 203.305 215.341 202.789 215.969 202.457Z" fill="black"/>
    <path d="M76.0207 51.5265C78.0589 51.5265 79.7113 49.8763 79.7113 47.8408C79.7113 45.8052 78.0589 44.155 76.0207 44.155C73.9824 44.155 72.3301 45.8052 72.3301 47.8408C72.3301 49.8763 73.9824 51.5265 76.0207 51.5265Z" fill="#FFDEE9"/>
    <path d="M208.625 3.68573C209.644 3.68573 210.47 2.86065 210.47 1.84287C210.47 0.82508 209.644 0 208.625 0C207.605 0 206.779 0.82508 206.779 1.84287C206.779 2.86065 207.605 3.68573 208.625 3.68573Z" fill="#FFDEE9"/>
    <path d="M21.1417 179.975C22.1608 179.975 22.987 179.149 22.987 178.132C22.987 177.114 22.1608 176.289 21.1417 176.289C20.1226 176.289 19.2964 177.114 19.2964 178.132C19.2964 179.149 20.1226 179.975 21.1417 179.975Z" fill="#FFDEE9"/>
    <path fill-rule="evenodd" clip-rule="evenodd" d="M265.919 44.4422C265.962 44.4672 265.996 44.487 266.05 44.487C266.161 44.487 266.235 44.4501 266.272 44.3764L270.516 39.0321C270.627 38.8846 270.59 38.7372 270.479 38.6266L265.128 34.3881C264.98 34.2775 264.832 34.3143 264.722 34.4249L260.477 39.7692C260.367 39.9167 260.404 40.0641 260.514 40.1747L265.866 44.4132C265.886 44.4231 265.903 44.433 265.919 44.4422ZM266.014 43.8603L261.068 39.9534L264.98 35.0145L269.926 38.9214L266.014 43.8603Z" fill="black"/>
    <path d="M163.559 215.933L168.915 220.161L164.681 225.51L159.325 221.282L163.559 215.933Z" fill="#FFDEE9"/>
    <path d="M205.242 20.9269C191.633 9.94206 172.011 7.87781 156.704 16.0242C137.12 26.4561 127.641 52.1119 136.566 75.8508C131.661 85.3611 126.756 94.8346 121.85 104.345C129.227 100.364 136.603 96.3459 143.98 92.3648C145.418 93.4707 148.885 96.0142 153.938 98.3364L154.049 98.2996C158.364 100.29 168.064 103.976 180.346 102.391C181.49 102.244 183.15 101.986 185.141 101.507C185.99 101.322 186.875 101.064 187.834 100.769C188.055 100.696 188.276 100.622 188.498 100.548C188.498 100.511 188.461 100.474 188.461 100.438C188.055 99.4792 187.686 98.5945 187.465 97.8941C187.465 97.8572 187.428 97.8204 187.428 97.7467C187.133 96.7883 187.022 95.9773 187.465 95.4981C187.723 95.2032 188.166 95.0926 188.534 95.1663C189.309 95.3138 189.678 96.3091 189.825 96.6408C190.084 97.3043 190.563 98.2259 191.19 99.4792C191.227 99.516 191.227 99.5529 191.264 99.5897C191.596 99.4792 191.928 99.3317 192.26 99.1843C192.26 99.1474 192.223 99.1105 192.223 99.0737C191.706 97.4886 191.301 96.0879 191.338 95.4612C191.338 95.2032 191.338 94.5028 191.78 94.2079C191.78 94.2079 192.075 94.0236 192.481 94.0974C193.292 94.2448 193.772 95.8298 194.583 98.0784C194.583 98.1153 194.62 98.1153 194.62 98.1521C195.985 97.5255 197.349 96.7883 198.788 95.9404C208.968 89.8583 214.242 81.6012 216.492 77.5833H216.529C225.602 59.5211 222.467 34.8237 205.242 20.9269Z" fill="#762AE2"/>
    <path d="M223.389 149.98C223.316 149.98 223.205 149.943 223.131 149.869C223.021 149.722 223.057 149.537 223.168 149.427C223.242 149.353 223.389 149.243 223.611 149.021L224.201 148.505C224.348 148.395 224.533 148.395 224.643 148.542C224.754 148.69 224.754 148.874 224.607 148.985L224.016 149.501C223.795 149.685 223.611 149.832 223.537 149.906C223.537 149.943 223.463 149.98 223.389 149.98Z" fill="black"/>
    <path d="M235.598 151.307C235.524 151.307 235.413 151.27 235.377 151.196C235.266 151.086 235.266 150.864 235.413 150.754C235.819 150.385 236.926 149.353 238.18 147.952C239.876 145.999 241.315 143.934 242.421 141.76C242.864 140.912 243.306 140.027 243.601 139.179C244.081 137.889 244.118 137.041 243.712 136.562C243.454 136.267 243.085 136.193 242.974 136.157C242.606 136.12 242.163 136.23 241.72 136.599C240.798 137.299 239.839 138.7 239.028 139.916C238.88 140.138 238.733 140.359 238.585 140.58C238.106 141.28 237.553 142.018 236.999 142.755C235.524 144.672 233.828 146.552 231.983 148.358C231.873 148.468 231.688 148.468 231.541 148.358C231.43 148.247 231.393 148.063 231.504 147.952C233.237 145.667 234.75 143.308 236.004 140.875C236.262 140.359 236.52 139.843 236.778 139.327C238.364 135.972 238.77 134.203 238.069 133.318C238.032 133.281 237.626 132.765 237.036 132.728C236.336 132.692 235.561 133.355 234.676 134.793C234.123 135.714 233.569 136.783 233.053 137.852V137.889C233.053 137.889 233.053 137.889 233.053 137.926L233.016 138C232.758 138.516 232.5 138.995 232.278 139.474C231.135 141.612 229.734 143.64 228.074 145.556L228.037 145.593C228.037 145.593 228.037 145.63 228 145.63C227.594 146.109 227.115 146.625 226.562 147.178C226.525 147.215 226.525 147.252 226.488 147.252C226.008 147.731 225.529 148.21 225.012 148.69C224.681 148.984 224.349 149.316 223.98 149.611C223.98 149.611 223.98 149.611 223.943 149.611C223.906 149.648 223.906 149.648 223.869 149.648L223.832 149.685L223.795 149.722L223.758 149.759L223.722 149.795C223.722 149.795 223.722 149.795 223.758 149.795L223.722 149.832L223.685 149.869C223.685 149.869 223.648 149.906 223.611 149.943C223.463 150.017 223.279 149.98 223.168 149.869C223.058 149.722 223.095 149.537 223.242 149.427C223.279 149.39 223.316 149.39 223.316 149.353C223.316 149.353 223.353 149.353 223.353 149.316L223.39 149.279L223.427 149.243C223.427 149.243 223.463 149.243 223.463 149.206L223.5 149.169L223.537 149.132C223.906 148.837 224.238 148.542 224.533 148.247C225.049 147.768 225.529 147.289 225.971 146.846C226.008 146.81 226.045 146.773 226.045 146.773C226.598 146.22 227.041 145.704 227.447 145.225L227.484 145.188L227.521 145.151C229.143 143.271 230.545 141.28 231.615 139.179C231.873 138.737 232.094 138.221 232.352 137.742L232.389 137.705V137.668L232.426 137.631C232.942 136.562 233.496 135.456 234.086 134.535C234.75 133.503 235.745 132.139 237.036 132.176C237.885 132.249 238.401 132.876 238.512 132.986C239.397 134.092 239.065 135.972 237.295 139.658C237.036 140.175 236.778 140.691 236.52 141.207C235.856 142.497 235.082 143.787 234.27 145.04C235.045 144.192 235.745 143.308 236.446 142.423C236.999 141.723 237.516 140.985 237.995 140.285C238.143 140.064 238.29 139.843 238.438 139.622C239.323 138.295 240.245 136.931 241.278 136.157C241.868 135.714 242.458 135.53 243.011 135.604C243.233 135.641 243.749 135.788 244.155 136.23C244.708 136.894 244.708 137.926 244.155 139.474C243.823 140.359 243.38 141.244 242.938 142.128C241.794 144.34 240.356 146.441 238.585 148.432C237.331 149.869 236.188 150.901 235.782 151.307C235.745 151.27 235.672 151.307 235.598 151.307Z" fill="black"/>
    <path d="M238.77 155.251C238.696 155.251 238.622 155.214 238.549 155.14C238.438 155.03 238.438 154.809 238.549 154.698L238.954 154.329C239.618 153.703 240.577 152.781 241.647 151.749C241.647 151.749 241.647 151.749 241.684 151.712C243.638 149.795 245.409 147.989 246.958 146.367C247.327 145.999 247.88 145.409 248.249 144.782C248.618 144.193 248.728 143.64 248.581 143.197C248.433 142.681 247.991 142.239 247.474 142.055C247.105 141.944 246.7 141.981 246.22 142.239C245.335 142.644 244.265 143.64 243.048 144.782L242.974 144.856C241.389 146.294 239.987 147.621 238.733 148.726C237.11 150.201 236.041 151.086 235.819 151.233L235.782 151.27C235.635 151.344 235.45 151.344 235.34 151.196C235.229 151.049 235.266 150.864 235.413 150.754L235.45 150.717C235.561 150.606 236.52 149.832 238.327 148.21C239.581 147.105 241.02 145.814 242.569 144.34L242.643 144.266C243.897 143.087 245.003 142.091 245.962 141.612C246.589 141.317 247.142 141.244 247.696 141.428C248.396 141.649 249.023 142.276 249.208 143.013C249.392 143.64 249.245 144.34 248.802 145.077C248.396 145.741 247.843 146.367 247.437 146.773C245.888 148.395 244.081 150.201 242.126 152.118C242.126 152.118 242.126 152.118 242.089 152.155C241.02 153.187 240.098 154.108 239.397 154.735L238.991 155.104C238.917 155.214 238.844 155.251 238.77 155.251Z" fill="black"/>
    <path d="M227.041 165.462C226.93 165.462 226.819 165.388 226.782 165.314C226.709 165.167 226.746 164.982 226.893 164.872C230.655 162.66 234.012 160.67 236.962 158.937C239.876 157.205 242.384 155.73 244.413 154.551C245.703 153.813 249.06 151.86 248.875 150.127C248.875 150.017 248.838 149.759 248.654 149.611C247.843 148.837 244.634 150.422 242.015 152.228C241.868 152.339 241.683 152.302 241.573 152.155C241.462 152.007 241.499 151.823 241.646 151.712C243.417 150.496 247.695 147.805 249.097 149.132C249.429 149.464 249.465 149.869 249.502 150.017C249.761 152.155 246.367 154.108 244.781 155.067C242.753 156.246 240.245 157.721 237.331 159.453C234.38 161.186 231.024 163.176 227.262 165.388C227.151 165.462 227.114 165.462 227.041 165.462Z" fill="black"/>
    <path d="M217.709 151.122C217.635 151.122 217.599 151.085 217.525 151.049C217.377 150.938 217.34 150.754 217.451 150.606C219.037 148.358 219.258 148.026 219.295 148.026C220.033 146.957 220.697 145.851 221.324 144.782C221.398 144.671 221.471 144.561 221.508 144.413C222.025 143.492 222.504 142.607 222.91 141.796C223.242 141.17 223.537 140.617 223.832 140.101C223.832 140.101 223.832 140.064 223.869 140.064C224.938 138.11 225.86 136.931 227.041 137.004C227.778 137.041 228.332 137.594 228.479 137.778C228.885 138.221 229.327 139.179 228.553 142.128C228.11 143.787 227.446 145.409 226.598 146.994L226.524 147.104C226.524 147.141 226.487 147.178 226.45 147.215C226.34 147.326 226.119 147.326 226.008 147.215C225.897 147.104 225.897 146.957 225.971 146.846L226.045 146.699C226.893 145.188 227.52 143.602 227.963 141.981C228.479 140.027 228.516 138.737 228.036 138.184C227.963 138.11 227.557 137.668 227.041 137.631H227.004C226.155 137.631 225.381 138.737 224.459 140.396C224.459 140.396 224.459 140.432 224.422 140.432C224.127 140.948 223.869 141.501 223.537 142.091C223.131 142.902 222.652 143.787 222.135 144.708C222.061 144.819 221.988 144.93 221.951 145.077C221.324 146.146 220.66 147.252 219.922 148.358C219.922 148.358 219.701 148.689 218.078 150.938C217.894 151.085 217.82 151.122 217.709 151.122Z" fill="black"/>
    <path d="M217.967 150.459C221.619 154.993 225.27 159.49 228.959 164.024C228.331 164.393 227.704 164.761 227.077 165.13C223.979 160.338 220.844 155.583 217.746 150.791C217.783 150.717 217.894 150.57 217.967 150.459Z" fill="black"/>
    <path d="M135.829 133.097C135.755 133.097 135.682 133.06 135.608 132.986C135.497 132.876 135.497 132.655 135.608 132.544C136.456 131.733 137.304 130.812 138.116 129.89C138.558 129.374 138.964 128.858 139.776 127.789C140.366 127.015 141.214 125.909 142.173 124.545C143.169 123.107 143.427 122.702 143.648 122.149C143.943 121.338 144.275 120.527 143.943 119.79C143.906 119.716 143.611 119.053 143.021 118.942C142.616 118.832 142.247 119.016 141.952 119.2C140.661 119.937 139.849 121.154 138.854 122.555L138.522 122.997C138.522 122.997 138.448 123.107 136.862 125.282C135.608 127.015 134.169 128.71 132.583 130.296C132.473 130.406 132.288 130.406 132.141 130.332C132.03 130.222 131.993 130.037 132.104 129.927C133.653 127.789 135.018 125.54 136.161 123.292C136.419 122.813 136.641 122.333 136.862 121.854C138.3 118.721 138.632 117.025 138.005 116.214C137.968 116.177 137.599 115.735 137.083 115.698C136.456 115.661 135.755 116.288 134.981 117.615C134.464 118.463 133.985 119.495 133.505 120.49L133.469 120.527C133.469 120.527 133.469 120.527 133.469 120.564C133.247 121.043 132.989 121.522 132.768 122.002C131.366 124.803 129.743 127.568 127.936 130.148C127.826 130.296 127.641 130.332 127.494 130.222C127.346 130.111 127.309 129.927 127.42 129.779C129.19 127.199 130.813 124.508 132.215 121.707C132.436 121.228 132.694 120.785 132.915 120.306C132.915 120.306 132.915 120.306 132.915 120.269L132.952 120.195C133.432 119.2 133.911 118.168 134.464 117.283C135.055 116.288 135.977 114.998 137.157 115.072C137.931 115.145 138.411 115.735 138.522 115.846C139.333 116.878 139.038 118.647 137.452 122.112C137.231 122.591 137.009 123.107 136.751 123.587C136.198 124.656 135.645 125.725 135.018 126.757C135.497 126.167 135.977 125.577 136.419 124.951C137.968 122.849 138.079 122.702 138.079 122.665L138.411 122.223C139.407 120.748 140.292 119.495 141.693 118.684C142.099 118.463 142.616 118.205 143.243 118.352C144.091 118.573 144.497 119.421 144.57 119.569C145.013 120.564 144.607 121.596 144.275 122.407C144.054 122.997 143.796 123.439 142.726 124.914C141.767 126.278 140.919 127.383 140.329 128.158C139.517 129.227 139.075 129.779 138.632 130.296C137.821 131.254 136.972 132.139 136.087 132.986C135.977 133.06 135.903 133.097 135.829 133.097Z" fill="black"/>
    <path d="M138.669 136.783C138.596 136.783 138.522 136.746 138.448 136.709C138.337 136.599 138.337 136.378 138.448 136.267L138.743 135.972C139.37 135.346 140.218 134.498 141.251 133.466C141.251 133.466 141.251 133.466 141.288 133.429C142.21 132.47 143.169 131.512 144.091 130.517C144.718 129.816 145.382 129.116 146.046 128.416C146.378 128.047 146.857 127.531 147.189 126.941C147.521 126.388 147.595 125.872 147.484 125.467C147.374 124.987 146.968 124.545 146.525 124.435C146.193 124.324 145.825 124.361 145.419 124.582C145.198 124.693 144.976 124.84 144.755 124.987C144.091 125.467 143.39 126.167 142.542 126.978L142.505 127.015C141.141 128.342 139.85 129.558 138.669 130.664C137.194 132.028 136.272 132.876 136.051 133.023C136.014 133.06 135.977 133.06 135.94 133.097C135.792 133.134 135.608 133.06 135.534 132.913C135.497 132.765 135.534 132.618 135.682 132.544C135.792 132.47 136.641 131.696 138.264 130.222C139.444 129.116 140.735 127.9 142.099 126.609L142.136 126.573C142.985 125.762 143.722 125.024 144.423 124.545C144.681 124.361 144.939 124.176 145.161 124.066C145.714 123.771 146.267 123.734 146.747 123.882C147.411 124.103 147.964 124.693 148.148 125.356C148.296 125.946 148.185 126.609 147.779 127.31C147.411 127.936 146.894 128.526 146.525 128.895C145.862 129.595 145.198 130.332 144.571 130.996C143.649 131.991 142.69 132.95 141.768 133.908L141.731 133.945C140.735 134.977 139.85 135.825 139.259 136.451L138.964 136.746C138.817 136.783 138.743 136.783 138.669 136.783Z" fill="black"/>
    <path d="M140.034 140.838C139.923 140.838 139.85 140.801 139.776 140.727C139.665 140.58 139.702 140.396 139.85 140.285C141.436 139.106 142.837 138.073 144.128 137.078C144.423 136.857 144.829 136.525 145.271 136.193C147.484 134.387 148.443 132.986 148.185 131.881C148.111 131.475 147.927 131.254 147.816 131.18C147.337 130.812 146.157 131.143 144.534 132.176C143.021 133.134 141.104 134.645 138.891 136.71C138.78 136.82 138.559 136.82 138.448 136.673C138.337 136.562 138.337 136.341 138.485 136.23C140.735 134.166 142.653 132.618 144.202 131.623C146.157 130.406 147.447 130.074 148.185 130.664C148.37 130.812 148.665 131.143 148.775 131.696C149.181 133.503 147.189 135.382 145.64 136.636C145.198 137.004 144.792 137.299 144.46 137.557C143.169 138.553 141.767 139.585 140.182 140.764C140.145 140.838 140.071 140.838 140.034 140.838Z" fill="black"/>
    <path d="M127.457 132.323C127.42 132.323 127.42 132.323 127.457 132.323C127.272 132.323 127.125 132.176 127.162 131.991C127.199 131.291 127.309 130.554 127.42 129.853C127.568 129.005 127.789 128.231 127.973 127.568C128.305 126.351 128.6 125.319 128.49 124.066C128.453 123.66 128.379 123.218 128.047 122.886C128.047 122.886 127.604 122.481 126.941 122.444C125.834 122.407 124.174 126.093 123.178 129.595C123.142 129.78 122.957 129.853 122.81 129.816C122.625 129.78 122.551 129.595 122.588 129.448C122.662 129.227 123.178 127.347 123.953 125.504C124.986 123.034 125.982 121.817 126.904 121.817H126.941C127.863 121.854 128.453 122.407 128.49 122.444C128.969 122.923 129.08 123.55 129.117 124.029C129.227 125.356 128.932 126.462 128.6 127.752C128.416 128.452 128.231 129.153 128.047 130.001C127.936 130.664 127.826 131.365 127.789 132.065C127.752 132.176 127.604 132.323 127.457 132.323Z" fill="black"/>
    <path d="M138.743 137.557C138.632 137.557 138.485 137.484 138.448 137.373C137.784 135.751 136.825 134.277 135.608 133.023C134.317 131.733 132.731 130.701 131.035 130.038C130.887 129.964 130.776 129.78 130.85 129.632C130.924 129.485 131.108 129.374 131.256 129.448C133.026 130.148 134.686 131.217 136.051 132.581C137.342 133.908 138.337 135.419 139.038 137.152C139.112 137.299 139.038 137.484 138.854 137.557C138.817 137.557 138.78 137.557 138.743 137.557Z" fill="black"/>
    <path d="M114.843 89.0473L108.204 92.8072L107.024 98.0784C106.765 97.8572 105.511 96.7882 103.704 96.9357C101.786 97.0831 100.68 98.447 100.348 98.8894C99.0568 100.696 99.2044 103.165 100.274 104.898C101.712 107.257 104.405 107.552 104.737 107.589C102.044 110.206 99.3519 112.823 96.6594 115.477C93.4506 115.477 90.2049 115.477 86.9961 115.477C86.2585 113.044 85.3733 109.432 84.9676 104.972C84.4512 99.2948 84.1192 95.8298 85.8527 91.9225C86.4798 90.4849 89.0984 85.1768 95.221 82.9282C95.221 82.9282 102.524 80.2005 110.048 84.6607C112.408 86.0615 113.994 87.9414 113.994 87.9414C114.289 88.2363 114.585 88.6418 114.843 89.0473Z" fill="black"/>
    <path d="M108.02 99.3685C107.909 99.3685 107.798 99.2948 107.762 99.2211C107.577 98.8893 107.356 98.5944 107.098 98.2995C106.876 98.0415 106.618 97.8203 106.36 97.636C106.212 97.5254 106.212 97.3411 106.286 97.1937C106.397 97.0462 106.581 97.0462 106.729 97.12C107.024 97.3411 107.282 97.5992 107.54 97.8572C107.835 98.1889 108.094 98.5207 108.278 98.8893C108.352 99.0368 108.315 99.2211 108.167 99.3317C108.13 99.3317 108.057 99.3685 108.02 99.3685Z" fill="black"/>
    <path d="M105.401 108.105C105.143 108.105 104.884 108.068 104.589 108.031C104.294 107.994 103.999 107.957 103.704 107.92C103.52 107.883 103.409 107.736 103.446 107.552C103.483 107.367 103.63 107.257 103.815 107.294C104.11 107.331 104.368 107.367 104.663 107.404C104.921 107.441 105.18 107.441 105.401 107.478C105.585 107.478 105.696 107.625 105.696 107.81C105.733 107.994 105.585 108.105 105.401 108.105Z" fill="black"/>
    <path d="M108.13 120.306C107.946 120.306 107.798 120.158 107.798 119.974L107.835 118.426C107.835 118.279 107.946 118.168 108.057 118.131C108.72 117.947 109.347 117.726 109.938 117.431C111.45 116.767 112.741 115.846 113.847 114.74C113.884 114.703 118.162 110.169 117.794 102.059C117.794 101.912 117.794 101.764 117.794 101.764C117.794 101.506 117.757 100.99 117.683 100.29C117.388 97.2674 116.945 93.1388 114.622 89.637C114.548 89.5264 114.474 89.4158 114.4 89.3052C114.29 89.1578 114.327 88.9735 114.474 88.8629C114.622 88.7523 114.806 88.7892 114.917 88.9366C114.991 89.0472 115.064 89.1578 115.138 89.2684C117.572 92.9177 117.978 97.1199 118.31 100.179C118.384 100.88 118.421 101.433 118.421 101.691C118.421 101.691 118.421 101.838 118.421 101.986C118.826 110.39 114.511 114.961 114.327 115.145C113.183 116.325 111.819 117.283 110.233 117.984C109.679 118.242 109.089 118.463 108.499 118.647L108.462 119.974C108.425 120.158 108.278 120.306 108.13 120.306Z" fill="black"/>
    <path d="M87.1808 121.596C86.9964 121.596 86.8858 121.449 86.8489 121.301L86.812 115.145C86.812 114.961 86.9595 114.813 87.1071 114.813C87.2546 114.813 87.439 114.961 87.439 115.108L87.4759 121.264C87.5128 121.449 87.3653 121.596 87.1808 121.596Z" fill="black"/>
    <path d="M108.352 118.168C108.278 118.463 108.167 118.795 108.13 119.237C108.094 119.532 108.094 119.79 108.13 120.011L105.291 120.195C105.069 120.158 104.848 120.085 104.627 120.011C102.635 119.421 101.012 118.463 99.7212 117.468C101.86 117.984 104.332 118.315 107.061 118.242C107.503 118.205 107.946 118.205 108.352 118.168Z" fill="black"/>
    <path d="M61.5101 243.682C61.4363 243.682 61.3625 243.645 61.2888 243.609C61.215 243.535 61.1781 243.461 61.1781 243.387C61.1781 236.9 61.1412 230.154 61.0675 223.335C61.0675 221.639 61.0306 219.906 60.9937 218.174C60.9568 214.93 60.8831 211.613 60.8093 208V207.558C60.5142 192.039 60.0348 176.262 59.334 160.743C59.334 160.559 59.4446 160.412 59.629 160.412C59.8135 160.412 59.961 160.522 59.961 160.707C60.6249 176.225 61.1044 192.002 61.4363 207.521V207.963C61.5101 211.576 61.547 214.893 61.6207 218.137C61.6576 219.87 61.6576 221.565 61.6945 223.298C61.7683 229.97 61.8051 236.605 61.8051 243.019L138.3 236.9C137.747 227.905 137.231 218.616 136.788 209.364C136.272 198.748 135.829 187.91 135.46 177.221C135.46 177.036 135.608 176.889 135.755 176.889C135.94 176.889 136.087 177.036 136.087 177.184C136.456 187.874 136.899 198.674 137.415 209.327C137.895 218.69 138.411 228.053 138.964 237.158C138.964 237.342 138.854 237.489 138.669 237.489L61.5101 243.682Z" fill="black"/>
    <path d="M168.213 191.449C167.807 191.449 167.401 191.412 167.032 191.376C160.725 190.749 155.119 188.279 148.185 184.556C145.345 183.045 142.173 181.239 138.78 179.322C135.645 177.516 132.51 175.562 132.473 175.525C131.625 174.972 130.887 174.493 130.371 174.161C130.223 174.051 130.186 173.866 130.297 173.719C130.408 173.571 130.592 173.535 130.74 173.645C131.256 173.977 131.957 174.456 132.842 175.009C132.879 175.046 135.977 177 139.112 178.769C142.468 180.686 145.64 182.492 148.48 184.003C155.377 187.726 160.91 190.122 167.106 190.786C171.016 191.191 177.47 189.348 187.982 185.846C191.154 184.777 194.695 183.561 198.789 182.16L199.748 181.828C206.46 179.543 212.693 177.11 215.828 175.894C220.439 174.087 225.086 172.171 229.623 170.217C227.373 166.199 224.975 162.181 222.431 158.311C221.435 156.799 220.439 155.288 219.406 153.777C218.668 152.708 218.041 151.823 217.451 151.012C217.414 150.938 217.378 150.901 217.341 150.828L172.122 165.056C172.048 165.093 171.938 165.056 171.864 165.019C170.831 164.356 169.872 163.729 168.913 163.103C168.618 162.918 168.323 162.697 167.991 162.513L166.922 161.812C166.405 161.481 165.889 161.112 165.336 160.744C165.004 160.522 164.672 160.301 164.34 160.043C163.455 159.453 162.57 158.79 161.647 158.163C159.582 156.689 157.553 155.177 155.562 153.666C151.21 150.312 148.406 147.989 145.972 145.888C143.612 143.898 141.583 142.165 138.669 139.99L138.596 139.954C134.133 136.636 125.797 130.48 116.06 127.015C115.507 126.831 114.917 126.61 114.29 126.425C113.589 126.204 96.6228 120.97 79.7305 126.757C79.5829 126.831 79.3985 126.72 79.3247 126.573C79.251 126.425 79.3616 126.241 79.5092 126.167C96.586 120.343 113.737 125.614 114.474 125.835C115.101 126.02 115.691 126.241 116.245 126.425C126.019 129.927 134.428 136.12 138.928 139.437L139.001 139.474C141.915 141.649 143.981 143.382 146.341 145.372C148.775 147.436 151.542 149.796 155.894 153.113C157.885 154.624 159.914 156.136 161.979 157.61C162.865 158.237 163.787 158.9 164.635 159.49C164.967 159.711 165.299 159.933 165.631 160.154C166.184 160.522 166.7 160.891 167.217 161.223L168.249 161.923C168.545 162.144 168.877 162.329 169.172 162.513C170.094 163.14 171.016 163.729 171.975 164.356L217.267 150.127C217.414 150.09 217.525 150.127 217.599 150.238L217.673 150.349C217.746 150.422 217.783 150.533 217.857 150.607C218.447 151.417 219.074 152.302 219.812 153.371C220.845 154.846 221.84 156.394 222.836 157.905C225.418 161.886 227.889 166.015 230.213 170.143C230.25 170.217 230.25 170.328 230.25 170.401C230.213 170.475 230.176 170.549 230.065 170.586C225.455 172.613 220.697 174.567 215.939 176.41C212.804 177.626 206.571 180.022 199.858 182.344L198.899 182.676C194.805 184.077 191.264 185.293 188.093 186.362C178.54 189.643 172.307 191.449 168.213 191.449Z" fill="black"/>
    <path d="M61.3995 218.506C61.3626 218.506 61.3626 218.506 61.3257 218.506C61.3257 218.506 61.2889 218.506 61.252 218.506C56.7154 217.584 52.9902 215.778 50.1502 213.087C47.2365 210.322 45.0235 206.452 43.5851 201.623C40.2656 190.491 41.409 175.525 46.6463 161.554C52.437 146.072 62.2847 134.277 74.3085 128.342C76.0052 127.494 77.7755 126.757 79.6197 126.13C79.8041 126.057 80.0254 126.204 80.0254 126.425C80.0254 126.573 79.9147 126.683 79.8041 126.72C77.9968 127.347 76.2265 128.084 74.5667 128.895C62.6535 134.756 52.9533 146.404 47.1996 161.739C42.036 175.562 40.8926 190.38 44.1383 201.402C45.5399 206.157 47.7159 209.917 50.5559 212.608C53.3222 215.225 56.9367 216.994 61.3626 217.879C61.3626 217.879 61.3995 217.879 61.4364 217.879C61.6208 217.916 61.7315 218.1 61.6946 218.248C61.6577 218.432 61.5102 218.506 61.3995 218.506Z" fill="black"/>
    <path d="M117.609 119.385C117.167 121.817 116.724 124.25 116.281 126.683C115.691 126.462 115.101 126.278 114.511 126.093C113.515 125.762 96.6229 120.675 79.7305 126.425C78.8453 124.914 77.997 123.439 77.1118 121.928L105.29 120.159L108.13 119.974L110.675 119.827L117.609 119.385Z" fill="black"/>
    <path d="M125.908 238.522C125.871 238.522 125.871 238.522 125.908 238.522C125.687 238.485 125.576 238.337 125.613 238.19L132.363 175.23C132.399 175.046 132.547 174.935 132.694 174.935C132.879 174.935 132.99 175.119 132.99 175.267L126.24 238.227C126.203 238.411 126.056 238.522 125.908 238.522Z" fill="black"/>
    <path d="M188.092 186.141C177.249 189.754 170.979 191.486 167.069 191.117C160.983 190.491 155.562 188.205 148.333 184.335C156.299 181.128 172.86 176.446 187.207 185.588C187.465 185.736 187.76 185.92 188.092 186.141Z" fill="black"/>
    <path d="M61.326 218.174C57.9697 217.51 53.8019 216.073 50.3718 212.829C47.4211 210.028 45.245 206.12 43.8804 201.476C48.7489 202.213 55.3878 203.908 61.1416 207.558C61.1416 207.705 61.1416 207.853 61.1416 208C61.2154 211.428 61.2522 214.82 61.326 218.174Z" fill="black"/>
    <path fill-rule="evenodd" clip-rule="evenodd" d="M174.445 76.035C176.067 75.0766 178.244 74.0076 180.936 73.0492L202.881 72.1646C203.176 72.2014 203.582 72.2751 204.062 72.3857C204.062 72.3857 205.094 72.6069 206.201 72.9386C207.344 73.2704 209.852 74.2288 213.098 75.7033C213.43 75.8507 213.799 76.035 214.131 76.2193C214.499 76.4036 214.905 76.6248 215.311 76.846L215.311 76.846C215.437 76.9262 215.563 77.0029 215.687 77.0782C215.962 77.2451 216.226 77.4054 216.454 77.5832C216.332 77.8275 216.134 78.173 215.902 78.5777C215.854 78.6615 215.804 78.7479 215.754 78.8365C211.696 85.8034 206.57 90.3005 203.435 92.6597C198.123 96.6407 192.96 98.8156 189.272 100.032C189.161 99.9951 189.05 99.9583 188.94 99.9583C188.645 99.9583 188.386 100.106 188.276 100.364C188.184 100.401 188.091 100.428 187.999 100.456C187.907 100.484 187.815 100.511 187.722 100.548C187.612 100.345 187.51 100.143 187.414 99.9491C187.317 99.7556 187.225 99.5712 187.132 99.4054C187.059 99.2579 186.948 99.0367 186.8 98.7787C186.616 98.447 186.321 98.0783 185.989 97.894C185.841 97.7834 185.694 97.7466 185.546 97.7466C185.546 97.7466 185.03 97.7466 184.587 98.2258C184.366 98.4838 184.145 99.1105 185.104 101.322C183.628 101.691 182.338 101.949 181.268 102.133C181.157 101.838 180.862 101.654 180.567 101.654C180.235 101.654 179.903 101.912 179.83 102.244C179.276 102.354 178.723 102.428 178.133 102.502C176.289 102.723 174.592 102.76 173.043 102.723C172.803 102.704 172.573 102.695 172.342 102.686C172.112 102.677 171.881 102.668 171.642 102.649C164.634 102.244 158.622 100.364 153.975 98.2258C154.602 97.1199 155.229 96.0141 155.929 94.9082C156.114 94.5765 156.335 94.2447 156.556 93.913C157.552 92.3648 158.622 90.8534 159.765 89.379L160.65 88.2731C161.499 87.2041 162.421 86.1351 163.38 85.103L163.38 85.103C163.675 84.7712 163.97 84.4395 164.302 84.1077C165.371 83.0019 166.515 81.9329 167.658 80.9376C167.769 80.8271 168.285 80.3847 168.838 79.9424C168.869 79.9179 168.901 79.8924 168.934 79.866C169.891 79.0997 171.806 77.5674 174.445 76.035ZM176.657 89.3789C176.325 89.1577 175.993 88.8997 175.698 88.6416L176.657 89.3789Z" fill="#762AE2"/>
    <path d="M180.936 73.0492L180.902 72.1999C180.816 72.2034 180.732 72.2197 180.651 72.2485L180.936 73.0492ZM174.445 76.035L174.872 76.7701L174.877 76.7669L174.445 76.035ZM202.881 72.1646L202.987 71.3211C202.94 71.3153 202.894 71.3134 202.847 71.3152L202.881 72.1646ZM204.062 72.3857L203.871 73.2141L203.884 73.2169L204.062 72.3857ZM206.201 72.9386L205.957 73.7529L205.964 73.755L206.201 72.9386ZM213.098 75.7033L212.746 76.4772L212.753 76.4801L213.098 75.7033ZM214.131 76.2193L213.718 76.9625C213.729 76.9684 213.74 76.9742 213.751 76.9797L214.131 76.2193ZM215.311 76.846L214.904 77.5923L214.906 77.5934L215.311 76.846ZM215.311 76.846L215.767 76.1288C215.75 76.1181 215.733 76.108 215.716 76.0986L215.311 76.846ZM215.687 77.0782L216.129 76.3518L216.129 76.3518L215.687 77.0782ZM216.454 77.5832L217.214 77.9635C217.396 77.601 217.296 77.1609 216.976 76.9121L216.454 77.5832ZM215.902 78.5777L215.164 78.1548L215.164 78.1548L215.902 78.5777ZM215.754 78.8365L216.488 79.2643L216.491 79.2584L215.754 78.8365ZM203.435 92.6597L203.944 93.3398L203.946 93.3388L203.435 92.6597ZM189.272 100.032L189.003 100.838C189.176 100.896 189.364 100.897 189.538 100.839L189.272 100.032ZM188.276 100.364L188.591 101.153C188.801 101.069 188.968 100.906 189.057 100.699L188.276 100.364ZM187.722 100.548L186.976 100.955C187.183 101.333 187.638 101.497 188.038 101.337L187.722 100.548ZM187.414 99.9491L188.174 99.5688V99.5688L187.414 99.9491ZM187.132 99.4054L186.372 99.7857C186.378 99.7967 186.383 99.8076 186.389 99.8183L187.132 99.4054ZM186.8 98.7787L186.057 99.1917L186.063 99.2006L186.8 98.7787ZM185.989 97.894L185.479 98.5742C185.51 98.5973 185.543 98.6184 185.576 98.6372L185.989 97.894ZM184.587 98.2258L183.963 97.6491C183.956 97.6567 183.949 97.6645 183.942 97.6724L184.587 98.2258ZM185.104 101.322L185.31 102.147C185.552 102.086 185.756 101.922 185.866 101.698C185.977 101.474 185.983 101.213 185.884 100.984L185.104 101.322ZM181.268 102.133L180.472 102.432C180.616 102.814 181.01 103.04 181.412 102.971L181.268 102.133ZM179.83 102.244L179.996 103.077C180.326 103.011 180.586 102.757 180.659 102.428L179.83 102.244ZM178.133 102.502L178.234 103.346L178.238 103.345L178.133 102.502ZM173.043 102.723L172.978 103.57C172.993 103.572 173.008 103.572 173.023 103.573L173.043 102.723ZM171.642 102.649L171.707 101.802C171.701 101.801 171.696 101.801 171.691 101.801L171.642 102.649ZM153.975 98.2258L153.235 97.8065C153.118 98.0135 153.093 98.2602 153.166 98.4866C153.239 98.7131 153.403 98.8985 153.619 98.998L153.975 98.2258ZM155.929 94.9082L156.647 95.3632C156.656 95.3494 156.664 95.3354 156.672 95.3212L155.929 94.9082ZM156.556 93.913L157.264 94.3846C157.266 94.3807 157.269 94.3768 157.271 94.3728L156.556 93.913ZM159.765 89.379L159.102 88.8477L159.094 88.8581L159.765 89.379ZM160.65 88.2731L161.314 88.8043L161.316 88.8015L160.65 88.2731ZM163.38 85.103L164.002 85.6816C164.008 85.6754 164.014 85.6691 164.019 85.6627L163.38 85.103ZM163.38 85.103L162.745 84.5381L162.74 84.5433L163.38 85.103ZM164.302 84.1077L164.903 84.709C164.906 84.7056 164.909 84.7021 164.913 84.6987L164.302 84.1077ZM167.658 80.9376L168.216 81.5788C168.231 81.566 168.245 81.5526 168.259 81.5389L167.658 80.9376ZM168.838 79.9424L168.308 79.2785L168.308 79.2785L168.838 79.9424ZM168.934 79.866L168.403 79.2024L168.403 79.2024L168.934 79.866ZM176.657 89.3789L176.186 90.0862C176.567 90.3403 177.081 90.2464 177.348 89.8738C177.615 89.5013 177.538 88.9843 177.175 88.705L176.657 89.3789ZM175.698 88.6416L176.216 87.9677C175.852 87.688 175.332 87.7477 175.041 88.1025C174.75 88.4574 174.793 88.9793 175.139 89.2815L175.698 88.6416ZM180.651 72.2485C177.908 73.225 175.682 74.317 174.012 75.3031L174.877 76.7669C176.453 75.8362 178.58 74.7903 181.221 73.85L180.651 72.2485ZM202.847 71.3152L180.902 72.1999L180.97 73.8985L202.916 73.0139L202.847 71.3152ZM204.253 71.5575C203.755 71.4427 203.319 71.3626 202.987 71.3211L202.776 73.008C203.034 73.0402 203.409 73.1076 203.871 73.214L204.253 71.5575ZM206.445 72.1245C205.873 71.953 205.323 71.811 204.918 71.712C204.715 71.6624 204.546 71.6234 204.429 71.5966C204.37 71.5832 204.323 71.5728 204.291 71.5658C204.275 71.5622 204.262 71.5595 204.254 71.5576C204.25 71.5567 204.246 71.556 204.244 71.5555C204.243 71.5552 204.242 71.555 204.241 71.5549C204.241 71.5548 204.24 71.5547 204.24 71.5547C204.24 71.5546 204.24 71.5546 204.24 71.5546C204.24 71.5546 204.24 71.5546 204.24 71.5546C204.24 71.5546 204.24 71.5546 204.062 72.3857C203.884 73.2169 203.884 73.2169 203.884 73.2169C203.884 73.2169 203.884 73.2169 203.884 73.2169C203.884 73.2169 203.884 73.2169 203.884 73.2169C203.884 73.2169 203.884 73.2169 203.884 73.2169C203.884 73.217 203.885 73.2171 203.885 73.2173C203.887 73.2176 203.89 73.2182 203.893 73.2189C203.9 73.2205 203.911 73.2228 203.925 73.226C203.954 73.2323 203.997 73.2418 204.052 73.2543C204.162 73.2794 204.322 73.3164 204.515 73.3635C204.902 73.4581 205.422 73.5925 205.957 73.7528L206.445 72.1245ZM213.45 74.9294C210.194 73.4503 207.641 72.4715 206.438 72.1223L205.964 73.755C207.047 74.0693 209.511 75.0073 212.746 76.4772L213.45 74.9294ZM214.543 75.4762C214.19 75.2802 213.799 75.0846 213.443 74.9265L212.753 76.4801C213.061 76.6169 213.407 76.7898 213.718 76.9625L214.543 75.4762ZM215.718 76.0997C215.315 75.8803 214.896 75.6514 214.511 75.459L213.751 76.9797C214.103 77.1559 214.495 77.3693 214.904 77.5923L215.718 76.0997ZM215.716 76.0986L215.716 76.0986L214.906 77.5934L214.906 77.5934L215.716 76.0986ZM216.129 76.3518C216.004 76.2758 215.885 76.2036 215.767 76.1288L214.855 77.5632C214.989 77.6489 215.123 77.73 215.246 77.8046L216.129 76.3518ZM216.976 76.9121C216.702 76.6988 216.394 76.513 216.129 76.3518L215.246 77.8046C215.53 77.9772 215.75 78.112 215.933 78.2543L216.976 76.9121ZM216.639 79.0006C216.866 78.6057 217.079 78.2348 217.214 77.9635L215.694 77.2029C215.585 77.4202 215.402 77.7402 215.164 78.1548L216.639 79.0006ZM216.491 79.2584C216.542 79.1704 216.591 79.0845 216.639 79.0006L215.164 78.1548C215.116 78.2386 215.067 78.3255 215.016 78.4146L216.491 79.2584ZM203.946 93.3388C207.137 90.9376 212.356 86.3605 216.488 79.2643L215.019 78.4088C211.037 85.2463 206.003 89.6634 202.924 91.9805L203.946 93.3388ZM189.538 100.839C193.288 99.6024 198.541 97.3903 203.944 93.3398L202.925 91.9795C197.706 95.8911 192.632 98.0287 189.005 99.2248L189.538 100.839ZM188.94 100.808C188.902 100.808 188.885 100.802 188.9 100.806C188.906 100.808 188.917 100.811 188.935 100.816C188.954 100.822 188.974 100.829 189.003 100.838L189.54 99.2256C189.458 99.1982 189.213 99.1083 188.94 99.1083V100.808ZM189.057 100.699C189.039 100.741 189.007 100.775 188.976 100.793C188.948 100.81 188.933 100.808 188.94 100.808V99.1083C188.364 99.1083 187.761 99.4068 187.495 100.029L189.057 100.699ZM188.243 101.27C188.33 101.244 188.458 101.206 188.591 101.153L187.96 99.5745C187.909 99.5951 187.852 99.6125 187.755 99.6417L188.243 101.27ZM188.038 101.337C188.09 101.317 188.146 101.299 188.243 101.27L187.755 99.6417C187.668 99.6678 187.54 99.7057 187.407 99.7588L188.038 101.337ZM186.653 100.329C186.749 100.521 186.857 100.737 186.976 100.955L188.469 100.141C188.366 99.9536 188.272 99.7642 188.174 99.5688L186.653 100.329ZM186.389 99.8183C186.471 99.965 186.555 100.132 186.653 100.329L188.174 99.5688C188.079 99.3792 187.978 99.1775 187.875 98.9924L186.389 99.8183ZM186.063 99.2006C186.197 99.4366 186.299 99.6396 186.372 99.7857L187.893 99.0251C187.818 98.8762 187.698 98.6369 187.538 98.3568L186.063 99.2006ZM185.576 98.6372C185.712 98.7126 185.911 98.9274 186.057 99.1917L187.543 98.3657C187.321 97.9665 186.93 97.444 186.402 97.1509L185.576 98.6372ZM185.546 98.5966C185.548 98.5966 185.535 98.5966 185.514 98.5902C185.505 98.5872 185.496 98.5835 185.489 98.5799C185.482 98.5763 185.479 98.5739 185.479 98.5742L186.499 97.2139C186.187 96.9799 185.855 96.8966 185.546 96.8966V98.5966ZM185.212 98.8025C185.317 98.6884 185.423 98.6383 185.495 98.6149C185.533 98.6028 185.561 98.598 185.573 98.5964C185.579 98.5956 185.58 98.5956 185.576 98.5959C185.574 98.596 185.571 98.5962 185.566 98.5963C185.564 98.5964 185.561 98.5965 185.557 98.5965C185.556 98.5965 185.554 98.5965 185.552 98.5966C185.551 98.5966 185.55 98.5966 185.549 98.5966C185.549 98.5966 185.548 98.5966 185.548 98.5966C185.548 98.5966 185.547 98.5966 185.547 98.5966C185.547 98.5966 185.546 98.5966 185.546 97.7466C185.546 96.8966 185.546 96.8966 185.546 96.8966C185.545 96.8966 185.545 96.8966 185.545 96.8966C185.544 96.8966 185.544 96.8966 185.543 96.8966C185.542 96.8966 185.541 96.8966 185.54 96.8966C185.537 96.8966 185.535 96.8966 185.532 96.8967C185.527 96.8968 185.521 96.8969 185.515 96.8971C185.502 96.8975 185.487 96.8981 185.47 96.8992C185.436 96.9013 185.394 96.9051 185.345 96.9117C185.246 96.9251 185.118 96.9502 184.97 96.9981C184.674 97.0944 184.3 97.284 183.963 97.6491L185.212 98.8025ZM185.884 100.984C185.419 99.9121 185.276 99.3027 185.25 98.9742C185.228 98.6862 185.298 98.703 185.233 98.7791L183.942 97.6724C183.656 98.0066 183.505 98.4657 183.556 99.1085C183.603 99.7108 183.83 100.521 184.324 101.66L185.884 100.984ZM181.412 102.971C182.5 102.783 183.812 102.521 185.31 102.147L184.898 100.498C183.445 100.86 182.175 101.114 181.124 101.295L181.412 102.971ZM180.567 102.504C180.54 102.504 180.525 102.497 180.515 102.49C180.504 102.483 180.485 102.465 180.472 102.432L182.064 101.835C181.82 101.185 181.191 100.804 180.567 100.804V102.504ZM180.659 102.428C180.653 102.454 180.644 102.471 180.639 102.479C180.634 102.487 180.63 102.49 180.63 102.491C180.629 102.491 180.626 102.493 180.619 102.496C180.611 102.499 180.594 102.504 180.567 102.504V100.804C179.845 100.804 179.162 101.33 179 102.059L180.659 102.428ZM178.238 103.345C178.83 103.271 179.41 103.194 179.996 103.077L179.663 101.41C179.143 101.514 178.617 101.585 178.028 101.658L178.238 103.345ZM173.023 103.573C174.601 103.61 176.339 103.573 178.234 103.346L178.032 101.658C176.238 101.873 174.584 101.909 173.063 101.873L173.023 103.573ZM172.308 103.535C172.541 103.545 172.756 103.553 172.978 103.57L173.108 101.875C172.85 101.856 172.605 101.846 172.376 101.837L172.308 103.535ZM171.576 103.497C171.834 103.517 172.08 103.526 172.308 103.535L172.376 101.837C172.144 101.827 171.928 101.819 171.707 101.802L171.576 103.497ZM153.619 98.998C158.346 101.172 164.461 103.085 171.592 103.498L171.691 101.801C164.806 101.402 158.898 99.5551 154.33 97.4536L153.619 98.998ZM155.211 94.4532C154.498 95.5795 153.861 96.7033 153.235 97.8065L154.714 98.645C155.343 97.5365 155.96 96.4487 156.647 95.3632L155.211 94.4532ZM155.849 93.4413C155.632 93.7672 155.391 94.128 155.186 94.4953L156.672 95.3212C156.837 95.0249 157.038 94.7222 157.264 94.3846L155.849 93.4413ZM159.094 88.8581C157.935 90.352 156.851 91.8837 155.842 93.4531L157.271 94.3728C158.253 92.8459 159.309 91.3549 160.437 89.8998L159.094 88.8581ZM159.987 87.7419L159.102 88.8478L160.429 89.9101L161.314 88.8043L159.987 87.7419ZM162.757 84.5244C161.784 85.5716 160.848 86.6573 159.985 87.7447L161.316 88.8015C162.15 87.7509 163.057 86.6987 164.002 85.6816L162.757 84.5244ZM162.74 84.5433L162.74 84.5433L164.019 85.6627L164.019 85.6627L162.74 84.5433ZM163.701 83.5065C163.349 83.8586 163.038 84.2087 162.745 84.5381L164.015 85.6679C164.312 85.3338 164.591 85.0204 164.903 84.709L163.701 83.5065ZM167.1 80.2965C165.942 81.305 164.78 82.3907 163.691 83.5168L164.913 84.6987C165.963 83.6131 167.088 82.5608 168.216 81.5788L167.1 80.2965ZM168.308 79.2785C167.759 79.7168 167.206 80.1874 167.057 80.3364L168.259 81.5389C168.258 81.5397 168.26 81.5375 168.267 81.5316C168.273 81.526 168.281 81.5185 168.291 81.509C168.312 81.4899 168.339 81.4654 168.373 81.4356C168.441 81.3762 168.529 81.3003 168.632 81.2129C168.838 81.0381 169.099 80.8221 169.369 80.6063L168.308 79.2785ZM168.403 79.2024C168.37 79.2288 168.338 79.2541 168.308 79.2785L169.369 80.6063C169.4 80.5816 169.432 80.556 169.465 80.5297L168.403 79.2024ZM174.018 75.3C171.322 76.8654 169.367 78.4304 168.403 79.2024L169.465 80.5297C170.415 79.769 172.29 78.2694 174.872 76.7701L174.018 75.3ZM177.128 88.6715C176.831 88.4731 176.528 88.2382 176.258 88.0018L175.139 89.2815C175.458 89.5611 175.82 89.8423 176.186 90.0862L177.128 88.6715ZM175.18 89.3155L176.139 90.0527L177.175 88.705L176.216 87.9677L175.18 89.3155Z" fill="black"/>
    <path d="M168.986 80.3845C168.986 80.79 168.654 81.1586 168.211 81.1586C167.99 81.1586 167.805 81.0849 167.658 80.9374C168.027 80.6056 168.432 80.2739 168.838 79.9421C168.912 80.0527 168.986 80.2002 168.986 80.3845Z" fill="black"/>
    <path d="M164.855 84.8078C164.855 85.2133 164.523 85.5819 164.08 85.5819C163.748 85.5819 163.453 85.3607 163.379 85.0658C163.674 84.7341 164.006 84.4023 164.301 84.0706C164.633 84.1811 164.855 84.476 164.855 84.8078Z" fill="black"/>
    <path d="M172.342 85.5819C172.77 85.5819 173.116 85.2353 173.116 84.8078C173.116 84.3803 172.77 84.0337 172.342 84.0337C171.914 84.0337 171.567 84.3803 171.567 84.8078C171.567 85.2353 171.914 85.5819 172.342 85.5819Z" fill="black"/>
    <path d="M160.724 88.6416C160.724 89.047 160.392 89.4157 159.949 89.4157C159.876 89.4157 159.802 89.4157 159.728 89.3788C160.023 89.0102 160.318 88.6416 160.613 88.2729C160.687 88.3835 160.724 88.4941 160.724 88.6416Z" fill="black"/>
    <path d="M168.211 89.4156C168.639 89.4156 168.986 89.069 168.986 88.6415C168.986 88.214 168.639 87.8674 168.211 87.8674C167.783 87.8674 167.437 88.214 167.437 88.6415C167.437 89.069 167.783 89.4156 168.211 89.4156Z" fill="black"/>
    <path d="M176.657 89.3786C176.584 89.3786 176.51 89.4155 176.436 89.4155C176.03 89.4155 175.662 89.0837 175.662 88.6414C175.994 88.8994 176.326 89.1574 176.657 89.3786Z" fill="black"/>
    <path d="M201.848 72.5698C201.848 72.9015 201.664 73.1596 201.369 73.2702C201.516 72.9015 201.664 72.5698 201.774 72.238C201.811 72.3486 201.848 72.4592 201.848 72.5698Z" fill="black"/>
    <path d="M205.205 77.1405C205.632 77.1405 205.979 76.7939 205.979 76.3664C205.979 75.9389 205.632 75.5923 205.205 75.5923C204.777 75.5923 204.43 75.9389 204.43 76.3664C204.43 76.7939 204.777 77.1405 205.205 77.1405Z" fill="black"/>
    <path d="M214.204 76.3666C214.204 76.7721 213.872 77.1407 213.429 77.1407C212.987 77.1407 212.655 76.809 212.655 76.3666C212.655 76.0349 212.839 75.7768 213.134 75.6663C213.466 75.8506 213.835 76.0349 214.167 76.1823C214.204 76.256 214.204 76.3298 214.204 76.3666Z" fill="black"/>
    <path d="M201.074 81.6007C201.502 81.6007 201.848 81.2541 201.848 80.8266C201.848 80.3991 201.502 80.0525 201.074 80.0525C200.646 80.0525 200.299 80.3991 200.299 80.8266C200.299 81.2541 200.646 81.6007 201.074 81.6007Z" fill="black"/>
    <path d="M209.336 81.6007C209.763 81.6007 210.11 81.2541 210.11 80.8266C210.11 80.3991 209.763 80.0525 209.336 80.0525C208.908 80.0525 208.561 80.3991 208.561 80.8266C208.561 81.2541 208.908 81.6007 209.336 81.6007Z" fill="black"/>
    <path d="M196.943 85.3976C197.371 85.3976 197.718 85.051 197.718 84.6235C197.718 84.1959 197.371 83.8494 196.943 83.8494C196.515 83.8494 196.168 84.1959 196.168 84.6235C196.168 85.051 196.515 85.3976 196.943 85.3976Z" fill="black"/>
    <path d="M205.205 85.3976C205.632 85.3976 205.979 85.051 205.979 84.6235C205.979 84.1959 205.632 83.8494 205.205 83.8494C204.777 83.8494 204.43 84.1959 204.43 84.6235C204.43 85.051 204.777 85.3976 205.205 85.3976Z" fill="black"/>
    <path d="M193.144 89.4525C193.572 89.4525 193.919 89.1059 193.919 88.6784C193.919 88.2509 193.572 87.9043 193.144 87.9043C192.716 87.9043 192.37 88.2509 192.37 88.6784C192.37 89.1059 192.716 89.4525 193.144 89.4525Z" fill="black"/>
    <path d="M201.369 89.4525C201.797 89.4525 202.143 89.1059 202.143 88.6784C202.143 88.2509 201.797 87.9043 201.369 87.9043C200.941 87.9043 200.594 88.2509 200.594 88.6784C200.594 89.1059 200.941 89.4525 201.369 89.4525Z" fill="black"/>
    <path d="M189.013 93.2862C189.441 93.2862 189.787 92.9397 189.787 92.5121C189.787 92.0846 189.441 91.738 189.013 91.738C188.585 91.738 188.238 92.0846 188.238 92.5121C188.238 92.9397 188.585 93.2862 189.013 93.2862Z" fill="black"/>
    <path d="M197.275 93.2862C197.703 93.2862 198.05 92.9397 198.05 92.5121C198.05 92.0846 197.703 91.738 197.275 91.738C196.847 91.738 196.5 92.0846 196.5 92.5121C196.5 92.9397 196.847 93.2862 197.275 93.2862Z" fill="black"/>
    <path d="M156.593 94.1338C156.593 94.5392 156.298 94.8341 155.929 94.871C156.15 94.5392 156.335 94.2075 156.556 93.8757C156.593 93.9863 156.593 94.06 156.593 94.1338Z" fill="black"/>
    <path d="M164.08 94.9078C164.508 94.9078 164.855 94.5612 164.855 94.1337C164.855 93.7062 164.508 93.3596 164.08 93.3596C163.652 93.3596 163.306 93.7062 163.306 94.1337C163.306 94.5612 163.652 94.9078 164.08 94.9078Z" fill="black"/>
    <path d="M172.342 94.9078C172.77 94.9078 173.116 94.5612 173.116 94.1337C173.116 93.7062 172.77 93.3596 172.342 93.3596C171.914 93.3596 171.567 93.7062 171.567 94.1337C171.567 94.5612 171.914 94.9078 172.342 94.9078Z" fill="black"/>
    <path d="M159.949 98.7416C160.377 98.7416 160.724 98.395 160.724 97.9675C160.724 97.5399 160.377 97.1934 159.949 97.1934C159.522 97.1934 159.175 97.5399 159.175 97.9675C159.175 98.395 159.522 98.7416 159.949 98.7416Z" fill="black"/>
    <path d="M168.211 98.7416C168.639 98.7416 168.986 98.395 168.986 97.9675C168.986 97.5399 168.639 97.1934 168.211 97.1934C167.783 97.1934 167.437 97.5399 167.437 97.9675C167.437 98.395 167.783 98.7416 168.211 98.7416Z" fill="black"/>
    <path d="M176.473 98.7416C176.901 98.7416 177.247 98.395 177.247 97.9675C177.247 97.5399 176.901 97.1934 176.473 97.1934C176.045 97.1934 175.698 97.5399 175.698 97.9675C175.698 98.395 176.045 98.7416 176.473 98.7416Z" fill="black"/>
    <path d="M180.567 94.9078C180.994 94.9078 181.341 94.5612 181.341 94.1337C181.341 93.7062 180.994 93.3596 180.567 93.3596C180.139 93.3596 179.792 93.7062 179.792 94.1337C179.792 94.5612 180.139 94.9078 180.567 94.9078Z" fill="black"/>
    <path d="M173.08 102.391C173.08 102.501 173.043 102.612 173.006 102.723C172.526 102.723 172.047 102.686 171.604 102.649C171.567 102.575 171.567 102.465 171.567 102.391C171.567 101.985 171.899 101.617 172.342 101.617C172.748 101.654 173.08 101.985 173.08 102.391Z" fill="black"/>
    <path d="M181.674 91.0008C179.682 91.0008 177.912 90.5216 176.474 89.6001C176.105 89.3789 175.773 89.1209 175.478 88.826C174.371 87.8307 173.449 86.4669 172.785 84.8081V84.7712L172.675 84.4763C172.675 84.4763 172.675 84.4763 172.675 84.4395C171.974 82.5226 171.605 80.2372 171.531 77.6569C171.531 77.4726 171.679 77.3251 171.826 77.3251C172.011 77.3251 172.121 77.4726 172.121 77.62C172.195 80.1266 172.564 82.3383 173.228 84.2183L173.339 84.55V84.5869C173.966 86.1351 174.814 87.4253 175.847 88.3468C176.142 88.6048 176.437 88.826 176.769 89.0472C178.465 90.153 180.678 90.5585 183.297 90.2267C192.997 89.0472 198.566 79.0208 201.038 73.1229C201.038 73.1229 201.038 73.1229 201.038 73.0861C201.185 72.7174 201.333 72.3857 201.443 72.0908C201.48 72.0539 201.48 72.0171 201.48 71.9802L201.554 71.7959C201.591 71.7222 201.591 71.6484 201.628 71.6116C201.701 71.4641 201.849 71.3536 202.033 71.4273C202.181 71.501 202.292 71.6484 202.218 71.8328C202.181 71.9065 202.181 71.9802 202.144 72.0539L202.07 72.2014C202.07 72.2382 202.033 72.2751 202.033 72.312C201.923 72.6068 201.775 72.9386 201.628 73.3072C201.628 73.3072 201.628 73.3072 201.628 73.3441C199.12 79.3894 193.44 89.6738 183.408 90.8534C182.817 91.0008 182.227 91.0008 181.674 91.0008Z" fill="black"/>
    <path d="M176.326 107.552C176.252 107.515 176.731 105.782 176.879 104.492C176.953 103.829 176.989 103.202 176.989 103.202C176.989 103.055 176.989 102.907 176.989 102.76C177.358 102.723 177.727 102.723 178.133 102.686C178.17 102.686 178.207 102.686 178.28 102.686C177.875 104.161 176.326 107.552 176.326 107.552Z" fill="black"/>
    <path fill-rule="evenodd" clip-rule="evenodd" d="M176.251 107.847L176.362 107.884H176.473C176.731 107.736 178.317 103.755 178.575 102.797L178.686 102.354L178.096 102.391C177.911 102.41 177.727 102.419 177.542 102.428C177.358 102.437 177.173 102.446 176.989 102.465H176.694V102.76V103.165C176.694 103.202 176.657 103.829 176.583 104.455C176.473 105.119 176.325 105.967 176.178 106.556C175.956 107.589 175.919 107.773 176.251 107.847ZM177.321 103.165V103.018C177.506 103.018 177.69 103.018 177.874 102.981C177.745 103.368 177.562 103.828 177.375 104.296C177.295 104.497 177.214 104.699 177.137 104.898C177.143 104.872 177.149 104.848 177.155 104.825C177.185 104.711 177.21 104.614 177.21 104.492C177.284 103.829 177.321 103.202 177.321 103.165Z" fill="black"/>
    <path d="M181.931 102.096C181.747 102.649 181.452 103.46 181.083 104.492C180.456 106.335 180.124 107.257 180.087 107.257C180.05 107.257 180.235 106.52 180.456 105.487C180.751 104.16 180.972 103.055 181.083 102.244C181.341 102.207 181.636 102.17 181.931 102.096Z" fill="black"/>
    <path fill-rule="evenodd" clip-rule="evenodd" d="M180.013 107.552C180.087 107.589 180.124 107.589 180.161 107.589C180.345 107.589 180.456 107.294 180.972 105.782L181.378 104.603C181.464 104.361 181.547 104.131 181.625 103.914C181.879 103.205 182.085 102.63 182.226 102.207L182.411 101.691L181.857 101.801C181.696 101.821 181.546 101.853 181.4 101.883C181.28 101.908 181.163 101.932 181.046 101.949L180.825 101.986L180.788 102.207C180.762 102.351 180.736 102.497 180.71 102.643C180.55 103.547 180.383 104.494 180.161 105.414C180.133 105.539 180.11 105.654 180.089 105.762C180.054 105.94 180.022 106.101 179.976 106.262L179.973 106.273C179.718 107.332 179.682 107.478 180.013 107.552ZM181.341 102.723C181.351 102.658 181.36 102.594 181.378 102.539C181.378 102.539 181.415 102.502 181.452 102.539C181.39 102.631 181.354 102.724 181.322 102.839C181.33 102.802 181.336 102.762 181.341 102.723ZM181.305 102.907C181.311 102.884 181.316 102.861 181.322 102.839C181.318 102.863 181.312 102.886 181.305 102.907Z" fill="black"/>
    <path d="M185.583 102.318C185.472 102.576 185.399 102.834 185.288 103.092C185.177 102.981 185.03 102.87 184.882 102.76C184.993 102.354 185.104 101.949 185.214 101.543C185.325 101.765 185.436 102.023 185.583 102.318Z" fill="black"/>
    <path d="M185.399 103.608L185.067 103.313C184.956 103.202 184.809 103.092 184.661 102.981L184.477 102.834L184.55 102.612C184.661 102.207 184.772 101.801 184.882 101.396L185.104 100.548L185.472 101.359C185.583 101.617 185.694 101.875 185.841 102.133L185.915 102.244L185.878 102.354C185.804 102.502 185.767 102.686 185.694 102.834L185.399 103.608Z" fill="black"/>
    <path d="M189.419 102.428C189.271 102.539 189.161 102.686 189.05 102.797C188.902 102.539 188.755 102.281 188.607 102.023C188.681 101.728 188.792 101.433 188.829 101.175C189.013 101.617 189.198 102.023 189.419 102.428Z" fill="black"/>
    <path d="M189.013 103.35L188.607 102.686C188.496 102.502 188.423 102.354 188.312 102.207L188.238 102.096L188.275 101.949C188.349 101.654 188.423 101.396 188.496 101.138L188.718 100.29L189.087 101.101C189.271 101.506 189.455 101.912 189.64 102.317L189.75 102.539L189.603 102.686C189.455 102.833 189.345 102.944 189.271 103.055L189.013 103.35Z" fill="black"/>
    <path d="M194.73 105.93C193.292 103.313 192.074 101.138 191.226 99.479C191.558 99.3684 191.89 99.2209 192.222 99.1104C193.181 101.986 194.546 105.451 194.73 105.93Z" fill="black"/>
    <path fill-rule="evenodd" clip-rule="evenodd" d="M190.968 99.6264C191.779 101.211 192.923 103.313 194.472 106.077L195.062 105.856C194.877 105.451 193.513 101.912 192.554 99.0366L192.443 98.7048L192.148 98.8154C191.982 98.8707 191.816 98.9352 191.65 98.9997C191.484 99.0642 191.318 99.1287 191.152 99.184L190.82 99.2946L190.968 99.6264ZM192.886 101.912C192.406 101.064 192.001 100.327 191.669 99.6635C191.724 99.6451 191.788 99.6174 191.853 99.5898C191.918 99.5621 191.982 99.5345 192.037 99.516C192.296 100.29 192.591 101.138 192.886 101.912Z" fill="black"/>
    <path d="M245.039 117.21C243.895 121.559 241.055 123.955 241.055 123.955C236.555 127.715 230.433 126.683 228.994 126.388C229.474 128.158 229.99 130.001 230.617 131.881C231.281 133.945 231.982 135.898 232.72 137.778C232.461 138.294 232.203 138.811 231.945 139.29C231.023 141.022 229.732 143.087 227.777 145.335L227.74 145.372C227.298 145.888 226.818 146.404 226.302 146.957C226.265 146.994 226.265 147.031 226.228 147.031C226.265 146.994 226.265 146.92 226.302 146.883C227.372 144.966 227.925 143.308 228.257 142.091C229.031 139.142 228.515 138.331 228.257 138.036C228.183 137.963 227.704 137.41 227.04 137.373C226.007 137.299 225.159 138.479 224.163 140.322C223.499 141.501 222.761 143.013 221.839 144.635C221.765 144.745 221.692 144.856 221.655 145.003C221.138 145.888 220.475 146.994 219.626 148.247C219.11 149.058 218.483 149.906 217.782 150.827C217.708 150.717 217.598 150.569 217.524 150.459C202.365 155.214 187.243 159.969 172.084 164.761C171.199 164.208 170.203 163.545 169.133 162.844C168.838 162.66 168.543 162.439 168.211 162.255C167.99 162.107 167.806 161.96 167.584 161.849C167.437 161.739 167.289 161.665 167.179 161.554C166.662 161.222 166.146 160.854 165.593 160.485C165.261 160.264 164.929 160.043 164.597 159.822C163.749 159.232 162.863 158.605 161.941 157.942C162.79 151.565 163.638 145.188 164.523 138.811C153.68 143.603 149.327 140.912 148.258 140.101C147.077 139.253 146.155 138.036 145.528 136.451C147.114 135.161 148.885 133.392 148.553 131.807C148.516 131.696 148.405 131.217 148.073 130.959C147.373 130.406 145.971 130.959 144.459 131.954C144.422 131.586 144.385 131.18 144.348 130.775C144.975 130.074 145.639 129.374 146.303 128.674C146.672 128.268 147.151 127.752 147.483 127.125C147.815 126.572 147.963 125.983 147.815 125.393C147.668 124.803 147.188 124.287 146.635 124.14C146.192 123.992 145.75 124.066 145.27 124.324C145.049 124.434 144.791 124.582 144.569 124.766C145.492 117.468 148.59 108.326 154.011 98.3364C159.249 100.732 166.146 102.834 174.297 102.834C174.113 103.903 173.928 105.193 173.596 106.593C173.559 106.815 173.486 107.036 173.412 107.294C173.412 107.331 173.375 107.404 173.375 107.441C173.338 107.552 173.301 107.662 173.264 107.773C173.264 107.81 173.227 107.847 173.227 107.884C173.154 108.105 173.08 108.326 173.006 108.584C172.969 108.695 172.932 108.805 172.896 108.916C172.748 109.395 172.527 109.948 172.305 110.501C172.232 110.722 172.121 110.906 172.047 111.127C172.047 111.164 172.047 111.164 172.01 111.201C171.973 111.312 171.9 111.459 171.863 111.57C171.789 111.717 171.715 111.865 171.642 112.012C171.605 112.086 171.568 112.16 171.531 112.27C171.494 112.307 171.494 112.381 171.457 112.418L171.973 112.934L172.6 113.56L174.371 115.403L179.866 121.043C180.272 120.453 184.551 114.334 187.722 109.579C191.595 113.745 196.685 119.016 197.165 119.495L201.701 113.044L203.176 110.943L203.693 110.206L204.098 109.616C204.062 109.579 204.025 109.542 203.988 109.469C203.951 109.395 203.877 109.321 203.84 109.247C203.73 109.1 203.656 108.953 203.545 108.842C203.471 108.731 203.398 108.621 203.324 108.51L203.287 108.473C203.176 108.289 203.029 108.105 202.918 107.884C202.623 107.368 202.328 106.888 202.107 106.409C202.07 106.299 201.996 106.225 201.959 106.114C201.849 105.893 201.738 105.672 201.627 105.451C201.59 105.414 201.59 105.377 201.554 105.34C201.517 105.23 201.443 105.119 201.406 105.008C201.369 104.972 201.369 104.898 201.332 104.861C201.222 104.64 201.148 104.419 201.037 104.197C200.41 102.686 200.004 101.248 199.599 100.143C199.562 100.106 199.562 100.032 199.525 99.9952C199.119 98.8893 198.714 98.1521 198.16 98.0784C197.755 98.0415 197.349 98.3364 197.165 98.5944C196.869 98.963 196.833 99.516 196.98 100.548C197.054 100.99 197.091 101.285 197.128 101.359C197.644 103.423 198.455 105.377 198.345 105.451C198.308 105.451 196.722 103.018 196.021 101.617C195.394 100.327 194.915 99.1474 194.583 98.0784C201.996 94.7239 210.332 88.8998 215.79 78.9103C216.049 78.4679 216.27 78.0256 216.491 77.5464C235.449 93.4338 247.178 109.063 245.039 117.21Z" fill="black"/>
    <path fill-rule="evenodd" clip-rule="evenodd" d="M171.863 165.019L171.973 165.093L217.339 150.901C217.358 150.938 217.376 150.966 217.395 150.993C217.413 151.021 217.432 151.049 217.45 151.085L217.708 151.454L217.966 151.122C218.151 150.862 218.336 150.604 218.52 150.348C218.96 149.735 219.394 149.129 219.811 148.505C220.548 147.399 221.212 146.293 221.839 145.224C221.876 145.077 221.95 144.966 222.024 144.856C222.54 143.934 223.019 143.05 223.425 142.239C223.619 141.9 223.796 141.562 223.969 141.234C224.059 141.061 224.148 140.892 224.237 140.727L224.31 140.58C225.232 138.884 226.044 137.742 226.892 137.815C227.381 137.85 227.77 138.248 227.873 138.353C227.879 138.359 227.884 138.364 227.888 138.368C228.367 138.921 228.331 140.211 227.814 142.165C227.372 143.787 226.745 145.372 225.896 146.883L224.753 148.947L226.302 147.399C226.325 147.399 226.334 147.385 226.346 147.366C226.353 147.354 226.362 147.34 226.376 147.326C226.929 146.773 227.408 146.257 227.814 145.777L227.925 145.667C229.585 143.75 230.986 141.723 232.093 139.621C232.239 139.305 232.401 138.988 232.569 138.66C232.655 138.493 232.743 138.322 232.83 138.147L232.904 138V137.852L232.867 137.778C232.13 135.862 231.392 133.908 230.765 131.917C230.212 130.259 229.695 128.563 229.253 126.904C231.798 127.347 237.072 127.678 241.092 124.324C241.203 124.25 244.043 121.854 245.186 117.431C247.325 109.358 236.334 94.0604 216.565 77.5095L216.27 77.2515L216.085 77.6201C215.975 77.8413 215.855 78.0624 215.735 78.2836C215.615 78.5048 215.495 78.7259 215.385 78.9471C210.811 87.3147 203.73 93.7286 194.325 97.9677L194.066 98.0783L194.14 98.3364C194.509 99.5528 194.988 100.732 195.579 101.912C195.947 102.649 196.574 103.681 197.017 104.382C197.976 105.93 197.976 105.93 198.197 105.93H198.271L198.345 105.893C198.64 105.746 198.603 105.598 198.197 104.419C197.902 103.608 197.57 102.539 197.275 101.433C197.275 101.418 197.264 101.365 197.246 101.278C197.218 101.143 197.173 100.928 197.128 100.659C197.017 99.7371 197.054 99.2579 197.275 98.9261C197.46 98.705 197.755 98.4838 198.013 98.5207C198.455 98.5575 198.824 99.4422 199.119 100.216C199.156 100.253 199.193 100.327 199.193 100.364C199.266 100.606 199.354 100.864 199.448 101.138C199.498 101.281 199.548 101.428 199.599 101.58C199.646 101.716 199.694 101.855 199.743 101.998C200.002 102.746 200.291 103.582 200.631 104.419C200.682 104.571 200.751 104.724 200.825 104.889C200.858 104.963 200.892 105.039 200.927 105.119L201 105.23C201.019 105.285 201.046 105.34 201.074 105.395C201.102 105.451 201.129 105.506 201.148 105.561C201.166 105.58 201.176 105.598 201.185 105.617C201.194 105.635 201.203 105.653 201.222 105.672L201.554 106.335L201.701 106.63C201.959 107.146 202.217 107.626 202.513 108.105C202.568 108.197 202.632 108.289 202.697 108.381C202.761 108.473 202.826 108.565 202.881 108.658C202.881 108.695 202.918 108.731 202.918 108.731C202.955 108.768 202.983 108.814 203.01 108.86C203.038 108.906 203.066 108.953 203.103 108.989L203.14 109.063C203.195 109.137 203.241 109.211 203.287 109.284C203.333 109.358 203.379 109.432 203.435 109.505L203.582 109.69L197.017 119.09C195.874 117.91 191.374 113.228 187.833 109.432L187.575 109.137L187.354 109.469C184.551 113.708 180.862 118.979 179.719 120.601L171.715 112.381L171.826 112.16C171.9 112.049 171.937 111.975 171.973 111.865H172.084V111.607C172.103 111.57 172.121 111.524 172.139 111.478C172.158 111.431 172.176 111.385 172.195 111.349L172.232 111.238C172.269 111.127 172.315 111.026 172.361 110.925C172.407 110.823 172.453 110.722 172.49 110.611C172.665 110.202 172.818 109.769 172.965 109.35C173.004 109.241 173.042 109.133 173.08 109.026C173.096 108.978 173.105 108.936 173.113 108.899C173.124 108.851 173.133 108.81 173.154 108.768L173.191 108.695C173.227 108.584 173.264 108.464 173.301 108.344C173.338 108.225 173.375 108.105 173.412 107.994L173.449 107.81C173.466 107.759 173.475 107.708 173.483 107.661C173.493 107.606 173.503 107.555 173.523 107.515C173.523 107.478 173.532 107.45 173.541 107.423C173.55 107.395 173.559 107.367 173.559 107.331C173.576 107.272 173.593 107.215 173.609 107.159C173.665 106.972 173.715 106.801 173.744 106.63C173.965 105.561 174.15 104.529 174.297 103.644C174.371 103.35 174.408 103.092 174.445 102.833L174.518 102.465H174.15C167.289 102.465 160.503 100.99 154.011 98.0046L153.753 97.894L153.606 98.1521C148.405 107.736 145.123 116.915 144.127 124.692L144.016 125.43L144.606 124.987C144.828 124.84 145.049 124.692 145.27 124.582C145.676 124.361 146.045 124.324 146.377 124.434C146.819 124.545 147.225 124.987 147.336 125.467C147.446 125.872 147.373 126.388 147.041 126.941C146.73 127.494 146.289 127.982 145.962 128.344C145.94 128.369 145.918 128.392 145.897 128.416C145.233 129.116 144.569 129.816 143.942 130.517L143.869 130.627V130.775C143.906 131.18 143.942 131.586 143.979 131.954L144.016 132.47L144.459 132.212C146.082 131.18 147.262 130.848 147.741 131.217C147.926 131.364 148.036 131.622 148.11 131.917C148.368 133.023 147.409 134.424 145.196 136.23L145.012 136.378L145.086 136.599C145.75 138.221 146.709 139.474 147.926 140.359C149.807 141.759 154.417 143.418 164.007 139.327C163.306 144.782 162.568 150.201 161.831 155.619L161.499 158.089L161.646 158.2C162.071 158.489 162.489 158.786 162.902 159.079C163.385 159.423 163.862 159.762 164.339 160.08L165.335 160.743C165.559 160.893 165.778 161.043 165.994 161.19C166.308 161.406 166.614 161.615 166.92 161.812L167.99 162.513C168.198 162.628 168.391 162.758 168.579 162.884C168.691 162.959 168.802 163.033 168.912 163.102L168.912 163.103C169.871 163.729 170.83 164.356 171.863 165.019ZM163.346 158.507C162.978 158.244 162.607 157.979 162.236 157.721L162.568 155.583C162.96 152.585 163.363 149.597 163.764 146.615C164.119 143.986 164.472 141.362 164.818 138.737L164.892 138.184L164.375 138.405C154.343 142.792 149.88 140.801 148.405 139.732C147.335 138.958 146.487 137.852 145.86 136.451C147.372 135.198 149.179 133.392 148.811 131.659C148.7 131.217 148.515 130.848 148.22 130.627C147.52 130.074 146.339 130.332 144.643 131.328C144.643 131.236 144.634 131.153 144.624 131.07C144.615 130.987 144.606 130.904 144.606 130.812C144.919 130.48 145.233 130.139 145.546 129.798C145.86 129.457 146.173 129.116 146.487 128.784C146.856 128.416 147.372 127.826 147.741 127.199C148.147 126.499 148.257 125.835 148.11 125.245C147.925 124.582 147.372 123.992 146.708 123.771C146.192 123.624 145.676 123.66 145.122 123.955C145.068 123.955 145.034 123.975 144.991 124C144.975 124.009 144.958 124.019 144.938 124.029C146.007 116.509 149.179 107.773 154.122 98.6313C160.502 101.507 167.141 103.018 173.891 103.055C173.873 103.128 173.863 103.202 173.854 103.276C173.845 103.35 173.836 103.423 173.817 103.497C173.794 103.634 173.771 103.774 173.748 103.916C173.621 104.692 173.482 105.543 173.264 106.446C173.222 106.572 173.192 106.697 173.16 106.829C173.136 106.93 173.111 107.035 173.08 107.146C173.08 107.162 173.073 107.177 173.066 107.195C173.055 107.22 173.043 107.251 173.043 107.294C173.024 107.349 173.015 107.395 173.006 107.441C172.997 107.487 172.987 107.533 172.969 107.589L172.932 107.773C172.858 107.994 172.784 108.215 172.711 108.473L172.674 108.547C172.655 108.584 172.646 108.621 172.637 108.658C172.628 108.695 172.618 108.731 172.6 108.768C172.453 109.284 172.268 109.8 172.047 110.316C172.01 110.427 171.964 110.528 171.918 110.63C171.872 110.731 171.826 110.833 171.789 110.943L171.752 111.054C171.715 111.164 171.678 111.238 171.641 111.312L171.604 111.385L171.383 111.828L171.272 112.012L171.199 112.086V112.16C171.199 112.196 171.199 112.233 171.162 112.27L171.051 112.454L179.866 121.522L180.087 121.228C180.862 120.159 184.698 114.592 187.722 110.095C191.742 114.408 196.869 119.679 196.906 119.716L197.164 119.974L204.319 109.764L204.43 109.579L204.356 109.432L204.319 109.395L204.282 109.358V109.284L204.172 109.211L204.135 109.174C204.098 109.1 204.061 109.063 204.024 109.026L203.803 108.695L203.766 108.621L203.545 108.289L203.508 108.252C203.36 108.068 203.25 107.884 203.139 107.699L203.139 107.699C202.844 107.22 202.586 106.741 202.328 106.262L202.18 105.967L201.848 105.303C201.848 105.266 201.848 105.23 201.811 105.193C201.793 105.137 201.765 105.082 201.738 105.027C201.71 104.972 201.682 104.916 201.664 104.861L201.627 104.787C201.627 104.75 201.59 104.714 201.59 104.714L201.59 104.713C201.479 104.492 201.369 104.271 201.295 104.05C200.948 103.271 200.692 102.514 200.456 101.815C200.39 101.622 200.326 101.432 200.262 101.249C200.196 101.067 200.138 100.879 200.08 100.692C200.008 100.462 199.938 100.236 199.857 100.032C199.857 100.014 199.847 99.986 199.838 99.9583C199.829 99.9307 199.82 99.9031 199.82 99.8846C199.377 98.705 198.934 97.8941 198.197 97.7835C197.644 97.7098 197.164 98.1153 196.906 98.447C196.537 98.8894 196.5 99.516 196.648 100.622C196.676 100.777 196.704 100.921 196.728 101.044C196.767 101.243 196.795 101.387 196.795 101.433L196.795 101.433C196.98 102.096 197.164 102.76 197.349 103.35C196.943 102.723 196.537 102.023 196.279 101.47C195.763 100.401 195.32 99.3317 194.951 98.2258C204.319 93.913 211.438 87.4622 216.048 79.0578C216.171 78.8611 216.294 78.6317 216.417 78.4023C216.478 78.2877 216.54 78.173 216.601 78.0625C235.707 94.0973 246.735 109.395 244.706 117.099C243.637 121.195 241.052 123.502 240.846 123.686C240.839 123.692 240.835 123.696 240.833 123.697C236.776 127.125 231.207 126.499 229.031 126.056L228.551 125.946L228.699 126.425C229.178 128.268 229.732 130.111 230.322 131.954C230.949 133.908 231.65 135.862 232.387 137.742C232.238 138.064 232.073 138.386 231.913 138.697C231.835 138.849 231.759 138.998 231.687 139.142C230.617 141.243 229.215 143.234 227.593 145.114L227.519 145.188C227.924 144.192 228.293 143.197 228.551 142.202C229.326 139.253 228.883 138.295 228.478 137.852C228.33 137.668 227.777 137.115 227.039 137.078C225.896 137.004 224.974 138.147 223.941 140.027L223.83 140.174C223.535 140.691 223.24 141.243 222.908 141.87C222.503 142.681 222.023 143.566 221.507 144.487C221.47 144.635 221.396 144.745 221.322 144.856C220.695 145.925 220.032 147.031 219.294 148.1C218.777 148.837 218.261 149.574 217.708 150.311L217.56 150.09L172.084 164.356C171.835 164.193 171.589 164.034 171.345 163.875C170.647 163.421 169.964 162.977 169.281 162.513C169.2 162.462 169.116 162.412 169.032 162.361C168.807 162.225 168.573 162.084 168.359 161.923L167.326 161.223C167.019 161.026 166.713 160.816 166.399 160.601C166.184 160.453 165.965 160.303 165.74 160.154L164.744 159.49C164.288 159.179 163.82 158.845 163.346 158.507Z" fill="black"/>
    <path d="M195.726 72.7543C195.358 71.0218 194.067 64.4972 193.772 62.9859C194.214 63.1702 194.841 63.3914 195.579 63.4283C195.948 63.4651 197.718 63.5757 199.046 62.4699C200.669 61.106 201.075 58.4519 199.931 56.5351C199.82 56.3508 198.935 54.9501 197.239 54.5077C195.911 54.176 194.804 54.5814 194.362 54.7658C193.366 55.2081 192.813 55.9085 192.555 56.2402C191.19 54.8395 189.678 53.0701 188.276 50.9321C185.989 47.504 184.662 44.2602 183.813 41.7167C183.076 43.228 181.932 45.1449 180.273 47.0617C178.096 49.5683 175.847 51.1902 174.15 52.1854C174.113 54.7289 174.261 63.3545 180.014 67.225C180.494 67.5568 181.01 67.8148 181.563 68.0728C181.342 69.7316 181.121 71.4272 180.9 73.086C180.088 73.3441 179.24 73.6758 178.355 74.0444C176.695 74.7448 175.22 75.5558 173.966 76.3299C166.331 74.2287 158.696 72.0908 151.098 69.9896C156.483 51.8168 167.917 38.7678 180.568 37.5145C187.096 36.8878 192.223 39.3944 193.182 39.8736C203.214 44.9605 208.931 57.4567 208.156 71.9802C204.025 72.2013 199.857 72.4594 195.726 72.7543Z" fill="black"/>
    <path d="M190.231 66.3035C189.53 67.1144 188.498 68.1097 187.096 68.9944C185.436 70.0265 183.85 70.5426 182.559 70.8006C182.043 70.9112 181.416 70.9849 181.416 70.9849C181.305 70.9849 181.232 71.0218 181.195 71.0218C181.232 70.3951 181.269 69.6947 181.416 68.9575C181.453 68.6626 181.527 68.3677 181.601 68.0728C181.859 68.1466 182.264 68.2571 182.781 68.3309C182.781 68.3309 183.555 68.4414 184.441 68.3677C185.473 68.294 187.612 67.6305 190.231 66.3035Z" fill="black"/>
    <path d="M196.059 63.7597C195.911 63.7597 195.727 63.7597 195.579 63.7229C194.915 63.686 194.288 63.5017 193.661 63.2437C193.551 63.2068 193.44 63.1331 193.366 63.0962C193.219 63.0225 193.145 62.8382 193.219 62.6907C193.293 62.5433 193.477 62.4696 193.625 62.5433C193.698 62.5801 193.809 62.617 193.883 62.6907C194.436 62.9488 194.989 63.0962 195.579 63.1331C196.87 63.2437 198.014 62.9119 198.825 62.2484C200.337 60.9582 200.706 58.4885 199.636 56.7191C199.489 56.4611 198.678 55.2078 197.165 54.8023C196.981 54.7655 196.796 54.7286 196.575 54.6917C195.026 54.5443 193.514 55.2815 192.629 56.6823C192.518 56.8297 192.334 56.8666 192.186 56.7929C192.039 56.6823 192.002 56.498 192.075 56.3505C193.108 54.7655 194.842 53.8808 196.612 54.0651C196.833 54.102 197.092 54.1388 197.276 54.1757C198.973 54.618 199.895 55.945 200.153 56.3505C201.37 58.3779 200.927 61.2163 199.194 62.6907C198.456 63.3911 197.313 63.7597 196.059 63.7597Z" fill="black"/>
    <path d="M185.363 109.395C185.289 109.395 185.215 109.358 185.178 109.321C185.031 109.211 184.994 109.026 185.104 108.879L185.916 107.81C186.026 107.662 186.211 107.626 186.358 107.736C186.506 107.847 186.543 108.031 186.432 108.179L185.621 109.248C185.584 109.358 185.473 109.395 185.363 109.395Z" fill="black"/>
    <path d="M176.511 100.474C176.843 100.806 176.99 101.322 177.027 102.354C177.027 102.465 177.027 102.612 177.027 102.723C176.105 102.797 175.183 102.797 174.261 102.797C174.298 102.649 174.298 102.502 174.335 102.318C174.335 102.281 174.371 102.207 174.371 102.17C174.593 101.027 174.888 100.216 175.441 100.069C175.847 99.9584 176.252 100.216 176.511 100.474Z" fill="black"/>
    <path d="M181.674 98.7419C181.6 99.3317 181.527 99.3317 181.379 100.253C181.269 100.843 181.195 101.506 181.121 102.281C180.531 102.354 179.978 102.465 179.351 102.539C178.982 102.575 178.65 102.612 178.318 102.649C178.834 100.696 179.092 98.963 179.351 97.636C179.535 96.6407 179.756 95.4243 180.457 95.24C180.863 95.1294 181.305 95.4243 181.305 95.4612C182.08 96.051 181.822 97.636 181.674 98.7419Z" fill="black"/>
    <path d="M185.141 101.396C184.588 101.543 184.035 101.691 183.445 101.801C182.928 101.912 182.412 102.023 181.933 102.096C182.707 99.8846 183.224 98.2627 183.445 97.3043C183.519 96.9356 183.777 95.9035 184.478 95.6455C184.846 95.498 185.289 95.6086 185.584 95.7929C186.137 96.1615 186.359 97.0462 185.99 97.894C185.916 97.8203 185.768 97.7466 185.584 97.7097C185.584 97.7097 185.215 97.636 184.883 97.894C184.478 98.1889 184.478 98.7419 184.441 99.1105C184.367 100.106 184.809 100.917 185.141 101.396Z" fill="black"/>
    <path d="M187.797 100.659C188.018 100.585 188.239 100.511 188.461 100.438L187.465 97.894C187.17 98.0784 186.948 98.447 186.801 98.7787L187.797 100.659Z" fill="black"/>
    <path d="M191.301 99.5893C190.342 99.9579 189.42 100.29 188.535 100.548C188.535 100.511 188.498 100.474 188.498 100.437C188.092 99.4787 187.723 98.5941 187.502 97.8937C187.502 97.8568 187.465 97.82 187.465 97.7462C187.17 96.7878 187.059 95.9769 187.502 95.4977C187.76 95.2028 188.203 95.0922 188.571 95.1659C189.346 95.3134 189.715 96.3086 189.862 96.6404C190.12 97.3039 190.6 98.2254 191.227 99.4787C191.264 99.5156 191.264 99.5525 191.301 99.5893Z" fill="black"/>
    <path d="M194.62 98.1886C193.808 98.5573 193.034 98.9259 192.259 99.2208C192.259 99.1839 192.222 99.1471 192.222 99.1102C191.706 97.5251 191.3 96.1244 191.337 95.4977C191.337 95.2397 191.337 94.5393 191.78 94.2444C191.78 94.2444 192.075 94.0601 192.481 94.1339C193.292 94.2813 193.772 95.8664 194.583 98.1149C194.62 98.1149 194.62 98.1518 194.62 98.1886Z" fill="black"/>
    <path d="M194.731 106.225C194.62 106.225 194.509 106.151 194.472 106.077C192.96 103.386 191.854 101.322 191.005 99.7369C190.932 99.5894 190.968 99.4051 191.153 99.3314C191.3 99.2577 191.485 99.2945 191.559 99.4788C191.927 100.179 192.37 100.99 192.849 101.912C192.554 101.064 192.222 100.179 191.964 99.3314C191.927 99.1839 192.001 98.9996 192.149 98.9259C192.333 98.889 192.481 98.9628 192.554 99.1102C193.44 101.764 194.657 104.897 195.026 105.819C195.099 105.966 195.026 106.151 194.878 106.225C194.841 106.225 194.767 106.225 194.731 106.225Z" fill="black"/>
    <path d="M198.345 105.782C198.234 105.782 198.161 105.745 198.087 105.635C196.206 103.202 195.136 100.548 194.325 98.2624C194.251 98.115 194.362 97.9307 194.509 97.857C194.657 97.7832 194.841 97.8938 194.915 98.0413C195.763 100.4 196.759 102.87 198.603 105.266C198.64 105.34 198.677 105.414 198.677 105.45C198.677 105.635 198.529 105.782 198.345 105.782Z" fill="black"/>
    <path d="M192.186 108.215C192.075 108.215 191.965 108.141 191.891 108.031L191.817 107.883C191.559 107.404 191.006 106.372 190.379 105.119C189.936 104.271 189.493 103.386 189.125 102.575C188.94 102.17 188.719 101.764 188.534 101.359C188.424 101.138 188.35 100.917 188.239 100.695C188.166 100.548 188.239 100.364 188.387 100.29C188.534 100.216 188.719 100.29 188.793 100.437C188.903 100.659 188.977 100.88 189.088 101.101C189.272 101.506 189.457 101.912 189.641 102.317C190.047 103.128 190.452 104.013 190.895 104.861C191.522 106.077 192.075 107.109 192.333 107.625L192.407 107.773C192.481 107.92 192.444 108.105 192.26 108.178C192.297 108.178 192.223 108.215 192.186 108.215Z" fill="black"/>
    <path d="M187.87 100.769C187.428 100.916 186.948 101.027 186.469 101.174C186.026 101.285 185.62 101.396 185.178 101.506C184.846 100.88 184.44 100.032 184.403 99.0734C184.366 98.5942 184.44 98.3361 184.625 98.1518C184.883 97.8569 185.51 97.7832 185.547 97.7832C185.62 97.7832 185.694 97.7832 185.768 97.8201C185.879 97.8569 185.915 97.8938 185.989 97.9306C186.321 98.115 186.616 98.4836 186.801 98.8153C186.948 99.0734 187.059 99.2577 187.133 99.442C187.317 99.7369 187.575 100.216 187.87 100.769Z" fill="black"/>
    <path d="M192.186 108.215C192.075 108.215 192.001 108.178 191.927 108.104L191.891 108.068C191.337 107.146 190.784 106.261 190.231 105.414L190.046 105.156C189.641 104.529 189.235 103.902 188.756 103.091C188.645 102.907 188.534 102.723 188.313 102.317L188.239 102.207C187.981 101.764 187.87 101.543 187.76 101.359C187.649 101.174 187.575 101.064 187.465 100.806L187.428 100.769L187.981 100.437L187.723 100.585L188.018 100.437L188.055 100.511C188.165 100.732 188.239 100.843 188.35 101.064C188.46 101.248 188.571 101.469 188.829 101.912L188.903 102.022C189.124 102.428 189.235 102.612 189.346 102.796C189.788 103.607 190.194 104.197 190.6 104.824L190.784 105.082C191.337 105.93 191.891 106.814 192.444 107.736C192.554 107.883 192.518 108.068 192.37 108.178C192.333 108.215 192.259 108.215 192.186 108.215Z" fill="black"/>
    <path d="M190.046 109.358C189.936 109.358 189.862 109.321 189.788 109.247C188.977 108.141 188.165 107.035 187.391 105.893C187.317 105.819 185.952 103.828 185.289 102.464C185.252 102.354 185.03 101.912 184.957 101.727L184.92 101.654C184.883 101.617 184.883 101.58 184.846 101.506L184.809 101.469L185.104 101.322L185.399 101.211L185.104 101.322L185.399 101.211L185.436 101.285C185.436 101.322 185.473 101.359 185.473 101.395L185.51 101.469C185.584 101.654 185.805 102.096 185.842 102.17C186.469 103.46 187.907 105.487 187.907 105.524C188.682 106.63 189.493 107.773 190.305 108.842C190.415 108.989 190.378 109.173 190.231 109.284C190.194 109.321 190.12 109.358 190.046 109.358Z" fill="black"/>
    <path d="M197.165 119.863C197.091 119.863 197.017 119.826 196.944 119.753C196.907 119.716 191.522 114.187 187.502 109.837C187.022 109.321 186.543 108.805 186.1 108.289C185.141 107.22 184.44 106.446 183.998 105.893C183.924 105.819 183.85 105.708 183.776 105.635C183.592 105.45 183.481 105.266 183.371 105.119C182.522 103.939 182.264 103.018 182.596 102.428C182.633 102.354 182.854 101.985 183.297 101.838C183.703 101.691 184.108 101.838 184.44 102.022C184.809 102.207 185.067 102.391 185.141 102.465C185.657 102.907 186.948 104.381 188.46 106.151C188.571 106.298 188.571 106.483 188.424 106.593C188.276 106.704 188.092 106.704 187.981 106.556C186.284 104.566 185.141 103.312 184.735 102.944C184.698 102.907 184.477 102.76 184.182 102.612C183.961 102.501 183.739 102.391 183.518 102.465C183.297 102.538 183.186 102.723 183.186 102.76C183.112 102.907 182.965 103.423 183.924 104.787C184.035 104.934 184.145 105.119 184.33 105.303C184.403 105.377 184.44 105.45 184.514 105.524C184.957 106.077 185.657 106.851 186.616 107.92C187.059 108.399 187.538 108.915 188.018 109.431C191.559 113.228 196.058 117.91 197.202 119.089L203.767 109.69L203.619 109.505C203.509 109.358 203.435 109.21 203.324 109.063C203.324 109.063 203.324 109.026 203.287 109.026C203.214 108.915 203.14 108.805 203.066 108.694C203.066 108.694 203.029 108.657 203.029 108.621C202.919 108.436 202.771 108.252 202.66 108.068C202.365 107.588 202.107 107.109 201.849 106.593L201.701 106.298C201.591 106.077 201.48 105.856 201.37 105.635C201.333 105.598 201.333 105.561 201.296 105.524C201.259 105.414 201.185 105.303 201.148 105.192C201.148 105.192 201.148 105.156 201.111 105.119L201.074 105.045C200.964 104.787 200.853 104.566 200.779 104.345C200.374 103.349 200.042 102.354 199.747 101.506C199.599 101.064 199.452 100.658 199.341 100.29C199.341 100.253 199.304 100.179 199.267 100.142C198.972 99.3682 198.603 98.4836 198.161 98.4467C197.903 98.4098 197.607 98.631 197.423 98.8522C197.202 99.1839 197.165 99.6631 197.276 100.585C197.312 100.806 197.349 101.064 197.423 101.359C197.534 101.875 197.755 102.833 198.64 105.377C198.64 105.414 198.677 105.45 198.677 105.487C198.677 105.672 198.53 105.819 198.382 105.819C198.234 105.819 198.124 105.745 198.087 105.598C198.087 105.598 198.087 105.598 198.087 105.561C197.202 102.981 196.98 101.985 196.87 101.433C196.796 101.138 196.759 100.88 196.722 100.622C196.575 99.5157 196.612 98.889 196.98 98.4467C197.239 98.1149 197.718 97.7095 198.271 97.7832C199.009 97.8938 199.452 98.7047 199.894 99.8843C199.894 99.9212 199.931 99.9949 199.931 100.032C200.079 100.4 200.189 100.843 200.337 101.248C200.632 102.096 200.927 103.054 201.37 104.05C201.443 104.271 201.554 104.492 201.665 104.713C201.665 104.713 201.701 104.75 201.701 104.787L201.738 104.861C201.775 104.971 201.849 105.082 201.886 105.192C201.923 105.229 201.923 105.266 201.923 105.303C202.033 105.524 202.144 105.745 202.255 105.966L202.402 106.261C202.66 106.741 202.919 107.22 203.214 107.699C203.324 107.883 203.435 108.068 203.582 108.252L203.619 108.289C203.693 108.399 203.767 108.51 203.841 108.621C203.841 108.621 203.841 108.657 203.878 108.657C203.951 108.768 204.062 108.915 204.136 109.026C204.173 109.063 204.209 109.1 204.246 109.173L204.283 109.247C204.283 109.247 204.283 109.247 204.32 109.284C204.357 109.321 204.357 109.358 204.394 109.395L204.431 109.431C204.468 109.542 204.468 109.653 204.431 109.763L204.025 110.353C204.025 110.353 204.025 110.353 204.025 110.39L197.534 119.679C197.386 119.826 197.276 119.863 197.165 119.863C197.165 119.863 197.202 119.863 197.165 119.863Z" fill="black"/>
    <path d="M183.407 108.436C183.371 108.436 183.334 108.436 183.26 108.399C183.112 108.326 183.039 108.141 183.112 107.994L184.108 105.856C184.182 105.708 184.366 105.635 184.514 105.708C184.662 105.782 184.735 105.966 184.662 106.114L183.666 108.252C183.666 108.362 183.555 108.436 183.407 108.436Z" fill="black"/>
    <path d="M182.743 84.0709C182.706 84.0709 182.706 84.0709 182.669 84.0709C182.596 84.0709 182.522 83.9972 182.448 83.9235L176.621 74.8924C176.51 74.7449 176.584 74.5606 176.694 74.45C176.842 74.3394 177.026 74.4132 177.137 74.5238L182.817 83.26L198.455 71.796C198.603 71.6854 198.787 71.7223 198.898 71.8697C199.009 72.0172 198.972 72.2015 198.824 72.3121L182.928 83.9604C182.854 84.0341 182.817 84.0709 182.743 84.0709Z" fill="black"/>
    <path d="M182.78 84.8819C183.412 84.8819 183.923 84.3703 183.923 83.7391C183.923 83.108 183.412 82.5964 182.78 82.5964C182.149 82.5964 181.637 83.108 181.637 83.7391C181.637 84.3703 182.149 84.8819 182.78 84.8819Z" fill="black"/>
    <path d="M165.15 39.9106C165.113 39.9106 165.076 39.9106 165.039 39.9106L157.072 37.0722C156.925 36.9985 156.814 36.8511 156.888 36.6668C156.962 36.5193 157.109 36.4087 157.293 36.4825L165.26 39.3208C165.408 39.3945 165.518 39.542 165.445 39.7263C165.371 39.8369 165.26 39.9106 165.15 39.9106Z" fill="black"/>
    <path d="M173.374 32.8331C173.264 32.8331 173.153 32.7593 173.079 32.6488L169.502 24.9815C169.428 24.8341 169.502 24.6498 169.649 24.576C169.797 24.5023 169.981 24.576 170.055 24.7235L173.632 32.3907C173.706 32.5382 173.632 32.7225 173.485 32.7962C173.485 32.8331 173.448 32.8331 173.374 32.8331Z" fill="black"/>
    <path d="M183.185 31.6166C183.148 31.6166 183.111 31.6166 183.075 31.6166C182.927 31.5429 182.816 31.3955 182.89 31.2112L185.693 23.249C185.767 23.1016 185.915 22.991 186.099 23.0647C186.247 23.1384 186.357 23.2859 186.283 23.4702L183.48 31.4323C183.443 31.5429 183.333 31.6166 183.185 31.6166Z" fill="black"/>
</svg>