<svg width="121" height="89" viewBox="0 0 121 89" fill="none" xmlns="http://www.w3.org/2000/svg">
    <path d="M100.879 71.766C95.9013 68.7821 93.2278 64.0099 88.9631 60.2512C84.0289 55.9023 77.0134 58.7711 71.2261 59.5742C66.25 60.2675 60.2023 60.229 55.6955 57.6863C50.0456 54.4981 48.2893 48.229 47.1938 42.3659C46.1334 36.6431 44.1062 32.6657 37.7775 31.6539C31.6155 30.6625 25.2715 31.6983 19.1722 30.2875C14.2742 29.1597 10.5332 26.5495 9.17496 21.4728C8.47239 18.816 8.46313 6.50003 14.2535 9.90156C16.6275 11.2949 14.8921 13.4937 14.4704 15.3075C13.9175 17.7382 14.4668 20.9489 16.3908 22.6289C20.6643 26.373 28.9167 24.7226 34.1183 25.0786C40.3006 25.5059 46.8632 26.7572 50.4373 32.3972C53.7146 37.5711 52.1433 44.6175 55.856 49.4463C63.5459 59.4414 78.2225 48.8149 88.1679 52.3624C92.1525 53.7872 94.786 57.3332 97.5378 60.4831C99.3231 62.527 101.126 64.4423 103.399 66.0038C107.184 68.5906 106.1 66.1722 105.036 63.4382C104.107 61.0432 101.61 56.9725 103.972 54.772C106.724 52.2191 108.659 55.5052 109.54 57.7819C110.715 60.8111 111.923 63.8505 113.047 66.8988C114.045 69.5934 115.08 72.1418 112.734 74.2327C110.215 76.4785 106.83 78.2644 104.057 80.2385C102.075 81.654 99.2544 84.7023 96.5882 83.4319C92.7408 81.6124 96.0688 78.3812 98.1012 76.9466C99.289 76.1087 101.406 75.1126 102.264 73.9971C103.304 72.6434 102.553 72.7694 100.879 71.766Z" fill="#EABE63"/>
</svg>
