<svg width="154" height="170" viewBox="0 0 154 170" fill="none" xmlns="http://www.w3.org/2000/svg">
    <path d="M28.1338 62.5729L43.1427 65.7259L53.9382 81.8721L38.9293 78.7191L28.1338 62.5729Z" fill="#706F6F"/>
    <path d="M56.6878 97.2397L38.0903 93.5433L48.768 109.513L67.3654 113.21L56.6878 97.2397Z" fill="#706F6F"/>
    <path d="M98.8121 134.516L51.146 125.129L61.8875 141.195L109.554 150.581L98.8121 134.516Z" fill="#706F6F"/>
    <path d="M104.413 106.715L98.8126 134.516L109.554 150.581L115.155 122.78L104.413 106.715Z" fill="#EDEDED"/>
    <path d="M98.6208 38.5588L109.339 54.5888L96.498 118.995L85.7802 102.965L98.6208 38.5588Z" fill="#EDEDED"/>
    <path d="M91.2102 75.1645L98.521 38.4099L35.5102 25.9266L28.1807 62.6937L43.3339 65.6757L37.8042 93.4144L56.5013 97.13L50.9716 124.869L98.5551 134.283L104.085 106.545L85.6805 102.903L91.2102 75.1645Z" fill="#EABE63"/>
</svg>