<svg width="86" height="84" viewBox="0 0 86 84" fill="none" xmlns="http://www.w3.org/2000/svg">
    <path d="M41.6692 63.462C48.453 63.8582 55.3365 61.1888 60.0948 55.6269C68.173 46.1845 67.0671 31.9813 57.6248 23.9031C48.1824 15.8249 33.9792 16.9308 25.901 26.3732C21.1361 31.9427 19.5665 39.1685 21.0182 45.8168" stroke="#A5A2B2" stroke-width="5" stroke-linecap="round" stroke-linejoin="round"/>
    <path d="M42.5914 55.995C46.9569 56.1107 51.3356 54.3282 54.3957 50.7513C59.7812 44.4564 59.0439 34.9875 52.749 29.6021C46.4541 24.2166 36.9853 24.9539 31.5998 31.2488C28.5349 34.8313 27.453 39.4419 28.2501 43.7427" stroke="#A5A2B2" stroke-width="5" stroke-linecap="round"/>
    <path d="M43.4921 48.4837C45.4368 48.3552 47.3301 47.4736 48.6971 45.8756C51.3899 42.7282 51.0212 37.9938 47.8738 35.301C44.7263 32.6083 39.9919 32.9769 37.2992 36.1244C35.9338 37.7204 35.3555 39.7245 35.5276 41.6635" stroke="#A5A2B2" stroke-width="5" stroke-linecap="round" stroke-linejoin="round"/>
    <path fill-rule="evenodd" clip-rule="evenodd" d="M41.34 42.9381C42.3892 43.8357 43.9687 43.7112 44.8679 42.6602C45.7671 41.6091 45.6456 40.0294 44.5964 39.1318C43.5473 38.2342 41.9678 38.3587 41.0686 39.4097C40.1694 40.4608 40.2909 42.0405 41.34 42.9381Z" fill="#A5A2B2"/>
</svg>
