<svg width="40" height="43" viewBox="0 0 40 43" fill="none" xmlns="http://www.w3.org/2000/svg">
    <path d="M39.8577 1.38811V40.9899H34.0603V35.1109C32.4272 37.3971 30.3859 39.1119 28.018 40.4183C25.65 41.7248 23.0371 42.2963 20.2609 42.2963C16.5049 42.2963 13.0754 41.3981 10.1359 39.6018C7.11476 37.8054 4.82846 35.2742 3.11375 32.0897C1.39903 28.9052 0.58252 25.2308 0.58252 21.0665C0.58252 16.9839 1.39903 13.3911 3.11375 10.2066C4.74681 7.02217 7.11475 4.49093 10.0543 2.69456C12.9938 0.898187 16.4232 0 20.1793 0C23.0371 0 25.7317 0.653228 28.0996 1.87802C30.4676 3.18448 32.5089 4.98084 34.1419 7.26713V1.30646H39.8577V1.38811ZM27.3647 35.0292C29.4877 33.6411 31.1208 31.7631 32.3456 29.3951C33.5704 26.9455 34.1419 24.251 34.1419 21.1482C34.1419 18.127 33.5704 15.3508 32.3456 12.9012C31.1208 10.4516 29.4877 8.57358 27.3647 7.18548C25.2418 5.79738 22.8738 5.14415 20.0976 5.14415C17.4031 5.14415 15.0351 5.79738 12.9938 7.18548C10.8708 8.57358 9.23774 10.4516 8.0946 12.8195C6.8698 15.1875 6.29824 17.9637 6.29824 20.9849C6.29824 24.0877 6.8698 26.8639 8.0946 29.3135C9.31939 31.7631 10.9525 33.6411 12.9938 34.9476C15.1168 36.3357 17.4847 36.9889 20.0976 36.9889C22.7922 37.0705 25.2418 36.4173 27.3647 35.0292Z" fill="black"/>
</svg>
