<svg width="45" height="38" viewBox="0 0 45 38" fill="none" xmlns="http://www.w3.org/2000/svg">
    <path d="M22.6727 33.9265C20.4407 35.3493 10.6217 28.1445 8.47579 26.9395C6.94498 26.0694 4.92513 25.0691 4.6396 23.2314C4.35866 21.3718 5.76905 19.5753 7.59658 19.251C9.83799 18.8493 12.3289 20.7392 14.1792 21.7633C15.3412 22.4097 19.0685 25.5054 20.3773 25.2138C21.5411 24.9603 22.7868 20.4466 23.2243 19.4738C24.2533 17.2086 25.3628 14.9741 26.4381 12.7278C27.9968 9.48637 29.0741 4.88247 31.4737 2.20619C32.8818 0.63765 35.0057 0.14266 36.7019 1.68274C38.7363 3.52698 37.5712 5.98289 36.661 8.0308C34.5942 12.6461 32.4353 17.2649 30.2296 21.8235C28.7443 24.9113 26.6906 33.4 22.6727 33.9265C21.9022 34.4181 23.5641 33.8168 22.6727 33.9265Z" fill="#38B6AB"/>
</svg>
