<svg width="125" height="94" viewBox="0 0 125 94" fill="none" xmlns="http://www.w3.org/2000/svg">
    <path d="M72.9557 41.4471C60.9295 39.5062 48.6692 38.0755 36.5751 36.6331C31.9027 36.0809 24.0204 35.4626 20.1103 37.543C14.5416 40.5096 23.4323 45.9925 26.7432 48.0942C36.7821 54.4451 48.3186 58.4032 59.8888 62.309C65.1598 64.0828 70.6989 65.5249 76.1759 66.7262C79.8109 67.5244 83.513 68.1411 87.1539 68.9018C89.5853 69.4096 94.2594 70.5775 96.5724 69.9412C93.154 67.3318 87.2721 65.9786 84.6258 62.8112C81.8515 59.498 85.9825 56.6745 90.2456 58.276C95.2476 60.1506 100.18 63.7063 104.723 66.2375C107.748 67.918 115.995 70.8163 115.368 74.2342C114.796 77.3054 109.088 78.788 106.215 80.3146C101.144 83.0153 96.1054 86.529 90.5836 88.657C87.3649 89.8971 82.6804 89.4199 82.8092 85.8831C82.9449 82.0685 92.4557 79.1708 95.877 77.2231C93.3398 76.2751 89.1982 76.3471 86.404 75.8961C83.1543 75.3716 80.0301 74.6174 76.8234 74.0614C70.4716 72.9593 63.3346 71.0093 57.3108 68.9698C43.0959 64.1564 26.8475 58.7167 15.8348 49.4778C11.2735 45.6551 7.23577 40.3881 10.1864 35.5663C13.2931 30.4813 21.2616 29.3924 28.118 29.4029C45.4559 29.4223 62.8169 33.9936 80.1307 35.336C83.7981 35.6202 88.1071 35.9984 91.5884 35.166C95.2925 34.2831 93.8682 32.5436 91.9628 30.3419C87.8743 25.6244 82.0691 23.0913 75.5366 21.1524C63.3012 17.5334 50.4908 15.6774 38.2277 12.0732C32.1385 10.2828 25.2784 8.88711 18.9416 7.69131C16.4534 7.22242 13.5868 7.29821 12.7583 4.68377C11.8462 1.80581 15.0632 1.0462 17.9591 1.02322C21.6887 1.00017 26.3898 2.47043 30.0616 3.27459C33.6365 4.05348 37.1427 5.02319 40.6854 5.84497C48.0524 7.54359 55.6203 9.01502 63.0229 10.8059C76.7094 14.1206 91.9855 17.2111 99.9931 27.6957C111.904 43.2622 86.1883 43.5828 72.9557 41.4471Z" fill="#EABE63"/>
</svg>
