<svg width="41" height="43" viewBox="0 0 41 43" fill="none" xmlns="http://www.w3.org/2000/svg">
    <path d="M10.5461 39.6018C7.52491 37.8054 5.23862 35.2742 3.5239 32.008C1.80919 28.7419 0.992676 25.0675 0.992676 21.0665C0.992676 16.9839 1.80919 13.3911 3.5239 10.2066C5.15697 7.02217 7.52491 4.49093 10.4644 2.69456C13.4039 0.898187 16.8334 0 20.5894 0C24.3455 0 27.7749 0.898187 30.7144 2.69456C33.7356 4.49093 36.0219 7.02217 37.7366 10.2066C39.4513 13.3911 40.2678 17.0655 40.2678 21.1482C40.2678 25.2308 39.4513 28.8236 37.7366 32.0897C36.1035 35.2742 33.7356 37.8054 30.7961 39.6018C27.8566 41.3981 24.4271 42.2963 20.6711 42.2963C16.915 42.378 13.5672 41.3981 10.5461 39.6018ZM27.7749 35.0292C29.8979 33.6411 31.531 31.7631 32.7557 29.3951C33.9805 26.9455 34.5521 24.251 34.5521 21.1482C34.5521 18.127 33.9805 15.3508 32.7557 12.9012C31.531 10.4516 29.8979 8.57358 27.7749 7.18548C25.6519 5.79738 23.284 5.14415 20.5078 5.14415C17.8132 5.14415 15.4453 5.79738 13.4039 7.18548C11.281 8.57358 9.6479 10.4516 8.50475 12.8195C7.27995 15.1875 6.7084 17.9637 6.7084 20.9849C6.7084 24.0877 7.27995 26.8639 8.50475 29.3135C9.72955 31.7631 11.3626 33.6411 13.4039 34.9476C15.5269 36.3357 17.8949 36.9889 20.5078 36.9889C23.2023 37.0705 25.6519 36.4173 27.7749 35.0292Z" fill="black"/>
</svg>

