<svg width="330" height="289" viewBox="0 0 330 289" fill="none" xmlns="http://www.w3.org/2000/svg">
    <path d="M246.239 52.837C240.901 52.837 235.251 48.6299 229.484 40.2936C229.406 40.2157 229.445 40.0599 229.523 40.021C229.601 39.9431 229.718 39.982 229.796 40.0599C235.719 48.552 241.407 52.7201 246.784 52.4085C251.148 52.1748 254.148 49.1363 257.343 45.9421C260.46 42.7867 263.694 39.5146 268.37 39.2808C273.591 39.0081 279.007 42.592 284.462 49.9154C284.54 49.9933 284.501 50.1491 284.423 50.1881C284.345 50.266 284.228 50.2271 284.15 50.1491C278.773 42.9426 273.474 39.3977 268.409 39.6704C263.889 39.9041 260.694 43.0984 257.655 46.2147C254.577 49.3311 251.382 52.5254 246.862 52.7981C246.628 52.7981 246.434 52.837 246.239 52.837Z" fill="black"/>
    <path d="M37.1987 265.217C32.4841 265.217 27.4967 261.478 22.3535 254.115C22.2756 254.037 22.3145 253.882 22.3925 253.843C22.4704 253.765 22.5873 253.804 22.6652 253.882C27.8864 261.361 32.9516 265.062 37.6662 264.789C41.5236 264.555 44.1732 261.906 46.9786 259.102C49.745 256.297 52.5893 253.414 56.7195 253.219C61.3172 252.986 66.1097 256.141 70.9802 262.646C71.0581 262.724 71.0192 262.88 70.9412 262.919C70.8633 262.997 70.7464 262.958 70.6685 262.88C65.9149 256.531 61.2393 253.414 56.7584 253.609C52.7841 253.804 49.9788 256.647 47.2513 259.374C44.5238 262.14 41.7185 264.984 37.7052 265.178C37.5493 265.178 37.3935 265.217 37.1987 265.217Z" fill="black"/>
    <path d="M17.7949 19.8425C12.4569 19.8425 6.80715 15.6354 1.04052 7.29913C0.962597 7.22123 1.00156 7.06541 1.07949 7.02645C1.15741 6.94854 1.27431 6.9875 1.35223 7.06541C7.27471 15.5575 13.0024 19.7256 18.3404 19.414C22.7043 19.1803 25.7045 16.1418 28.8996 12.9475C32.0167 9.79223 35.2506 6.52004 39.9263 6.28632C45.1474 6.01363 50.5244 9.59745 56.0183 16.9209C56.0962 16.9988 56.0572 17.1546 55.9793 17.1936C55.9014 17.2715 55.7845 17.2326 55.7066 17.1546C50.2906 9.987 44.9916 6.48109 39.9263 6.71482C35.4065 6.94854 32.2115 10.1428 29.1723 13.2592C26.0942 16.3756 22.8991 19.5698 18.3794 19.8425C18.1845 19.8425 17.9897 19.8425 17.7949 19.8425Z" fill="black"/>
    <path d="M18.5744 115.242L10.1582 109.204L16.0417 100.595L24.4579 106.594L18.5744 115.242Z" fill="#2D3CFE"/>
    <path fill-rule="evenodd" clip-rule="evenodd" d="M323.348 165.844C323.387 165.883 323.426 165.883 323.465 165.883C323.504 165.883 323.582 165.844 323.66 165.805L329.231 159.495C329.27 159.456 329.27 159.378 329.27 159.339C329.27 159.261 329.231 159.222 329.193 159.183L323.036 153.496C322.997 153.457 322.919 153.457 322.88 153.457C322.802 153.457 322.764 153.496 322.725 153.535L317.153 159.845C317.114 159.884 317.114 159.962 317.114 160.001C317.114 160.079 317.153 160.118 317.192 160.157L323.348 165.844ZM323.465 165.377L317.581 159.962L322.881 153.924L328.764 159.378L323.465 165.377Z" fill="black"/>
    <path d="M158.61 6.52002C158.571 6.52002 158.571 6.52002 158.532 6.52002C158.415 6.48107 158.376 6.3642 158.415 6.24734L160.675 0.131472C160.714 0.014608 160.831 -0.0243466 160.948 0.014608C161.065 0.0535625 161.103 0.170426 161.065 0.28729L158.766 6.3642C158.766 6.44211 158.688 6.52002 158.61 6.52002Z" fill="black"/>
    <path d="M52.6675 137.252C52.5895 137.252 52.4727 137.174 52.4727 137.096C52.4727 136.979 52.5116 136.862 52.6285 136.862L58.9406 135.771C59.0575 135.771 59.1354 135.81 59.1744 135.927C59.2134 136.044 59.1354 136.161 59.0186 136.161L52.6675 137.252C52.7064 137.252 52.7064 137.252 52.6675 137.252Z" fill="black"/>
    <path d="M300.788 26.3089C300.71 26.3089 300.632 26.2699 300.593 26.192C300.554 26.0752 300.593 25.9583 300.71 25.9193L306.711 23.6989C306.827 23.66 306.944 23.6989 306.944 23.8158C306.983 23.9327 306.944 24.0495 306.827 24.0885L300.827 26.2699C300.827 26.3089 300.788 26.3089 300.788 26.3089Z" fill="black"/>
    <path d="M57.4988 49.0584C57.4209 49.0584 57.3819 49.0195 57.3429 48.9805L53.9921 43.41C53.9531 43.3321 53.9531 43.1763 54.07 43.1373C54.1479 43.0984 54.3038 43.0984 54.3427 43.2152L57.6936 48.7857C57.7326 48.8636 57.7326 49.0195 57.6157 49.0584C57.5767 49.0195 57.5377 49.0584 57.4988 49.0584Z" fill="black"/>
    <path d="M268.487 110.139C268.41 110.139 268.371 110.1 268.332 110.061L264.513 104.802C264.435 104.725 264.474 104.569 264.552 104.53C264.63 104.452 264.747 104.491 264.825 104.569L268.643 109.828C268.721 109.906 268.682 110.061 268.604 110.1C268.565 110.139 268.526 110.139 268.487 110.139Z" fill="black"/>
    <path d="M293.58 189.607H293.541L287.384 187.815C287.268 187.776 287.229 187.659 287.268 187.581C287.307 187.464 287.423 187.425 287.501 187.425L293.658 189.217C293.774 189.256 293.813 189.373 293.774 189.451C293.774 189.568 293.658 189.607 293.58 189.607Z" fill="black"/>
    <path d="M306.477 268.295C306.399 268.295 306.321 268.256 306.282 268.139L304.295 261.945C304.256 261.828 304.334 261.711 304.412 261.672C304.49 261.634 304.646 261.711 304.646 261.789L306.633 267.983C306.672 268.1 306.594 268.217 306.516 268.256C306.516 268.295 306.516 268.295 306.477 268.295Z" fill="black"/>
    <path d="M256.954 254.388C260.526 254.388 263.422 251.423 263.422 247.766C263.422 244.108 260.526 241.143 256.954 241.143C253.382 241.143 250.486 244.108 250.486 247.766C250.486 251.423 253.382 254.388 256.954 254.388Z" fill="#2D3CFE"/>
    <path d="M309.633 86.9223C311.376 86.9223 312.789 85.4747 312.789 83.689C312.789 81.9034 311.376 80.4558 309.633 80.4558C307.89 80.4558 306.477 81.9034 306.477 83.689C306.477 85.4747 307.89 86.9223 309.633 86.9223Z" fill="#2D3CFE"/>
    <path fill-rule="evenodd" clip-rule="evenodd" d="M33.8477 210.097C34.5101 210.759 35.3283 211.07 36.1466 211.07C36.9648 211.07 37.822 210.72 38.4065 210.097C38.9909 209.473 39.3416 208.655 39.3416 207.759C39.3416 206.863 39.0299 206.045 38.4065 205.422C37.1596 204.137 35.0946 204.137 33.8477 205.422C33.2633 206.045 32.9126 206.863 32.9126 207.759C32.9126 208.655 33.2243 209.473 33.8477 210.097ZM34.1597 205.734C34.7052 205.149 35.4066 204.877 36.1469 204.877C36.8872 204.877 37.5886 205.149 38.173 205.734C38.6795 206.279 38.9912 207.019 38.9912 207.798C38.9912 208.577 38.7185 209.317 38.173 209.863C37.0431 210.992 35.2507 210.992 34.1597 209.863C33.6532 209.317 33.3415 208.577 33.3415 207.798C33.3415 207.019 33.6143 206.279 34.1597 205.734Z" fill="black"/>
    <path fill-rule="evenodd" clip-rule="evenodd" d="M195.757 35.8761C195.406 34.5504 194.08 33.8095 192.792 34.1604L157.954 44.1033L137.16 49.991L99.9814 60.5967C98.694 60.9476 97.9527 62.3123 98.3039 63.638L111.49 112.104C111.49 112.104 112.387 106.88 114.65 106.958C116.913 107.036 117.108 112.611 117.108 112.611L116.952 112.845C121.126 107.153 126.393 100.641 128.226 101.265C128.89 101.46 129.202 101.928 129.202 101.928C129.28 102.045 129.319 102.162 129.358 102.279C131.035 95.611 134.234 87.6568 140.788 85.2393C141.865 84.8446 142.546 84.8627 143.18 84.8794C143.923 84.8991 144.603 84.9171 145.782 84.2645C148.076 82.9831 149.349 80.5571 150.872 77.6548C152.871 73.8452 155.301 69.215 161.036 65.2757C173.559 56.6585 182.064 67.8491 182.064 67.8491C182.064 67.8491 184.443 67.0693 187.447 67.0693C190.842 67.0693 194.977 68.083 197.201 72.4501C199.952 77.8728 203.713 78.396 207.275 78.8914L207.5 78.9227L195.757 35.8761ZM134.507 130.119L133.103 131.171C133.259 131.054 133.415 130.933 133.571 130.812C133.883 130.569 134.195 130.327 134.507 130.119ZM129.514 137.254C129.514 137.234 129.524 137.205 129.533 137.176C129.543 137.147 129.553 137.118 129.553 137.098C129.553 137.114 129.546 137.13 129.538 137.149C129.527 137.176 129.514 137.208 129.514 137.254ZM129.589 137.055C129.585 137.066 129.575 137.076 129.553 137.098C129.553 137.081 129.553 137.072 129.556 137.063C129.56 137.052 129.569 137.042 129.592 137.02C129.592 137.037 129.592 137.046 129.589 137.055ZM129.163 104.033C128.89 104.891 128.383 105.749 128.031 106.334C128.461 105.749 128.929 105.047 129.163 104.033ZM119.176 119.357C120.069 118.146 120.825 117.126 121.483 116.239C123.642 113.33 124.735 111.857 126.081 109.765C126.965 108.38 127.159 107.975 127.319 107.641C127.371 107.533 127.419 107.432 127.485 107.309C126.588 108.751 125.496 110.428 124.364 112.065C122.414 114.873 120.424 117.641 119.176 119.357Z" fill="#FF1E00"/>
    <path d="M231.961 173.633C231.688 173.945 231.298 174.179 230.908 174.296L230.244 174.491L227.826 175.154L225.602 175.778L225.485 175.817L221.232 177.025L220.53 177.22L218.306 177.844L213.235 179.287L211.011 179.911L206.954 181.08L205.94 181.353L204.379 181.782L203.716 181.977L198.605 183.42L198.098 183.576C196.811 179.482 194.197 171.839 192.129 172.463C189.359 173.243 191.973 182.523 191.973 182.523L194.158 184.707C193.221 183.81 192.285 182.874 191.349 181.977C191.037 181.665 190.725 181.353 190.413 181.041C188.54 179.209 186.628 177.376 184.756 175.544C184.639 175.505 184.561 175.427 184.444 175.349C184.366 175.31 184.288 175.271 184.21 175.232C183.741 174.959 183.156 174.647 182.493 174.296C182.337 174.218 182.22 174.14 182.025 174.062C181.986 174.023 181.908 173.984 181.869 173.984C181.83 173.984 181.83 173.945 181.791 173.945C181.674 173.867 181.518 173.789 181.362 173.711C181.245 173.672 181.128 173.594 181.05 173.555C180.776 173.399 180.503 173.282 180.191 173.126C180.074 173.048 179.957 173.009 179.84 172.931C179.606 172.814 179.372 172.697 179.099 172.58C179.021 172.541 178.904 172.502 178.826 172.424C178.358 172.19 177.89 171.956 177.382 171.722C177.265 171.683 177.187 171.644 177.07 171.566C176.251 171.177 175.393 170.787 174.534 170.397C174.378 170.319 174.222 170.241 174.027 170.163C173.871 170.085 173.754 170.046 173.637 169.968C172.974 169.695 172.311 169.422 171.687 169.188C171.53 169.11 171.374 169.071 171.218 169.032C171.062 168.993 170.906 168.915 170.75 168.876C170.399 168.759 170.087 168.642 169.775 168.525C169.658 168.486 169.58 168.447 169.463 168.408C169.385 168.369 169.307 168.369 169.229 168.33C168.995 168.252 168.722 168.174 168.488 168.135C168.409 168.096 168.331 168.096 168.253 168.057C168.175 168.057 168.097 168.018 168.058 168.018C167.98 168.018 167.902 167.979 167.863 167.979C167.785 167.979 167.707 167.94 167.629 167.94C167.512 167.901 167.356 167.901 167.239 167.862C167.161 167.862 167.083 167.823 167.005 167.823H166.966C166.732 167.784 166.537 167.784 166.303 167.745C166.069 167.745 165.835 167.745 165.601 167.745C165.562 167.745 165.523 167.745 165.445 167.745C165.406 167.745 165.327 167.745 165.288 167.784C165.249 167.784 165.21 167.784 165.171 167.823C165.132 167.823 165.093 167.823 165.054 167.862C165.015 167.862 164.976 167.901 164.937 167.901C164.898 167.901 164.898 167.901 164.859 167.94C164.82 167.94 164.82 167.979 164.781 167.979C164.742 167.979 164.703 168.018 164.664 168.057C164.625 168.057 164.625 168.096 164.586 168.096C164.547 168.096 164.547 168.135 164.508 168.135C164.469 168.135 164.469 168.174 164.469 168.174C164.43 168.213 164.391 168.252 164.352 168.291C163.923 168.837 164.118 169.734 164.157 169.89C164.157 169.89 164.157 169.89 164.157 169.929C164.157 169.968 164.196 170.046 164.196 170.085C164.196 170.124 164.235 170.163 164.235 170.202C164.235 170.202 164.235 170.241 164.274 170.28C164.274 170.319 164.313 170.358 164.313 170.397C164.313 170.436 164.352 170.475 164.391 170.514C164.43 170.553 164.469 170.592 164.508 170.67C164.508 170.709 164.547 170.709 164.547 170.748C164.547 170.787 164.586 170.787 164.586 170.826C164.625 170.865 164.664 170.904 164.703 170.982C164.742 171.021 164.781 171.06 164.82 171.099C164.859 171.138 164.898 171.177 164.937 171.216L164.976 171.255C165.015 171.294 165.093 171.333 165.132 171.372C165.21 171.411 165.288 171.489 165.367 171.528C165.484 171.605 165.562 171.683 165.679 171.722C165.796 171.8 165.874 171.839 165.991 171.917C165.991 171.917 165.991 171.917 166.03 171.917C166.147 171.995 166.225 172.034 166.342 172.073C166.459 172.112 166.537 172.19 166.654 172.229C166.693 172.268 166.771 172.268 166.849 172.307C166.927 172.346 167.044 172.385 167.122 172.424C167.278 172.502 167.395 172.541 167.512 172.58C167.551 172.58 167.59 172.619 167.629 172.619C167.668 172.619 167.746 172.658 167.785 172.658C167.824 172.658 167.824 172.697 167.863 172.697H167.902H167.941C168.37 172.853 168.839 173.009 169.346 173.243C169.541 173.321 169.775 173.438 169.97 173.516C171.53 174.218 173.52 175.31 176.056 176.947C175.471 176.752 174.925 176.557 174.378 176.362C174.027 176.245 173.637 176.129 173.286 176.051C173.169 176.012 173.091 176.012 172.974 175.973C172.545 175.856 172.116 175.739 171.687 175.622C171.491 175.583 171.335 175.544 171.14 175.505C170.711 175.388 170.282 175.31 169.892 175.193C169.775 175.154 169.619 175.154 169.502 175.115C169.424 175.115 169.346 175.076 169.268 175.076C168.995 175.037 168.722 174.959 168.409 174.881C167.98 174.803 167.551 174.686 167.044 174.608C166.342 174.491 165.601 174.374 164.859 174.257C164.664 174.218 164.469 174.218 164.235 174.179C163.962 174.14 163.689 174.101 163.377 174.101C163.221 174.101 163.026 174.062 162.87 174.062C162.714 174.062 162.597 174.062 162.441 174.062C162.285 174.062 162.128 174.062 161.972 174.062C161.933 174.062 161.855 174.062 161.816 174.062C161.738 174.062 161.699 174.062 161.621 174.062C161.582 174.062 161.504 174.062 161.426 174.062C161.309 174.062 161.153 174.062 161.036 174.101C160.919 174.101 160.841 174.101 160.724 174.14C160.646 174.14 160.568 174.14 160.529 174.179C160.412 174.179 160.256 174.218 160.139 174.257C160.061 174.257 159.983 174.296 159.905 174.296C159.827 174.296 159.749 174.335 159.671 174.374C159.593 174.374 159.554 174.413 159.515 174.452C159.476 174.452 159.476 174.491 159.437 174.491C159.398 174.491 159.359 174.53 159.32 174.53C159.281 174.53 159.281 174.569 159.242 174.569C159.164 174.608 159.085 174.647 159.007 174.725L158.968 174.764C158.929 174.764 158.929 174.803 158.89 174.803C158.851 174.803 158.851 174.842 158.812 174.881C158.773 174.881 158.773 174.92 158.734 174.959C158.734 174.959 158.695 174.959 158.695 174.998C158.656 175.037 158.617 175.076 158.578 175.154C158.539 175.193 158.5 175.271 158.5 175.31C158.11 176.09 158.578 177.064 158.656 177.181C158.695 177.22 158.695 177.259 158.734 177.298C158.773 177.337 158.773 177.376 158.812 177.415C158.851 177.454 158.89 177.532 158.929 177.571C158.968 177.649 159.007 177.688 159.085 177.766C159.125 177.805 159.125 177.805 159.164 177.844C159.242 177.922 159.32 178 159.359 178.039C159.398 178.078 159.437 178.117 159.476 178.156C159.554 178.234 159.632 178.273 159.71 178.312C159.788 178.351 159.866 178.429 159.944 178.468C159.944 178.468 159.944 178.468 159.983 178.468C160.022 178.468 160.022 178.507 160.061 178.507C160.061 178.507 160.061 178.507 160.1 178.507C160.178 178.546 160.256 178.585 160.334 178.624C160.412 178.663 160.49 178.702 160.568 178.741C160.607 178.741 160.646 178.78 160.685 178.78C160.724 178.819 160.802 178.819 160.841 178.858C160.88 178.897 160.958 178.897 160.997 178.936C161.153 178.975 161.348 179.053 161.504 179.092C161.582 179.092 161.66 179.131 161.699 179.131C161.816 179.17 161.894 179.17 161.972 179.209C162.089 179.248 162.167 179.248 162.285 179.287C162.363 179.287 162.441 179.326 162.519 179.326H162.558C162.675 179.326 162.753 179.365 162.87 179.365C162.948 179.365 162.987 179.365 163.065 179.404C163.338 179.443 163.611 179.443 163.806 179.482C163.884 179.482 163.962 179.482 164.001 179.482C164.079 179.482 164.196 179.482 164.235 179.482C165.015 179.521 165.913 179.677 166.966 179.872C167.083 179.911 167.239 179.911 167.356 179.95C167.473 179.989 167.629 180.028 167.746 180.028C167.863 180.067 167.98 180.067 168.097 180.106C168.409 180.184 168.722 180.262 169.034 180.34C169.112 180.34 169.151 180.379 169.229 180.379C169.268 180.379 169.346 180.418 169.385 180.418C169.853 180.535 170.321 180.691 170.828 180.885C170.906 180.924 170.984 180.963 171.101 180.963C171.296 181.041 171.491 181.119 171.687 181.158C171.765 181.197 171.843 181.197 171.921 181.236C172.35 181.392 172.74 181.548 173.208 181.743C173.559 181.86 173.871 182.016 174.222 182.172C174.339 182.211 174.456 182.25 174.534 182.328C174.534 182.328 174.534 182.328 174.573 182.328C174.808 182.445 175.042 182.523 175.276 182.64C175.588 182.757 175.9 182.913 176.212 183.069C176.329 183.147 176.485 183.186 176.602 183.264C176.953 183.42 177.304 183.576 177.655 183.771C177.851 183.849 178.007 183.927 178.202 184.044C178.397 184.122 178.553 184.239 178.748 184.317C178.826 184.356 178.865 184.395 178.943 184.434C179.45 184.707 179.996 184.98 180.542 185.253C180.347 185.175 180.152 185.136 179.918 185.097C179.684 185.019 179.45 184.98 179.216 184.902C179.06 184.863 178.904 184.824 178.748 184.785C178.592 184.746 178.436 184.707 178.28 184.668C178.124 184.629 177.929 184.59 177.772 184.512C177.538 184.434 177.343 184.395 177.109 184.317C176.992 184.278 176.875 184.239 176.758 184.2C176.251 184.044 175.744 183.927 175.276 183.81C175.042 183.732 174.769 183.693 174.534 183.615C174.417 183.576 174.3 183.537 174.183 183.537C172.623 183.147 171.218 182.796 169.931 182.523C169.658 182.445 169.424 182.406 169.151 182.367C168.331 182.211 167.59 182.055 166.927 181.938C166.693 181.899 166.459 181.86 166.264 181.821C166.186 181.821 166.108 181.782 166.069 181.782C165.913 181.743 165.718 181.743 165.562 181.704C165.288 181.665 165.015 181.626 164.781 181.587C164.586 181.548 164.391 181.548 164.196 181.509C164.079 181.509 164.001 181.47 163.923 181.47C163.728 181.431 163.572 181.431 163.377 181.431C163.299 181.431 163.221 181.431 163.104 181.392C163.026 181.392 162.948 181.392 162.87 181.353C162.519 181.314 162.206 181.314 161.894 181.314H161.855C161.777 181.314 161.738 181.314 161.66 181.314C161.543 181.314 161.387 181.314 161.27 181.314C161.231 181.314 161.153 181.314 161.114 181.314C161.036 181.314 160.958 181.314 160.88 181.314C160.724 181.314 160.568 181.314 160.451 181.353C160.373 181.353 160.334 181.353 160.256 181.392C160.217 181.392 160.178 181.392 160.1 181.392C160.022 181.392 159.983 181.431 159.905 181.431C159.866 181.431 159.827 181.431 159.788 181.47C159.71 181.47 159.671 181.509 159.593 181.509H159.554C159.515 181.509 159.515 181.509 159.476 181.548C159.437 181.548 159.398 181.587 159.359 181.587C159.32 181.587 159.281 181.626 159.242 181.626C159.203 181.626 159.164 181.665 159.125 181.665C159.085 181.665 159.046 181.704 159.007 181.743C158.968 181.782 158.929 181.782 158.89 181.821L158.851 181.86L158.812 181.899L158.773 181.938L158.734 181.977L158.695 182.016C158.656 182.094 158.617 182.133 158.578 182.211C158.5 182.367 158.11 183.303 158.461 184.2C158.5 184.239 158.5 184.317 158.539 184.356V184.395C158.578 184.434 158.578 184.473 158.617 184.512C158.617 184.551 158.656 184.551 158.656 184.59C158.734 184.668 158.773 184.746 158.851 184.824C158.851 184.824 158.89 184.863 158.929 184.863C158.968 184.902 159.007 184.941 159.085 184.98C159.125 185.019 159.164 185.019 159.203 185.058C159.242 185.097 159.281 185.097 159.281 185.136C159.398 185.214 159.476 185.253 159.593 185.331C159.671 185.369 159.749 185.408 159.827 185.447C159.905 185.486 160.022 185.525 160.1 185.564C160.178 185.603 160.295 185.642 160.373 185.642C160.451 185.681 160.529 185.681 160.607 185.72C160.958 185.798 161.309 185.876 161.621 185.954C161.621 185.954 161.66 185.954 161.699 185.954H161.738C161.738 185.954 161.738 185.954 161.777 185.954H161.816C161.855 185.954 161.894 185.954 161.972 185.993C162.05 185.993 162.128 186.032 162.206 186.032C162.285 186.032 162.402 186.071 162.48 186.071C162.558 186.071 162.675 186.11 162.792 186.149H162.831C162.87 186.149 162.948 186.188 162.987 186.188C163.065 186.188 163.104 186.227 163.182 186.227C163.221 186.227 163.299 186.266 163.338 186.266C163.455 186.305 163.572 186.305 163.728 186.344C163.923 186.383 164.157 186.422 164.391 186.5H164.43C164.586 186.539 164.742 186.578 164.898 186.578H164.937C165.093 186.617 165.249 186.656 165.406 186.656C165.835 186.734 166.303 186.851 166.81 186.968C167.434 187.085 168.097 187.241 168.839 187.397C168.917 187.397 168.995 187.436 169.073 187.436C169.268 187.475 169.424 187.514 169.619 187.553C169.814 187.592 170.009 187.631 170.204 187.67C170.789 187.787 171.413 187.943 172.077 188.099C172.74 188.255 173.403 188.411 174.066 188.567C174.105 188.567 174.144 188.567 174.183 188.606C174.3 188.645 174.378 188.645 174.495 188.684C174.612 188.723 174.69 188.723 174.808 188.762C175.081 188.84 175.315 188.879 175.588 188.957C175.744 188.996 175.861 189.035 175.978 189.074C176.407 189.191 176.758 189.269 177.07 189.386C177.148 189.386 177.187 189.425 177.265 189.425C176.914 189.425 176.524 189.425 176.173 189.425C175.939 189.425 175.705 189.425 175.51 189.425C175.081 189.425 174.651 189.464 174.222 189.464C174.066 189.464 173.949 189.464 173.793 189.503C173.442 189.503 173.13 189.542 172.818 189.581C172.662 189.581 172.506 189.62 172.311 189.62C171.96 189.659 171.609 189.698 171.257 189.737C170.789 189.776 170.36 189.815 169.97 189.893C169.853 189.893 169.697 189.931 169.58 189.931C169.034 190.009 168.527 190.087 168.097 190.165H168.058C168.019 190.165 168.019 190.165 167.98 190.165C167.941 190.165 167.902 190.165 167.863 190.204C167.824 190.204 167.785 190.204 167.707 190.243C167.668 190.243 167.59 190.282 167.512 190.282C167.434 190.282 167.317 190.321 167.239 190.36C167.122 190.399 167.005 190.399 166.888 190.438C166.498 190.516 166.03 190.633 165.523 190.789C165.367 190.828 165.171 190.867 165.015 190.945C164.937 190.984 164.859 190.984 164.781 191.023C164.625 191.062 164.43 191.14 164.274 191.179C164.118 191.218 163.923 191.296 163.767 191.335C163.689 191.374 163.611 191.413 163.533 191.413C163.416 191.452 163.299 191.491 163.182 191.53C163.065 191.569 162.948 191.608 162.87 191.647C162.753 191.686 162.636 191.725 162.558 191.803C162.48 191.842 162.402 191.881 162.363 191.881C162.285 191.92 162.206 191.959 162.128 191.998C161.855 192.115 161.621 192.271 161.426 192.427C161.348 192.466 161.27 192.544 161.192 192.583C161.114 192.622 161.036 192.7 160.958 192.778C160.919 192.817 160.88 192.856 160.841 192.895C160.802 192.934 160.763 192.973 160.724 193.012C160.685 193.051 160.685 193.09 160.646 193.09C160.607 193.129 160.568 193.168 160.568 193.207C160.529 193.246 160.529 193.285 160.49 193.324C160.451 193.363 160.451 193.402 160.412 193.441C160.373 193.519 160.334 193.597 160.295 193.675C160.256 193.792 160.139 194.104 160.178 194.416L159.71 194.532L154.599 195.975L154.326 196.053L152.375 196.599L151.751 196.794L147.343 198.042L145.119 198.666L140.047 200.108L137.824 200.732C136.536 201.083 135.21 200.342 134.859 199.017L134.235 196.755L134.039 196.014L132.752 191.335L132.206 189.308L132.011 188.567L130.528 183.108L130.177 181.821L129.982 181.08L128.149 174.374L127.954 173.633L126.12 166.888L125.964 166.342C127.329 164.197 128.851 161.936 130.528 159.674L130.723 159.401C132.518 156.945 134.508 154.449 136.653 151.954C137.043 151.525 137.434 151.057 137.824 150.628C139.657 148.562 141.647 146.495 143.715 144.506C144.183 144.077 144.612 143.649 145.08 143.22C147.382 141.114 149.801 139.048 152.375 137.098C152.414 137.098 152.414 137.059 152.453 137.059C154.755 135.343 157.135 133.706 159.671 132.146C161.114 131.249 162.636 130.391 164.157 129.612C164.508 129.417 164.82 129.261 165.171 129.105C168.058 127.623 171.101 126.297 174.3 125.128C174.417 121.345 174.495 117.563 174.612 113.742C173.169 112.962 171.062 111.598 169.151 109.219C165.796 105.086 165.171 100.563 165.054 98.6914C169.853 95.5331 172.35 92.1798 173.754 89.7623C175.978 85.8242 176.953 81.4961 179.489 80.4434C180.269 81.6521 181.167 82.9388 182.259 84.2645C186.238 89.0995 190.647 91.9848 193.768 93.6615C194.08 93.4275 194.86 92.9206 195.952 92.9206C195.991 92.9206 196.967 92.9206 197.864 93.4275C199.502 94.3633 200.361 96.7418 200.049 98.8084C199.659 101.538 197.24 103.721 194.899 103.799C194.275 103.838 193.768 103.682 193.377 103.565C193.143 106.334 192.948 109.219 192.831 112.182C192.675 115.146 192.636 118.031 192.597 120.839C201.375 119.786 210.231 120.137 218.892 121.579L219.165 122.554L220.374 127.038L220.881 128.871L221.037 129.495L222.91 136.318L223.105 137.059L223.3 137.839L224.9 143.766L225.095 144.506L225.407 145.598L226.928 151.213L227.123 151.876L227.63 153.786L228.957 158.66L229.152 159.323L230.986 166.108L231.181 166.849L232.351 171.177C232.78 172.112 232.546 173.009 231.961 173.633Z" fill="#FF1E00"/>
    <path d="M137.16 50.225C137.121 50.225 137.121 50.225 137.16 50.225C137.004 50.225 136.926 50.108 136.926 49.952L139.618 23.4378C139.618 23.3598 139.696 23.2818 139.774 23.2428C139.852 23.2038 139.969 23.2428 140.008 23.3208L158.071 43.9083C158.149 43.9863 158.149 44.1423 158.071 44.2203C157.993 44.2982 157.837 44.2982 157.759 44.2203L140.008 24.0227L137.355 50.03C137.355 50.147 137.277 50.225 137.16 50.225Z" fill="black"/>
    <path d="M140.047 25.4263C140.78 25.4263 141.374 24.8153 141.374 24.0616C141.374 23.3079 140.78 22.6969 140.047 22.6969C139.315 22.6969 138.721 23.3079 138.721 24.0616C138.721 24.8153 139.315 25.4263 140.047 25.4263Z" fill="black"/>
    <path d="M219.048 121.54C210.426 120.098 201.57 119.747 192.753 120.8C192.792 118.031 192.87 115.146 192.987 112.143C193.143 109.18 193.299 106.295 193.533 103.526C193.924 103.682 194.431 103.799 195.055 103.76C197.396 103.682 199.814 101.499 200.205 98.7694C200.517 96.7028 199.619 94.3243 198.02 93.3885C197.123 92.8816 196.186 92.8816 196.108 92.8816C195.016 92.8816 194.236 93.4275 193.924 93.6225C190.803 91.9458 186.394 89.0995 182.415 84.2255C181.361 82.9388 180.425 81.6521 179.645 80.4044C177.07 81.4571 176.134 85.7852 173.91 89.7233C172.506 92.1798 170.009 95.5331 165.21 98.6524C165.366 100.485 165.952 105.008 169.307 109.18C171.218 111.52 173.325 112.923 174.768 113.703C174.651 117.485 174.573 121.267 174.456 125.089C171.257 126.258 168.214 127.584 165.327 129.066C164.976 129.222 164.664 129.417 164.313 129.573C162.792 130.391 161.27 131.249 159.827 132.107C157.291 133.628 154.911 135.304 152.609 137.02C152.57 137.02 152.57 137.059 152.531 137.059C149.956 139.009 147.538 141.036 145.236 143.181C144.768 143.61 144.3 144.038 143.87 144.467C141.764 146.456 139.813 148.523 137.98 150.589C137.589 151.018 137.199 151.486 136.809 151.915C134.664 154.41 132.674 156.906 130.879 159.362H130.684V159.635C129.046 161.897 127.524 164.158 126.12 166.303L121.594 149.614C121.945 149.302 122.297 148.99 122.648 148.678C122.765 148.562 122.882 148.484 122.96 148.367C123.662 147.665 124.247 146.924 124.754 146.222C124.871 146.066 124.949 145.949 125.066 145.793C125.183 145.637 125.261 145.52 125.34 145.364C125.418 145.208 125.535 145.091 125.613 144.935C125.886 144.506 126.159 144.077 126.393 143.688C126.549 143.454 126.666 143.22 126.783 142.986C127.095 142.479 127.329 141.972 127.602 141.504C127.68 141.348 127.758 141.192 127.836 141.036C128.304 140.1 128.695 139.126 129.007 138.229C129.046 138.112 129.085 137.995 129.124 137.878C129.163 137.761 129.202 137.683 129.241 137.566C129.28 137.41 129.319 137.293 129.397 137.137C129.397 137.098 129.436 137.02 129.436 136.981C129.436 136.942 129.436 136.942 129.475 136.903C129.475 136.864 129.514 136.825 129.514 136.825C129.553 136.708 129.592 136.552 129.631 136.435C129.748 136.084 129.826 135.733 129.904 135.382C129.943 135.265 129.982 135.148 129.982 135.031C129.982 134.992 130.021 134.914 130.021 134.875C130.06 134.759 130.06 134.681 130.099 134.564C130.099 134.525 130.138 134.486 130.138 134.408C130.177 134.291 130.177 134.174 130.216 134.057C130.255 133.901 130.294 133.745 130.333 133.55C130.372 133.355 130.411 133.121 130.45 132.926C131.347 132.263 132.206 131.639 132.986 131.054C133.493 130.703 133.961 130.313 134.39 130.002C135.171 129.417 135.912 128.832 136.614 128.286C136.848 128.091 137.082 127.935 137.277 127.779C137.472 127.623 137.667 127.467 137.824 127.35C138.994 126.453 139.93 125.673 140.632 125.05C141.491 124.309 143.129 122.866 142.856 121.345C142.778 120.917 142.583 120.449 142.31 120.215C142.076 120.02 141.764 119.942 141.374 119.942C141.296 119.942 141.179 119.942 141.101 119.942C141.101 119.942 141.101 119.942 141.062 119.942C140.945 119.942 140.867 119.981 140.749 119.981C140.71 119.981 140.632 120.02 140.593 120.02C140.554 120.02 140.476 120.059 140.398 120.059C140.203 120.098 140.047 120.176 139.813 120.215C139.306 120.41 138.721 120.644 138.097 120.956C137.941 121.034 137.785 121.111 137.628 121.189C137.472 121.267 137.316 121.345 137.16 121.462C137.004 121.54 136.848 121.657 136.653 121.735C136.497 121.813 136.302 121.93 136.146 122.008C136.029 122.086 135.873 122.164 135.756 122.242C135.015 122.671 134.273 123.178 133.493 123.685C133.298 123.802 133.142 123.919 132.947 124.036C132.869 124.075 132.791 124.114 132.752 124.192C132.635 124.27 132.518 124.348 132.44 124.426C132.284 124.504 132.167 124.621 132.011 124.738C131.894 124.816 131.738 124.933 131.621 125.011C131.152 125.323 130.723 125.635 130.294 125.946C130.138 126.063 129.943 126.219 129.787 126.336C129.631 126.453 129.436 126.57 129.28 126.726C128.187 127.545 127.173 128.325 126.276 129.027L126.198 128.949C126.237 128.91 126.393 128.793 126.627 128.598C126.705 128.559 126.744 128.481 126.822 128.403C126.861 128.364 126.939 128.325 126.978 128.247C127.641 127.701 128.656 126.804 129.826 125.79C129.943 125.673 130.06 125.596 130.177 125.479C131.699 124.153 133.454 122.593 135.132 121.072C135.21 120.995 135.288 120.917 135.405 120.839C135.483 120.761 135.561 120.683 135.639 120.605C135.756 120.527 135.834 120.41 135.951 120.332C136.068 120.215 136.185 120.137 136.302 120.02C136.653 119.669 137.004 119.357 137.355 119.045C137.511 118.889 137.667 118.772 137.824 118.616C137.941 118.499 138.058 118.421 138.136 118.304C138.214 118.226 138.292 118.148 138.37 118.07C138.487 117.953 138.604 117.836 138.721 117.719C138.838 117.602 138.955 117.485 139.033 117.407C139.228 117.212 139.462 116.939 139.735 116.666C139.774 116.627 139.813 116.549 139.891 116.51C139.93 116.472 139.93 116.433 139.969 116.394C140.008 116.316 140.086 116.238 140.125 116.16L140.164 116.121C140.203 116.082 140.242 116.043 140.281 116.004C140.32 115.926 140.398 115.848 140.437 115.77C140.476 115.731 140.515 115.653 140.554 115.614C140.554 115.575 140.593 115.575 140.593 115.536C140.632 115.497 140.671 115.419 140.71 115.38L140.749 115.341C140.788 115.263 140.827 115.224 140.867 115.146C140.906 115.107 140.906 115.068 140.906 115.029C140.945 114.99 140.945 114.951 140.945 114.873C140.945 114.834 140.984 114.795 140.984 114.756C140.984 114.717 141.023 114.678 141.023 114.678C141.062 114.522 141.101 114.366 141.14 114.21C141.14 114.171 141.14 114.132 141.14 114.093C141.14 114.054 141.14 114.015 141.14 113.976C141.14 113.937 141.14 113.898 141.14 113.859C141.14 113.742 141.14 113.625 141.101 113.508V113.469C141.101 113.43 141.101 113.391 141.062 113.352C140.906 112.728 140.515 112.299 140.398 112.221C140.359 112.182 140.32 112.143 140.242 112.143C140.203 112.143 140.203 112.104 140.164 112.104C140.047 112.065 139.969 112.065 139.813 112.065C139.774 112.065 139.696 112.065 139.657 112.065C139.618 112.065 139.579 112.065 139.54 112.065C139.501 112.065 139.462 112.065 139.384 112.104C139.345 112.104 139.306 112.104 139.267 112.143C139.189 112.143 139.111 112.182 139.033 112.182C138.955 112.221 138.877 112.221 138.799 112.26C138.76 112.26 138.721 112.299 138.682 112.299C138.604 112.338 138.487 112.377 138.409 112.416C137.511 112.806 136.263 113.508 134.546 114.678C134.312 114.834 134.078 115.029 133.805 115.185C133.727 115.263 133.61 115.341 133.532 115.38C133.415 115.458 133.337 115.536 133.22 115.614C132.908 115.848 132.596 116.082 132.284 116.316C132.167 116.394 132.05 116.471 131.972 116.549C131.855 116.627 131.738 116.705 131.621 116.822C131.504 116.9 131.386 117.017 131.23 117.095C131.113 117.212 130.957 117.29 130.801 117.407C130.684 117.485 130.567 117.563 130.489 117.68C130.45 117.719 130.411 117.758 130.372 117.758C130.177 117.914 129.982 118.07 129.787 118.226C129.514 118.421 129.28 118.655 129.007 118.85C128.812 119.006 128.656 119.162 128.461 119.318C127.797 119.864 127.056 120.449 126.315 121.111C126.198 121.189 126.081 121.306 125.964 121.384C124.715 122.437 123.35 123.607 121.906 124.855C128.5 118.538 133.532 113.508 135.99 110.896C136.77 110.077 138.331 108.4 137.863 106.997C137.863 106.997 137.628 106.217 136.653 105.749C134.039 104.384 123.896 114.522 117.849 120.839C117.888 120.8 117.888 120.761 117.927 120.722C117.966 120.683 118.005 120.605 118.044 120.566C118.122 120.449 118.239 120.332 118.356 120.176C118.434 120.059 118.512 119.981 118.59 119.864C118.707 119.669 118.824 119.513 118.98 119.357C122.804 114.171 124.13 112.494 125.886 109.765C127.056 107.932 127.017 107.815 127.29 107.308C127.485 106.958 127.719 106.646 127.875 106.334C128.265 105.71 128.773 105.047 129.007 104.033C129.202 103.409 129.319 102.746 129.163 102.24C130.84 95.5721 134.039 87.6178 140.593 85.2003C142.934 84.3425 143.402 85.4343 145.587 84.2255C150.893 81.2622 150.737 72.1772 160.841 65.2367C173.364 56.6195 181.869 67.8101 181.869 67.8101C181.869 67.8101 184.248 67.0303 187.252 67.0303C190.646 67.0303 194.782 68.0441 197.006 72.4111C199.814 77.9479 203.677 78.3768 207.305 78.8837L219.048 121.54Z" fill="black"/>
    <path d="M174.3 113.391C174.339 113.391 174.378 113.43 174.417 113.43C176.211 114.21 177.85 113.976 178.786 113.859C181.985 113.43 185.301 111.169 185.691 110.896C185.106 111.909 184.092 113.391 182.375 114.639C179.059 117.056 175.509 116.939 174.378 116.861C174.378 115.692 174.339 114.522 174.3 113.391Z" fill="black"/>
    <path d="M192.597 95.494C192.558 95.494 192.519 95.494 192.48 95.4551C192.363 95.4161 192.324 95.2601 192.402 95.1431C192.753 94.4023 193.299 93.8174 193.923 93.3885C194.236 93.1935 194.548 92.9986 194.899 92.8816C195.016 92.8426 195.133 92.8816 195.172 93.0376C195.211 93.1546 195.172 93.2715 195.055 93.3495C194.743 93.4665 194.47 93.6225 194.196 93.7784C193.611 94.1683 193.143 94.7142 192.831 95.3771C192.753 95.4551 192.675 95.494 192.597 95.494Z" fill="black"/>
    <path d="M117.069 112.572L116.912 112.806L116.873 112.845C116.249 113.586 115.82 114.21 115.547 114.678C115.352 114.99 115.235 115.263 114.689 116.198C114.455 116.588 114.299 116.9 114.143 117.095C113.87 117.641 113.557 118.187 113.284 118.733L112.894 117.251L111.49 112.065C111.49 112.065 112.387 106.84 114.65 106.918C116.873 106.996 117.069 112.572 117.069 112.572Z" fill="black"/>
    <path d="M107.394 135.499H107.355C107.238 135.46 107.16 135.343 107.199 135.226L111.256 112.065C111.295 111.948 111.412 111.87 111.529 111.87C111.646 111.909 111.724 112.026 111.724 112.143L108.135 132.692L113.129 118.694C113.168 118.577 113.285 118.499 113.402 118.538C113.519 118.577 113.597 118.694 113.519 118.85L107.667 135.343C107.589 135.421 107.511 135.499 107.394 135.499Z" fill="black"/>
    <path d="M118.044 121.111C118.005 121.111 117.966 121.111 117.927 121.072C117.81 120.994 117.81 120.838 117.888 120.76C120.814 116.783 122.921 113.781 124.13 111.987C125.73 109.687 126.978 107.737 127.876 106.256C128.422 105.32 129.709 103.136 128.968 102.045C128.968 102.045 128.695 101.655 128.11 101.46C127.329 101.226 124.872 102.395 117.069 112.962C116.991 113.079 116.835 113.079 116.757 113.001C116.64 112.923 116.64 112.767 116.718 112.689C122.882 104.306 126.627 100.485 128.227 100.992C128.968 101.226 129.319 101.733 129.319 101.772C130.216 103.136 128.812 105.476 128.227 106.49C127.329 108.01 126.081 109.921 124.481 112.26C123.233 114.054 121.165 117.056 118.239 121.033C118.2 121.072 118.122 121.111 118.044 121.111Z" fill="black"/>
    <path d="M121.438 150.121C121.36 150.121 121.321 150.082 121.282 150.043C121.204 149.926 121.204 149.809 121.321 149.731L121.594 149.497C124.247 147.275 125.768 144.662 126.744 142.947C128.499 139.905 129.709 136.552 130.333 133.004C130.333 132.926 130.372 132.887 130.411 132.848C132.713 131.132 134.819 129.573 136.614 128.208C138.291 126.921 139.696 125.79 140.632 124.972C141.334 124.348 143.012 122.905 142.778 121.462C142.7 121.072 142.505 120.683 142.31 120.488C141.685 119.942 138.877 119.669 126.549 129.261C126.471 129.339 126.354 129.339 126.276 129.261L126.197 129.183C126.119 129.105 126.119 128.949 126.197 128.871C126.276 128.793 126.354 128.793 126.432 128.832C132.791 123.88 140.671 118.421 142.622 120.176C142.934 120.449 143.168 120.955 143.246 121.423C143.519 123.139 141.685 124.699 140.944 125.362C139.969 126.18 138.564 127.311 136.887 128.637C135.131 130.001 133.064 131.561 130.762 133.238C130.138 136.825 128.928 140.178 127.134 143.259C126.119 145.013 124.598 147.626 121.867 149.926L121.594 150.16C121.516 150.121 121.477 150.121 121.438 150.121Z" fill="black"/>
    <path d="M126.315 129.222C126.237 129.222 126.198 129.183 126.159 129.144C126.081 129.027 126.081 128.91 126.198 128.832C127.134 128.052 135.21 121.15 139.033 117.29C139.735 116.588 141.374 114.951 141.023 113.43C140.867 112.806 140.437 112.416 140.437 112.416C139.735 111.831 136.458 112.65 122.258 125.049C122.18 125.127 122.024 125.127 121.945 125.011C121.867 124.933 121.867 124.777 121.985 124.699C136.887 111.714 139.813 111.285 140.75 112.065C140.789 112.065 141.296 112.533 141.491 113.313C141.92 115.068 140.125 116.822 139.384 117.602C135.639 121.384 128.031 127.896 126.549 129.144C126.432 129.222 126.393 129.222 126.315 129.222Z" fill="black"/>
    <path d="M122.062 125.127C122.023 125.127 121.945 125.088 121.906 125.05C121.828 124.972 121.828 124.816 121.906 124.738L121.945 124.699C129.007 117.914 133.844 113.079 135.99 110.779C136.653 110.077 138.253 108.4 137.824 107.113C137.824 107.074 137.589 106.451 136.731 105.983C135.678 105.437 131.894 106.685 118.2 121.033C118.122 121.111 117.966 121.111 117.888 121.033C117.81 120.955 117.81 120.799 117.888 120.721C128.461 109.609 134.898 104.54 136.965 105.593C137.98 106.139 138.253 106.957 138.292 106.996C138.799 108.556 137.082 110.35 136.341 111.13C134.195 113.43 129.358 118.265 122.258 125.088C122.179 125.088 122.14 125.127 122.062 125.127Z" fill="black"/>
    <path d="M113.284 118.733L107.394 135.265L109.422 123.685L113.05 117.875L113.284 118.733Z" fill="black"/>
    <path d="M113.284 118.967C113.245 118.967 113.206 118.967 113.167 118.928C113.05 118.85 113.011 118.733 113.089 118.616C113.441 117.914 113.831 117.212 114.221 116.51C114.962 115.185 115.82 113.898 116.718 112.689C116.796 112.572 116.913 112.572 117.03 112.65C117.147 112.728 117.147 112.884 117.069 112.962C116.21 114.171 115.352 115.458 114.611 116.744C114.221 117.407 113.831 118.109 113.48 118.811C113.441 118.928 113.363 118.967 113.284 118.967Z" fill="black"/>
    <path d="M190.451 205.996C190.412 205.996 190.412 205.996 190.373 205.996C189.476 205.723 188.578 205.411 187.72 205.021C187.33 204.826 186.901 204.631 186.472 204.436C185.73 204.047 184.989 203.579 184.248 203.072C180.542 200.459 178.357 197.145 177.226 194.767C175.548 194.416 173.832 194.26 172.154 194.299C171.023 194.338 169.852 194.455 168.76 194.689C168.604 194.728 164.235 196.014 161.777 195.702C161.114 195.624 160.645 195.39 160.411 194.962C160.294 194.767 160.255 194.572 160.216 194.338C160.216 193.987 160.294 193.636 160.333 193.519C161.075 191.257 167.629 190.049 168.37 189.932C171.374 189.425 174.456 189.191 177.577 189.23C177.694 189.23 177.811 189.347 177.811 189.464C177.811 189.581 177.694 189.698 177.577 189.698C174.495 189.659 171.413 189.893 168.448 190.4C166.029 190.828 161.27 192.037 160.762 193.675C160.723 193.792 160.645 194.065 160.645 194.338C160.645 194.494 160.684 194.65 160.762 194.728C160.919 195.001 161.27 195.156 161.816 195.234C164.157 195.546 168.604 194.221 168.643 194.221C169.813 193.987 170.984 193.87 172.154 193.831C173.949 193.792 175.704 193.948 177.46 194.338C177.538 194.338 177.577 194.416 177.616 194.455C178.747 196.794 180.854 200.108 184.56 202.682C185.262 203.189 186.004 203.618 186.745 204.008C187.135 204.203 187.564 204.397 187.954 204.592C188.773 204.982 189.671 205.294 190.529 205.528C190.646 205.567 190.724 205.684 190.685 205.801C190.646 205.918 190.568 205.996 190.451 205.996Z" fill="black"/>
    <path d="M195.835 186.695C195.796 186.695 195.718 186.656 195.679 186.617L195.211 186.149C194.821 185.72 194.391 185.331 194.001 184.902C192.909 183.81 191.934 182.835 191.036 181.977C190.334 181.275 189.632 180.613 188.93 179.911C187.525 178.546 186.043 177.142 184.56 175.778C183.819 175.388 183.078 174.959 182.337 174.569L181.712 174.257C180.698 173.711 177.577 172.073 174.456 170.67C171.374 169.305 168.916 168.447 167.239 168.174C165.873 167.94 165.015 168.057 164.664 168.525C164.313 168.993 164.469 169.773 164.508 169.929V169.968C164.781 171.021 166.419 171.879 167.356 172.268C167.824 172.463 168.136 172.58 168.175 172.58C169.267 172.97 170.321 173.438 171.374 173.945C172.7 174.608 173.754 175.232 174.768 175.856C175.314 176.168 175.86 176.518 176.368 176.869C176.485 176.947 176.485 177.064 176.446 177.181C176.368 177.298 176.251 177.337 176.134 177.259C175.587 176.908 175.08 176.596 174.534 176.246C173.52 175.622 172.505 174.998 171.179 174.374C170.165 173.867 169.111 173.438 168.058 173.048C168.058 173.048 167.707 172.931 167.239 172.736C165.99 172.19 164.43 171.294 164.118 170.124V170.085C164.04 169.812 163.884 168.915 164.352 168.252C164.82 167.628 165.795 167.472 167.356 167.706C169.111 167.979 171.569 168.837 174.69 170.241C177.85 171.645 180.971 173.282 181.985 173.828L182.61 174.14C183.39 174.53 184.131 174.959 184.872 175.388L184.911 175.427C186.394 176.83 187.876 178.234 189.281 179.599C189.983 180.262 190.685 180.964 191.387 181.665C192.285 182.523 193.221 183.498 194.352 184.59C194.782 185.019 195.172 185.409 195.562 185.837L196.03 186.305C196.108 186.383 196.108 186.539 196.03 186.617C195.952 186.656 195.874 186.695 195.835 186.695Z" fill="black"/>
    <path d="M177.616 189.698C177.577 189.698 177.577 189.698 177.538 189.698C176.485 189.386 175.51 189.152 174.495 188.918L174.378 188.879C171.959 188.294 169.502 187.748 167.161 187.241C164.001 186.539 161.972 186.149 161.972 186.149H161.933C161.309 186.032 160.529 185.876 159.826 185.525C159.202 185.214 158.773 184.785 158.578 184.278C158.188 183.303 158.656 182.25 158.695 182.133C158.773 181.938 158.929 181.782 159.085 181.665C159.28 181.509 159.553 181.392 159.866 181.314C161.114 180.963 163.338 181.08 166.576 181.626H166.654C166.849 181.665 167.044 181.704 167.278 181.743C169.307 182.094 171.725 182.679 174.534 183.381C176.407 183.849 178.553 184.434 180.893 185.097C181.01 185.136 181.088 185.253 181.049 185.369C181.01 185.486 180.893 185.564 180.776 185.525C178.474 184.863 176.329 184.278 174.456 183.81C171.686 183.108 169.229 182.562 167.239 182.172C167.044 182.133 166.849 182.094 166.654 182.055H166.576C163.416 181.509 161.231 181.392 160.061 181.743C159.787 181.821 159.592 181.899 159.436 182.016C159.319 182.094 159.241 182.211 159.163 182.328C159.124 182.445 158.695 183.303 159.046 184.122C159.202 184.551 159.553 184.863 160.1 185.136C160.724 185.447 161.465 185.603 162.089 185.72H162.128C162.167 185.72 164.196 186.149 167.356 186.812C169.736 187.319 172.154 187.865 174.573 188.45L174.69 188.489C175.705 188.723 176.719 188.996 177.772 189.308C177.85 189.347 177.928 189.425 177.928 189.542C177.85 189.581 177.733 189.698 177.616 189.698Z" fill="black"/>
    <path d="M180.776 185.526C180.737 185.526 180.698 185.526 180.659 185.487C178.396 184.278 176.289 183.264 174.339 182.445C174.339 182.445 174.339 182.445 174.3 182.445C173.949 182.289 173.637 182.172 173.325 182.055C171.062 181.158 168.994 180.496 167.122 180.106C166.146 179.911 165.249 179.794 164.43 179.716H164.274C163.259 179.638 161.192 179.482 159.748 178.546C159.241 178.195 158.851 177.805 158.617 177.298C158.5 177.025 158.071 176.051 158.461 175.232C158.695 174.764 159.124 174.452 159.787 174.218C159.865 174.179 159.943 174.179 160.021 174.14C161.114 173.867 162.791 173.867 164.976 174.14C165.639 174.218 166.38 174.335 167.2 174.491C168.136 174.647 168.955 174.842 169.579 174.959H169.657C171.257 175.31 172.895 175.739 174.495 176.246C175.119 176.441 175.665 176.635 176.211 176.83C178.513 177.649 180.776 178.624 183 179.755C183.117 179.794 183.156 179.95 183.117 180.067C183.078 180.184 182.922 180.223 182.805 180.184C180.62 179.053 178.357 178.078 176.094 177.298C175.587 177.103 175.002 176.908 174.417 176.752C172.817 176.246 171.218 175.817 169.618 175.466H169.54C168.916 175.349 168.097 175.154 167.161 174.998C166.341 174.842 165.639 174.725 164.976 174.647C162.83 174.374 161.231 174.374 160.177 174.647C160.099 174.647 160.021 174.686 159.982 174.725C159.436 174.881 159.085 175.154 158.929 175.505C158.617 176.129 159.007 176.986 159.085 177.181C159.28 177.61 159.592 177.961 160.06 178.234C161.387 179.131 163.454 179.287 164.352 179.326H164.508C165.366 179.404 166.263 179.521 167.239 179.716C169.111 180.106 171.218 180.769 173.481 181.665C173.481 181.665 173.481 181.665 173.52 181.665C173.871 181.782 174.183 181.938 174.534 182.094H174.573C176.524 182.913 178.63 183.927 180.854 185.097H180.893C181.01 185.136 181.049 185.292 181.01 185.409C180.971 185.448 180.932 185.526 180.893 185.526C180.854 185.526 180.815 185.526 180.776 185.526Z" fill="black"/>
    <path d="M198.097 183.615L197.98 183.654L196.381 184.122L194.157 184.746L191.933 182.562C191.933 182.562 189.359 173.282 192.09 172.502C194.196 171.917 196.81 179.521 198.097 183.615Z" fill="black"/>
    <path d="M200.594 191.257C200.516 191.257 200.399 191.218 200.399 191.101L198.643 186.188C198.604 186.071 198.526 185.837 198.409 185.408C198.292 184.98 198.097 184.395 197.902 183.693C197.863 183.576 197.941 183.459 198.058 183.42C198.175 183.381 198.292 183.459 198.331 183.576C198.526 184.278 198.722 184.863 198.839 185.292C198.956 185.681 199.034 185.954 199.073 186.032L200.828 190.945C200.867 191.062 200.828 191.179 200.711 191.257C200.672 191.257 200.633 191.257 200.594 191.257Z" fill="black"/>
    <path d="M200.36 190.321L187.837 204.787C188.813 205.216 189.671 205.528 190.451 205.723C193.845 200.81 197.2 195.897 200.594 190.984C200.594 190.906 200.594 190.789 200.555 190.672C200.516 190.516 200.438 190.399 200.36 190.321Z" fill="black"/>
    <path d="M106.731 231.769C106.575 231.769 106.497 231.769 106.458 231.769C104.78 231.769 103.259 231.496 102.01 230.912C97.5627 229.586 94.4808 223.269 92.8422 212.079C92.4911 209.778 92.2961 207.595 92.14 206.152C92.101 205.645 92.062 205.177 92.023 204.748C91.0086 194.221 92.7642 180.652 97.2506 164.431C99.7865 155.151 103.259 145.052 107.238 135.187C107.277 135.109 107.316 135.07 107.394 135.031C107.472 135.031 107.55 135.031 107.589 135.109L121.594 149.77C121.633 149.809 121.672 149.887 121.672 149.926L120.931 195.468C120.931 195.585 120.814 195.702 120.697 195.702C120.58 195.702 120.463 195.585 120.463 195.468L121.204 150.004L107.472 135.655C103.532 145.403 100.138 155.385 97.6408 164.509C93.1933 180.652 91.4378 194.143 92.4521 204.631C92.4911 205.06 92.5301 205.528 92.5691 206.035C92.7252 207.439 92.9203 209.622 93.2714 211.923C94.8709 222.918 97.8358 229.118 102.127 230.405H102.166C103.376 230.951 104.819 231.224 106.458 231.224C106.497 231.224 109.657 231.34 113.246 229.937C114.611 229.391 116.562 228.299 118.864 226.74C119.371 226.389 119.917 226.038 120.463 225.609C125.457 222.061 131.504 216.992 137.473 211.299C137.551 211.221 137.707 211.221 137.785 211.299C137.863 211.377 137.863 211.533 137.785 211.611C131.816 217.304 125.769 222.411 120.736 225.96C120.151 226.389 119.605 226.74 119.098 227.09C116.796 228.65 114.806 229.742 113.402 230.327C110.32 231.652 107.589 231.769 106.731 231.769Z" fill="black"/>
    <path d="M221.233 187.085C221.115 187.085 220.998 186.968 220.998 186.851C220.959 178.858 220.959 170.904 220.92 162.91V160.805C220.92 160.688 221.037 160.571 221.154 160.571C221.272 160.571 221.389 160.688 221.389 160.805V162.91C221.428 170.904 221.428 178.858 221.467 186.851C221.467 186.968 221.35 187.085 221.233 187.085Z" fill="black"/>
    <path d="M113.05 288.541C112.972 288.541 112.933 288.502 112.855 288.463C112.816 288.385 112.816 288.307 112.816 288.268L137.277 211.65C138.526 207.712 139.813 203.735 141.061 199.796L145.119 187.046C145.665 185.292 146.25 183.576 146.796 181.821C147.577 179.326 148.396 176.83 149.176 174.374L151.088 168.369C151.127 168.252 151.244 168.174 151.361 168.213C151.478 168.252 151.556 168.369 151.517 168.486L149.605 174.491C148.825 176.986 148.006 179.482 147.225 181.938C146.679 183.693 146.133 185.409 145.548 187.163L141.491 199.913C140.242 203.851 138.955 207.829 137.706 211.767L113.363 288.073L221.31 282.419C221.31 271.853 221.271 261.13 221.232 250.602C221.193 237.618 221.115 227.714 221.037 218.473C221.037 218.356 221.154 218.239 221.271 218.239C221.388 218.239 221.505 218.356 221.505 218.473C221.583 227.714 221.622 237.657 221.7 250.602C221.739 261.247 221.778 272.009 221.778 282.653C221.778 282.77 221.7 282.887 221.583 282.887L113.05 288.541Z" fill="black"/>
    <path d="M236.369 184.005C236.291 184.005 236.213 183.966 236.174 183.888C231.102 176.245 226.031 168.564 220.959 160.922C220.881 160.805 220.92 160.688 221.037 160.61C221.154 160.532 221.271 160.571 221.349 160.688C226.421 168.33 231.492 176.012 236.564 183.654C236.642 183.771 236.603 183.888 236.486 183.966C236.486 184.005 236.447 184.005 236.369 184.005Z" fill="black"/>
    <path d="M174.222 160.181C174.222 160.181 174.183 160.181 174.222 160.181C174.105 160.181 174.027 160.103 173.988 160.025L165.21 129.144C165.171 129.027 165.249 128.91 165.366 128.871C165.483 128.832 165.6 128.91 165.639 129.027L174.3 159.44L184.092 145.676C190.139 137.137 196.186 128.598 202.233 120.098C202.311 119.981 202.428 119.981 202.545 120.059C202.662 120.137 202.662 120.293 202.584 120.371C196.537 128.91 190.49 137.449 184.444 145.949L174.417 160.103C174.378 160.181 174.3 160.181 174.222 160.181Z" fill="black"/>
    <path d="M121.009 175.544C120.97 175.544 120.931 175.544 120.892 175.505C120.775 175.427 120.736 175.31 120.814 175.193C121.282 174.296 121.828 173.36 122.375 172.385C123.545 170.319 124.793 168.252 126.042 166.264C135.015 152.188 150.698 133.628 174.339 124.972L174.495 113.82C174.495 113.703 174.612 113.586 174.729 113.586C174.846 113.586 174.963 113.703 174.963 113.82L174.807 125.128C174.807 125.206 174.729 125.323 174.651 125.323C151.049 133.901 135.405 152.461 126.432 166.498C125.183 168.486 123.935 170.514 122.765 172.619C122.218 173.555 121.711 174.53 121.204 175.427C121.165 175.466 121.087 175.544 121.009 175.544Z" fill="black"/>
    <path d="M219.945 218.707C205.9 218.707 194.392 213.17 188.072 209.271C188.033 209.232 187.994 209.193 187.955 209.115C187.955 209.037 187.955 208.998 187.994 208.92C189.359 206.971 190.724 204.982 192.051 202.994L194.275 199.757C196.303 196.794 198.332 193.831 200.4 190.867C200.439 190.828 200.478 190.789 200.556 190.789L202.194 190.477C202.623 190.399 203.052 190.321 203.482 190.204C217.331 187.397 231.141 184.629 244.991 181.821C245.108 181.782 245.225 181.86 245.264 182.016C245.303 182.133 245.225 182.25 245.069 182.289C231.219 185.097 217.409 187.865 203.56 190.672C203.13 190.75 202.701 190.828 202.272 190.945L200.751 191.257C198.722 194.182 196.693 197.145 194.704 200.069L192.48 203.306C191.154 205.216 189.866 207.127 188.54 208.998C196.576 213.872 212.728 221.281 231.61 216.914C235.238 216.056 244.874 213.833 252.793 207.673C253.691 206.971 254.549 206.269 255.329 205.489C258.372 202.604 260.635 199.25 262.078 195.585C264.965 188.294 263.795 181.704 262.781 175.895C262.742 175.661 262.703 175.388 262.625 175.154L262.586 174.92C262.547 174.647 262.469 174.335 262.429 174.062C256.031 142.752 235.043 126.297 218.97 121.774C210.699 119.435 201.882 119.201 192.792 121.034C192.714 121.034 192.675 121.034 192.597 120.995C192.558 120.956 192.519 120.878 192.519 120.8C192.558 117.953 192.636 115.029 192.753 112.143C192.87 109.258 193.065 106.373 193.299 103.526C193.299 103.409 193.416 103.292 193.533 103.331C193.65 103.331 193.767 103.448 193.728 103.565C193.494 106.412 193.299 109.297 193.182 112.182C193.065 114.99 192.987 117.797 192.948 120.527C202.038 118.733 210.816 119.006 219.048 121.306C230.79 124.621 241.246 132.224 249.321 143.259C258.099 155.268 261.571 167.667 262.859 173.984C262.937 174.257 262.976 174.569 263.015 174.842L263.054 175.076C263.093 175.349 263.132 175.583 263.21 175.817C264.185 181.392 265.394 188.333 262.468 195.741C260.986 199.484 258.684 202.877 255.602 205.801C254.822 206.542 253.925 207.283 253.027 207.985C245.03 214.223 235.355 216.446 231.688 217.304C227.63 218.278 223.729 218.707 219.945 218.707Z" fill="black"/>
    <path d="M165.561 129.846H164.391C164.274 129.846 164.157 129.729 164.157 129.612C164.157 129.495 164.274 129.378 164.391 129.378H165.561C165.678 129.378 165.795 129.495 165.795 129.612C165.795 129.729 165.678 129.846 165.561 129.846Z" fill="black"/>
    <path d="M211.011 129.845H195.757C195.64 129.845 195.523 129.729 195.523 129.612C195.523 129.495 195.64 129.378 195.757 129.378H218.306L221.193 129.261C221.31 129.261 221.427 129.339 221.427 129.495C221.427 129.612 221.349 129.729 221.193 129.729L218.306 129.845H211.011Z" fill="black"/>
    <path d="M223.261 137.293H190.451C190.334 137.293 190.217 137.176 190.217 137.059C190.217 136.942 190.334 136.825 190.451 136.825H223.261C223.378 136.825 223.495 136.942 223.495 137.059C223.495 137.215 223.378 137.293 223.261 137.293Z" fill="black"/>
    <path d="M129.553 137.293C129.436 137.293 129.319 137.176 129.319 137.059C129.319 136.942 129.436 136.825 129.553 136.825C129.67 136.825 129.787 136.942 129.787 137.059C129.787 137.215 129.67 137.293 129.553 137.293Z" fill="black"/>
    <path d="M167.707 137.293H152.726C152.609 137.293 152.492 137.176 152.492 137.059C152.492 136.942 152.609 136.825 152.726 136.825H167.707C167.824 136.825 167.941 136.942 167.941 137.059C167.941 137.215 167.824 137.293 167.707 137.293Z" fill="black"/>
    <path d="M225.29 144.779H185.185C185.068 144.779 184.951 144.662 184.951 144.545C184.951 144.428 185.068 144.311 185.185 144.311H225.29C225.407 144.311 225.524 144.428 225.524 144.545C225.524 144.662 225.407 144.779 225.29 144.779Z" fill="black"/>
    <path d="M169.814 144.779H143.948C143.831 144.779 143.714 144.662 143.714 144.545C143.714 144.428 143.831 144.311 143.948 144.311H169.814C169.931 144.311 170.048 144.428 170.048 144.545C170.048 144.662 169.931 144.779 169.814 144.779Z" fill="black"/>
    <path d="M218.306 152.227H179.879C179.762 152.227 179.645 152.11 179.645 151.993C179.645 151.876 179.762 151.759 179.879 151.759H225.563C226.148 151.759 226.694 151.72 227.279 151.72C227.396 151.72 227.513 151.798 227.513 151.954C227.513 152.071 227.435 152.188 227.279 152.188C226.694 152.188 226.148 152.227 225.563 152.227H224.861H218.306Z" fill="black"/>
    <path d="M171.959 152.227H136.887C136.77 152.227 136.653 152.11 136.653 151.993C136.653 151.876 136.77 151.759 136.887 151.759H171.959C172.076 151.759 172.193 151.876 172.193 151.993C172.193 152.11 172.076 152.227 171.959 152.227Z" fill="black"/>
    <path d="M218.307 159.674H174.612C174.495 159.674 174.378 159.557 174.378 159.44C174.378 159.323 174.495 159.206 174.612 159.206H225.641C226.85 159.167 228.099 159.167 229.308 159.128C229.425 159.128 229.542 159.245 229.542 159.362C229.542 159.479 229.464 159.596 229.308 159.596C228.099 159.596 226.85 159.635 225.641 159.674H225.563H218.307Z" fill="black"/>
    <path d="M174.066 159.674H130.957C130.84 159.674 130.723 159.557 130.723 159.44C130.723 159.323 130.84 159.206 130.957 159.206H174.066C174.183 159.206 174.3 159.323 174.3 159.44C174.3 159.596 174.222 159.674 174.066 159.674Z" fill="black"/>
    <path d="M225.602 167.121H225.212C225.095 167.121 224.978 167.004 224.978 166.887C224.978 166.77 225.095 166.653 225.212 166.653H231.376C231.493 166.653 231.61 166.77 231.61 166.887C231.61 167.004 231.493 167.121 231.376 167.121H225.602Z" fill="black"/>
    <path d="M221.193 167.121H126.393C126.276 167.121 126.159 167.004 126.159 166.887C126.159 166.77 126.276 166.653 126.393 166.653H221.193C221.31 166.653 221.427 166.77 221.427 166.887C221.427 167.004 221.31 167.121 221.193 167.121Z" fill="black"/>
    <path d="M160.139 174.608H128.383C128.265 174.608 128.148 174.491 128.148 174.374C128.148 174.257 128.265 174.14 128.383 174.14H160.139C160.256 174.14 160.373 174.257 160.373 174.374C160.373 174.491 160.256 174.608 160.139 174.608Z" fill="black"/>
    <path d="M171.686 174.647C170.828 174.647 169.97 174.608 169.112 174.608C168.487 174.608 167.824 174.608 167.2 174.608H165.015C164.898 174.608 164.781 174.491 164.781 174.374C164.781 174.257 164.898 174.14 165.015 174.14H167.2C167.824 174.14 168.487 174.14 169.112 174.14C169.97 174.14 170.828 174.14 171.686 174.179C171.804 174.179 171.921 174.296 171.921 174.413C171.921 174.53 171.804 174.647 171.686 174.647Z" fill="black"/>
    <path d="M211.011 174.608H182.415C182.298 174.608 182.181 174.491 182.181 174.374C182.181 174.257 182.298 174.14 182.415 174.14H218.306L221.232 174.101C221.349 174.101 221.466 174.218 221.466 174.335C221.466 174.452 221.388 174.569 221.232 174.569L218.306 174.608H211.011Z" fill="black"/>
    <path d="M173.442 182.055C171.374 182.055 169.307 182.055 167.2 182.055H166.537C166.42 182.055 166.303 181.938 166.303 181.821C166.303 181.704 166.42 181.587 166.537 181.587H167.2C169.268 181.587 171.335 181.587 173.403 181.587C173.52 181.587 173.637 181.704 173.637 181.821C173.676 181.977 173.559 182.055 173.442 182.055Z" fill="black"/>
    <path d="M159.241 182.055H130.45C130.333 182.055 130.216 181.938 130.216 181.821C130.216 181.704 130.333 181.587 130.45 181.587H159.241C159.358 181.587 159.475 181.704 159.475 181.821C159.436 181.938 159.358 182.055 159.241 182.055Z" fill="black"/>
    <path d="M204.379 182.055H191.193C191.076 182.055 190.958 181.938 190.958 181.821C190.958 181.704 191.076 181.587 191.193 181.587H204.379C204.496 181.587 204.613 181.704 204.613 181.821C204.613 181.938 204.496 182.055 204.379 182.055Z" fill="black"/>
    <path d="M159.944 189.503H132.479C132.362 189.503 132.245 189.386 132.245 189.269C132.245 189.152 132.362 189.035 132.479 189.035H167.239L176.212 188.918C176.329 188.918 176.446 189.035 176.446 189.152C176.446 189.269 176.368 189.386 176.212 189.386L167.239 189.503H159.944Z" fill="black"/>
    <path d="M152.024 196.989H134.508C134.39 196.989 134.273 196.872 134.273 196.755C134.273 196.638 134.39 196.521 134.508 196.521H152.024C152.141 196.521 152.258 196.638 152.258 196.755C152.258 196.872 152.141 196.989 152.024 196.989Z" fill="black"/>
    <path d="M130.762 183.342C130.645 183.342 130.528 183.225 130.528 183.108V159.713C130.528 159.596 130.645 159.479 130.762 159.479C130.879 159.479 130.996 159.596 130.996 159.713V183.108C130.996 183.225 130.879 183.342 130.762 183.342Z" fill="black"/>
    <path d="M138.058 200.966C137.941 200.966 137.824 200.849 137.824 200.732V150.667C137.824 150.55 137.941 150.433 138.058 150.433C138.175 150.433 138.292 150.55 138.292 150.667V200.732C138.292 200.849 138.175 200.966 138.058 200.966Z" fill="black"/>
    <path d="M145.353 198.861C145.236 198.861 145.119 198.744 145.119 198.627V143.22C145.119 143.103 145.236 142.986 145.353 142.986C145.47 142.986 145.587 143.103 145.587 143.22V198.627C145.587 198.783 145.47 198.861 145.353 198.861Z" fill="black"/>
    <path d="M152.648 196.794C152.531 196.794 152.414 196.677 152.414 196.56V137.137C152.414 137.02 152.531 136.903 152.648 136.903C152.765 136.903 152.882 137.02 152.882 137.137V196.56C152.882 196.677 152.765 196.794 152.648 196.794Z" fill="black"/>
    <path d="M159.983 194.688C159.865 194.688 159.748 194.571 159.748 194.454L159.67 189.269V185.291C159.67 185.174 159.787 185.057 159.904 185.057C160.022 185.057 160.139 185.174 160.139 185.291V189.269L160.217 194.454C160.217 194.61 160.139 194.688 159.983 194.688C160.022 194.688 160.022 194.688 159.983 194.688Z" fill="black"/>
    <path d="M159.944 174.647C159.827 174.647 159.709 174.53 159.709 174.413V132.146C159.709 132.029 159.827 131.912 159.944 131.912C160.061 131.912 160.178 132.029 160.178 132.146V174.413C160.139 174.569 160.061 174.647 159.944 174.647Z" fill="black"/>
    <path d="M159.944 181.743C159.827 181.743 159.709 181.626 159.709 181.509V178.351C159.709 178.234 159.827 178.117 159.944 178.117C160.061 178.117 160.178 178.234 160.178 178.351V181.509C160.139 181.626 160.061 181.743 159.944 181.743Z" fill="black"/>
    <path d="M167.2 182.172C167.083 182.172 166.966 182.055 166.966 181.938V181.197C166.966 181.08 167.083 180.964 167.2 180.964C167.317 180.964 167.434 181.08 167.434 181.197V181.938C167.434 182.055 167.356 182.172 167.2 182.172Z" fill="black"/>
    <path d="M167.2 188.723C167.083 188.723 166.966 188.606 166.966 188.489V187.007C166.966 186.89 167.083 186.773 167.2 186.773C167.317 186.773 167.434 186.89 167.434 187.007V188.489C167.434 188.606 167.356 188.723 167.2 188.723Z" fill="black"/>
    <path d="M167.2 168.174C167.083 168.174 166.966 168.057 166.966 167.94V135.382C166.966 135.265 167.083 135.148 167.2 135.148C167.317 135.148 167.434 135.265 167.434 135.382V167.94C167.434 168.057 167.356 168.174 167.2 168.174Z" fill="black"/>
    <path d="M167.2 182.055C167.083 182.055 166.966 181.938 166.966 181.821V179.872C166.966 179.755 167.083 179.638 167.2 179.638C167.317 179.638 167.434 179.755 167.434 179.872V181.821C167.434 181.938 167.356 182.055 167.2 182.055Z" fill="black"/>
    <path d="M167.2 174.959C167.083 174.959 166.966 174.842 166.966 174.725V172.502C166.966 172.385 167.083 172.268 167.2 172.268C167.317 172.268 167.434 172.385 167.434 172.502V174.725C167.434 174.842 167.356 174.959 167.2 174.959Z" fill="black"/>
    <path d="M167.2 190.633C167.083 190.633 166.966 190.516 166.966 190.399V188.216C166.966 188.099 167.083 187.982 167.2 187.982C167.317 187.982 167.434 188.099 167.434 188.216V190.399C167.434 190.516 167.356 190.633 167.2 190.633Z" fill="black"/>
    <path d="M174.495 170.709C174.378 170.709 174.261 170.592 174.261 170.475V159.596C174.261 159.479 174.378 159.362 174.495 159.362C174.612 159.362 174.729 159.479 174.729 159.596V170.475C174.729 170.592 174.612 170.709 174.495 170.709Z" fill="black"/>
    <path d="M174.495 176.713C174.378 176.713 174.261 176.596 174.261 176.479V176.168C174.261 176.051 174.378 175.934 174.495 175.934C174.612 175.934 174.729 176.051 174.729 176.168V176.479C174.729 176.635 174.612 176.713 174.495 176.713Z" fill="black"/>
    <path d="M174.417 189.737C174.3 189.737 174.183 189.62 174.183 189.503V189.191C174.183 188.996 174.183 188.801 174.183 188.606C174.183 188.489 174.3 188.372 174.417 188.372C174.534 188.372 174.651 188.489 174.651 188.606C174.651 188.801 174.651 188.996 174.651 189.191V189.503C174.651 189.62 174.573 189.737 174.417 189.737Z" fill="black"/>
    <path d="M174.456 183.81C174.339 183.81 174.222 183.693 174.222 183.576C174.222 183.147 174.222 182.718 174.222 182.25C174.222 182.133 174.339 182.016 174.456 182.016C174.573 182.016 174.69 182.133 174.69 182.25C174.69 182.679 174.69 183.147 174.69 183.576C174.69 183.693 174.573 183.81 174.456 183.81Z" fill="black"/>
    <path d="M181.791 174.257C181.674 174.257 181.557 174.14 181.557 174.023V149.302C181.557 149.185 181.674 149.068 181.791 149.068C181.908 149.068 182.025 149.185 182.025 149.302V174.023C182.025 174.179 181.908 174.257 181.791 174.257Z" fill="black"/>
    <path d="M189.086 179.989C188.969 179.989 188.852 179.872 188.852 179.755V139.009C188.852 138.892 188.969 138.775 189.086 138.775C189.203 138.775 189.32 138.892 189.32 139.009V179.755C189.32 179.911 189.203 179.989 189.086 179.989Z" fill="black"/>
    <path d="M196.381 183.42C196.264 183.42 196.147 183.303 196.147 183.186V128.754C196.147 128.637 196.264 128.52 196.381 128.52C196.498 128.52 196.615 128.637 196.615 128.754V183.186C196.576 183.303 196.498 183.42 196.381 183.42Z" fill="black"/>
    <path d="M203.716 182.25C203.598 182.25 203.481 182.133 203.481 182.016V120.215C203.481 120.098 203.598 119.981 203.716 119.981C203.833 119.981 203.95 120.098 203.95 120.215V182.016C203.95 182.133 203.833 182.25 203.716 182.25Z" fill="black"/>
    <path d="M211.011 180.184C210.894 180.184 210.777 180.067 210.777 179.95V120.527C210.777 120.41 210.894 120.293 211.011 120.293C211.128 120.293 211.245 120.41 211.245 120.527V179.911C211.245 180.067 211.128 180.184 211.011 180.184Z" fill="black"/>
    <path d="M218.306 178.078C218.189 178.078 218.072 177.961 218.072 177.844V121.423C218.072 121.306 218.189 121.189 218.306 121.189C218.423 121.189 218.54 121.306 218.54 121.423V177.883C218.501 178 218.423 178.078 218.306 178.078Z" fill="black"/>
    <path d="M225.563 167.706C225.446 167.706 225.329 167.589 225.329 167.472V145.637C225.329 145.52 225.446 145.403 225.563 145.403C225.68 145.403 225.797 145.52 225.797 145.637V167.472C225.797 167.589 225.719 167.706 225.563 167.706Z" fill="black"/>
    <path d="M200.751 122.788C200.712 122.788 200.673 122.788 200.634 122.749C200.517 122.671 200.517 122.554 200.556 122.437C200.634 122.281 200.634 122.281 203.716 122.281C205.627 122.281 208.28 122.281 211.011 122.281C213.157 122.281 215.341 122.281 217.292 122.32H218.384C218.696 122.32 219.008 122.32 219.321 122.32C219.438 122.32 219.555 122.437 219.555 122.554C219.555 122.671 219.438 122.788 219.321 122.788C219.008 122.788 218.696 122.788 218.384 122.788H217.292C215.341 122.788 213.157 122.788 211.011 122.749C208.28 122.749 205.627 122.749 203.716 122.749C201.414 122.749 200.907 122.788 200.829 122.788C200.79 122.788 200.79 122.788 200.751 122.788Z" fill="black"/>
    <path d="M166.654 201.356C167.387 201.356 167.98 200.745 167.98 199.991C167.98 199.238 167.387 198.627 166.654 198.627C165.921 198.627 165.328 199.238 165.328 199.991C165.328 200.745 165.921 201.356 166.654 201.356Z" fill="black"/>
    <path d="M163.806 225.024C164.538 225.024 165.132 224.413 165.132 223.659C165.132 222.905 164.538 222.294 163.806 222.294C163.073 222.294 162.479 222.905 162.479 223.659C162.479 224.413 163.073 225.024 163.806 225.024Z" fill="black"/>
    <path d="M160.646 249.277C161.379 249.277 161.973 248.666 161.973 247.912C161.973 247.158 161.379 246.547 160.646 246.547C159.914 246.547 159.32 247.158 159.32 247.912C159.32 248.666 159.914 249.277 160.646 249.277Z" fill="black"/>
    <path d="M157.096 273.997C157.829 273.997 158.422 273.386 158.422 272.633C158.422 271.879 157.829 271.268 157.096 271.268C156.363 271.268 155.77 271.879 155.77 272.633C155.77 273.386 156.363 273.997 157.096 273.997Z" fill="black"/>
    <path d="M121.282 159.83C121.243 159.83 121.243 159.83 121.282 159.83L99.7473 156.75C99.6303 156.75 99.5522 156.633 99.5522 156.477C99.5522 156.36 99.6693 156.282 99.7863 156.282L121.282 159.362C121.399 159.362 121.477 159.479 121.477 159.635C121.477 159.752 121.36 159.83 121.282 159.83Z" fill="black"/>
    <path d="M210.777 217.888C210.66 217.888 210.543 217.771 210.543 217.654L209.841 189.113C209.841 188.996 209.919 188.879 210.075 188.879C210.192 188.879 210.309 188.957 210.309 189.113L211.011 217.654C211.011 217.771 210.894 217.888 210.777 217.888Z" fill="black"/>
    <path d="M118.941 227.012C116.601 228.611 114.65 229.664 113.285 230.21C109.617 231.652 106.418 231.496 106.418 231.496C104.039 231.496 102.634 230.911 102.049 230.639C96.4702 229.001 94.1295 219.682 93.0371 212.001C101.62 213.092 111.958 216.758 118.941 227.012Z" fill="black"/>
    <path d="M262.274 195.702C260.674 199.718 258.255 202.994 255.446 205.684C254.627 206.464 253.769 207.205 252.911 207.868C249.282 200.381 249.048 191.842 252.521 184.707C255.212 179.131 259.504 175.856 262.664 174.023C262.742 174.296 262.781 174.608 262.82 174.881C262.898 175.232 262.937 175.544 263.015 175.856C264.068 181.938 265.122 188.489 262.274 195.702Z" fill="black"/>
</svg>
