<svg width="323" height="258" viewBox="0 0 323 258" fill="none" xmlns="http://www.w3.org/2000/svg">
    <path d="M233.421 257.602C229.146 257.602 224.655 254.319 220.039 247.848C219.977 247.755 219.977 247.6 220.101 247.538C220.194 247.476 220.349 247.476 220.41 247.6C225.088 254.164 229.611 257.385 233.855 257.168C237.325 256.982 239.679 254.66 242.188 252.183C244.698 249.737 247.269 247.197 251.017 247.012C255.168 246.795 259.505 249.613 263.873 255.31C263.966 255.403 263.935 255.558 263.842 255.651C263.749 255.744 263.594 255.713 263.501 255.62C259.226 250.046 255.044 247.321 251.048 247.507C247.486 247.693 244.976 250.17 242.529 252.554C240.082 254.97 237.542 257.478 233.886 257.664C233.731 257.602 233.576 257.602 233.421 257.602Z" fill="black"/>
    <path d="M13.7708 66.6857C9.71268 66.6857 5.43767 63.5583 1.03874 57.3963C0.976787 57.3034 0.976787 57.1485 1.1007 57.0866C1.19364 57.0247 1.34853 57.0247 1.41048 57.1485C5.87136 63.3725 10.1464 66.438 14.1736 66.2212C17.4573 66.0355 19.6877 63.8369 22.073 61.4836C24.4584 59.1613 26.9057 56.746 30.4682 56.5602C34.4334 56.3744 38.5225 59.0064 42.6736 64.4562C42.7666 64.5491 42.7356 64.704 42.6426 64.7969C42.5497 64.8898 42.3948 64.8588 42.3019 64.7659C38.2437 59.4709 34.2785 56.8699 30.4682 57.0557C27.0915 57.2105 24.7062 59.5638 22.3828 61.8552C20.0594 64.1466 17.6431 66.5309 14.1736 66.7167C14.0496 66.6857 13.9257 66.6857 13.7708 66.6857Z" fill="black"/>
    <path fill-rule="evenodd" clip-rule="evenodd" d="M199.145 222.81C199.176 222.841 199.238 222.841 199.269 222.841C199.362 222.841 199.424 222.779 199.455 222.717L202.491 218.351C202.553 218.258 202.522 218.104 202.429 218.042L198.061 215.007C197.968 214.945 197.813 214.976 197.751 215.069L194.716 219.435C194.685 219.497 194.685 219.559 194.685 219.621C194.685 219.683 194.716 219.745 194.778 219.776L199.145 222.81ZM199.207 222.284L195.211 219.497L197.999 215.503L201.995 218.29L199.207 222.284Z" fill="black"/>
    <path d="M277.501 63.4353L284.122 64.1523L283.405 70.7711L276.783 70.0541L277.501 63.4353Z" fill="#01BDB7"/>
    <path d="M85.4237 75.6035C85.3927 75.6035 85.3308 75.6035 85.2998 75.5726L80.0335 72.2593C79.9096 72.1974 79.8786 72.0426 79.9715 71.9497C80.0335 71.8258 80.1884 71.7949 80.2813 71.8878L85.5476 75.201C85.6715 75.2629 85.7025 75.4177 85.6096 75.5106C85.5786 75.5726 85.5166 75.6035 85.4237 75.6035Z" fill="black"/>
    <path d="M187.311 14.448C187.249 14.448 187.187 14.417 187.156 14.3861C187.063 14.2932 187.063 14.1383 187.156 14.0455L191.4 9.49362C191.493 9.40073 191.648 9.40073 191.741 9.49362C191.834 9.58652 191.834 9.74134 191.741 9.83423L187.466 14.3861C187.435 14.417 187.373 14.448 187.311 14.448Z" fill="black"/>
    <path d="M265.718 17.4825C265.656 17.4825 265.563 17.4516 265.532 17.3896L262.155 12.1566C262.093 12.0637 262.124 11.9088 262.217 11.8469C262.31 11.785 262.465 11.816 262.527 11.9088L265.904 17.1419C265.966 17.2348 265.935 17.3896 265.842 17.4516C265.78 17.4825 265.749 17.4825 265.718 17.4825Z" fill="black"/>
    <path d="M14.0809 126.169C14.0189 126.169 13.988 126.169 13.957 126.138C13.864 126.076 13.8331 125.921 13.895 125.828L17.4885 120.75C17.5505 120.657 17.7054 120.626 17.7983 120.688C17.8912 120.75 17.9222 120.905 17.8603 120.998L14.2668 126.076C14.2048 126.138 14.1429 126.169 14.0809 126.169Z" fill="black"/>
    <path d="M301.188 130.938C301.126 130.938 301.033 130.907 301.002 130.845C300.94 130.752 300.94 130.597 301.064 130.535L306.176 127.005C306.268 126.943 306.423 126.943 306.485 127.067C306.547 127.16 306.547 127.315 306.423 127.377L301.312 130.907C301.281 130.907 301.25 130.938 301.188 130.938Z" fill="black"/>
    <path d="M318.473 67.3359C318.442 67.3359 318.381 67.3359 318.35 67.3049C318.257 67.243 318.226 67.0882 318.288 66.9953L321.819 61.8551C321.881 61.7622 322.036 61.7313 322.129 61.7932C322.222 61.8551 322.253 62.01 322.191 62.1029L318.659 67.243C318.628 67.3049 318.566 67.3359 318.473 67.3359Z" fill="black"/>
    <path d="M117.084 221.045C117.022 221.045 116.96 221.014 116.898 220.952C116.805 220.859 116.836 220.705 116.929 220.612L121.792 216.71C121.885 216.617 122.04 216.648 122.133 216.741C122.226 216.834 122.195 216.989 122.102 217.082L117.239 220.983C117.208 221.045 117.146 221.045 117.084 221.045Z" fill="black"/>
    <path d="M94.5625 6.02556C94.5006 6.02556 94.4076 5.9946 94.3766 5.93267L90.8141 0.823472C90.7522 0.730577 90.7522 0.575753 90.8761 0.513823C90.969 0.451894 91.1239 0.451894 91.1859 0.575753L94.7484 5.68495C94.8103 5.77784 94.8103 5.93267 94.6864 5.9946C94.6554 6.02556 94.5935 6.02556 94.5625 6.02556Z" fill="black"/>
    <path d="M11.417 12.4663C11.355 12.4663 11.2621 12.4354 11.2311 12.3734L7.66863 7.23326C7.60667 7.14037 7.60667 6.98554 7.73058 6.92361C7.82352 6.86168 7.97841 6.86168 8.04037 6.98554L11.6029 12.0947C11.6648 12.1876 11.6648 12.3425 11.5409 12.4044C11.5099 12.4354 11.448 12.4663 11.417 12.4663Z" fill="black"/>
    <path d="M35.1774 212.84C35.1154 212.84 35.0534 212.809 34.9915 212.778L30.8094 208.164C30.7165 208.071 30.7165 207.916 30.8404 207.823C30.9333 207.73 31.0882 207.73 31.1811 207.854L35.3632 212.468C35.4562 212.561 35.4562 212.716 35.3322 212.809C35.2703 212.84 35.2393 212.84 35.1774 212.84Z" fill="black"/>
    <path fill-rule="evenodd" clip-rule="evenodd" d="M129.537 53.2467C130.156 53.866 130.993 54.1757 131.798 54.1757C132.635 54.1757 133.44 53.866 134.029 53.2467C135.268 52.0081 135.268 49.9954 134.029 48.7568C132.789 47.5182 130.776 47.5182 129.537 48.7568C128.298 49.9954 128.298 52.0081 129.537 53.2467ZM129.878 49.0976C130.405 48.5712 131.117 48.2925 131.799 48.2925C132.511 48.2925 133.193 48.5402 133.719 49.0976C134.772 50.1504 134.772 51.8844 133.719 52.9372C132.666 53.99 130.931 53.99 129.878 52.9372C128.825 51.8844 128.825 50.1504 129.878 49.0976Z" fill="black"/>
    <path d="M9.65085 173.638C10.8827 173.638 11.8813 172.64 11.8813 171.409C11.8813 170.177 10.8827 169.179 9.65085 169.179C8.41901 169.179 7.42041 170.177 7.42041 171.409C7.42041 172.64 8.41901 173.638 9.65085 173.638Z" fill="#01BDB7"/>
    <path d="M232.941 246.883C234.566 246.883 235.884 245.566 235.884 243.942C235.884 242.317 234.566 241 232.941 241C231.316 241 229.998 242.317 229.998 243.942C229.998 245.566 231.316 246.883 232.941 246.883Z" fill="#01BDB7"/>
    <path fill-rule="evenodd" clip-rule="evenodd" d="M312.03 12.4043C312.526 12.683 313.052 12.8379 313.61 12.8379C313.889 12.8379 314.168 12.8069 314.446 12.714C315.252 12.4972 315.933 11.9708 316.367 11.2277C316.77 10.4845 316.894 9.64847 316.677 8.81242C316.46 8.00734 315.933 7.32611 315.19 6.8926C314.446 6.49006 313.61 6.3662 312.774 6.58295C311.968 6.79971 311.287 7.32611 310.853 8.06927C310.45 8.81242 310.326 9.64847 310.543 10.4845C310.76 11.2896 311.287 11.9708 312.03 12.4043ZM312.897 7.04742C313.145 6.98549 313.362 6.95452 313.61 6.95452C314.075 6.95452 314.57 7.07838 314.973 7.3261C315.593 7.66672 316.057 8.25505 316.243 8.96724C316.429 9.67943 316.305 10.4226 315.964 11.0419C315.624 11.6612 315.035 12.1257 314.322 12.3114C313.61 12.4972 312.866 12.4043 312.247 12.0328C311.627 11.6921 311.163 11.1038 310.977 10.3916C310.791 9.67943 310.915 8.93627 311.256 8.31698C311.596 7.69768 312.185 7.23321 312.897 7.04742Z" fill="black"/>
    <path d="M63.708 31.5715C66.8732 31.5715 69.439 29.0068 69.439 25.843C69.439 22.6792 66.8732 20.1145 63.708 20.1145C60.5429 20.1145 57.9771 22.6792 57.9771 25.843C57.9771 29.0068 60.5429 31.5715 63.708 31.5715Z" fill="#01BDB7"/>
    <path d="M158.144 119.456C158.051 119.456 157.989 119.425 157.927 119.363C157.834 119.24 157.865 119.085 157.958 118.992C159.661 117.631 161.52 116.424 163.471 115.404C165.298 114.445 167.219 113.64 169.17 113.053C169.604 112.929 170.037 112.774 170.564 112.65C170.595 112.65 170.626 112.65 170.657 112.65C172.949 112.743 175.241 112.65 177.409 112.403C178.988 112.217 179.825 112.001 180.227 111.32C180.63 110.671 180.599 109.681 180.165 109.093C179.887 108.722 179.236 108.319 174.838 108.319H174.776C172.515 108.319 171.369 108.319 170.161 108.474C169.449 108.567 168.767 108.722 168.055 108.876C166.692 109.217 165.577 109.588 164.865 109.866C163.719 110.268 162.635 110.701 161.489 111.165C161.365 111.227 161.21 111.165 161.148 111.042C161.086 110.918 161.117 110.763 161.21 110.701C163.316 109.217 165.422 108.01 167.528 107.144C169.635 106.278 171.772 105.721 173.909 105.473C174.342 105.443 174.776 105.381 175.272 105.35C177.471 105.164 180.227 104.948 180.599 103.71C180.785 103.153 180.413 102.566 180.258 102.349C179.205 100.771 174.435 101.05 172.701 101.297C170.626 101.576 168.519 102.102 166.444 102.875C164.772 103.494 163.068 104.236 161.458 105.133C161.427 105.164 161.365 105.164 161.303 105.164C161.148 105.164 161.055 105.04 161.055 104.886C161.055 104.824 161.086 104.731 161.148 104.7C161.179 104.669 161.179 104.669 161.21 104.669C162.882 103.772 164.586 102.999 166.289 102.38C168.396 101.607 170.564 101.081 172.67 100.802C172.949 100.771 179.267 99.9052 180.723 102.102C180.971 102.473 181.342 103.184 181.126 103.927C180.63 105.473 177.811 105.721 175.334 105.907C174.869 105.937 174.404 105.968 174.002 106.03C171.927 106.247 169.82 106.804 167.776 107.639C166.413 108.196 165.02 108.907 163.657 109.742C163.997 109.619 164.338 109.495 164.71 109.371C165.453 109.093 166.568 108.722 167.962 108.381C168.674 108.196 169.418 108.072 170.13 107.948C171.369 107.763 172.515 107.763 174.807 107.794H174.869C179.546 107.825 180.227 108.227 180.63 108.784C181.187 109.557 181.249 110.794 180.723 111.599C180.134 112.558 178.957 112.743 177.502 112.929C175.303 113.176 173.011 113.269 170.719 113.176C170.223 113.3 169.789 113.455 169.387 113.578C167.466 114.197 165.577 114.97 163.781 115.899C161.86 116.888 160.064 118.095 158.36 119.425C158.267 119.456 158.205 119.456 158.144 119.456Z" fill="black"/>
    <path d="M136.153 116.61C136.091 116.61 136.029 116.579 135.998 116.548C135.874 116.455 135.843 116.301 135.936 116.177C136.029 116.022 136.153 115.898 136.246 115.744L136.462 115.465C138.166 113.238 139.9 111.073 141.604 109.031C144.949 105.071 148.79 101.235 155.913 94.244C158.639 91.5527 161.055 89.2945 162.82 88.9232C163.285 88.8304 163.719 88.8614 164.059 89.047C164.803 89.4182 165.051 90.3462 165.082 90.439C165.298 91.3052 164.989 92.2642 164.152 93.3469C163.626 94.0275 163.006 94.6153 162.48 95.1102L162.325 95.2649C160.25 97.2447 158.206 99.5648 156.223 102.225C159.259 100.029 162.201 98.2965 164.958 97.121C166.506 96.4404 167.993 95.9455 169.418 95.6052C171.028 95.203 174.404 94.3987 175.643 96.0073C175.705 96.0692 176.17 96.7188 176.077 97.4922C175.86 99.0699 173.568 99.7505 170.904 100.524C170.068 100.771 169.232 101.019 168.427 101.297C167.714 101.545 167.064 101.823 166.382 102.132C164.741 102.906 163.099 103.865 161.582 105.04C160.776 105.628 160.002 106.309 159.259 106.989C159.166 107.082 158.98 107.082 158.887 106.989C158.794 106.896 158.794 106.711 158.887 106.618C159.63 105.906 160.436 105.257 161.241 104.638C162.82 103.432 164.462 102.442 166.166 101.668C166.847 101.359 167.528 101.081 168.241 100.802C169.077 100.524 169.913 100.245 170.75 99.9979C173.135 99.2864 175.365 98.6368 175.55 97.3994C175.643 96.8426 175.241 96.3476 175.241 96.3167C174.219 94.9865 171.059 95.7289 169.542 96.1001C168.148 96.4404 166.692 96.9354 165.174 97.585C162.046 98.9461 158.67 100.988 155.17 103.679C155.077 103.772 154.922 103.741 154.829 103.648C154.737 103.555 154.737 103.401 154.798 103.308C157.121 100.029 159.568 97.2138 162.015 94.8627L162.17 94.7081C162.666 94.244 163.285 93.6563 163.781 93.0066C164.524 92.0477 164.803 91.2434 164.617 90.5628C164.617 90.5628 164.431 89.7894 163.874 89.511C163.626 89.3873 163.347 89.3563 162.975 89.4491C161.241 89.8203 158.515 92.5117 156.347 94.6462C149.254 101.607 145.414 105.442 142.1 109.402C140.365 111.444 138.661 113.609 136.958 115.806L136.772 116.084C136.679 116.239 136.555 116.362 136.462 116.517C136.308 116.579 136.246 116.61 136.153 116.61Z" fill="black"/>
    <path d="M146.311 130.19C146.187 130.19 146.094 130.128 146.063 130.005C146.032 129.85 146.094 129.726 146.249 129.664C146.962 129.448 147.767 129.2 148.665 128.922C155.665 126.818 167.776 123.044 169.944 121.652C170.315 121.405 171.337 120.786 171.43 119.858C171.492 119.208 171.121 118.621 170.749 118.311C169.882 117.538 168.395 117.785 166.072 118.28C163.78 118.775 161.426 119.332 159.134 119.951C159.072 119.982 158.979 119.951 158.917 119.92C158.608 119.734 158.298 119.549 157.988 119.394C156.099 118.342 154.085 117.693 151.979 117.414C150.74 117.26 149.501 117.229 148.262 117.352C148.108 117.352 147.984 117.26 147.984 117.105C147.984 116.95 148.077 116.826 148.232 116.826C149.501 116.703 150.802 116.734 152.072 116.888C154.24 117.167 156.315 117.847 158.267 118.93C158.546 119.085 158.824 119.239 159.103 119.425C161.364 118.806 163.687 118.249 165.948 117.755C168.426 117.198 170.037 116.95 171.09 117.909C171.523 118.311 172.019 119.054 171.926 119.889C171.833 121.065 170.656 121.807 170.222 122.085C167.992 123.508 155.851 127.282 148.82 129.386C147.922 129.664 147.116 129.912 146.404 130.128C146.373 130.19 146.342 130.19 146.311 130.19Z" fill="black"/>
    <path d="M161.798 113.114C161.674 113.114 161.55 113.022 161.55 112.867C161.365 110.794 160.466 108.814 158.856 107.02C157.772 105.814 156.44 104.7 154.86 103.741C153.528 102.937 152.568 102.535 152.506 102.504C152.382 102.473 152.289 102.349 152.32 102.194C152.351 102.04 152.475 101.947 152.63 101.978C152.692 101.978 153.776 102.442 155.139 103.277C156.781 104.267 158.143 105.412 159.258 106.68C160.931 108.567 161.86 110.64 162.077 112.836C162.046 112.96 161.953 113.083 161.798 113.114Z" fill="black"/>
    <path d="M148.727 129.2C147.829 129.479 147.024 129.726 146.312 129.943C142.935 125.426 139.528 120.91 136.152 116.393L136.4 116.053C140.52 120.415 144.639 124.808 148.727 129.2Z" fill="black"/>
    <path d="M250.412 129.417C250.289 129.417 250.196 129.324 250.165 129.2C248.244 120.848 245.178 112.867 241.059 105.535C234.121 93.1612 223.869 81.9937 212.192 74.0743C212.068 73.9815 212.037 73.8269 212.13 73.7031C212.223 73.5794 212.377 73.5484 212.501 73.6412C224.24 81.5915 234.523 92.8209 241.523 105.288C245.674 112.681 248.74 120.693 250.691 129.108C250.722 129.262 250.629 129.386 250.505 129.417C250.443 129.417 250.443 129.417 250.412 129.417Z" fill="black"/>
    <path d="M71.2334 197.752C68.8485 197.752 66.7423 197.226 64.9459 196.205C58.3177 192.4 55.623 181.202 57.4195 164.683L57.4504 164.373C58.5345 154.041 62.2513 144.328 68.8175 134.738C75.4458 125.024 92.3881 104.143 113.759 87.3764C126.211 77.6319 138.538 70.5478 150.339 66.3097C164.586 61.2364 178.183 60.3083 190.82 63.5565C190.975 63.5874 191.037 63.7421 191.006 63.8658C190.975 64.0205 190.82 64.0824 190.697 64.0515C178.183 60.8342 164.679 61.7623 150.525 66.8047C138.755 71.0118 126.489 78.065 114.069 87.7785C92.7597 104.514 75.8794 125.334 69.2512 135.016C62.7468 144.544 59.061 154.165 57.977 164.404L57.946 164.714C56.1805 181.016 58.7823 192.06 65.2247 195.741C73.9281 200.722 89.9412 193.174 112.892 173.283C113.016 173.19 113.171 173.19 113.264 173.314C113.357 173.437 113.357 173.592 113.233 173.685C94.773 189.678 80.6802 197.752 71.2334 197.752Z" fill="black"/>
    <path d="M124.166 163.693C124.104 163.693 124.011 163.662 123.98 163.6C123.888 163.507 123.888 163.321 123.98 163.229C128.905 158.588 134.14 153.422 139.56 147.854C141.016 146.369 142.502 144.822 143.989 143.276C144.578 142.657 145.166 142.038 145.755 141.419C146.343 140.801 146.931 140.182 147.52 139.563C148.573 138.45 149.657 137.305 150.679 136.191L147.489 131.953C147.086 131.427 146.684 130.871 146.281 130.345L134.914 115.187C134.294 114.351 133.644 113.516 133.025 112.65L94.8348 133.871C94.7109 133.933 94.556 133.902 94.4631 133.779C94.4012 133.655 94.4321 133.5 94.556 133.407L132.963 112.062C133.087 112 133.21 112.031 133.303 112.124C133.985 113.021 134.666 113.918 135.317 114.815L146.684 129.974C147.086 130.499 147.489 131.056 147.892 131.582L151.206 136.006C151.268 136.099 151.268 136.253 151.175 136.346C150.06 137.522 148.976 138.697 147.861 139.873C147.272 140.491 146.684 141.11 146.095 141.729C145.507 142.347 144.918 142.966 144.33 143.585C142.843 145.132 141.356 146.678 139.901 148.163C134.48 153.732 129.246 158.898 124.321 163.538C124.29 163.662 124.228 163.693 124.166 163.693Z" fill="black"/>
    <path d="M188.869 97.3991C188.838 97.3991 188.807 97.3991 188.776 97.3682C188.683 97.3372 188.652 97.2444 188.621 97.1825L182.953 62.4117C182.922 62.257 183.015 62.1333 183.17 62.1024C183.325 62.0714 183.449 62.1642 183.48 62.3189L189.086 96.6876L190.789 95.6049C192.927 94.2437 195.033 92.8826 197.17 91.5215L218.17 78.0338C218.293 77.941 218.448 78.0029 218.541 78.1266C218.634 78.2504 218.572 78.4051 218.448 78.4979L197.449 91.9855C195.311 93.3466 193.205 94.7078 191.068 96.0689L189.055 97.3682C188.962 97.3991 188.931 97.3991 188.869 97.3991Z" fill="black"/>
    <path d="M173.259 128.582C173.228 128.582 173.197 128.582 173.135 128.551C173.073 128.52 173.011 128.458 172.98 128.365L170.998 120.941C170.967 120.786 171.029 120.662 171.184 120.631C171.339 120.6 171.463 120.662 171.494 120.817L173.383 127.963C194.568 118.126 215.754 108.288 236.94 98.451C237.064 98.3892 237.218 98.451 237.28 98.5748C237.342 98.6985 237.28 98.8532 237.156 98.9151C215.878 108.783 194.599 118.682 173.321 128.551C173.321 128.582 173.29 128.582 173.259 128.582Z" fill="black"/>
    <path d="M197.263 91.7381C194.475 93.5324 191.656 95.3266 188.869 97.1208C188.28 93.4086 187.661 89.6964 187.042 85.9843C189.829 87.5619 193.67 89.7274 197.263 91.7381Z" fill="black"/>
    <path d="M166.414 102.875C166.29 102.875 166.197 102.813 166.166 102.689L166.135 102.565C166.073 102.38 166.042 102.194 165.98 101.978C165.949 101.823 166.042 101.699 166.166 101.668C166.321 101.637 166.445 101.73 166.476 101.854C166.538 102.039 166.569 102.225 166.631 102.411L166.662 102.534C166.693 102.689 166.631 102.813 166.476 102.844C166.476 102.875 166.445 102.875 166.414 102.875Z" fill="black"/>
    <path d="M170.471 118.095C170.347 118.095 170.254 118.002 170.223 117.909C169.883 116.641 169.542 115.372 169.201 114.104L169.015 113.393C168.984 113.238 169.077 113.114 169.201 113.083C169.356 113.052 169.48 113.114 169.511 113.269L169.697 113.98C170.037 115.249 170.378 116.517 170.719 117.785C170.75 117.94 170.688 118.064 170.533 118.095C170.502 118.095 170.502 118.095 170.471 118.095Z" fill="black"/>
    <path d="M168.024 108.876C167.9 108.876 167.807 108.814 167.776 108.69C167.683 108.35 167.591 108.01 167.498 107.669L167.436 107.453C167.405 107.298 167.498 107.175 167.622 107.144C167.745 107.113 167.9 107.175 167.931 107.329L167.993 107.546C168.086 107.886 168.179 108.226 168.272 108.536C168.303 108.69 168.241 108.814 168.086 108.845C168.055 108.876 168.024 108.876 168.024 108.876Z" fill="black"/>
    <path d="M165.05 97.6466C164.927 97.6466 164.834 97.5538 164.803 97.461L164.679 97.0588C164.338 95.8214 163.997 94.5531 163.688 93.3157C163.657 93.161 163.75 93.0373 163.873 93.0064C163.997 92.9754 164.152 93.0682 164.183 93.192C164.524 94.4294 164.834 95.6977 165.174 96.9351L165.298 97.3372C165.329 97.4919 165.267 97.6157 165.112 97.6466C165.081 97.6466 165.05 97.6466 165.05 97.6466Z" fill="black"/>
    <path d="M162.852 89.4796C162.728 89.4796 162.635 89.3868 162.604 89.294L156.069 64.7626C156.038 64.608 156.1 64.4842 156.255 64.4533C156.379 64.4224 156.533 64.4842 156.564 64.6389L163.1 89.1703C163.131 89.325 163.069 89.4487 162.914 89.4796C162.914 89.4796 162.883 89.4796 162.852 89.4796Z" fill="black"/>
    <path d="M227.864 55.3277C227.524 55.1421 228.391 53.7191 228.855 50.2234C229.32 46.8515 229.568 45.1501 228.732 43.9746C226.935 41.4379 222.568 44.5624 217.922 42.2113C213.059 39.7674 213.864 34.3229 209.869 33.5495C206.865 32.9927 203.179 35.4366 201.258 37.5092C199.648 39.2725 199.152 40.912 198.471 40.7574C197.635 40.5408 196.984 37.602 198.161 35.7459C198.812 34.6941 199.648 34.6323 200.05 33.3949C200.36 32.4359 200.174 31.4769 200.081 30.951C199.927 30.1467 199.648 29.4971 199.431 29.0949C199.958 28.3834 206.09 20.2475 216.187 20.6497C225.448 21.0209 231.86 28.3525 234.059 34.7251C234.462 35.9315 235.793 39.9221 234.678 44.748C233.254 50.9968 228.577 55.6989 227.864 55.3277Z" fill="black"/>
    <path d="M212.347 74.1364C212.316 74.1364 212.285 74.1364 212.254 74.1054C212.13 74.0436 212.068 73.8889 212.13 73.7651C212.688 72.4659 213.276 71.1357 213.834 69.8364L215.661 65.5983L215.909 65.6602L215.661 65.5674C215.692 65.5055 215.754 65.4437 215.816 65.4127C218.201 64.6703 220.462 63.5876 222.506 62.1955C223.931 61.2056 225.263 60.0919 226.471 58.8236C226.533 58.7617 226.595 58.7308 226.688 58.7308C227.183 58.7617 227.648 58.7617 228.143 58.7308C228.143 58.7308 228.701 58.6689 229.196 58.5452C229.227 58.5452 233.161 57.5243 234.555 54.0287C235.081 52.6985 234.926 51.8014 234.834 51.492C234.741 51.1827 234.586 50.6258 234.059 50.2546C233.502 49.8834 232.851 49.9143 232.634 49.9762C232.48 50.0071 232.356 49.9143 232.325 49.7597C232.294 49.605 232.387 49.4812 232.542 49.4503C232.851 49.3884 233.657 49.3266 234.369 49.8215C235.05 50.2855 235.267 50.997 235.36 51.3373C235.453 51.7086 235.639 52.7294 235.05 54.2143C233.533 57.9574 229.382 59.0401 229.32 59.0401C228.763 59.1948 228.205 59.2257 228.174 59.2257C227.71 59.2876 227.214 59.2876 226.75 59.2257C225.542 60.4631 224.21 61.6077 222.785 62.5667C220.741 63.9588 218.48 65.0724 216.095 65.8149L214.298 69.9911C213.741 71.2904 213.152 72.6206 212.595 73.9198C212.533 74.0745 212.44 74.1364 212.347 74.1364Z" fill="black"/>
    <path d="M190.789 64.0823C190.758 64.0823 190.728 64.0823 190.697 64.0514C190.573 63.9895 190.511 63.8348 190.573 63.7111L195.745 52.0796C195.188 49.9141 194.909 47.7177 194.971 45.4904C195.002 44.0984 195.157 42.7063 195.435 41.3452C193.825 40.5099 193.02 38.097 193.267 34.787C193.515 31.5079 194.847 27.8266 196.612 27.3626C196.829 27.3007 197.294 27.2388 197.789 27.3626C200.112 27.9813 200.577 32.1575 200.639 32.9927C200.639 33.1474 200.546 33.2711 200.391 33.2711C200.236 33.2711 200.112 33.1783 200.112 33.0237C200.081 32.5596 199.679 28.4144 197.665 27.8575C197.294 27.7647 196.891 27.8266 196.767 27.8575C195.435 28.1978 194.073 31.3841 193.794 34.787C193.546 37.9733 194.32 40.2624 195.838 40.9121C195.962 40.9739 196.024 41.0977 195.993 41.2214C195.683 42.6135 195.528 44.0365 195.497 45.4904C195.435 47.6868 195.714 49.8832 196.272 52.0177C196.272 52.0796 196.272 52.1414 196.272 52.2033L191.037 63.9276C190.975 64.0204 190.882 64.0823 190.789 64.0823Z" fill="black"/>
    <path d="M215.878 65.6909C215.878 65.5981 215.847 65.5362 215.847 65.4434C215.63 65.4743 215.32 65.5053 214.949 65.5362C213.214 65.6909 211.882 65.5362 211.573 65.5053C211.573 65.5053 209.343 65.2578 207.143 64.2369C202.157 61.9787 198.905 55.3586 198.781 55.0802C199.06 56.0701 201.537 63.9585 206.865 67.2376C209.312 68.7225 211.666 69.0318 211.666 69.0318C212.719 69.1556 213.648 69.1246 214.453 69.0009L215.878 65.6909Z" fill="black"/>
    <path fill-rule="evenodd" clip-rule="evenodd" d="M206.338 48.522C207.081 48.9551 207.917 49.1407 208.754 49.1407C210.55 49.1407 212.285 48.2127 213.183 46.5113C213.214 46.4494 213.245 46.3875 213.214 46.3257C213.183 46.2638 213.152 46.2019 213.09 46.171L204.665 41.5617C204.603 41.5308 204.541 41.4998 204.479 41.5308C204.417 41.5617 204.356 41.5926 204.325 41.6545C202.993 44.0984 203.891 47.1918 206.338 48.522ZM206.555 48.0888C204.449 46.9133 203.612 44.3147 204.635 42.1493L212.595 46.5111C211.325 48.5528 208.661 49.2643 206.555 48.0888Z" fill="black"/>
    <path d="M207.051 48.8315C206.989 48.8315 206.927 48.8006 206.896 48.7696C206.772 48.6768 206.741 48.5222 206.834 48.3984C207.082 48.0581 207.391 47.8107 207.732 47.6251C208.135 47.4085 208.475 47.3466 208.723 47.3157C208.816 47.3157 208.94 47.2848 208.971 47.2538C208.971 47.161 208.723 46.8517 208.537 46.6351C208.166 46.1711 207.732 45.6762 207.887 45.1193C208.011 44.6553 208.506 44.346 209.374 44.1603C209.528 44.1294 209.652 44.2222 209.683 44.3769C209.714 44.5316 209.621 44.6553 209.467 44.6862C208.816 44.8409 208.413 45.0265 208.351 45.274C208.29 45.5524 208.63 45.9855 208.909 46.2949C209.25 46.7279 209.59 47.0992 209.374 47.5013C209.25 47.7488 208.971 47.7797 208.754 47.8107C208.537 47.8416 208.259 47.8725 207.949 48.0581C207.67 48.2128 207.422 48.4294 207.236 48.6768C207.205 48.8006 207.144 48.8315 207.051 48.8315Z" fill="black"/>
    <path fill-rule="evenodd" clip-rule="evenodd" d="M218.944 55.637C219.687 56.0701 220.523 56.2557 221.36 56.2557C223.156 56.2557 224.891 55.2968 225.82 53.5953C225.851 53.5335 225.882 53.4716 225.851 53.4097C225.82 53.3479 225.789 53.286 225.727 53.2551L217.302 48.6458C217.147 48.553 216.992 48.6148 216.93 48.7386C216.28 49.945 216.156 51.3062 216.528 52.6054C216.899 53.9047 217.767 54.9874 218.944 55.637ZM217.024 52.4509C216.714 51.3681 216.807 50.2235 217.271 49.2336L225.231 53.5955C223.962 55.6372 221.298 56.3487 219.192 55.1731C218.139 54.5854 217.364 53.6264 217.024 52.4509Z" fill="black"/>
    <path d="M219.657 55.9464C219.533 55.9464 219.44 55.8536 219.409 55.7298C219.378 55.5752 219.471 55.4514 219.595 55.4205C221.112 55.0802 221.422 54.678 221.453 54.4615C221.484 54.245 221.298 53.9975 221.081 53.75C220.803 53.4097 220.493 53.0076 220.586 52.5126C220.679 52.0176 221.143 51.6464 221.949 51.3371C222.073 51.2752 222.227 51.368 222.289 51.4918C222.351 51.6155 222.258 51.7702 222.134 51.832C221.515 52.0486 221.143 52.327 221.081 52.6054C221.019 52.8529 221.236 53.1313 221.484 53.4097C221.732 53.7191 222.042 54.0903 221.949 54.5543C221.856 55.173 221.143 55.6061 219.688 55.9464C219.719 55.9464 219.688 55.9464 219.657 55.9464Z" fill="black"/>
    <path d="M217.148 49.1409C217.024 49.1409 216.9 49.0481 216.9 48.8934C216.869 48.615 216.776 47.656 215.971 46.9755C215.196 46.3258 214.081 46.2021 213.09 46.6352C212.966 46.6971 212.811 46.6352 212.749 46.5114C212.687 46.3877 212.749 46.233 212.873 46.1712C214.05 45.6762 215.382 45.8309 216.311 46.6043C217.24 47.3776 217.395 48.4603 217.426 48.8934C217.426 49.0172 217.302 49.1409 217.148 49.1409Z" fill="black"/>
    <path d="M204.541 42.0258C204.448 42.0258 204.325 41.9639 204.294 41.8711L202.095 36.5503C202.033 36.4265 202.095 36.2719 202.249 36.21C202.373 36.1481 202.528 36.21 202.59 36.3647L204.789 41.6855C204.851 41.8092 204.789 41.9639 204.634 42.0258C204.603 42.0258 204.572 42.0258 204.541 42.0258Z" fill="black"/>
    <path d="M225.572 53.7811C225.48 53.7811 225.387 53.7502 225.356 53.6573C225.294 53.5336 225.325 53.3789 225.449 53.2861L228.515 51.3991C228.639 51.3372 228.794 51.3682 228.887 51.4919C228.98 51.6156 228.918 51.7703 228.794 51.8631L225.727 53.7502C225.665 53.7502 225.634 53.7811 225.572 53.7811Z" fill="black"/>
    <path d="M42.2603 93.062L52.0863 91.5487L75.0883 240.531L65.2623 242.044L42.2603 93.062Z" fill="#979797"/>
    <path d="M252.941 94.7848L262.691 96.7331L235.977 230.085L226.227 228.136L252.941 94.7848Z" fill="#979797"/>
    <path d="M113.418 139.192C113.418 139.192 113.387 139.192 113.418 139.192L95.051 138.759C94.8961 138.759 94.8032 138.636 94.8032 138.481C94.8032 138.326 94.9271 138.233 95.082 138.233L113.418 138.666C113.573 138.666 113.666 138.79 113.666 138.945C113.666 139.069 113.542 139.192 113.418 139.192Z" fill="black"/>
    <path d="M267.51 142.811L221.824 141.729C221.67 141.729 221.577 141.605 221.577 141.45C221.577 141.296 221.701 141.203 221.824 141.203L267.51 142.286C267.665 142.286 267.758 142.409 267.758 142.564C267.758 142.719 267.665 142.811 267.51 142.811Z" fill="black"/>
    <path d="M209.311 141.451L125.931 139.502C125.777 139.502 125.684 139.378 125.684 139.223C125.684 139.069 125.807 138.976 125.962 138.976L209.342 140.925C209.497 140.925 209.59 141.048 209.59 141.203C209.559 141.327 209.435 141.451 209.311 141.451Z" fill="black"/>
    <path d="M82.5386 138.481L45.216 137.615C45.0612 137.615 44.9683 137.491 44.9683 137.336C44.9683 137.181 45.0922 137.089 45.247 137.089L82.5696 137.955C82.7244 137.955 82.8174 138.079 82.8174 138.233C82.7864 138.357 82.6625 138.481 82.5386 138.481Z" fill="black"/>
    <path d="M73.5566 146.74C70.0877 146.648 67.362 143.802 67.4549 140.337L67.5788 135.356C67.6718 131.892 70.5213 129.169 73.9903 129.262C77.4592 129.355 80.1849 132.201 80.092 135.666L79.9681 140.646C79.8751 144.08 76.9946 146.833 73.5566 146.74Z" fill="#FF749F"/>
    <path fill-rule="evenodd" clip-rule="evenodd" d="M88.5782 147.359H88.7331C92.264 147.359 95.1755 144.544 95.2684 140.956L95.3923 135.975V135.821C95.3923 135.016 95.2374 134.243 94.9587 133.5C93.9985 131.026 91.6755 129.386 89.0118 129.324C85.419 129.262 82.4146 132.108 82.3217 135.697L82.1978 140.677C82.1358 144.297 84.9853 147.266 88.5782 147.359ZM82.8488 135.728C82.9417 132.479 85.6054 129.881 88.8576 129.881C88.8886 129.881 88.9505 129.881 88.9815 129.912C91.3974 129.974 93.5655 131.459 94.4328 133.748C94.7115 134.428 94.8354 135.14 94.8354 135.882L94.7115 140.987C94.6496 144.297 91.893 146.895 88.5788 146.833C85.2647 146.771 82.663 144.018 82.7249 140.708L82.8488 135.728Z" fill="black"/>
    <path d="M111.808 136.254C111.808 136.315 111.808 136.346 111.808 136.408L111.746 138.883L111.684 141.358C111.591 144.823 108.741 147.545 105.272 147.452C101.803 147.359 99.0778 144.513 99.1708 141.049L99.2327 138.574L99.2947 136.099C99.3876 132.634 102.237 129.912 105.706 130.005C109.113 130.098 111.808 132.882 111.808 136.254Z" fill="#FF749F"/>
    <path fill-rule="evenodd" clip-rule="evenodd" d="M119.458 148.071H119.613C121.286 148.071 122.896 147.452 124.104 146.307C125.343 145.101 126.086 143.461 126.117 141.729L126.241 136.748V136.594C126.241 133.067 123.392 130.159 119.861 130.066C118.126 130.005 116.485 130.654 115.215 131.861C113.945 133.067 113.233 134.707 113.202 136.439L113.078 141.42C113.016 143.152 113.666 144.791 114.874 146.06C116.082 147.328 117.724 148.04 119.458 148.071ZM115.587 132.263C116.733 131.18 118.189 130.592 119.737 130.592H119.892C123.114 130.685 125.746 133.377 125.746 136.594L125.622 141.698C125.591 143.307 124.91 144.792 123.764 145.905C122.618 146.988 121.1 147.576 119.49 147.545C117.879 147.514 116.392 146.833 115.277 145.689C114.162 144.544 113.574 143.028 113.605 141.42L113.729 136.47C113.76 134.862 114.441 133.377 115.587 132.263Z" fill="black"/>
    <path d="M169.449 148.998C165.98 148.906 163.254 146.06 163.347 142.595L163.471 137.614C163.564 134.15 166.413 131.427 169.882 131.52C173.351 131.613 176.077 134.459 175.984 137.924L175.86 142.904C175.767 146.338 172.918 149.091 169.449 148.998Z" fill="#FF749F"/>
    <path d="M184.502 149.339C181.033 149.246 178.308 146.4 178.401 142.936L178.525 137.955C178.618 134.49 181.467 131.768 184.936 131.861C188.405 131.954 191.131 134.8 191.038 138.264L190.914 143.245C190.821 146.71 187.94 149.432 184.502 149.339Z" fill="#FF749F"/>
    <path d="M201.197 149.741C197.728 149.648 195.002 146.802 195.095 143.337L195.219 138.357C195.312 134.892 198.161 132.17 201.63 132.263C205.099 132.356 207.825 135.202 207.732 138.666L207.608 143.647C207.515 147.081 204.635 149.834 201.197 149.741Z" fill="#FF749F"/>
    <path fill-rule="evenodd" clip-rule="evenodd" d="M215.351 150.329H215.506C217.21 150.329 218.789 149.71 219.997 148.535C221.267 147.328 221.98 145.689 222.011 143.956L222.134 138.976C222.196 137.243 221.546 135.604 220.338 134.335C219.13 133.067 217.488 132.356 215.754 132.325C214.019 132.294 212.378 132.912 211.108 134.119C209.838 135.325 209.126 136.965 209.095 138.697L208.971 143.678C208.909 145.41 209.559 147.05 210.767 148.318C211.975 149.586 213.617 150.298 215.351 150.329ZM211.48 134.521C212.626 133.439 214.081 132.851 215.63 132.851H215.754C217.364 132.882 218.851 133.562 219.966 134.707C221.081 135.851 221.67 137.367 221.639 138.976L221.515 143.956C221.484 145.565 220.802 147.05 219.656 148.164C218.51 149.277 216.993 149.865 215.382 149.834C213.772 149.803 212.285 149.123 211.17 147.978C210.055 146.833 209.466 145.318 209.497 143.709L209.621 138.728C209.652 137.12 210.334 135.635 211.48 134.521Z" fill="black"/>
    <path d="M144.485 137.028C144.485 137.09 144.485 137.121 144.485 137.182L144.423 139.657L144.361 142.132C144.361 142.596 144.299 143.029 144.175 143.431C143.649 145.659 141.945 147.422 139.746 148.01C139.158 148.164 138.569 148.257 137.95 148.226C134.481 148.133 131.755 145.287 131.848 141.823L131.972 136.842C132.065 133.377 134.914 130.655 138.383 130.748C141.759 130.872 144.485 133.656 144.485 137.028Z" fill="black"/>
    <path fill-rule="evenodd" clip-rule="evenodd" d="M137.949 148.535H138.104C138.693 148.535 139.25 148.442 139.839 148.287C142.131 147.668 143.896 145.843 144.454 143.523C144.578 143.09 144.639 142.626 144.639 142.162L144.763 137.182V137.027C144.763 133.5 141.914 130.592 138.383 130.5C134.759 130.407 131.786 133.284 131.693 136.872L131.569 141.853C131.507 145.441 134.356 148.442 137.949 148.535ZM132.188 136.872C132.281 133.624 134.945 131.026 138.197 131.026H138.321C141.542 131.118 144.175 133.81 144.175 137.027L144.051 142.131C144.051 142.533 143.989 142.967 143.896 143.369C143.401 145.503 141.759 147.174 139.653 147.761C139.095 147.916 138.507 147.978 137.918 147.978C134.604 147.916 132.002 145.163 132.064 141.853L132.188 136.872Z" fill="black"/>
    <path d="M158.577 137.367C158.577 137.429 158.577 137.46 158.577 137.522L158.515 139.997L158.453 142.471C158.36 145.936 155.511 148.658 152.042 148.566C148.573 148.473 145.847 145.627 145.94 142.162V141.574L145.971 139.687L146.033 137.212C146.064 135.325 146.931 133.686 148.294 132.572C149.409 131.644 150.865 131.087 152.445 131.118C155.883 131.18 158.577 133.964 158.577 137.367Z" fill="black"/>
    <path fill-rule="evenodd" clip-rule="evenodd" d="M152.042 148.844H152.197C153.9 148.844 155.48 148.226 156.719 147.05C157.958 145.844 158.701 144.204 158.732 142.472L158.856 137.491V137.336C158.856 133.81 155.976 130.902 152.476 130.809C150.896 130.778 149.347 131.304 148.139 132.325C146.684 133.531 145.817 135.295 145.786 137.182L145.662 142.162C145.6 145.782 148.449 148.751 152.042 148.844ZM148.48 132.758C149.564 131.861 150.927 131.366 152.321 131.366H152.476C155.697 131.459 158.33 134.15 158.33 137.367L158.206 142.472C158.113 145.72 155.449 148.318 152.197 148.318H152.042C148.728 148.257 146.096 145.503 146.188 142.193L146.312 137.213C146.374 135.48 147.149 133.872 148.48 132.758Z" fill="black"/>
    <path d="M80.0925 169.879C79.9376 169.879 79.8447 169.756 79.8447 169.632C79.8447 169.477 79.9376 169.353 80.0925 169.353L112.057 167.838C112.212 167.838 112.335 167.93 112.335 168.085C112.335 168.24 112.243 168.364 112.088 168.364L80.0925 169.879Z" fill="black"/>
    <path d="M124.57 167.807C124.415 167.807 124.322 167.683 124.322 167.559C124.322 167.404 124.415 167.281 124.57 167.281L161.8 165.517C161.955 165.517 162.078 165.61 162.078 165.765C162.078 165.919 161.986 166.043 161.831 166.043L124.57 167.807Z" fill="black"/>
    <path d="M193.361 164.559C193.206 164.559 193.113 164.435 193.113 164.311C193.113 164.157 193.206 164.033 193.361 164.033L214.206 163.043C214.361 163.043 214.485 163.136 214.485 163.29C214.485 163.445 214.392 163.569 214.237 163.569L193.361 164.559Z" fill="black"/>
    <path d="M226.719 162.981C226.565 162.981 226.472 162.857 226.472 162.733C226.472 162.579 226.565 162.455 226.719 162.455L257.073 161.032C257.228 161.032 257.352 161.125 257.352 161.279C257.352 161.434 257.259 161.558 257.104 161.558L226.719 162.981Z" fill="black"/>
    <path d="M174.313 165.456C174.158 165.456 174.065 165.332 174.065 165.208C174.065 165.054 174.158 164.93 174.313 164.93L180.848 164.621C181.003 164.621 181.127 164.713 181.127 164.868C181.127 165.023 181.034 165.146 180.879 165.146L174.313 165.456Z" fill="black"/>
    <path d="M41.2522 171.735C41.0973 171.735 41.0044 171.612 41.0044 171.488C41.0044 171.333 41.0973 171.21 41.2522 171.21L67.5793 169.972C67.7342 169.972 67.858 170.065 67.858 170.22C67.858 170.374 67.7651 170.498 67.6103 170.498L41.2522 171.735Z" fill="black"/>
    <path fill-rule="evenodd" clip-rule="evenodd" d="M67.4249 172.695C67.5798 176.19 70.4602 178.912 73.9292 178.912H74.2699C76.0044 178.82 77.615 178.077 78.792 176.778C79.969 175.479 80.5884 173.808 80.4955 172.076L80.2477 167.095C80.1548 165.363 79.4115 163.754 78.1106 162.579C76.8097 161.403 75.1372 160.785 73.4027 160.877C71.6682 160.97 70.0576 161.713 68.8806 163.012C67.7036 164.311 67.0842 165.982 67.1771 167.714L67.4249 172.695ZM73.4336 161.434H73.7123C76.9026 161.434 79.5353 163.94 79.7211 167.126L79.9689 172.107C80.0618 173.715 79.5043 175.262 78.4202 176.438C77.3362 177.613 75.8804 178.325 74.2698 178.387C70.9557 178.572 68.1372 176.005 67.9823 172.695L67.7345 167.714C67.6416 166.105 68.1991 164.559 69.2832 163.383C70.3672 162.208 71.823 161.496 73.4336 161.434Z" fill="black"/>
    <path d="M87.8664 177.953C84.3974 178.108 81.4859 175.448 81.3001 172.014L81.0523 167.033C80.8975 163.569 83.5611 160.661 86.9992 160.475C90.4681 160.32 93.3796 162.981 93.5654 166.415L93.8132 171.395C93.9991 174.86 91.3354 177.799 87.8664 177.953Z" fill="#FF749F"/>
    <path d="M104.004 177.149C100.535 177.304 97.6236 174.644 97.4378 171.21L97.19 166.229C97.0352 162.765 99.6988 159.857 103.137 159.671C106.606 159.516 109.517 162.177 109.703 165.611L109.951 170.591C110.106 174.056 107.442 176.995 104.004 177.149Z" fill="#FF749F"/>
    <path fill-rule="evenodd" clip-rule="evenodd" d="M114.008 175.077C115.247 176.19 116.764 176.778 118.406 176.778C118.45 176.778 118.49 176.774 118.527 176.77C118.596 176.764 118.656 176.758 118.716 176.778C120.45 176.685 122.061 175.943 123.238 174.643C124.415 173.344 125.034 171.674 124.941 169.941L124.694 164.961C124.601 163.228 123.857 161.62 122.556 160.444C121.256 159.269 119.583 158.65 117.848 158.743C116.114 158.836 114.503 159.578 113.326 160.877C112.149 162.177 111.53 163.847 111.623 165.58L111.871 170.56C111.964 172.292 112.707 173.901 114.008 175.077ZM117.91 159.269H118.189C119.676 159.269 121.1 159.826 122.246 160.816C123.423 161.898 124.136 163.352 124.198 164.961L124.446 169.941C124.539 171.55 123.981 173.097 122.897 174.272C121.813 175.448 120.357 176.159 118.747 176.221C117.136 176.314 115.587 175.757 114.41 174.674C113.233 173.592 112.521 172.138 112.459 170.529L112.211 165.549C112.118 163.94 112.676 162.393 113.76 161.218C114.844 160.042 116.3 159.331 117.91 159.269Z" fill="black"/>
    <path fill-rule="evenodd" clip-rule="evenodd" d="M161.645 167.992C161.799 171.488 164.68 174.21 168.149 174.21H168.459C172.082 174.056 174.839 170.993 174.684 167.405L174.436 162.424C174.282 158.836 171.215 156.02 167.622 156.206C164.029 156.361 161.242 159.423 161.397 163.012L161.645 167.992ZM167.653 156.732H167.932C171.091 156.732 173.755 159.238 173.941 162.424L174.189 167.405C174.343 170.715 171.804 173.53 168.49 173.684C165.175 173.839 162.357 171.302 162.202 167.992L161.954 163.012C161.799 159.702 164.339 156.887 167.653 156.732Z" fill="black"/>
    <path fill-rule="evenodd" clip-rule="evenodd" d="M180.693 167.219C180.848 170.714 183.729 173.437 187.198 173.437H187.508C191.131 173.282 193.888 170.22 193.733 166.631L193.485 161.651C193.33 158.062 190.264 155.247 186.671 155.433C183.047 155.587 180.291 158.65 180.446 162.238L180.693 167.219ZM186.702 155.959H186.981C190.171 155.959 192.835 158.465 192.99 161.651L193.237 166.631C193.392 169.941 190.853 172.756 187.538 172.911C184.224 173.097 181.406 170.529 181.251 167.219L181.003 162.239C180.848 158.929 183.388 156.114 186.702 155.959Z" fill="black"/>
    <path d="M201.693 172.633C198.224 172.787 195.313 170.127 195.127 166.693L194.879 161.713C194.724 158.248 197.388 155.34 200.826 155.154C204.295 155 207.206 157.66 207.392 161.094L207.64 166.075C207.826 169.539 205.162 172.478 201.693 172.633Z" fill="#FF749F"/>
    <path fill-rule="evenodd" clip-rule="evenodd" d="M214.051 165.672C214.206 169.168 217.086 171.89 220.555 171.89C220.602 171.89 220.656 171.883 220.71 171.875C220.764 171.867 220.818 171.859 220.865 171.859C224.458 171.705 227.245 168.642 227.091 165.054L226.843 160.073C226.688 156.454 223.622 153.67 220.029 153.855C218.294 153.948 216.684 154.69 215.507 155.99C214.33 157.289 213.71 158.959 213.803 160.692L214.051 165.672ZM220.06 154.381H220.338C223.498 154.381 226.161 156.887 226.347 160.073L226.595 165.053C226.75 168.363 224.21 171.179 220.896 171.333C217.582 171.488 214.763 168.951 214.608 165.641L214.361 160.661C214.268 159.052 214.825 157.505 215.909 156.33C216.993 155.154 218.449 154.443 220.06 154.381Z" fill="black"/>
    <path d="M135.689 175.633C132.22 175.788 129.309 173.127 129.123 169.694L128.875 164.713C128.72 161.248 131.384 158.341 134.822 158.155C138.291 158 141.202 160.661 141.388 164.094L141.636 169.075C141.822 172.54 139.158 175.448 135.689 175.633Z" fill="black"/>
    <path fill-rule="evenodd" clip-rule="evenodd" d="M130.981 174.179C132.22 175.293 133.738 175.881 135.38 175.881C135.504 175.881 135.596 175.881 135.658 175.912C137.393 175.819 139.004 175.076 140.18 173.777C141.357 172.478 141.977 170.807 141.884 169.075L141.636 164.095C141.481 160.475 138.415 157.691 134.822 157.877C131.198 158.031 128.442 161.094 128.597 164.682L128.844 169.663C128.937 171.395 129.681 173.004 130.981 174.179ZM134.883 158.403H135.162C138.352 158.403 141.016 160.908 141.171 164.095L141.419 169.075C141.512 170.684 140.954 172.231 139.87 173.406C138.786 174.582 137.33 175.293 135.72 175.355C134.109 175.448 132.56 174.891 131.383 173.808C130.206 172.725 129.494 171.272 129.432 169.663L129.184 164.682C129.091 163.074 129.649 161.527 130.733 160.352C131.817 159.176 133.273 158.464 134.883 158.403Z" fill="black"/>
    <path d="M154.738 174.953C151.269 175.107 148.358 172.447 148.172 169.013L147.924 164.033C147.769 160.568 150.433 157.66 153.871 157.474C157.34 157.32 160.251 159.98 160.437 163.414L160.685 168.394C160.871 171.859 158.207 174.798 154.738 174.953Z" fill="black"/>
    <path fill-rule="evenodd" clip-rule="evenodd" d="M150.03 173.53C151.269 174.643 152.786 175.231 154.428 175.231H154.738C156.472 175.138 158.083 174.396 159.26 173.096C160.437 171.797 161.056 170.127 160.963 168.394L160.716 163.414C160.623 161.681 159.879 160.073 158.578 158.897C157.278 157.722 155.605 157.103 153.87 157.196C152.136 157.289 150.525 158.031 149.348 159.33C148.171 160.63 147.552 162.3 147.645 164.033L147.893 169.013C147.986 170.745 148.729 172.354 150.03 173.53ZM153.933 157.753H154.212C155.729 157.753 157.154 158.31 158.269 159.3C159.446 160.382 160.158 161.836 160.22 163.445L160.468 168.426C160.561 170.034 160.004 171.581 158.92 172.756C157.835 173.932 156.38 174.643 154.769 174.705C153.159 174.798 151.61 174.241 150.433 173.159C149.256 172.076 148.544 170.622 148.482 169.013L148.234 164.033C148.079 160.723 150.619 157.908 153.933 157.753Z" fill="black"/>
    <path d="M247.315 201.155H247.067C246.974 201.155 246.881 201.155 246.758 201.155H246.696C246.541 201.155 246.324 201.124 246.107 201.124L244.899 201.062C244.682 201.062 244.435 201.031 244.156 201.031L243.629 201C243.258 200.969 242.855 200.969 242.452 200.938L241.12 200.876C240.656 200.846 240.16 200.815 239.665 200.815C239.293 200.784 238.921 200.784 238.488 200.753L236.815 200.66C236.413 200.629 235.948 200.629 235.483 200.598H235.359C235.112 200.598 234.833 200.567 234.554 200.567H234.461C234.182 200.567 233.904 200.536 233.625 200.536L231.457 200.412C231.023 200.382 230.59 200.382 230.156 200.351C230.001 200.351 229.846 200.32 229.66 200.32H229.629L228.391 200.258C228.112 200.258 227.802 200.227 227.523 200.196C226.811 200.165 226.068 200.134 225.324 200.072H225.107C224.426 200.041 223.745 200.01 223.063 199.979C221.545 199.887 219.966 199.825 218.386 199.732L214.762 199.546C214.36 199.515 213.957 199.515 213.523 199.484C209.032 199.237 204.386 198.989 199.802 198.773C198.563 198.711 197.325 198.649 196.086 198.587C194.847 198.525 193.639 198.464 192.431 198.402L188.869 198.216C188.714 198.216 188.621 198.092 188.621 197.938C188.621 197.783 188.745 197.69 188.9 197.69L192.462 197.876C193.67 197.938 194.878 198 196.117 198.061C197.356 198.123 198.594 198.185 199.833 198.247C204.417 198.494 209.032 198.742 213.554 198.959C213.957 198.989 214.36 198.989 214.793 199.02L218.417 199.206C219.997 199.299 221.576 199.361 223.094 199.453C223.776 199.484 224.457 199.515 225.138 199.546H225.355C226.099 199.577 226.842 199.608 227.554 199.67C227.864 199.701 228.143 199.701 228.421 199.732L229.66 199.794H229.722C229.877 199.794 230.032 199.825 230.187 199.825C230.621 199.856 231.054 199.887 231.488 199.887L233.656 200.01C233.935 200.041 234.213 200.041 234.492 200.041H234.585C234.864 200.072 235.112 200.072 235.39 200.072H235.514C235.979 200.103 236.413 200.134 236.846 200.134L238.519 200.227C238.921 200.258 239.324 200.258 239.696 200.289C240.191 200.32 240.687 200.351 241.151 200.351L242.483 200.412C242.917 200.443 243.289 200.443 243.66 200.474L244.187 200.505C244.435 200.505 244.682 200.536 244.93 200.536L246.138 200.598C246.355 200.598 246.541 200.629 246.727 200.629H246.789C246.912 200.629 247.005 200.629 247.098 200.66H247.129C247.16 200.66 247.16 200.66 247.191 200.66H247.315C247.47 200.66 247.563 200.784 247.563 200.938C247.563 201.031 247.439 201.155 247.315 201.155Z" fill="black"/>
    <path d="M247.47 201.155L247.067 201.124C246.974 201.124 246.881 201.124 246.757 201.124L239.664 200.753C239.293 200.722 238.921 200.722 238.487 200.691L236.815 200.598C236.381 200.567 235.948 200.567 235.483 200.536L230.156 200.258C230.001 200.258 229.846 200.227 229.66 200.227H229.629L228.39 200.165C228.111 200.165 227.802 200.134 227.523 200.103L225.107 199.979C224.426 199.948 223.744 199.917 223.063 199.886L214.762 199.453C214.359 199.422 213.957 199.422 213.523 199.391L188.838 198.092C188.683 198.092 188.59 197.968 188.59 197.814C188.59 197.659 188.714 197.566 188.869 197.566L199.833 198.154L213.554 198.866C213.957 198.896 214.359 198.896 214.793 198.927L223.094 199.361C223.775 199.391 224.457 199.422 225.138 199.453L227.554 199.577C227.864 199.608 228.142 199.608 228.421 199.639L229.66 199.701H229.722C229.877 199.701 230.032 199.732 230.187 199.732L235.514 200.01C235.979 200.041 236.412 200.072 236.846 200.072L238.518 200.165C238.921 200.196 239.324 200.196 239.695 200.227L246.788 200.598C246.912 200.598 247.005 200.598 247.098 200.629H247.129C247.16 200.629 247.16 200.629 247.191 200.629H247.47C247.625 200.629 247.717 200.753 247.717 200.907C247.717 201.062 247.594 201.155 247.47 201.155Z" fill="black"/>
    <path d="M176.418 197.412C176.418 197.412 176.387 197.412 176.418 197.412L144.423 195.741H144.392L110.755 193.978C109.95 193.947 109.144 193.885 108.37 193.854L107.689 193.823C107.038 193.792 106.357 193.761 105.706 193.73L103.414 193.607C103.043 193.576 102.671 193.576 102.299 193.545L100.1 193.421C99.4809 193.39 98.8924 193.359 98.3039 193.328L97.7464 193.297C97.034 193.266 96.3216 193.235 95.6092 193.173L84.6138 192.586C84.335 192.586 84.0873 192.555 83.8085 192.555L72.6272 191.967C72.3485 191.967 72.1007 191.936 71.8219 191.936L52.3708 190.915C52.216 190.915 52.123 190.791 52.123 190.637C52.123 190.482 52.2469 190.389 52.4018 190.389L66.5875 191.132L71.8529 191.41C72.1007 191.41 72.3794 191.441 72.6582 191.441L83.8395 192.029C84.1182 192.029 84.366 192.06 84.6448 192.06L95.6402 192.648C96.3526 192.678 97.065 192.709 97.7774 192.771L98.3349 192.802C98.9234 192.833 99.5118 192.864 100.131 192.895L102.33 193.019C102.702 193.05 103.074 193.05 103.445 193.081L105.737 193.204C106.388 193.235 107.038 193.266 107.72 193.297L108.401 193.328C109.175 193.359 109.981 193.421 110.786 193.452L144.454 195.215H144.485L176.449 196.886C176.604 196.886 176.697 197.009 176.697 197.164C176.666 197.319 176.542 197.412 176.418 197.412Z" fill="black"/>
    <path d="M176.418 197.442C176.418 197.442 176.387 197.442 176.418 197.442L110.755 193.978C109.95 193.947 109.145 193.885 108.37 193.854L107.689 193.823C107.038 193.792 106.357 193.761 105.707 193.73L104.808 193.668C104.344 193.637 103.879 193.607 103.415 193.607C103.043 193.576 102.671 193.576 102.299 193.545C101.556 193.514 100.813 193.483 100.1 193.421C99.4809 193.39 98.8925 193.359 98.304 193.328L97.7465 193.297C97.0341 193.266 96.3217 193.235 95.6093 193.173L94.1846 193.112C93.8129 193.081 93.4102 193.081 93.0385 193.05L90.9634 192.957C90.0032 192.895 89.074 192.864 88.1758 192.802C87.8351 192.771 87.4944 192.771 87.1537 192.74L84.6139 192.617C84.3351 192.617 84.0873 192.586 83.8086 192.586L80.4015 192.4C80.0299 192.369 79.6582 192.369 79.3175 192.338L72.6583 191.998C72.3795 191.998 72.1317 191.967 71.853 191.967L62.4681 191.472C62.2203 191.472 61.9726 191.441 61.7557 191.441L56.0877 191.132C55.9018 191.132 55.747 191.101 55.5611 191.101L52.6187 190.946H52.5877L51.7824 190.915C51.7824 190.915 51.7514 190.915 51.7205 190.915L51.2868 190.884C51.132 190.884 51.0391 190.761 51.0391 190.606C51.0391 190.451 51.163 190.358 51.3178 190.358L51.7824 190.389H51.8444H51.9373H51.9992L55.6231 190.575C55.7779 190.575 55.9638 190.606 56.1496 190.606L61.8177 190.915C62.0655 190.915 62.2823 190.946 62.5301 190.946L71.8839 191.441C72.1317 191.441 72.4105 191.472 72.6892 191.472L79.3484 191.812C79.7201 191.843 80.0608 191.843 80.4325 191.874L83.8395 192.06C84.1183 192.06 84.3661 192.091 84.6448 192.091L87.1846 192.214C87.5253 192.245 87.866 192.245 88.2067 192.276C89.105 192.338 90.0342 192.369 90.9943 192.431L93.0695 192.524C93.4412 192.555 93.8129 192.555 94.2155 192.586L95.6403 192.648C96.3527 192.679 97.065 192.709 97.7774 192.771L98.3349 192.802C98.9234 192.833 99.5119 192.864 100.131 192.895C100.844 192.926 101.587 192.957 102.33 193.019C102.702 193.05 103.074 193.05 103.445 193.081C103.91 193.112 104.375 193.143 104.839 193.143L105.738 193.204C106.388 193.235 107.038 193.266 107.72 193.297L108.401 193.328C109.176 193.359 109.981 193.421 110.786 193.452L176.449 196.917C176.604 196.917 176.697 197.04 176.697 197.195C176.666 197.319 176.542 197.442 176.418 197.442Z" fill="black"/>
    <path d="M123.95 203.166C120.481 202.98 117.848 200.041 118.034 196.577L118.281 191.627C118.467 188.162 121.41 185.533 124.879 185.718C128.348 185.904 130.98 188.843 130.795 192.307L130.547 197.257C130.33 200.691 127.388 203.351 123.95 203.166Z" fill="#FF749F"/>
    <path fill-rule="evenodd" clip-rule="evenodd" d="M182.21 206.506H182.55C185.988 206.506 188.869 203.784 189.086 200.35L189.333 195.401C189.519 191.781 186.763 188.719 183.17 188.533C179.546 188.348 176.48 191.101 176.294 194.689L176.046 199.639C175.86 203.258 178.617 206.321 182.21 206.506ZM178.802 190.575C179.886 189.554 181.311 189.028 182.798 189.028C182.89 189.028 183.014 189.028 183.138 189.059C186.421 189.245 188.992 192.06 188.806 195.37L188.558 200.32C188.373 203.599 185.554 206.135 182.24 205.981C178.957 205.795 176.386 202.98 176.572 199.67L176.82 194.72C176.913 193.112 177.625 191.658 178.802 190.575Z" fill="black"/>
    <path d="M137.702 203.877C134.233 203.692 131.6 200.753 131.786 197.288L132.034 192.338C132.22 188.874 135.162 186.244 138.631 186.43C142.1 186.616 144.733 189.554 144.547 193.019L144.299 197.969C144.113 201.402 141.171 204.063 137.702 203.877Z" fill="black"/>
    <path fill-rule="evenodd" clip-rule="evenodd" d="M137.701 204.156H138.042C141.48 204.156 144.361 201.464 144.577 198L144.825 193.05C145.011 189.431 142.254 186.368 138.661 186.183C135.038 185.997 131.971 188.75 131.785 192.339L131.538 197.288C131.352 200.908 134.108 203.97 137.701 204.156ZM132.312 192.369C132.467 189.152 135.131 186.677 138.29 186.677C138.383 186.677 138.507 186.677 138.631 186.708C141.914 186.894 144.485 189.709 144.299 193.019L144.051 197.969C143.865 201.248 141.047 203.784 137.733 203.63C134.45 203.444 131.879 200.629 132.065 197.319L132.312 192.369Z" fill="black"/>
    <path d="M158.05 204.96C154.581 204.774 151.948 201.835 152.134 198.37L152.382 193.421C152.568 189.956 155.51 187.327 158.979 187.512C162.448 187.698 165.081 190.637 164.895 194.101L164.647 199.051C164.462 202.485 161.519 205.145 158.05 204.96Z" fill="black"/>
    <path fill-rule="evenodd" clip-rule="evenodd" d="M158.051 205.238H158.392C160.002 205.238 161.551 204.65 162.79 203.537C164.06 202.361 164.834 200.753 164.927 199.02L165.175 194.071C165.268 192.338 164.679 190.668 163.502 189.369C162.325 188.1 160.715 187.327 158.98 187.234C157.246 187.141 155.573 187.729 154.272 188.905C153.002 190.08 152.228 191.689 152.135 193.421L151.887 198.371C151.701 201.99 154.458 205.053 158.051 205.238ZM162.418 203.166C161.21 204.217 159.692 204.774 158.081 204.681C154.767 204.527 152.227 201.681 152.413 198.371L152.661 193.421C152.847 190.142 155.696 187.605 158.98 187.76C162.263 187.946 164.834 190.761 164.648 194.071L164.4 199.02C164.307 200.629 163.595 202.083 162.418 203.166Z" fill="black"/>
    <path d="M45.216 138.512C45.8661 138.512 46.393 137.986 46.393 137.336C46.393 136.687 45.8661 136.161 45.216 136.161C44.566 136.161 44.0391 136.687 44.0391 137.336C44.0391 137.986 44.566 138.512 45.216 138.512Z" fill="black"/>
    <path d="M41.2824 172.633C41.9325 172.633 42.4594 172.107 42.4594 171.458C42.4594 170.808 41.9325 170.282 41.2824 170.282C40.6324 170.282 40.1055 170.808 40.1055 171.458C40.1055 172.107 40.6324 172.633 41.2824 172.633Z" fill="black"/>
    <path d="M267.509 143.74C268.16 143.74 268.686 143.213 268.686 142.564C268.686 141.915 268.16 141.389 267.509 141.389C266.859 141.389 266.333 141.915 266.333 142.564C266.333 143.213 266.859 143.74 267.509 143.74Z" fill="black"/>
    <path d="M256.979 162.455C257.629 162.455 258.156 161.929 258.156 161.28C258.156 160.631 257.629 160.104 256.979 160.104C256.329 160.104 255.802 160.631 255.802 161.28C255.802 161.929 256.329 162.455 256.979 162.455Z" fill="black"/>
    <path d="M247.47 202.083C248.12 202.083 248.647 201.556 248.647 200.907C248.647 200.258 248.12 199.732 247.47 199.732C246.82 199.732 246.293 200.258 246.293 200.907C246.293 201.556 246.82 202.083 247.47 202.083Z" fill="black"/>
    <path d="M51.2868 191.689C51.9369 191.689 52.4638 191.162 52.4638 190.513C52.4638 189.864 51.9369 189.338 51.2868 189.338C50.6368 189.338 50.1099 189.864 50.1099 190.513C50.1099 191.162 50.6368 191.689 51.2868 191.689Z" fill="black"/>
</svg>