<svg width="106" height="47" viewBox="0 0 106 47" fill="none" xmlns="http://www.w3.org/2000/svg">
    <path d="M11.1904 2.47743H6.68559V14.5493H4.58504V2.47743H0.130859V0.680569H11.1904V2.47743Z" fill="black"/>
    <path d="M22.465 14.5493L22.0475 12.5753H21.9462C21.2545 13.4442 20.5627 14.0347 19.871 14.3468C19.1877 14.6505 18.3314 14.8024 17.3022 14.8024C15.9272 14.8024 14.8474 14.448 14.0628 13.7394C13.2867 13.0308 12.8987 12.0227 12.8987 10.7151C12.8987 7.9144 15.1384 6.44654 19.6179 6.31157L21.9715 6.23564V5.37518C21.9715 4.28694 21.7353 3.48552 21.2629 2.97093C20.7989 2.4479 20.0524 2.18639 19.0232 2.18639C17.8674 2.18639 16.5599 2.5407 15.1005 3.24932L14.4551 1.64227C15.1384 1.27109 15.885 0.980045 16.6948 0.769146C17.5131 0.558247 18.3314 0.452798 19.1497 0.452798C20.8032 0.452798 22.0264 0.819762 22.8193 1.55369C23.6208 2.28762 24.0215 3.46443 24.0215 5.08414V14.5493H22.465ZM17.7198 13.0688C19.0274 13.0688 20.0524 12.7102 20.7947 11.9932C21.5455 11.2761 21.9209 10.2722 21.9209 8.98154V7.72881L19.8204 7.81738C18.15 7.87643 16.9437 8.13795 16.2013 8.60193C15.4674 9.05747 15.1005 9.77031 15.1005 10.7404C15.1005 11.4997 15.3282 12.0775 15.7838 12.474C16.2477 12.8705 16.8931 13.0688 17.7198 13.0688Z" fill="black"/>
    <path d="M40.6361 14.8024C38.6283 14.8024 37.0719 14.1865 35.9668 12.9549C34.8701 11.7148 34.3218 9.96433 34.3218 7.7035C34.3218 5.38361 34.8785 3.59097 35.9921 2.32558C37.1141 1.06019 38.7085 0.42749 40.7753 0.42749C41.4417 0.42749 42.1082 0.499196 42.7746 0.642607C43.441 0.786018 43.9641 0.954737 44.3437 1.14876L43.6983 2.93297C43.2343 2.74738 42.7282 2.59553 42.1799 2.47743C41.6315 2.35089 41.1465 2.28762 40.7247 2.28762C37.907 2.28762 36.4982 4.08447 36.4982 7.67819C36.4982 9.38225 36.8399 10.6898 37.5232 11.6009C38.215 12.512 39.2357 12.9675 40.5855 12.9675C41.7412 12.9675 42.9264 12.7187 44.1412 12.2209V14.0811C43.2133 14.5619 42.0449 14.8024 40.6361 14.8024Z" fill="black"/>
    <path d="M55.9726 14.5493L55.5551 12.5753H55.4538C54.7621 13.4442 54.0703 14.0347 53.3786 14.3468C52.6953 14.6505 51.839 14.8024 50.8098 14.8024C49.4348 14.8024 48.355 14.448 47.5704 13.7394C46.7943 13.0308 46.4063 12.0227 46.4063 10.7151C46.4063 7.9144 48.646 6.44654 53.1255 6.31157L55.4791 6.23564V5.37518C55.4791 4.28694 55.2429 3.48552 54.7705 2.97093C54.3065 2.4479 53.56 2.18639 52.5308 2.18639C51.375 2.18639 50.0675 2.5407 48.6081 3.24932L47.9627 1.64227C48.646 1.27109 49.3926 0.980045 50.2024 0.769146C51.0207 0.558247 51.839 0.452798 52.6573 0.452798C54.3108 0.452798 55.534 0.819762 56.3269 1.55369C57.1284 2.28762 57.5291 3.46443 57.5291 5.08414V14.5493H55.9726ZM51.2274 13.0688C52.535 13.0688 53.56 12.7102 54.3023 11.9932C55.0531 11.2761 55.4285 10.2722 55.4285 8.98154V7.72881L53.328 7.81738C51.6576 7.87643 50.4513 8.13795 49.7089 8.60193C48.975 9.05747 48.6081 9.77031 48.6081 10.7404C48.6081 11.4997 48.8358 12.0775 49.2914 12.474C49.7553 12.8705 50.4007 13.0688 51.2274 13.0688Z" fill="black"/>
    <path d="M69.0695 12.5246L69.4617 11.3478L70.0058 9.85466L73.7641 0.705877H76.434V14.5493H74.5739V3.09747L74.3208 3.8314L73.5869 5.76745L70.0058 14.5493H68.2469L64.6659 5.74214C64.2188 4.61172 63.9109 3.73017 63.7421 3.09747V14.5493H61.8694V0.705877H64.4381L68.0698 9.50036C68.4325 10.4283 68.7658 11.4364 69.0695 12.5246Z" fill="black"/>
    <path d="M89.4549 14.5493L89.0373 12.5753H88.9361C88.2444 13.4442 87.5526 14.0347 86.8609 14.3468C86.1776 14.6505 85.3213 14.8024 84.2921 14.8024C82.9171 14.8024 81.8373 14.448 81.0527 13.7394C80.2766 13.0308 79.8886 12.0227 79.8886 10.7151C79.8886 7.9144 82.1283 6.44654 86.6078 6.31157L88.9614 6.23564V5.37518C88.9614 4.28694 88.7252 3.48552 88.2528 2.97093C87.7888 2.4479 87.0422 2.18639 86.0131 2.18639C84.8573 2.18639 83.5498 2.5407 82.0903 3.24932L81.445 1.64227C82.1283 1.27109 82.8749 0.980045 83.6847 0.769146C84.503 0.558247 85.3213 0.452798 86.1396 0.452798C87.793 0.452798 89.0163 0.819762 89.8092 1.55369C90.6106 2.28762 91.0114 3.46443 91.0114 5.08414V14.5493H89.4549ZM84.7097 13.0688C86.0173 13.0688 87.0422 12.7102 87.7846 11.9932C88.5354 11.2761 88.9108 10.2722 88.9108 8.98154V7.72881L86.8102 7.81738C85.1399 7.87643 83.9336 8.13795 83.1912 8.60193C82.4573 9.05747 82.0903 9.77031 82.0903 10.7404C82.0903 11.4997 82.3181 12.0775 82.7737 12.474C83.2376 12.8705 83.883 13.0688 84.7097 13.0688Z" fill="black"/>
    <path d="M96.0476 14.5493H93.5928L97.5787 8.6905C96.5074 8.4543 95.6849 7.99876 95.1112 7.32388C94.546 6.64057 94.2634 5.78432 94.2634 4.75513C94.2634 3.48974 94.6894 2.4943 95.5415 1.76881C96.3935 1.04331 97.583 0.680569 99.1099 0.680569H105.285V14.5493H103.184V9.00685H99.6793L96.0476 14.5493ZM96.3134 4.78044C96.3134 6.38327 97.4775 7.18469 99.8058 7.18469H103.184V2.50273H99.3756C97.3341 2.50273 96.3134 3.26197 96.3134 4.78044Z" fill="black"/>
    <path d="M8.29264 40.7176C7.39 40.7176 6.56327 40.5531 5.81247 40.2241C5.07011 39.8867 4.44585 39.3721 3.93969 38.6803H3.78784C3.88908 39.4902 3.93969 40.2578 3.93969 40.9833V46.6902H1.83914V26.5958H3.54742L3.83846 28.4939H3.93969C4.47959 27.7347 5.10807 27.1863 5.82513 26.8489C6.54218 26.5114 7.36469 26.3427 8.29264 26.3427C10.1317 26.3427 11.5489 26.9712 12.5444 28.2282C13.5482 29.4851 14.0502 31.2482 14.0502 33.5175C14.0502 35.7952 13.5398 37.5668 12.5191 38.8322C11.5067 40.0891 10.0979 40.7176 8.29264 40.7176ZM7.98895 28.1269C6.57171 28.1269 5.54674 28.5192 4.91404 29.3037C4.28135 30.0883 3.95656 31.3368 3.93969 33.0493V33.5175C3.93969 35.4662 4.26448 36.8624 4.91404 37.706C5.56361 38.5411 6.60545 38.9587 8.03956 38.9587C9.23747 38.9587 10.1739 38.4736 10.8487 37.5035C11.532 36.5334 11.8737 35.1963 11.8737 33.4922C11.8737 31.7628 11.532 30.4384 10.8487 29.5189C10.1739 28.5909 9.2206 28.1269 7.98895 28.1269Z" fill="black"/>
    <path d="M26.2612 40.4645L25.8436 38.4905H25.7424C25.0507 39.3594 24.3589 39.9499 23.6672 40.2621C22.9839 40.5657 22.1276 40.7176 21.0984 40.7176C19.7234 40.7176 18.6436 40.3633 17.859 39.6547C17.0829 38.946 16.6948 37.9379 16.6948 36.6304C16.6948 33.8296 18.9346 32.3618 23.4141 32.2268L25.7677 32.1509V31.2904C25.7677 30.2022 25.5315 29.4008 25.0591 28.8862C24.5951 28.3631 23.8485 28.1016 22.8193 28.1016C21.6636 28.1016 20.3561 28.4559 18.8966 29.1646L18.2513 27.5575C18.9346 27.1863 19.6812 26.8953 20.491 26.6844C21.3093 26.4735 22.1276 26.368 22.9459 26.368C24.5993 26.368 25.8225 26.735 26.6155 27.4689C27.4169 28.2029 27.8176 29.3797 27.8176 30.9994V40.4645H26.2612ZM21.516 38.984C22.8236 38.984 23.8485 38.6255 24.5909 37.9084C25.3417 37.1914 25.7171 36.1875 25.7171 34.8968V33.644L23.6165 33.7326C21.9462 33.7917 20.7399 34.0532 19.9975 34.5172C19.2636 34.9727 18.8966 35.6855 18.8966 36.6557C18.8966 37.4149 19.1244 37.9928 19.5799 38.3893C20.0439 38.7858 20.6893 38.984 21.516 38.984Z" fill="black"/>
    <path d="M31.4367 32.1509C31.4367 29.1139 31.8838 26.7477 32.778 25.052C33.6722 23.348 35.0894 22.285 37.0297 21.8632C39.4424 21.3486 41.5682 20.9311 43.4073 20.6105L43.7996 22.458C40.8723 22.9473 38.7802 23.3353 37.5232 23.6221C36.3 23.9005 35.3805 24.5585 34.7647 25.5961C34.1573 26.6338 33.824 28.0468 33.765 29.8352H33.9168C34.4399 29.1266 35.1147 28.5698 35.9415 28.1649C36.7682 27.76 37.6329 27.5575 38.5355 27.5575C40.2396 27.5575 41.5682 28.1101 42.5215 29.2152C43.4748 30.3203 43.9514 31.8514 43.9514 33.8085C43.9514 35.9766 43.3988 37.6722 42.2937 38.8954C41.1886 40.1102 39.6491 40.7176 37.6751 40.7176C35.7264 40.7176 34.1994 39.971 33.0943 38.4778C31.9892 36.9847 31.4367 34.8757 31.4367 32.1509ZM37.8649 38.9587C40.4378 38.9587 41.7243 37.3179 41.7243 34.0363C41.7243 30.9066 40.5559 29.3417 38.2192 29.3417C37.578 29.3417 36.958 29.4767 36.3591 29.7466C35.7685 30.0082 35.2244 30.3582 34.7267 30.7969C34.2374 31.2356 33.8578 31.6869 33.5878 32.1509C33.5878 34.3695 33.9379 36.0609 34.6381 37.2251C35.3383 38.3808 36.4139 38.9587 37.8649 38.9587Z" fill="black"/>
    <path d="M59.5917 33.5175C59.5917 35.7783 59.0222 37.5457 57.8834 38.8195C56.7445 40.0849 55.1712 40.7176 53.1635 40.7176C51.9234 40.7176 50.8225 40.4266 49.8608 39.8445C48.8991 39.2624 48.1567 38.4272 47.6337 37.339C47.1107 36.2508 46.8492 34.9769 46.8492 33.5175C46.8492 31.2567 47.4144 29.4978 48.5448 28.2408C49.6752 26.9754 51.2443 26.3427 53.252 26.3427C55.1923 26.3427 56.7319 26.9881 57.8707 28.2788C59.018 29.5695 59.5917 31.3157 59.5917 33.5175ZM49.0256 33.5175C49.0256 35.2891 49.3799 36.6388 50.0886 37.5668C50.7972 38.4947 51.839 38.9587 53.2141 38.9587C54.5891 38.9587 55.631 38.4989 56.3396 37.5794C57.0567 36.6515 57.4152 35.2975 57.4152 33.5175C57.4152 31.7544 57.0567 30.4173 56.3396 29.5062C55.631 28.5867 54.5807 28.1269 53.1888 28.1269C51.8137 28.1269 50.7761 28.5783 50.0759 29.4809C49.3757 30.3836 49.0256 31.7291 49.0256 33.5175Z" fill="black"/>
    <path d="M72.6379 28.3927H68.1331V40.4645H66.0325V28.3927H61.5783V26.5958H72.6379V28.3927Z" fill="black"/>
    <path d="M83.9125 40.4645L83.4949 38.4905H83.3937C82.7019 39.3594 82.0102 39.9499 81.3185 40.2621C80.6351 40.5657 79.7789 40.7176 78.7497 40.7176C77.3746 40.7176 76.2948 40.3633 75.5103 39.6547C74.7342 38.946 74.3461 37.9379 74.3461 36.6304C74.3461 33.8296 76.5859 32.3618 81.0654 32.2268L83.419 32.1509V31.2904C83.419 30.2022 83.1828 29.4008 82.7104 28.8862C82.2464 28.3631 81.4998 28.1016 80.4706 28.1016C79.3149 28.1016 78.0073 28.4559 76.5479 29.1646L75.9026 27.5575C76.5859 27.1863 77.3325 26.8953 78.1423 26.6844C78.9606 26.4735 79.7789 26.368 80.5972 26.368C82.2506 26.368 83.4738 26.735 84.2668 27.4689C85.0682 28.2029 85.4689 29.3797 85.4689 30.9994V40.4645H83.9125ZM79.1673 38.984C80.4749 38.984 81.4998 38.6255 82.2422 37.9084C82.993 37.1914 83.3684 36.1875 83.3684 34.8968V33.644L81.2678 33.7326C79.5975 33.7917 78.3912 34.0532 77.6488 34.5172C76.9149 34.9727 76.5479 35.6855 76.5479 36.6557C76.5479 37.4149 76.7757 37.9928 77.2312 38.3893C77.6952 38.7858 78.3406 38.984 79.1673 38.984Z" fill="black"/>
    <path d="M91.7073 35.365H90.3787L89.7333 21.9645H92.3527L91.7073 35.365ZM89.5055 39.1232C89.5055 37.9759 90.0117 37.4023 91.024 37.4023C91.5133 37.4023 91.8887 37.5499 92.1502 37.8451C92.4202 38.1404 92.5551 38.5664 92.5551 39.1232C92.5551 39.6631 92.4202 40.0849 92.1502 40.3886C91.8803 40.6838 91.5049 40.8315 91.024 40.8315C90.5853 40.8315 90.2226 40.7007 89.9358 40.4392C89.6489 40.1693 89.5055 39.7306 89.5055 39.1232Z" fill="black"/>
</svg>

