<svg width="108" height="97" viewBox="0 0 108 97" fill="none" xmlns="http://www.w3.org/2000/svg">
    <path d="M29.0316 77.006C29.4201 78.0581 30.1305 81.2869 31.4527 80.0708C33.334 78.335 28.673 72.8119 29.053 72.5856C30.0515 72.0114 35.1648 73.7098 36.437 73.854C38.781 74.1328 42.6947 74.7446 43.7281 71.8232C45.6392 66.4141 35.9989 66.8402 33.1243 66.0878C31.2874 65.611 26.7691 64.8216 27.8603 63.1582C29.3218 60.9375 33.6377 60.4824 35.4273 58.3572C36.908 56.6021 37.2573 54.0094 35.1132 52.4817C33.101 51.0495 31.3271 52.2906 29.5296 53.1949C25.2488 55.3562 19.569 58.0725 16.0198 61.3059C11.4268 65.4786 16.7763 70.0128 19.4587 73.5702C20.6216 75.0991 25.2752 83.1198 27.9469 81.7041C30.3408 80.4263 27.5122 73.049 28.7405 72.4722C28.5966 72.5432 28.9205 72.9637 28.4143 72.5492C28.9786 73.0206 28.9578 76.436 29.0316 77.006C30.7761 81.7593 28.4549 72.4517 29.0316 77.006Z" fill="#EABE63"/>
    <path d="M74.261 76.5998C76.2635 75.7725 78.9495 74.5588 78.6176 71.8549C78.1287 67.8763 74.2516 69.2819 71.9012 70.022C65.9086 71.8974 60.8206 71.3781 54.8375 70.0622C52.7173 69.5986 49.7875 69.4116 48.9454 72.0693C47.8795 75.4431 51.4513 77.0162 53.9764 77.7052C60.5237 79.4924 67.9188 78.943 74.261 76.5998C74.9416 76.3186 73.199 76.9924 74.261 76.5998Z" fill="#EABE63"/>
    <path d="M90.2743 47.2676C87.7972 48.3719 88.8292 50.0589 88.4931 52.0686C88.0677 54.5888 86.3084 57.8217 84.7769 59.8172C83.3255 61.6988 80.5915 63.0478 80.7927 65.771C80.9473 67.8782 82.8875 69.2478 85.07 68.9119C89.8704 68.1758 93.3915 60.0112 94.8247 55.9891C96.0699 52.5182 95.8084 44.9811 90.2743 47.2676C89.7695 47.4992 90.9352 46.9945 90.2743 47.2676Z" fill="#EABE63"/>
    <path d="M94.1915 31.3401C93.3447 28.1446 88.9865 20.4754 84.6688 22.3517C79.7041 24.5069 85.901 31.2316 87.2097 33.7282C88.5771 36.3391 88.7318 42.8348 93.044 42.2311C98.0964 41.5179 95.3368 34.1121 94.1915 31.3401C93.6386 29.2473 94.5828 32.2871 94.1915 31.3401Z" fill="#EABE63"/>
    <path d="M61.8827 12.3992C62.4268 14.4148 64.6862 14.7401 66.2988 15.5405C68.0508 16.3988 69.4805 17.679 71.1236 18.7208C72.7945 19.7743 74.6354 21.1271 76.6319 20.1175C78.2559 19.2963 78.9194 17.3245 78.2731 15.7323C76.9804 12.5477 70.9976 10.0306 68.0957 8.79282C66.6795 8.18841 65.0238 7.25569 63.459 8.05236C62.1779 8.69716 60.9319 11.0482 61.8827 12.3992C62.2116 13.6145 61.4134 11.7385 61.8827 12.3992Z" fill="#EABE63"/>
</svg>
