<svg width="40" height="43" viewBox="0 0 40 43" fill="none" xmlns="http://www.w3.org/2000/svg">
    <path d="M30.0393 2.61278C32.8972 4.32749 35.1835 6.77709 36.8165 9.79825C38.4496 12.8194 39.2661 16.1672 39.2661 19.9232C39.2661 20.9847 39.2661 21.8013 39.1845 22.3728H6.60488C6.84984 26.4555 8.15629 29.8849 10.6059 32.8244C13.0555 35.6823 16.3216 37.1521 20.4859 37.1521C23.8337 37.1521 26.6915 36.4988 28.8962 35.274C31.1008 33.9676 32.8972 32.2529 34.2853 29.9666L38.8579 32.9878C36.9799 35.9273 34.5303 38.2136 31.5091 39.8466C28.4879 41.4797 24.8135 42.3779 20.6492 42.3779C16.8115 42.3779 13.3821 41.4797 10.4426 39.6833C7.42141 37.8869 5.13512 35.3557 3.4204 32.1712C1.70568 28.9868 0.88916 25.3124 0.88916 21.2297C0.88916 17.147 1.70568 13.5543 3.4204 10.2882C5.05346 7.1037 7.4214 4.57245 10.3609 2.77608C13.3004 0.979712 16.7299 0.0815312 20.4859 0.0815312C23.997 -0.000121936 27.1815 0.898062 30.0393 2.61278ZM33.5504 17.637C32.9788 13.5543 31.5907 10.4515 29.3861 8.3285C27.1815 6.28717 24.1603 5.22568 20.4043 5.22568C16.7299 5.22568 13.7087 6.36882 11.4224 8.73676C9.05447 11.1047 7.58472 14.0442 7.01315 17.5553H33.5504V17.637Z" fill="black"/>
</svg>
