<svg width="32" height="28" viewBox="0 0 32 28" fill="none" xmlns="http://www.w3.org/2000/svg">
    <path d="M4.48982 1.54003C7.12982 1.16003 9.83982 4.81005 11.5898 6.31005C12.3998 7.00005 13.6498 8.44005 14.6798 8.84005C15.2998 9.96005 15.9298 9.95005 16.5798 8.81005C17.2998 8.18005 17.9898 7.52005 18.6498 6.84005C20.7198 4.82005 22.7498 2.33004 25.1898 0.740042C27.7398 -0.929958 31.7298 0.260053 30.9998 3.97005C30.4898 6.56005 27.1098 8.84004 25.3198 10.58C24.6698 11.21 21.5498 13.3 21.4398 14.06C21.2398 15.45 21.3998 14.44 22.6598 15.86C24.5198 17.96 28.0598 19.41 29.3498 21.93C30.6198 24.42 29.1998 27.34 26.2598 27.32C23.6398 27.3 20.8898 23.98 19.0998 22.36C15.2498 18.88 15.3898 19.82 11.6498 23.32C9.89982 24.96 8.01982 27.8401 5.39982 27.8501C3.13982 27.8601 1.43982 25.68 1.89982 23.54C2.42982 21.12 6.18982 18.45 7.87982 16.92C9.94982 15.05 10.5098 15.1301 8.24981 13.0301C6.46981 11.3801 2.40982 8.89005 1.34982 6.65005C0.18982 4.15005 2.06982 1.74003 4.48982 1.54003C6.10982 1.30003 3.98982 1.58003 4.48982 1.54003Z" fill="#F56175"/>
</svg>
