<svg width="28" height="30" viewBox="0 0 28 30" fill="none" xmlns="http://www.w3.org/2000/svg">
    <path d="M6.86391 28.0178C4.72647 26.7469 3.10894 24.9561 1.8958 22.6453C0.682653 20.3346 0.10498 17.735 0.10498 14.9043C0.10498 12.0159 0.682653 9.47407 1.8958 7.22109C3.05117 4.96811 4.72646 3.17728 6.80614 1.90637C8.88581 0.635457 11.3121 0 13.9695 0C16.6268 0 19.0531 0.635457 21.1328 1.90637C23.2702 3.17728 24.8878 4.96811 26.1009 7.22109C27.314 9.47407 27.8917 12.0737 27.8917 14.9621C27.8917 17.8505 27.314 20.3924 26.1009 22.7031C24.9455 24.9561 23.2702 26.7469 21.1906 28.0178C19.1109 29.2887 16.6846 29.9242 14.0272 29.9242C11.3699 29.982 9.00135 29.2887 6.86391 28.0178ZM19.0531 24.7828C20.5551 23.8007 21.7105 22.472 22.577 20.7967C23.4435 19.0637 23.8479 17.1573 23.8479 14.9621C23.8479 12.8247 23.4435 10.8605 22.577 9.12746C21.7105 7.3944 20.5551 6.06572 19.0531 5.08365C17.5511 4.10158 15.8758 3.63943 13.9117 3.63943C12.0053 3.63943 10.33 4.10158 8.88581 5.08365C7.38383 6.06572 6.22845 7.3944 5.41969 9.06969C4.55316 10.745 4.14879 12.7091 4.14879 14.8466C4.14879 17.0418 4.55316 19.0059 5.41969 20.739C6.28622 22.472 7.4416 23.8007 8.88581 24.725C10.3878 25.7071 12.0631 26.1692 13.9117 26.1692C15.8181 26.227 17.5511 25.7648 19.0531 24.7828Z" fill="black"/>
</svg>
