<svg width="29" height="30" viewBox="0 0 29 30" fill="none" xmlns="http://www.w3.org/2000/svg">
    <path d="M28.6349 0.982071V28.9999H24.5333V24.8405C23.3779 26.4581 21.9337 27.6712 20.2584 28.5955C18.5831 29.5198 16.7345 29.9242 14.7704 29.9242C12.113 29.9242 9.68675 29.2887 7.60707 28.0178C5.46963 26.7469 3.8521 24.9561 2.63896 22.7031C1.42582 20.4501 0.848145 17.8505 0.848145 14.9043C0.848145 12.0159 1.42582 9.47407 2.63896 7.22109C3.79433 4.96811 5.46963 3.17728 7.5493 1.90637C9.62897 0.635457 12.0553 0 14.7126 0C16.7345 0 18.6409 0.462151 20.3162 1.32868C21.9915 2.25298 23.4357 3.52389 24.5911 5.14142V0.924303H28.6349V0.982071ZM19.7963 24.7828C21.2983 23.8007 22.4536 22.472 23.3202 20.7967C24.1867 19.0637 24.5911 17.1573 24.5911 14.9621C24.5911 12.8247 24.1867 10.8605 23.3202 9.12746C22.4536 7.3944 21.2983 6.06572 19.7963 5.08365C18.2943 4.10158 16.619 3.63943 14.6549 3.63943C12.7485 3.63943 11.0732 4.10158 9.62898 5.08365C8.12699 6.06572 6.97162 7.3944 6.16286 9.06969C5.29632 10.745 4.89195 12.7091 4.89195 14.8466C4.89195 17.0418 5.29632 19.0059 6.16286 20.739C7.02939 22.472 8.18476 23.8007 9.62898 24.725C11.131 25.7071 12.8063 26.1692 14.6549 26.1692C16.5612 26.227 18.2943 25.7648 19.7963 24.7828Z" fill="black"/>
</svg>
