<svg width="28" height="30" viewBox="0 0 28 30" fill="none" xmlns="http://www.w3.org/2000/svg">
    <path d="M21.0897 1.8484C23.1116 3.06155 24.7292 4.79461 25.8845 6.93205C27.0399 9.06949 27.6176 11.438 27.6176 14.0954C27.6176 14.8464 27.6176 15.4241 27.5598 15.8284H4.51012C4.68342 18.7169 5.60772 21.1431 7.34078 23.2228C9.07384 25.2447 11.3846 26.2846 14.3308 26.2846C16.6993 26.2846 18.7212 25.8224 20.281 24.9559C21.8407 24.0316 23.1116 22.8184 24.0937 21.2009L27.3288 23.3384C26.0001 25.418 24.267 27.0356 22.1296 28.1909C19.9921 29.3463 17.3925 29.9818 14.4463 29.9818C11.7312 29.9818 9.30492 29.3463 7.22525 28.0754C5.0878 26.8045 3.47028 25.0137 2.25713 22.7607C1.04399 20.5077 0.466309 17.9081 0.466309 15.0197C0.466309 12.1312 1.04399 9.58941 2.25713 7.27866C3.41251 5.02568 5.0878 3.23485 7.16747 1.96394C9.24715 0.693027 11.6734 0.057574 14.3308 0.057574C16.8149 -0.000194687 19.0678 0.63526 21.0897 1.8484ZM23.5738 12.4778C23.1694 9.58941 22.1873 7.3942 20.6276 5.89221C19.0678 4.448 16.9304 3.697 14.273 3.697C11.6734 3.697 9.53599 4.50576 7.91847 6.18106C6.24318 7.85635 5.20334 9.93602 4.79896 12.4201H23.5738V12.4778Z" fill="black"/>
</svg>
