<svg width="23" height="25" viewBox="0 0 23 25" fill="none" xmlns="http://www.w3.org/2000/svg">
    <path d="M17.4334 1.51226C19.0876 2.50476 20.4109 3.9226 21.3562 5.67129C22.3014 7.41997 22.774 9.3577 22.774 11.5317C22.774 12.1461 22.774 12.6188 22.7268 12.9496H3.86935C4.01114 15.3127 4.76732 17.2977 6.18517 18.9991C7.60302 20.6532 9.49349 21.5039 11.9038 21.5039C13.8416 21.5039 15.4957 21.1258 16.7718 20.4169C18.0478 19.6607 19.0876 18.6682 19.8911 17.3449L22.5377 19.0936C21.4507 20.795 20.0328 22.1183 18.2842 23.0636C16.5355 24.0088 14.4087 24.5287 11.9984 24.5287C9.77706 24.5287 7.79207 24.0088 6.09065 22.9691C4.34197 21.9293 3.01864 20.4642 2.02614 18.621C1.03365 16.7778 0.561035 14.651 0.561035 12.2879C0.561035 9.92483 1.03365 7.84532 2.02614 5.95486C2.97138 4.11165 4.34196 2.64654 6.04338 1.60678C7.7448 0.567026 9.7298 0.0471502 11.9038 0.0471502C13.9361 -0.000111479 15.7793 0.519766 17.4334 1.51226ZM19.4657 10.2084C19.1349 7.84532 18.3314 6.04938 17.0554 4.82058C15.7793 3.63904 14.0306 3.02463 11.8566 3.02463C9.72979 3.02463 7.98111 3.6863 6.65779 5.05689C5.2872 6.42747 4.43649 8.12889 4.10566 10.1611H19.4657V10.2084Z" fill="white"/>
</svg>