<svg width="24" height="25" viewBox="0 0 24 25" fill="none" xmlns="http://www.w3.org/2000/svg">
    <path d="M5.96955 22.9219C4.22087 21.8821 2.89754 20.417 1.90504 18.5266C0.912547 16.6361 0.439941 14.5093 0.439941 12.1935C0.439941 9.83043 0.912547 7.75091 1.90504 5.90771C2.85027 4.0645 4.22086 2.59939 5.92228 1.55964C7.6237 0.51988 9.6087 0 11.7827 0C13.9568 0 15.9418 0.51988 17.6432 1.55964C19.3919 2.59939 20.7152 4.0645 21.7077 5.90771C22.7002 7.75091 23.1728 9.87769 23.1728 12.2408C23.1728 14.6039 22.7002 16.6834 21.7077 18.5738C20.7625 20.417 19.3919 21.8821 17.6904 22.9219C15.989 23.9617 14.004 24.4815 11.83 24.4815C9.65595 24.5288 7.71823 23.9617 5.96955 22.9219ZM15.9418 20.2753C17.1706 19.4718 18.1158 18.3848 18.8247 17.0142C19.5336 15.5963 19.8645 14.0367 19.8645 12.2408C19.8645 10.4921 19.5336 8.88519 18.8247 7.46734C18.1158 6.04949 17.1706 4.96248 15.9418 4.15903C14.713 3.35558 13.3424 2.97749 11.7355 2.97749C10.1758 2.97749 8.80525 3.35558 7.62371 4.15903C6.3949 4.96248 5.44967 6.04949 4.78801 7.42008C4.07908 8.79067 3.74826 10.3976 3.74826 12.1462C3.74826 13.9422 4.07908 15.5491 4.78801 16.9669C5.49693 18.3848 6.44216 19.4718 7.62371 20.228C8.85251 21.0314 10.2231 21.4095 11.7355 21.4095C13.2951 21.4568 14.713 21.0787 15.9418 20.2753Z" fill="white"/>
</svg>