<svg width="24" height="25" viewBox="0 0 24 25" fill="none" xmlns="http://www.w3.org/2000/svg">
    <path d="M23.4213 0.80345V23.7254H20.0658V20.3225C19.1205 21.6458 17.939 22.6383 16.5684 23.3945C15.1978 24.1507 13.6854 24.4815 12.0785 24.4815C9.90449 24.4815 7.9195 23.9617 6.21808 22.9219C4.4694 21.8821 3.14607 20.417 2.15358 18.5738C1.16108 16.7306 0.688477 14.6039 0.688477 12.1935C0.688477 9.83043 1.16108 7.75091 2.15358 5.90771C3.09881 4.0645 4.4694 2.59939 6.17082 1.55964C7.87224 0.51988 9.85724 0 12.0313 0C13.6854 0 15.2451 0.378095 16.6156 1.08702C17.9862 1.84321 19.1678 2.88296 20.113 4.20629V0.756189H23.4213V0.80345ZM16.1903 20.2753C17.4191 19.4718 18.3643 18.3848 19.0733 17.0142C19.7822 15.5963 20.113 14.0367 20.113 12.2408C20.113 10.4921 19.7822 8.88519 19.0733 7.46734C18.3643 6.04949 17.4191 4.96248 16.1903 4.15903C14.9615 3.35558 13.5909 2.97749 11.984 2.97749C10.4244 2.97749 9.05378 3.35558 7.87224 4.15903C6.64344 4.96248 5.6982 6.04949 5.03654 7.42008C4.32762 8.79067 3.99679 10.3976 3.99679 12.1462C3.99679 13.9422 4.32762 15.5491 5.03654 16.9669C5.74547 18.3848 6.6907 19.4718 7.87224 20.228C9.10104 21.0314 10.4716 21.4095 11.984 21.4095C13.5436 21.4568 14.9615 21.0787 16.1903 20.2753Z" fill="white"/>
</svg>