<svg width="182" height="66" viewBox="0 0 182 66" fill="none" xmlns="http://www.w3.org/2000/svg">
    <path opacity="0.5" fill-rule="evenodd" clip-rule="evenodd" d="M6.99805 0C3.68434 0 0.998047 2.68629 0.998047 6V60C0.998047 63.3137 3.68433 66 6.99804 66H168.933C172.246 66 174.933 63.3137 174.933 60V42.0644L174.934 42.066L181.999 35.0008L174.933 27.9339V6C174.933 2.68629 172.246 0 168.933 0H6.99805Z" fill="#1B1B1B"/>
    <path opacity="0.8" d="M21.1533 29V19.0469H24.4072C25.4873 19.0469 26.2985 19.2702 26.8408 19.7168C27.3877 20.1634 27.6611 20.8242 27.6611 21.6992C27.6611 22.1641 27.529 22.5765 27.2646 22.9365C27.0003 23.292 26.6403 23.5677 26.1846 23.7637C26.7223 23.9141 27.1462 24.2012 27.4561 24.625C27.7705 25.0443 27.9277 25.5456 27.9277 26.1289C27.9277 27.0221 27.6383 27.724 27.0596 28.2344C26.4808 28.7448 25.6628 29 24.6055 29H21.1533ZM22.4658 24.3447V27.9268H24.6328C25.2435 27.9268 25.7243 27.7695 26.0752 27.4551C26.4307 27.1361 26.6084 26.6986 26.6084 26.1426C26.6084 24.944 25.9567 24.3447 24.6533 24.3447H22.4658ZM22.4658 23.292H24.4482C25.0225 23.292 25.4805 23.1484 25.8223 22.8613C26.1686 22.5742 26.3418 22.1846 26.3418 21.6924C26.3418 21.1455 26.1823 20.749 25.8633 20.5029C25.5443 20.2523 25.0589 20.127 24.4072 20.127H22.4658V23.292ZM32.7471 29.1367C31.7445 29.1367 30.9287 28.8086 30.2998 28.1523C29.6709 27.4915 29.3564 26.6097 29.3564 25.5068V25.2744C29.3564 24.5407 29.4954 23.8867 29.7734 23.3125C30.056 22.7337 30.4479 22.2826 30.9492 21.959C31.4551 21.6309 32.002 21.4668 32.5898 21.4668C33.5514 21.4668 34.2988 21.7835 34.832 22.417C35.3652 23.0505 35.6318 23.9574 35.6318 25.1377V25.6641H30.6211C30.6393 26.3932 30.8512 26.9834 31.2568 27.4346C31.667 27.8812 32.1865 28.1045 32.8154 28.1045C33.262 28.1045 33.6403 28.0133 33.9502 27.8311C34.2601 27.6488 34.5312 27.4072 34.7637 27.1064L35.5361 27.708C34.9163 28.6605 33.9867 29.1367 32.7471 29.1367ZM32.5898 22.5059C32.0794 22.5059 31.651 22.6927 31.3047 23.0664C30.9583 23.4355 30.7441 23.9551 30.6621 24.625H34.3672V24.5293C34.3307 23.8867 34.1576 23.39 33.8477 23.0391C33.5378 22.6836 33.1185 22.5059 32.5898 22.5059ZM40.3486 22.0273C41.2783 22.0273 42.0212 22.3395 42.5771 22.9639C43.1377 23.5837 43.418 24.4017 43.418 25.418V25.5342C43.418 26.2314 43.2835 26.8558 43.0146 27.4072C42.7458 27.9541 42.3584 28.3802 41.8525 28.6855C41.3512 28.9863 40.7725 29.1367 40.1162 29.1367C39.1227 29.1367 38.3229 28.8063 37.7168 28.1455C37.1107 27.4801 36.8076 26.5892 36.8076 25.4727V24.8574C36.8076 23.3034 37.0947 22.0684 37.6689 21.1523C38.2477 20.2363 39.0999 19.6781 40.2256 19.4775C40.8636 19.3636 41.2943 19.2246 41.5176 19.0605C41.7409 18.8965 41.8525 18.6709 41.8525 18.3838H42.8916C42.8916 18.9535 42.7617 19.3978 42.502 19.7168C42.2467 20.0358 41.8366 20.2614 41.2715 20.3936L40.3281 20.6055C39.5762 20.7832 39.0111 21.084 38.6328 21.5078C38.2591 21.9271 38.0153 22.4876 37.9014 23.1895C38.5713 22.4147 39.387 22.0273 40.3486 22.0273ZM40.1025 23.0664C39.4827 23.0664 38.9906 23.276 38.626 23.6953C38.2614 24.11 38.0791 24.6865 38.0791 25.4248V25.5342C38.0791 26.3271 38.2614 26.9561 38.626 27.4209C38.9951 27.8812 39.4919 28.1113 40.1162 28.1113C40.7451 28.1113 41.2419 27.8789 41.6064 27.4141C41.971 26.9492 42.1533 26.2702 42.1533 25.377C42.1533 24.6797 41.9688 24.1214 41.5996 23.7021C41.235 23.2783 40.736 23.0664 40.1025 23.0664ZM47.4717 25.2881H44.1357V24.2559H47.4717V25.2881ZM51.0127 25.8486H50.0898V29H48.8184V21.6035H50.0898V24.7344H50.917L53.4053 21.6035H54.9365L52.0107 25.1582L55.1826 29H53.5762L51.0127 25.8486ZM60.8359 29C60.763 28.8542 60.7038 28.5944 60.6582 28.2207C60.0703 28.8314 59.3685 29.1367 58.5527 29.1367C57.8236 29.1367 57.2243 28.9316 56.7549 28.5215C56.29 28.1068 56.0576 27.5827 56.0576 26.9492C56.0576 26.179 56.3493 25.582 56.9326 25.1582C57.5205 24.7298 58.3454 24.5156 59.4072 24.5156H60.6377V23.9346C60.6377 23.4925 60.5055 23.1416 60.2412 22.8818C59.9769 22.6175 59.5872 22.4854 59.0723 22.4854C58.6211 22.4854 58.2428 22.5993 57.9375 22.8271C57.6322 23.055 57.4795 23.3307 57.4795 23.6543H56.208C56.208 23.2852 56.3379 22.9297 56.5977 22.5879C56.862 22.2415 57.2174 21.9681 57.6641 21.7676C58.1152 21.5671 58.6097 21.4668 59.1475 21.4668C59.9997 21.4668 60.6673 21.681 61.1504 22.1094C61.6335 22.5332 61.8841 23.1188 61.9023 23.8662V27.2705C61.9023 27.9495 61.9889 28.4896 62.1621 28.8906V29H60.8359ZM58.7373 28.0361C59.1338 28.0361 59.5098 27.9336 59.8652 27.7285C60.2207 27.5234 60.4782 27.2568 60.6377 26.9287V25.4111H59.6465C58.097 25.4111 57.3223 25.8646 57.3223 26.7715C57.3223 27.168 57.4544 27.4779 57.7188 27.7012C57.9831 27.9245 58.3226 28.0361 58.7373 28.0361ZM68.1436 27.3252L70.6592 21.6035H72.2383V29H70.9736V23.6201L68.5811 29H67.7061L65.2656 23.5039V29H64.001V21.6035H65.6416L68.1436 27.3252ZM77.3447 29.1367C76.3421 29.1367 75.5264 28.8086 74.8975 28.1523C74.2686 27.4915 73.9541 26.6097 73.9541 25.5068V25.2744C73.9541 24.5407 74.0931 23.8867 74.3711 23.3125C74.6536 22.7337 75.0456 22.2826 75.5469 21.959C76.0527 21.6309 76.5996 21.4668 77.1875 21.4668C78.1491 21.4668 78.8965 21.7835 79.4297 22.417C79.9629 23.0505 80.2295 23.9574 80.2295 25.1377V25.6641H75.2188C75.237 26.3932 75.4489 26.9834 75.8545 27.4346C76.2646 27.8812 76.7842 28.1045 77.4131 28.1045C77.8597 28.1045 78.238 28.0133 78.5479 27.8311C78.8577 27.6488 79.1289 27.4072 79.3613 27.1064L80.1338 27.708C79.514 28.6605 78.5843 29.1367 77.3447 29.1367ZM77.1875 22.5059C76.6771 22.5059 76.2487 22.6927 75.9023 23.0664C75.556 23.4355 75.3418 23.9551 75.2598 24.625H78.9648V24.5293C78.9284 23.8867 78.7552 23.39 78.4453 23.0391C78.1354 22.6836 77.7161 22.5059 77.1875 22.5059ZM87.9473 25.3838C87.9473 26.5094 87.6898 27.4163 87.1748 28.1045C86.6598 28.7926 85.9626 29.1367 85.083 29.1367C84.1852 29.1367 83.4788 28.8519 82.9639 28.2822V31.8438H81.6992V21.6035H82.8545L82.916 22.4238C83.431 21.7858 84.1465 21.4668 85.0625 21.4668C85.9512 21.4668 86.653 21.8018 87.168 22.4717C87.6875 23.1416 87.9473 24.0736 87.9473 25.2676V25.3838ZM86.6826 25.2402C86.6826 24.4062 86.5049 23.7477 86.1494 23.2646C85.7939 22.7816 85.3063 22.54 84.6865 22.54C83.9209 22.54 83.3467 22.8796 82.9639 23.5586V27.0928C83.3421 27.7673 83.9209 28.1045 84.7002 28.1045C85.3063 28.1045 85.7871 27.8652 86.1426 27.3867C86.5026 26.9036 86.6826 26.1882 86.6826 25.2402ZM94.127 29C94.054 28.8542 93.9948 28.5944 93.9492 28.2207C93.3613 28.8314 92.6595 29.1367 91.8438 29.1367C91.1146 29.1367 90.5153 28.9316 90.0459 28.5215C89.5811 28.1068 89.3486 27.5827 89.3486 26.9492C89.3486 26.179 89.6403 25.582 90.2236 25.1582C90.8115 24.7298 91.6364 24.5156 92.6982 24.5156H93.9287V23.9346C93.9287 23.4925 93.7965 23.1416 93.5322 22.8818C93.2679 22.6175 92.8783 22.4854 92.3633 22.4854C91.9121 22.4854 91.5339 22.5993 91.2285 22.8271C90.9232 23.055 90.7705 23.3307 90.7705 23.6543H89.499C89.499 23.2852 89.6289 22.9297 89.8887 22.5879C90.153 22.2415 90.5085 21.9681 90.9551 21.7676C91.4062 21.5671 91.9007 21.4668 92.4385 21.4668C93.2907 21.4668 93.9583 21.681 94.4414 22.1094C94.9245 22.5332 95.1751 23.1188 95.1934 23.8662V27.2705C95.1934 27.9495 95.2799 28.4896 95.4531 28.8906V29H94.127ZM92.0283 28.0361C92.4248 28.0361 92.8008 27.9336 93.1562 27.7285C93.5117 27.5234 93.7692 27.2568 93.9287 26.9287V25.4111H92.9375C91.388 25.4111 90.6133 25.8646 90.6133 26.7715C90.6133 27.168 90.7454 27.4779 91.0098 27.7012C91.2741 27.9245 91.6136 28.0361 92.0283 28.0361ZM106.698 29H105.434V22.6494H102.029V29H100.758V21.6035H106.698V29ZM108.394 25.2334C108.394 24.5088 108.535 23.8571 108.817 23.2783C109.104 22.6995 109.501 22.2529 110.007 21.9385C110.517 21.624 111.098 21.4668 111.75 21.4668C112.757 21.4668 113.571 21.8154 114.19 22.5127C114.815 23.21 115.127 24.1374 115.127 25.2949V25.3838C115.127 26.1038 114.988 26.751 114.71 27.3252C114.437 27.8949 114.042 28.3392 113.527 28.6582C113.017 28.9772 112.429 29.1367 111.764 29.1367C110.761 29.1367 109.948 28.7881 109.323 28.0908C108.703 27.3936 108.394 26.4707 108.394 25.3223V25.2334ZM109.665 25.3838C109.665 26.2041 109.854 26.8626 110.232 27.3594C110.615 27.8561 111.126 28.1045 111.764 28.1045C112.406 28.1045 112.917 27.8538 113.295 27.3525C113.673 26.8467 113.862 26.1403 113.862 25.2334C113.862 24.4222 113.669 23.766 113.281 23.2646C112.898 22.7588 112.388 22.5059 111.75 22.5059C111.126 22.5059 110.622 22.7542 110.239 23.251C109.856 23.7477 109.665 24.4587 109.665 25.3838ZM120.972 27.3252L123.487 21.6035H125.066V29H123.802V23.6201L121.409 29H120.534L118.094 23.5039V29H116.829V21.6035H118.47L120.972 27.3252ZM126.769 25.2334C126.769 24.5088 126.91 23.8571 127.192 23.2783C127.479 22.6995 127.876 22.2529 128.382 21.9385C128.892 21.624 129.473 21.4668 130.125 21.4668C131.132 21.4668 131.946 21.8154 132.565 22.5127C133.19 23.21 133.502 24.1374 133.502 25.2949V25.3838C133.502 26.1038 133.363 26.751 133.085 27.3252C132.812 27.8949 132.417 28.3392 131.902 28.6582C131.392 28.9772 130.804 29.1367 130.139 29.1367C129.136 29.1367 128.323 28.7881 127.698 28.0908C127.078 27.3936 126.769 26.4707 126.769 25.3223V25.2334ZM128.04 25.3838C128.04 26.2041 128.229 26.8626 128.607 27.3594C128.99 27.8561 129.501 28.1045 130.139 28.1045C130.781 28.1045 131.292 27.8538 131.67 27.3525C132.048 26.8467 132.237 26.1403 132.237 25.2334C132.237 24.4222 132.044 23.766 131.656 23.2646C131.273 22.7588 130.763 22.5059 130.125 22.5059C129.501 22.5059 128.997 22.7542 128.614 23.251C128.231 23.7477 128.04 24.4587 128.04 25.3838ZM140.837 25.7871H139.948V29H138.684V25.7871H137.795L135.724 29H134.124L136.77 25.1719L134.377 21.6035H135.908L137.815 24.666H138.684V21.6035H139.948V24.666H140.81L142.73 21.6035H144.262L141.862 25.1787L144.508 29H142.908L140.837 25.7871ZM148.589 29.1367C147.586 29.1367 146.771 28.8086 146.142 28.1523C145.513 27.4915 145.198 26.6097 145.198 25.5068V25.2744C145.198 24.5407 145.337 23.8867 145.615 23.3125C145.898 22.7337 146.29 22.2826 146.791 21.959C147.297 21.6309 147.844 21.4668 148.432 21.4668C149.393 21.4668 150.141 21.7835 150.674 22.417C151.207 23.0505 151.474 23.9574 151.474 25.1377V25.6641H146.463C146.481 26.3932 146.693 26.9834 147.099 27.4346C147.509 27.8812 148.028 28.1045 148.657 28.1045C149.104 28.1045 149.482 28.0133 149.792 27.8311C150.102 27.6488 150.373 27.4072 150.605 27.1064L151.378 27.708C150.758 28.6605 149.828 29.1367 148.589 29.1367ZM148.432 22.5059C147.921 22.5059 147.493 22.6927 147.146 23.0664C146.8 23.4355 146.586 23.9551 146.504 24.625H150.209V24.5293C150.173 23.8867 149.999 23.39 149.689 23.0391C149.38 22.6836 148.96 22.5059 148.432 22.5059ZM158.357 22.6289H155.876V29H154.611V22.6289H152.178V21.6035H158.357V22.6289ZM26.4512 40.6289H23.9697V47H22.7051V40.6289H20.2715V39.6035H26.4512V40.6289ZM30.2041 47.1367C29.2015 47.1367 28.3857 46.8086 27.7568 46.1523C27.1279 45.4915 26.8135 44.6097 26.8135 43.5068V43.2744C26.8135 42.5407 26.9525 41.8867 27.2305 41.3125C27.513 40.7337 27.9049 40.2826 28.4062 39.959C28.9121 39.6309 29.459 39.4668 30.0469 39.4668C31.0085 39.4668 31.7559 39.7835 32.2891 40.417C32.8223 41.0505 33.0889 41.9574 33.0889 43.1377V43.6641H28.0781C28.0964 44.3932 28.3083 44.9834 28.7139 45.4346C29.124 45.8812 29.6436 46.1045 30.2725 46.1045C30.7191 46.1045 31.0973 46.0133 31.4072 45.8311C31.7171 45.6488 31.9883 45.4072 32.2207 45.1064L32.9932 45.708C32.3734 46.6605 31.4437 47.1367 30.2041 47.1367ZM30.0469 40.5059C29.5365 40.5059 29.1081 40.6927 28.7617 41.0664C28.4154 41.4355 28.2012 41.9551 28.1191 42.625H31.8242V42.5293C31.7878 41.8867 31.6146 41.39 31.3047 41.0391C30.9948 40.6836 30.5755 40.5059 30.0469 40.5059ZM37.8057 40.0273C38.7354 40.0273 39.4782 40.3395 40.0342 40.9639C40.5947 41.5837 40.875 42.4017 40.875 43.418V43.5342C40.875 44.2314 40.7406 44.8558 40.4717 45.4072C40.2028 45.9541 39.8154 46.3802 39.3096 46.6855C38.8083 46.9863 38.2295 47.1367 37.5732 47.1367C36.5798 47.1367 35.7799 46.8063 35.1738 46.1455C34.5677 45.4801 34.2646 44.5892 34.2646 43.4727V42.8574C34.2646 41.3034 34.5518 40.0684 35.126 39.1523C35.7048 38.2363 36.557 37.6781 37.6826 37.4775C38.3206 37.3636 38.7513 37.2246 38.9746 37.0605C39.1979 36.8965 39.3096 36.6709 39.3096 36.3838H40.3486C40.3486 36.9535 40.2188 37.3978 39.959 37.7168C39.7038 38.0358 39.2936 38.2614 38.7285 38.3936L37.7852 38.6055C37.0332 38.7832 36.4681 39.084 36.0898 39.5078C35.7161 39.9271 35.4723 40.4876 35.3584 41.1895C36.0283 40.4147 36.8441 40.0273 37.8057 40.0273ZM37.5596 41.0664C36.9398 41.0664 36.4476 41.276 36.083 41.6953C35.7184 42.11 35.5361 42.6865 35.5361 43.4248V43.5342C35.5361 44.3271 35.7184 44.9561 36.083 45.4209C36.4521 45.8812 36.9489 46.1113 37.5732 46.1113C38.2021 46.1113 38.6989 45.8789 39.0635 45.4141C39.4281 44.9492 39.6104 44.2702 39.6104 43.377C39.6104 42.6797 39.4258 42.1214 39.0566 41.7021C38.6921 41.2783 38.193 41.0664 37.5596 41.0664ZM45.3662 47.1367C44.3636 47.1367 43.5479 46.8086 42.9189 46.1523C42.29 45.4915 41.9756 44.6097 41.9756 43.5068V43.2744C41.9756 42.5407 42.1146 41.8867 42.3926 41.3125C42.6751 40.7337 43.0671 40.2826 43.5684 39.959C44.0742 39.6309 44.6211 39.4668 45.209 39.4668C46.1706 39.4668 46.918 39.7835 47.4512 40.417C47.9844 41.0505 48.251 41.9574 48.251 43.1377V43.6641H43.2402C43.2585 44.3932 43.4704 44.9834 43.876 45.4346C44.2861 45.8812 44.8057 46.1045 45.4346 46.1045C45.8812 46.1045 46.2594 46.0133 46.5693 45.8311C46.8792 45.6488 47.1504 45.4072 47.3828 45.1064L48.1553 45.708C47.5355 46.6605 46.6058 47.1367 45.3662 47.1367ZM45.209 40.5059C44.6986 40.5059 44.2702 40.6927 43.9238 41.0664C43.5775 41.4355 43.3633 41.9551 43.2812 42.625H46.9863V42.5293C46.9499 41.8867 46.7767 41.39 46.4668 41.0391C46.1569 40.6836 45.7376 40.5059 45.209 40.5059ZM59.2432 47H57.9785V40.6494H54.5742V47H53.3027V39.6035H59.2432V47ZM67.5215 43.3838C67.5215 44.5094 67.264 45.4163 66.749 46.1045C66.234 46.7926 65.5368 47.1367 64.6572 47.1367C63.7594 47.1367 63.0531 46.8519 62.5381 46.2822V49.8438H61.2734V39.6035H62.4287L62.4902 40.4238C63.0052 39.7858 63.7207 39.4668 64.6367 39.4668C65.5254 39.4668 66.2272 39.8018 66.7422 40.4717C67.2617 41.1416 67.5215 42.0736 67.5215 43.2676V43.3838ZM66.2568 43.2402C66.2568 42.4062 66.0791 41.7477 65.7236 41.2646C65.3682 40.7816 64.8805 40.54 64.2607 40.54C63.4951 40.54 62.9209 40.8796 62.5381 41.5586V45.0928C62.9163 45.7673 63.4951 46.1045 64.2744 46.1045C64.8805 46.1045 65.3613 45.8652 65.7168 45.3867C66.0768 44.9036 66.2568 44.1882 66.2568 43.2402ZM68.7998 43.2334C68.7998 42.5088 68.9411 41.8571 69.2236 41.2783C69.5107 40.6995 69.9072 40.2529 70.4131 39.9385C70.9235 39.624 71.5046 39.4668 72.1562 39.4668C73.1634 39.4668 73.9769 39.8154 74.5967 40.5127C75.221 41.21 75.5332 42.1374 75.5332 43.2949V43.3838C75.5332 44.1038 75.3942 44.751 75.1162 45.3252C74.8428 45.8949 74.4486 46.3392 73.9336 46.6582C73.4232 46.9772 72.8353 47.1367 72.1699 47.1367C71.1673 47.1367 70.3538 46.7881 69.7295 46.0908C69.1097 45.3936 68.7998 44.4707 68.7998 43.3223V43.2334ZM70.0713 43.3838C70.0713 44.2041 70.2604 44.8626 70.6387 45.3594C71.0215 45.8561 71.5319 46.1045 72.1699 46.1045C72.8125 46.1045 73.3229 45.8538 73.7012 45.3525C74.0794 44.8467 74.2686 44.1403 74.2686 43.2334C74.2686 42.4222 74.0749 41.766 73.6875 41.2646C73.3047 40.7588 72.7943 40.5059 72.1562 40.5059C71.5319 40.5059 71.0283 40.7542 70.6455 41.251C70.2627 41.7477 70.0713 42.4587 70.0713 43.3838ZM81.9043 39.6035H83.1689V47H81.9043V41.6064L78.4932 47H77.2285V39.6035H78.4932V45.0039L81.9043 39.6035ZM82.2461 36.9102C82.2461 37.4616 82.057 37.9059 81.6787 38.2432C81.305 38.5758 80.8128 38.7422 80.2021 38.7422C79.5915 38.7422 79.097 38.5736 78.7188 38.2363C78.3405 37.8991 78.1514 37.457 78.1514 36.9102H79.1836C79.1836 37.2292 79.2702 37.4798 79.4434 37.6621C79.6165 37.8398 79.8695 37.9287 80.2021 37.9287C80.5212 37.9287 80.7695 37.8398 80.9473 37.6621C81.1296 37.4844 81.2207 37.2337 81.2207 36.9102H82.2461ZM90.6953 40.6289H88.2139V47H86.9492V40.6289H84.5156V39.6035H90.6953V40.6289ZM96.7109 39.6035H97.9756V47H96.7109V41.6064L93.2998 47H92.0352V39.6035H93.2998V45.0039L96.7109 39.6035ZM108.975 40.6289H106.493V47H105.229V40.6289H102.795V39.6035H108.975V40.6289ZM112.728 47.1367C111.725 47.1367 110.909 46.8086 110.28 46.1523C109.651 45.4915 109.337 44.6097 109.337 43.5068V43.2744C109.337 42.5407 109.476 41.8867 109.754 41.3125C110.036 40.7337 110.428 40.2826 110.93 39.959C111.436 39.6309 111.982 39.4668 112.57 39.4668C113.532 39.4668 114.279 39.7835 114.812 40.417C115.346 41.0505 115.612 41.9574 115.612 43.1377V43.6641H110.602C110.62 44.3932 110.832 44.9834 111.237 45.4346C111.647 45.8812 112.167 46.1045 112.796 46.1045C113.243 46.1045 113.621 46.0133 113.931 45.8311C114.241 45.6488 114.512 45.4072 114.744 45.1064L115.517 45.708C114.897 46.6605 113.967 47.1367 112.728 47.1367ZM112.57 40.5059C112.06 40.5059 111.632 40.6927 111.285 41.0664C110.939 41.4355 110.725 41.9551 110.643 42.625H114.348V42.5293C114.311 41.8867 114.138 41.39 113.828 41.0391C113.518 40.6836 113.099 40.5059 112.57 40.5059ZM120.049 46.1045C120.5 46.1045 120.894 45.9678 121.231 45.6943C121.569 45.4209 121.756 45.0791 121.792 44.6689H122.988C122.965 45.0928 122.82 45.4961 122.551 45.8789C122.282 46.2617 121.922 46.5671 121.471 46.7949C121.024 47.0228 120.55 47.1367 120.049 47.1367C119.042 47.1367 118.24 46.8018 117.643 46.1318C117.05 45.4574 116.754 44.5368 116.754 43.3701V43.1582C116.754 42.4382 116.886 41.7979 117.15 41.2373C117.415 40.6768 117.793 40.2415 118.285 39.9316C118.782 39.6217 119.368 39.4668 120.042 39.4668C120.871 39.4668 121.56 39.7152 122.106 40.2119C122.658 40.7087 122.952 41.3535 122.988 42.1465H121.792C121.756 41.668 121.573 41.276 121.245 40.9707C120.922 40.6608 120.521 40.5059 120.042 40.5059C119.399 40.5059 118.9 40.7383 118.545 41.2031C118.194 41.6634 118.019 42.3311 118.019 43.2061V43.4453C118.019 44.2975 118.194 44.9538 118.545 45.4141C118.896 45.8743 119.397 46.1045 120.049 46.1045ZM129.906 40.6289H127.425V47H126.16V40.6289H123.727V39.6035H129.906V40.6289Z" fill="white"/>
</svg>
