<svg width="17" height="16" viewBox="0 0 17 16" fill="none" xmlns="http://www.w3.org/2000/svg">
    <path d="M2.44819 0H14.3409C15.4703 0 16.3944 0.836183 16.3944 2.05349V13.9465C16.3944 15.1638 15.4703 16 14.3409 16H2.44819C1.31844 16 0.394531 15.1638 0.394531 13.9465V2.05349C0.394531 0.836183 1.31844 0 2.44819 0ZM12.0498 1.77767C11.6536 1.77767 11.3298 2.10163 11.3298 2.49803V4.22215C11.3298 4.61839 11.6536 4.94251 12.0498 4.94251H13.8582C14.2545 4.94251 14.5786 4.61839 14.5786 4.22215V2.49803C14.5786 2.10163 14.2545 1.77767 13.8582 1.77767H12.0498ZM14.5861 6.76634H13.1779C13.3112 7.20136 13.3833 7.66216 13.3833 8.1389C13.3833 10.8002 11.1563 12.9575 8.40973 12.9575C5.6633 12.9575 3.43666 10.8002 3.43666 8.1389C3.43666 7.66183 3.50861 7.20119 3.64201 6.76634H2.17253V13.525C2.17253 13.8747 2.4587 14.1611 2.80862 14.1611H13.9504C14.3003 14.1611 14.5865 13.8749 14.5865 13.525V6.76634H14.5861ZM8.40956 4.85167C6.63502 4.85167 5.19626 6.24558 5.19626 7.96526C5.19626 9.68493 6.63502 11.0788 8.40956 11.0788C10.1843 11.0788 11.6232 9.68493 11.6232 7.96526C11.6232 6.24558 10.1844 4.85167 8.40956 4.85167Z" fill="white"/>
</svg>