<svg width="75" height="33" viewBox="0 0 75 33" fill="none" xmlns="http://www.w3.org/2000/svg">
    <path d="M8.42899 1.46019H5.24189V10.0009H3.75578V1.46019H0.604492V0.188938H8.42899V1.46019Z" fill="black"/>
    <path d="M16.4057 10.0009L16.1102 8.6043H16.0386C15.5492 9.21904 15.0598 9.63682 14.5704 9.85765C14.087 10.0725 13.4812 10.1799 12.7531 10.1799C11.7802 10.1799 11.0163 9.92927 10.4612 9.42793C9.91212 8.92659 9.63758 8.21337 9.63758 7.28828C9.63758 5.30679 11.2222 4.2683 14.3914 4.17281L16.0565 4.11909V3.51032C16.0565 2.7404 15.8894 2.17341 15.5552 1.80934C15.2269 1.43931 14.6987 1.25429 13.9706 1.25429C13.1529 1.25429 12.2278 1.50496 11.1953 2.0063L10.7387 0.869329C11.2222 0.606722 11.7504 0.400814 12.3233 0.251606C12.9023 0.102397 13.4812 0.0277927 14.0601 0.0277927C15.2299 0.0277927 16.0953 0.287416 16.6564 0.806661C17.2233 1.32591 17.5068 2.15849 17.5068 3.30441V10.0009H16.4057ZM13.0485 8.95345C13.9736 8.95345 14.6987 8.69979 15.2239 8.19248C15.7551 7.68518 16.0207 6.97494 16.0207 6.06179V5.17549L14.5346 5.23816C13.3529 5.27993 12.4994 5.46495 11.9742 5.79321C11.4549 6.1155 11.1953 6.61983 11.1953 7.30619C11.1953 7.84334 11.3565 8.25217 11.6788 8.53268C12.007 8.81319 12.4636 8.95345 13.0485 8.95345Z" fill="black"/>
    <path d="M29.2615 10.1799C27.841 10.1799 26.7399 9.74425 25.958 8.87288C25.1821 7.99553 24.7942 6.7571 24.7942 5.15758C24.7942 3.51629 25.1881 2.24802 25.9759 1.35276C26.7697 0.457513 27.8977 0.0098877 29.36 0.0098877C29.8315 0.0098877 30.303 0.0606186 30.7745 0.16208C31.246 0.263542 31.616 0.382909 31.8846 0.520181L31.428 1.78249C31.0997 1.65118 30.7416 1.54375 30.3537 1.46019C29.9658 1.37067 29.6226 1.32591 29.3242 1.32591C27.3307 1.32591 26.334 2.59716 26.334 5.13968C26.334 6.34528 26.5757 7.27038 27.0592 7.91496C27.5486 8.55954 28.2707 8.88183 29.2257 8.88183C30.0433 8.88183 30.8819 8.70576 31.7413 8.35363V9.66965C31.0848 10.0098 30.2582 10.1799 29.2615 10.1799Z" fill="black"/>
    <path d="M40.1119 10.0009L39.8165 8.6043H39.7449C39.2555 9.21904 38.7661 9.63682 38.2767 9.85765C37.7932 10.0725 37.1875 10.1799 36.4593 10.1799C35.4865 10.1799 34.7225 9.92927 34.1675 9.42793C33.6184 8.92659 33.3438 8.21337 33.3438 7.28828C33.3438 5.30679 34.9284 4.2683 38.0976 4.17281L39.7628 4.11909V3.51032C39.7628 2.7404 39.5957 2.17341 39.2614 1.80934C38.9332 1.43931 38.405 1.25429 37.6769 1.25429C36.8592 1.25429 35.9341 1.50496 34.9016 2.0063L34.445 0.869329C34.9284 0.606722 35.4566 0.400814 36.0296 0.251606C36.6085 0.102397 37.1875 0.0277927 37.7664 0.0277927C38.9362 0.0277927 39.8016 0.287416 40.3626 0.806661C40.9296 1.32591 41.2131 2.15849 41.2131 3.30441V10.0009H40.1119ZM36.7547 8.95345C37.6798 8.95345 38.405 8.69979 38.9302 8.19248C39.4614 7.68518 39.727 6.97494 39.727 6.06179V5.17549L38.2409 5.23816C37.0591 5.27993 36.2057 5.46495 35.6804 5.79321C35.1612 6.1155 34.9016 6.61983 34.9016 7.30619C34.9016 7.84334 35.0627 8.25217 35.385 8.53268C35.7133 8.81319 36.1698 8.95345 36.7547 8.95345Z" fill="black"/>
    <path d="M49.3778 8.56849L49.6553 7.73591L50.0403 6.67951L52.6992 0.206843H54.5882V10.0009H53.2721V1.89887L53.0931 2.41811L52.5738 3.78785L50.0403 10.0009H48.7959L46.2623 3.76994C45.946 2.97019 45.7281 2.34649 45.6088 1.89887V10.0009H44.2838V0.206843H46.1012L48.6705 6.42884C48.9272 7.08536 49.1629 7.79857 49.3778 8.56849Z" fill="black"/>
    <path d="M63.8003 10.0009L63.5049 8.6043H63.4332C62.9438 9.21904 62.4544 9.63682 61.965 9.85765C61.4816 10.0725 60.8758 10.1799 60.1477 10.1799C59.1748 10.1799 58.4109 9.92927 57.8558 9.42793C57.3067 8.92659 57.0322 8.21337 57.0322 7.28828C57.0322 5.30679 58.6168 4.2683 61.786 4.17281L63.4511 4.11909V3.51032C63.4511 2.7404 63.284 2.17341 62.9498 1.80934C62.6215 1.43931 62.0933 1.25429 61.3652 1.25429C60.5475 1.25429 59.6225 1.50496 58.5899 2.0063L58.1334 0.869329C58.6168 0.606722 59.145 0.400814 59.7179 0.251606C60.2969 0.102397 60.8758 0.0277927 61.4547 0.0277927C62.6245 0.0277927 63.4899 0.287416 64.051 0.806661C64.618 1.32591 64.9015 2.15849 64.9015 3.30441V10.0009H63.8003ZM60.4431 8.95345C61.3682 8.95345 62.0933 8.69979 62.6186 8.19248C63.1497 7.68518 63.4153 6.97494 63.4153 6.06179V5.17549L61.9292 5.23816C60.7475 5.27993 59.894 5.46495 59.3688 5.79321C58.8496 6.1155 58.5899 6.61983 58.5899 7.30619C58.5899 7.84334 58.7511 8.25217 59.0734 8.53268C59.4016 8.81319 59.8582 8.95345 60.4431 8.95345Z" fill="black"/>
    <path d="M68.4646 10.0009H66.7278L69.5478 5.85588C68.7898 5.68877 68.2079 5.36648 67.8021 4.88901C67.4022 4.40557 67.2022 3.79979 67.2022 3.07165C67.2022 2.1764 67.5036 1.47213 68.1065 0.958854C68.7093 0.445577 69.5508 0.188938 70.6311 0.188938H74.9999V10.0009H73.5138V6.07969H71.0339L68.4646 10.0009ZM68.6526 3.08955C68.6526 4.22354 69.4762 4.79053 71.1235 4.79053H73.5138V1.4781H70.8191C69.3747 1.4781 68.6526 2.01525 68.6526 3.08955Z" fill="black"/>
    <path d="M6.37886 28.5147C5.74025 28.5147 5.15535 28.3983 4.62417 28.1655C4.09896 27.9268 3.6573 27.5627 3.2992 27.0733H3.19177C3.26339 27.6463 3.2992 28.1894 3.2992 28.7027V32.7403H1.81308V18.5237H3.02167L3.22758 19.8666H3.2992C3.68117 19.3294 4.12581 18.9415 4.63312 18.7027C5.14043 18.464 5.72235 18.3446 6.37886 18.3446C7.67996 18.3446 8.68264 18.7893 9.38691 19.6786C10.0971 20.5678 10.4523 21.8152 10.4523 23.4207C10.4523 25.0322 10.0912 26.2855 9.369 27.1808C8.6528 28.07 7.65609 28.5147 6.37886 28.5147ZM6.164 19.6069C5.16132 19.6069 4.43617 19.8845 3.98854 20.4395C3.54092 20.9946 3.31114 21.8779 3.2992 23.0895V23.4207C3.2992 24.7994 3.52898 25.7872 3.98854 26.384C4.44811 26.9749 5.1852 27.2703 6.19981 27.2703C7.04732 27.2703 7.7098 26.9271 8.18727 26.2408C8.67071 25.5544 8.91243 24.6084 8.91243 23.4028C8.91243 22.1793 8.67071 21.2423 8.18727 20.5917C7.7098 19.9352 7.03538 19.6069 6.164 19.6069Z" fill="black"/>
    <path d="M19.0914 28.3356L18.796 26.939H18.7244C18.235 27.5538 17.7456 27.9716 17.2562 28.1924C16.7727 28.4073 16.1669 28.5147 15.4388 28.5147C14.466 28.5147 13.702 28.264 13.147 27.7627C12.5979 27.2613 12.3233 26.5481 12.3233 25.623C12.3233 23.6415 13.9079 22.603 17.0771 22.5076L18.7423 22.4538V21.8451C18.7423 21.0752 18.5752 20.5082 18.2409 20.1441C17.9127 19.7741 17.3845 19.589 16.6564 19.589C15.8387 19.589 14.9136 19.8397 13.8811 20.341L13.4245 19.2041C13.9079 18.9415 14.4361 18.7356 15.0091 18.5864C15.588 18.4371 16.1669 18.3625 16.7459 18.3625C17.9157 18.3625 18.7811 18.6222 19.3421 19.1414C19.9091 19.6607 20.1926 20.4932 20.1926 21.6392V28.3356H19.0914ZM15.7342 27.2882C16.6593 27.2882 17.3845 27.0345 17.9097 26.5272C18.4409 26.0199 18.7065 25.3097 18.7065 24.3965V23.5102L17.2204 23.5729C16.0386 23.6147 15.1852 23.7997 14.6599 24.128C14.1407 24.4502 13.8811 24.9546 13.8811 25.6409C13.8811 26.1781 14.0422 26.5869 14.3645 26.8674C14.6928 27.1479 15.1493 27.2882 15.7342 27.2882Z" fill="black"/>
    <path d="M22.753 22.4538C22.753 20.3052 23.0693 18.6311 23.702 17.4315C24.3346 16.2259 25.3373 15.4739 26.71 15.1754C28.417 14.8114 29.921 14.5159 31.2221 14.2891L31.4996 15.5962C29.4286 15.9424 27.9485 16.2169 27.0592 16.4198C26.1938 16.6168 25.5432 17.0823 25.1075 17.8164C24.6778 18.5505 24.4421 19.5502 24.4003 20.8155H24.5077C24.8777 20.3142 25.3552 19.9203 25.9401 19.6338C26.525 19.3473 27.1368 19.2041 27.7754 19.2041C28.981 19.2041 29.921 19.595 30.5954 20.3769C31.2698 21.1587 31.607 22.242 31.607 23.6266C31.607 25.1605 31.2161 26.3601 30.4343 27.2255C29.6524 28.085 28.5632 28.5147 27.1666 28.5147C25.7879 28.5147 24.7076 27.9865 23.9258 26.9301C23.1439 25.8737 22.753 24.3816 22.753 22.4538ZM27.3009 27.2703C29.1212 27.2703 30.0314 26.1094 30.0314 23.7878C30.0314 21.5735 29.2048 20.4664 27.5516 20.4664C27.098 20.4664 26.6593 20.5619 26.2355 20.7529C25.8178 20.9379 25.4328 21.1856 25.0807 21.4959C24.7345 21.8063 24.4659 22.1256 24.2749 22.4538C24.2749 24.0235 24.5226 25.2202 25.018 26.0438C25.5134 26.8615 26.2743 27.2703 27.3009 27.2703Z" fill="black"/>
    <path d="M42.6724 23.4207C42.6724 25.0202 42.2695 26.2706 41.4638 27.1718C40.658 28.0671 39.5449 28.5147 38.1245 28.5147C37.2471 28.5147 36.4683 28.3088 35.7879 27.897C35.1075 27.4852 34.5823 26.8943 34.2122 26.1244C33.8422 25.3545 33.6572 24.4532 33.6572 23.4207C33.6572 21.8212 34.0571 20.5768 34.8568 19.6875C35.6566 18.7923 36.7667 18.3446 38.1871 18.3446C39.5599 18.3446 40.6491 18.8012 41.4548 19.7144C42.2665 20.6275 42.6724 21.863 42.6724 23.4207ZM35.197 23.4207C35.197 24.6741 35.4477 25.629 35.949 26.2855C36.4504 26.942 37.1875 27.2703 38.1603 27.2703C39.1331 27.2703 39.8702 26.945 40.3716 26.2945C40.8789 25.6379 41.1325 24.68 41.1325 23.4207C41.1325 22.1733 40.8789 21.2273 40.3716 20.5828C39.8702 19.9322 39.1272 19.6069 38.1424 19.6069C37.1695 19.6069 36.4354 19.9262 35.9401 20.5649C35.4447 21.2035 35.197 22.1554 35.197 23.4207Z" fill="black"/>
    <path d="M51.9024 19.7949H48.7153V28.3356H47.2292V19.7949H44.0779V18.5237H51.9024V19.7949Z" fill="black"/>
    <path d="M59.8791 28.3356L59.5837 26.939H59.512C59.0226 27.5538 58.5332 27.9716 58.0438 28.1924C57.5604 28.4073 56.9546 28.5147 56.2265 28.5147C55.2536 28.5147 54.4897 28.264 53.9346 27.7627C53.3855 27.2613 53.111 26.5481 53.111 25.623C53.111 23.6415 54.6956 22.603 57.8648 22.5076L59.5299 22.4538V21.8451C59.5299 21.0752 59.3628 20.5082 59.0286 20.1441C58.7003 19.7741 58.1721 19.589 57.444 19.589C56.6263 19.589 55.7012 19.8397 54.6687 20.341L54.2121 19.2041C54.6956 18.9415 55.2238 18.7356 55.7967 18.5864C56.3757 18.4371 56.9546 18.3625 57.5335 18.3625C58.7033 18.3625 59.5687 18.6222 60.1298 19.1414C60.6968 19.6607 60.9802 20.4932 60.9802 21.6392V28.3356H59.8791ZM56.5219 27.2882C57.447 27.2882 58.1721 27.0345 58.6974 26.5272C59.2285 26.0199 59.4941 25.3097 59.4941 24.3965V23.5102L58.008 23.5729C56.8263 23.6147 55.9728 23.7997 55.4476 24.128C54.9283 24.4502 54.6687 24.9546 54.6687 25.6409C54.6687 26.1781 54.8299 26.5869 55.1522 26.8674C55.4804 27.1479 55.937 27.2882 56.5219 27.2882Z" fill="black"/>
    <path d="M65.3938 24.7278H64.4538L63.9972 15.2471H65.8504L65.3938 24.7278ZM63.8361 27.3867C63.8361 26.575 64.1942 26.1691 64.9104 26.1691C65.2566 26.1691 65.5222 26.2736 65.7072 26.4825C65.8982 26.6914 65.9937 26.9928 65.9937 27.3867C65.9937 27.7686 65.8982 28.0671 65.7072 28.2819C65.5162 28.4908 65.2506 28.5953 64.9104 28.5953C64.6 28.5953 64.3434 28.5028 64.1405 28.3177C63.9376 28.1267 63.8361 27.8164 63.8361 27.3867Z" fill="black"/>
</svg>
