      <svg width="62" height="28" viewBox="0 0 62 28" fill="none" xmlns="http://www.w3.org/2000/svg">
      <path d="M6.70166 2.0127H4.09424V9H2.87842V2.0127H0.300293V0.972656H6.70166V2.0127ZM13.2275 9L12.9858 7.85742H12.9272C12.5269 8.36035 12.1265 8.70215 11.7261 8.88281C11.3306 9.05859 10.835 9.14648 10.2393 9.14648C9.44336 9.14648 8.81836 8.94141 8.36426 8.53125C7.91504 8.12109 7.69043 7.5376 7.69043 6.78076C7.69043 5.15967 8.98682 4.31006 11.5796 4.23193L12.9419 4.18799V3.68994C12.9419 3.06006 12.8052 2.59619 12.5317 2.29834C12.2632 1.99561 11.8311 1.84424 11.2354 1.84424C10.5664 1.84424 9.80957 2.04932 8.96484 2.45947L8.59131 1.5293C8.98682 1.31445 9.41895 1.146 9.8877 1.02393C10.3613 0.901855 10.835 0.84082 11.3086 0.84082C12.2656 0.84082 12.9736 1.05322 13.4326 1.47803C13.8965 1.90283 14.1284 2.58398 14.1284 3.52148V9H13.2275ZM10.481 8.14307C11.2378 8.14307 11.8311 7.93555 12.2607 7.52051C12.6953 7.10547 12.9126 6.52441 12.9126 5.77734V5.05225L11.6968 5.10352C10.73 5.1377 10.0317 5.28906 9.60205 5.55762C9.17725 5.82129 8.96484 6.23389 8.96484 6.79541C8.96484 7.23486 9.09668 7.56934 9.36035 7.79883C9.62891 8.02832 10.0024 8.14307 10.481 8.14307ZM23.7451 9.14648C22.583 9.14648 21.6821 8.79004 21.0425 8.07715C20.4077 7.35938 20.0903 6.34619 20.0903 5.0376C20.0903 3.69482 20.4126 2.65723 21.0571 1.9248C21.7065 1.19238 22.6294 0.826172 23.8257 0.826172C24.2114 0.826172 24.5972 0.867676 24.9829 0.950684C25.3687 1.03369 25.6714 1.13135 25.8911 1.24365L25.5176 2.27637C25.249 2.16895 24.9561 2.08105 24.6387 2.0127C24.3213 1.93945 24.0405 1.90283 23.7964 1.90283C22.1655 1.90283 21.3501 2.94287 21.3501 5.02295C21.3501 6.00928 21.5479 6.76611 21.9434 7.29346C22.3438 7.8208 22.9346 8.08447 23.7158 8.08447C24.3848 8.08447 25.0708 7.94043 25.7739 7.65234V8.729C25.2368 9.00732 24.5605 9.14648 23.7451 9.14648ZM32.6221 9L32.3804 7.85742H32.3218C31.9214 8.36035 31.521 8.70215 31.1206 8.88281C30.7251 9.05859 30.2295 9.14648 29.6338 9.14648C28.8379 9.14648 28.2129 8.94141 27.7588 8.53125C27.3096 8.12109 27.085 7.5376 27.085 6.78076C27.085 5.15967 28.3813 4.31006 30.9741 4.23193L32.3364 4.18799V3.68994C32.3364 3.06006 32.1997 2.59619 31.9263 2.29834C31.6577 1.99561 31.2256 1.84424 30.6299 1.84424C29.9609 1.84424 29.2041 2.04932 28.3594 2.45947L27.9858 1.5293C28.3813 1.31445 28.8135 1.146 29.2822 1.02393C29.7559 0.901855 30.2295 0.84082 30.7031 0.84082C31.6602 0.84082 32.3682 1.05322 32.8271 1.47803C33.291 1.90283 33.5229 2.58398 33.5229 3.52148V9H32.6221ZM29.8755 8.14307C30.6323 8.14307 31.2256 7.93555 31.6553 7.52051C32.0898 7.10547 32.3071 6.52441 32.3071 5.77734V5.05225L31.0913 5.10352C30.1245 5.1377 29.4263 5.28906 28.9966 5.55762C28.5718 5.82129 28.3594 6.23389 28.3594 6.79541C28.3594 7.23486 28.4912 7.56934 28.7549 7.79883C29.0234 8.02832 29.397 8.14307 29.8755 8.14307ZM40.2026 7.82812L40.4297 7.14697L40.7446 6.28271L42.9199 0.987305H44.4653V9H43.3887V2.37158L43.2422 2.79639L42.8174 3.91699L40.7446 9H39.7266L37.6538 3.90234C37.395 3.24805 37.2168 2.73779 37.1191 2.37158V9H36.0352V0.987305H37.522L39.624 6.07764C39.834 6.61475 40.0269 7.19824 40.2026 7.82812ZM52.002 9L51.7603 7.85742H51.7017C51.3013 8.36035 50.9009 8.70215 50.5005 8.88281C50.105 9.05859 49.6094 9.14648 49.0137 9.14648C48.2178 9.14648 47.5928 8.94141 47.1387 8.53125C46.6895 8.12109 46.4648 7.5376 46.4648 6.78076C46.4648 5.15967 47.7612 4.31006 50.354 4.23193L51.7163 4.18799V3.68994C51.7163 3.06006 51.5796 2.59619 51.3062 2.29834C51.0376 1.99561 50.6055 1.84424 50.0098 1.84424C49.3408 1.84424 48.584 2.04932 47.7393 2.45947L47.3657 1.5293C47.7612 1.31445 48.1934 1.146 48.6621 1.02393C49.1357 0.901855 49.6094 0.84082 50.083 0.84082C51.04 0.84082 51.748 1.05322 52.207 1.47803C52.6709 1.90283 52.9028 2.58398 52.9028 3.52148V9H52.002ZM49.2554 8.14307C50.0122 8.14307 50.6055 7.93555 51.0352 7.52051C51.4697 7.10547 51.687 6.52441 51.687 5.77734V5.05225L50.4712 5.10352C49.5044 5.1377 48.8062 5.28906 48.3765 5.55762C47.9517 5.82129 47.7393 6.23389 47.7393 6.79541C47.7393 7.23486 47.8711 7.56934 48.1348 7.79883C48.4033 8.02832 48.7769 8.14307 49.2554 8.14307ZM55.8179 9H54.397L56.7041 5.60889C56.084 5.47217 55.6079 5.2085 55.2759 4.81787C54.9487 4.42236 54.7852 3.92676 54.7852 3.33105C54.7852 2.59863 55.0317 2.02246 55.5249 1.60254C56.0181 1.18262 56.7065 0.972656 57.5903 0.972656H61.1646V9H59.9487V5.79199H57.9199L55.8179 9ZM55.9717 3.3457C55.9717 4.27344 56.6455 4.7373 57.9932 4.7373H59.9487V2.02734H57.7441C56.5625 2.02734 55.9717 2.4668 55.9717 3.3457ZM5.02441 24.1465C4.50195 24.1465 4.02344 24.0513 3.58887 23.8608C3.15918 23.6655 2.79785 23.3677 2.50488 22.9673H2.41699C2.47559 23.436 2.50488 23.8804 2.50488 24.3003V27.6035H1.28906V15.9727H2.27783L2.44629 17.0713H2.50488C2.81738 16.6318 3.18115 16.3145 3.59619 16.1191C4.01123 15.9238 4.4873 15.8262 5.02441 15.8262C6.08887 15.8262 6.90918 16.1899 7.48535 16.9175C8.06641 17.645 8.35693 18.6655 8.35693 19.979C8.35693 21.2974 8.06152 22.3228 7.4707 23.0552C6.88477 23.7827 6.06934 24.1465 5.02441 24.1465ZM4.84863 16.8589C4.02832 16.8589 3.43506 17.0859 3.06885 17.54C2.70264 17.9941 2.51465 18.7168 2.50488 19.708V19.979C2.50488 21.1069 2.69287 21.915 3.06885 22.4033C3.44482 22.8867 4.04785 23.1284 4.87793 23.1284C5.57129 23.1284 6.11328 22.8477 6.50391 22.2861C6.89941 21.7246 7.09717 20.9507 7.09717 19.9644C7.09717 18.9634 6.89941 18.1968 6.50391 17.6646C6.11328 17.1274 5.56152 16.8589 4.84863 16.8589ZM15.4248 24L15.1831 22.8574H15.1245C14.7241 23.3604 14.3237 23.7021 13.9233 23.8828C13.5278 24.0586 13.0322 24.1465 12.4365 24.1465C11.6406 24.1465 11.0156 23.9414 10.5615 23.5312C10.1123 23.1211 9.8877 22.5376 9.8877 21.7808C9.8877 20.1597 11.1841 19.3101 13.7769 19.2319L15.1392 19.188V18.6899C15.1392 18.0601 15.0024 17.5962 14.729 17.2983C14.4604 16.9956 14.0283 16.8442 13.4326 16.8442C12.7637 16.8442 12.0068 17.0493 11.1621 17.4595L10.7886 16.5293C11.1841 16.3145 11.6162 16.146 12.085 16.0239C12.5586 15.9019 13.0322 15.8408 13.5059 15.8408C14.4629 15.8408 15.1709 16.0532 15.6299 16.478C16.0938 16.9028 16.3257 17.584 16.3257 18.5215V24H15.4248ZM12.6782 23.1431C13.4351 23.1431 14.0283 22.9355 14.458 22.5205C14.8926 22.1055 15.1099 21.5244 15.1099 20.7773V20.0522L13.894 20.1035C12.9272 20.1377 12.229 20.2891 11.7993 20.5576C11.3745 20.8213 11.1621 21.2339 11.1621 21.7954C11.1621 22.2349 11.2939 22.5693 11.5576 22.7988C11.8262 23.0283 12.1997 23.1431 12.6782 23.1431ZM18.4204 19.188C18.4204 17.4302 18.6792 16.0605 19.1968 15.0791C19.7144 14.0928 20.5347 13.4775 21.6577 13.2334C23.0542 12.9355 24.2847 12.6938 25.3491 12.5083L25.5762 13.5776C23.8818 13.8608 22.6709 14.0854 21.9434 14.2515C21.2354 14.4126 20.7031 14.7935 20.3467 15.394C19.9951 15.9946 19.8022 16.8125 19.7681 17.8477H19.856C20.1587 17.4375 20.5493 17.1152 21.0278 16.8809C21.5063 16.6465 22.0068 16.5293 22.5293 16.5293C23.5156 16.5293 24.2847 16.8491 24.8364 17.4888C25.3882 18.1284 25.6641 19.0146 25.6641 20.1475C25.6641 21.4023 25.3442 22.3838 24.7046 23.0918C24.0649 23.7949 23.1738 24.1465 22.0312 24.1465C20.9033 24.1465 20.0195 23.7144 19.3799 22.8501C18.7402 21.9858 18.4204 20.7651 18.4204 19.188ZM22.1411 23.1284C23.6304 23.1284 24.375 22.1787 24.375 20.2793C24.375 18.4678 23.6987 17.562 22.3462 17.562C21.9751 17.562 21.6162 17.6401 21.2695 17.7964C20.9277 17.9478 20.6128 18.1504 20.3247 18.4043C20.0415 18.6582 19.8218 18.9194 19.6655 19.188C19.6655 20.4722 19.8682 21.4512 20.2734 22.125C20.6787 22.7939 21.3013 23.1284 22.1411 23.1284ZM34.7168 19.979C34.7168 21.2876 34.3872 22.3105 33.728 23.0479C33.0688 23.7803 32.1582 24.1465 30.9961 24.1465C30.2783 24.1465 29.6411 23.978 29.0845 23.6411C28.5278 23.3042 28.0981 22.8208 27.7954 22.1909C27.4927 21.561 27.3413 20.8237 27.3413 19.979C27.3413 18.6704 27.6685 17.6523 28.3228 16.9248C28.9771 16.1924 29.8853 15.8262 31.0474 15.8262C32.1704 15.8262 33.0615 16.1997 33.7207 16.9468C34.3848 17.6938 34.7168 18.7046 34.7168 19.979ZM28.6011 19.979C28.6011 21.0044 28.8062 21.7856 29.2163 22.3228C29.6265 22.8599 30.2295 23.1284 31.0254 23.1284C31.8213 23.1284 32.4243 22.8623 32.8345 22.3301C33.2495 21.793 33.457 21.0093 33.457 19.979C33.457 18.9585 33.2495 18.1846 32.8345 17.6572C32.4243 17.125 31.8164 16.8589 31.0107 16.8589C30.2148 16.8589 29.6143 17.1201 29.209 17.6426C28.8037 18.165 28.6011 18.9438 28.6011 19.979ZM42.2681 17.0127H39.6606V24H38.4448V17.0127H35.8667V15.9727H42.2681V17.0127ZM48.7939 24L48.5522 22.8574H48.4937C48.0933 23.3604 47.6929 23.7021 47.2925 23.8828C46.897 24.0586 46.4014 24.1465 45.8057 24.1465C45.0098 24.1465 44.3848 23.9414 43.9307 23.5312C43.4814 23.1211 43.2568 22.5376 43.2568 21.7808C43.2568 20.1597 44.5532 19.3101 47.146 19.2319L48.5083 19.188V18.6899C48.5083 18.0601 48.3716 17.5962 48.0981 17.2983C47.8296 16.9956 47.3975 16.8442 46.8018 16.8442C46.1328 16.8442 45.376 17.0493 44.5312 17.4595L44.1577 16.5293C44.5532 16.3145 44.9854 16.146 45.4541 16.0239C45.9277 15.9019 46.4014 15.8408 46.875 15.8408C47.832 15.8408 48.54 16.0532 48.999 16.478C49.4629 16.9028 49.6948 17.584 49.6948 18.5215V24H48.7939ZM46.0474 23.1431C46.8042 23.1431 47.3975 22.9355 47.8271 22.5205C48.2617 22.1055 48.479 21.5244 48.479 20.7773V20.0522L47.2632 20.1035C46.2964 20.1377 45.5981 20.2891 45.1685 20.5576C44.7437 20.8213 44.5312 21.2339 44.5312 21.7954C44.5312 22.2349 44.6631 22.5693 44.9268 22.7988C45.1953 23.0283 45.5688 23.1431 46.0474 23.1431ZM53.3057 21.0483H52.5366L52.1631 13.292H53.6792L53.3057 21.0483ZM52.0312 23.2236C52.0312 22.5596 52.3242 22.2275 52.9102 22.2275C53.1934 22.2275 53.4106 22.313 53.562 22.4839C53.7183 22.6548 53.7964 22.9014 53.7964 23.2236C53.7964 23.5361 53.7183 23.7803 53.562 23.9561C53.4058 24.127 53.1885 24.2124 52.9102 24.2124C52.6562 24.2124 52.4463 24.1367 52.2803 23.9854C52.1143 23.8291 52.0312 23.5752 52.0312 23.2236Z" fill="white"/>
      </svg>
