<svg width="24" height="15" viewBox="0 0 24 15" fill="none" xmlns="http://www.w3.org/2000/svg">
    <path fill-rule="evenodd" clip-rule="evenodd" d="M7 6.85718V9.25718H10.97C10.81 10.2862 9.77 12.2772 7 12.2772C4.61 12.2772 2.66 10.2982 2.66 7.85718C2.66 5.41718 4.61 3.43718 7 3.43718C8.36 3.43718 9.27 4.01718 9.79 4.51718L11.69 2.68718C10.47 1.54718 8.89 0.857178 7 0.857178C3.13 0.857178 0 3.98718 0 7.85718C0 11.7272 3.13 14.8572 7 14.8572C11.04 14.8572 13.721 12.0172 13.721 8.01718C13.721 7.55718 13.67 7.20718 13.61 6.85718H7ZM7 6.85718L24 8.85718H21V11.8572H19V8.85718H16V6.85718H19V3.85718H21V6.85718H24V8.85718L7 6.85718Z" fill="white"/>
</svg>
