<svg width="517" height="695" viewBox="0 0 517 695" fill="none" xmlns="http://www.w3.org/2000/svg">
    <path d="M63.2753 352.855C160.417 352.855 239.165 274.106 239.165 176.965C239.165 79.8239 160.417 1.07544 63.2753 1.07544C-33.8658 1.07544 -112.614 79.8239 -112.614 176.965C-112.614 274.106 -33.8658 352.855 63.2753 352.855Z" fill="#80D1DC"/>
    <path fill-rule="evenodd" clip-rule="evenodd" d="M17.919 5.92684C18.0979 5.68153 18.3562 5.50579 18.6501 5.42956C30.1478 2.44678 41.9707 0.622398 53.9892 0.00184315C54.9841 -0.0495284 55.6714 0.982687 55.2402 1.8808C53.1022 6.33411 51.037 10.6736 49.0407 14.9117L45.974 15.2639C45.5343 16.1996 45.098 17.1305 44.665 18.0565L9.82829 22.0578C10.4712 21.101 11.1182 20.1459 11.7692 19.1926L8.32652 19.5881C11.4307 14.9944 14.6282 10.4407 17.919 5.92684ZM8.32652 19.5881L-25.0191 23.4182C-25.1985 23.4388 -25.3718 23.4962 -25.5281 23.5869C-41.6544 32.9438 -56.2221 44.802 -68.6739 58.6835C-68.7884 58.8111 -68.8767 58.9599 -68.934 59.1214C-90.2002 119.116 -103.835 170.948 -109.834 214.625C-109.855 214.778 -109.849 214.934 -109.816 215.085C-104.089 241.206 -92.5131 265.547 -76.0679 286.448C-75.3837 287.318 -73.9965 287.003 -73.7553 285.923C-67.8117 259.317 -61.5235 221.6 -54.8876 172.761C-42.7809 118.482 -21.2102 68.2495 9.82829 22.0578L6.40777 22.4507C-24.1571 68.4168 -45.4482 118.35 -57.462 172.244L-57.4815 172.353C-63.8865 219.498 -69.9649 256.256 -75.714 282.617C-90.9629 262.588 -101.745 239.482 -107.202 214.75C-101.221 171.377 -87.6699 119.872 -66.5465 60.2434C-54.3773 46.7172 -40.1661 35.1483 -24.4469 25.9947L6.40759 22.4507C7.04323 21.4948 7.68287 20.5406 8.32652 19.5881ZM44.665 18.0565C29.5612 50.358 18.4957 76.8492 9.67226 103.222C9.56722 103.536 9.46293 103.851 9.35936 104.165C3.95697 120.588 0.622894 137.876 -1.20472 156.826C-2.53701 170.64 -2.90283 180.797 -3.2357 203.091C-3.50886 221.385 -3.85185 228.721 -5.08176 235.736C-6.57677 244.263 -9.26859 248.91 -13.7071 250.352C-36.3759 257.717 -41.624 289.632 -31.1423 326.547C-31.0534 326.86 -30.8515 327.129 -30.5757 327.301C-11.0033 339.545 10.7971 347.869 33.757 351.72C34.4484 351.835 35.1089 351.388 35.257 350.702C37.7332 339.253 38.7281 324.562 38.5868 305.41C38.4807 291.026 38.0112 280.13 36.358 248.652C35.6326 234.838 35.2487 227.012 34.9018 218.419C33.2479 177.454 34.077 148.557 38.6489 124.393C44.2626 94.7227 55.4554 74.9978 73.6923 65.5883C111.009 46.3343 156.058 45.4777 179.45 61.8485C190.949 69.8963 195.784 81.3153 192.714 94.9406C189.243 110.341 175.912 128.014 152.381 146.935C89.611 197.408 56.3252 265.978 52.5507 352.55C52.5193 353.269 53.0737 353.88 53.7929 353.918C56.9425 354.084 60.1041 354.167 63.2755 354.167C89.8356 354.167 115.568 348.319 139.05 337.195C139.49 336.986 139.778 336.552 139.799 336.066C141.271 302.905 146.868 273.185 159.053 244.547C174.695 207.787 200.211 176.103 237.757 150.481C238.176 150.195 238.393 149.694 238.314 149.193C227.777 82.2563 179.543 27.1122 115.033 7.44135C114.861 7.3888 114.68 7.37229 114.501 7.39285L49.0407 14.9117C48.5998 15.8476 48.1623 16.7785 47.7281 17.7047L44.665 18.0565ZM12.1619 104.055C21.0803 77.3983 32.3126 50.5883 47.7284 17.7049L114.528 10.0321C177.686 29.3991 224.962 83.302 235.59 148.784C197.998 174.61 172.377 206.53 156.638 243.519C144.411 272.253 138.751 302.026 137.213 335.158C114.273 345.898 89.1761 351.542 63.2756 351.542C60.5869 351.542 57.9055 351.481 55.2327 351.36C59.2505 266.144 92.1727 198.717 154.026 148.981C177.978 129.722 191.652 111.594 195.275 95.5177C198.587 80.82 193.302 68.3387 180.955 59.6977C156.684 42.7112 110.608 43.5874 72.4887 63.2553C53.4038 73.1023 41.8187 93.5186 36.0695 123.905C31.4512 148.314 30.6174 177.375 32.2788 218.525C32.6263 227.131 33.0105 234.965 33.7365 248.789C35.3874 280.224 35.856 291.101 35.9617 305.43C36.0966 323.719 35.188 337.868 32.9488 348.917C10.9543 345.065 -9.93722 337.039 -28.7542 325.343C-38.7139 289.832 -33.6521 259.593 -12.8958 252.848C-7.3035 251.031 -4.14102 245.572 -2.49592 236.189C-1.23213 228.981 -0.886253 221.584 -0.610718 203.13C-0.278893 180.906 0.0851364 170.798 1.40842 157.078C3.21855 138.309 6.51657 121.208 11.8532 104.986C11.9554 104.675 12.0583 104.365 12.1619 104.055ZM-54.9001 172.815L-54.8806 172.707L-54.888 172.761L-54.9001 172.815ZM45.9739 15.2636C47.8882 11.1897 49.8661 7.02278 51.9113 2.75169C40.9897 3.45336 30.2404 5.16572 19.7636 7.85337C17.034 11.6054 14.3691 15.3851 11.769 19.1924L45.9739 15.2636Z" fill="white"/>
    <path fill-rule="evenodd" clip-rule="evenodd" d="M265.417 282.411C265.417 328.082 302.244 365.106 347.673 365.106C393.103 365.106 429.93 328.082 429.93 282.411C429.93 236.741 393.103 199.717 347.673 199.717C302.244 199.717 265.417 236.741 265.417 282.411ZM401.928 282.412C401.928 312.535 377.637 336.955 347.673 336.955C317.709 336.955 293.419 312.535 293.419 282.412C293.419 252.288 317.709 227.869 347.673 227.869C377.637 227.869 401.928 252.288 401.928 282.412Z" fill="#8020FF"/>
    <path d="M297.794 92.958C297.069 92.958 296.482 92.3703 296.482 91.6454C296.482 90.9204 297.069 90.3328 297.794 90.3328H399.472C400.197 90.3328 400.784 90.9204 400.784 91.6454C400.784 92.3703 400.197 92.958 399.472 92.958H297.794Z" fill="black"/>
    <path d="M245.29 65.8308C244.565 65.8308 243.977 65.2431 243.977 64.5182C243.977 63.7932 244.565 63.2056 245.29 63.2056H399.472C400.197 63.2056 400.784 63.7932 400.784 64.5182C400.784 65.2431 400.197 65.8308 399.472 65.8308H245.29Z" fill="black"/>
    <path d="M118.614 183.091L132.776 233.596L114.904 231.22" fill="white"/>
    <path d="M118.192 183.209C118.127 182.976 118.263 182.735 118.495 182.669C118.728 182.604 118.97 182.74 119.035 182.973L133.197 233.478C133.282 233.78 133.029 234.071 132.718 234.029L114.846 231.653C114.606 231.622 114.438 231.402 114.47 231.162C114.501 230.923 114.721 230.754 114.961 230.786L132.175 233.074L118.192 183.209Z" fill="black"/>
    <path d="M93.9065 286.557C107.995 286.557 132.878 180.11 132.878 139.031C132.878 97.9511 81.6019 69.3311 40.5224 69.3311C-0.557236 69.3311 -38.3367 83.8186 -42.3298 157.186C-46.323 230.553 79.8181 286.557 93.9065 286.557Z" fill="white"/>
    <path fill-rule="evenodd" clip-rule="evenodd" d="M65.9299 277.056C78.9581 283.12 90.0395 286.994 93.9066 286.994C100.762 286.994 110.164 263.847 119.1 228.305C127.434 195.157 133.316 158.857 133.316 139.031C133.316 119.569 121.843 101.757 102.352 88.415C84.4591 76.1666 61.3078 68.8936 40.5224 68.8936C16.814 68.8936 -1.33498 73.739 -15.0941 85.4121C-31.4324 99.2734 -40.8813 122.522 -42.7667 157.162C-44.5441 189.82 -21.1257 221.565 18.7554 249.741C33.7434 260.331 50.3163 269.79 65.9299 277.056ZM118.251 228.092C109.492 262.93 100.074 286.119 93.9066 286.119C90.2151 286.119 79.2067 282.27 66.2993 276.263C50.7315 269.018 34.2039 259.585 19.2604 249.027C-20.3995 221.006 -43.6497 189.49 -41.8928 157.21C-40.0195 122.791 -30.6621 99.7675 -14.5279 86.0795C-0.952732 74.5624 17.0025 69.7687 40.5225 69.7687C61.1302 69.7687 84.1094 76.9877 101.858 89.1371C121.13 102.329 132.441 119.89 132.441 139.031C132.441 158.772 126.57 195.007 118.251 228.092Z" fill="black"/>
    <path d="M125.405 196.217C122.505 196.217 120.154 193.866 120.154 190.966C120.154 188.067 122.505 185.716 125.405 185.716C126.169 185.716 126.896 185.879 127.551 186.173C128.393 186.551 127.14 188.747 126.857 190.966C126.524 193.569 126.97 196.217 125.405 196.217Z" fill="black"/>
    <path d="M53.8552 254.895C53.3071 279.56 55.327 297.455 59.9151 308.582C29.972 322.685 -40.1508 325.305 -64.6909 299.321C-43.5526 276.209 -29.9554 246.732 -23.8994 210.89" fill="white"/>
    <path d="M53.4178 254.885C53.4232 254.644 53.6234 254.452 53.8649 254.458C54.1065 254.463 54.298 254.663 54.2926 254.905C53.7458 279.514 55.7598 297.357 60.3196 308.415C60.4086 308.631 60.3126 308.879 60.1016 308.978C44.9021 316.137 19.7294 320.245 -4.42892 319.421C-31.3755 318.502 -53.536 311.769 -65.009 299.621C-65.1664 299.455 -65.1685 299.195 -65.0137 299.026C-43.9346 275.979 -30.3733 246.579 -24.3308 210.817C-24.2906 210.579 -24.0648 210.418 -23.8265 210.459C-23.5882 210.499 -23.4277 210.725 -23.468 210.963C-29.5111 246.729 -43.0522 276.183 -64.0924 299.314C-52.7314 311.074 -30.9175 317.642 -4.39909 318.547C19.4314 319.36 44.2539 315.347 59.3531 308.362C54.8483 297.142 52.8747 279.322 53.4178 254.885Z" fill="black"/>
    <path d="M403.057 412.885C403.261 412.755 403.531 412.816 403.661 413.021C403.79 413.225 403.729 413.495 403.524 413.624C393.747 419.802 385.121 416.439 377.83 403.693C377.71 403.483 377.783 403.216 377.992 403.096C378.202 402.976 378.469 403.049 378.589 403.258C385.655 415.61 393.749 418.766 403.057 412.885Z" fill="black"/>
    <path d="M140.547 361.459L262.028 299.265C262.028 299.265 282.44 268.291 285.957 265.329C289.474 262.367 300.743 261.328 311.577 261.847C322.41 262.367 367.556 291.217 367.556 291.217C367.556 291.217 370.479 298.106 363.453 296.318C356.427 294.53 334.278 285.313 329.059 285.313C323.84 285.313 311.577 285.313 311.577 285.313C311.577 285.313 313.737 291.217 318.372 291.217C323.006 291.217 341.341 291.217 341.341 291.217C341.341 291.217 357.742 291.256 357.742 296.318C357.742 301.38 332.983 304.258 332.983 304.258C332.983 304.258 312.601 309.849 308.713 314.258C304.825 318.667 290.96 323.971 283.902 323.971C276.844 323.971 174.336 406.06 174.336 406.06L142.413 382.919L140.547 361.459Z" fill="white"/>
    <path fill-rule="evenodd" clip-rule="evenodd" d="M333.099 304.679C349.849 302.737 358.179 300.066 358.179 296.318C358.179 295.864 358.097 295.44 357.932 295.045C360.972 296.113 361.84 296.359 363.345 296.742C368.388 298.025 370.045 295.964 367.791 290.848C337.609 271.56 318.933 261.762 311.598 261.41C299.648 260.837 289.072 262.133 285.675 264.994C283.284 267.008 275.342 278.27 261.727 298.928L140.348 361.069C140.189 361.151 140.096 361.319 140.111 361.497C140.111 361.497 142.054 383.199 142.156 383.273C142.156 383.273 174.456 406.524 174.61 406.401C242.589 351.963 279.367 324.409 283.902 324.409C291.18 324.409 305.117 318.997 309.041 314.547C311.554 311.698 319.6 308.382 333.099 304.679ZM142.832 382.682L174.323 405.509C242.852 350.636 279.033 323.533 283.902 323.533C290.944 323.533 304.64 318.215 308.385 313.968C311.057 310.939 319.19 307.587 332.933 303.822C349.129 301.94 357.304 299.318 357.304 296.317C357.304 293.322 352.023 291.679 341.341 291.654H318.372C315.077 291.654 312.664 289.557 311.166 285.462C311.061 285.177 311.273 284.875 311.577 284.875H329.059C331.498 284.875 336.838 286.535 346.923 290.162C347.27 290.286 347.628 290.416 348.007 290.552C360.313 294.994 361.068 295.259 363.561 295.893C367.843 296.983 368.942 295.68 367.206 291.511C337.261 272.381 318.656 262.624 311.556 262.284C299.833 261.721 289.401 263 286.239 265.663C283.945 267.595 275.955 278.926 262.394 299.505C262.352 299.568 141.009 361.714 141.009 361.714L142.832 382.682ZM329.059 285.75H312.215C313.598 289.131 315.641 290.779 318.372 290.779H341.342C343.217 290.783 344.936 290.837 346.499 290.94C336.658 287.402 331.333 285.75 329.059 285.75Z" fill="black"/>
    <path d="M136.738 355.506L194.339 327.059C194.339 327.059 211.71 330.086 220.802 340.316C229.893 350.547 231.826 369.243 231.826 369.243L173.724 416.447L142.413 382.919L136.738 355.506Z" fill="white"/>
    <path fill-rule="evenodd" clip-rule="evenodd" d="M194.145 326.667L136.544 355.114C136.366 355.202 136.269 355.4 136.31 355.595C136.31 355.595 142.038 383.159 142.093 383.218L173.404 416.745C173.561 416.913 173.821 416.931 173.999 416.786L232.102 369.582C232.217 369.489 232.277 369.344 232.262 369.198C230.964 356.649 227.256 346.921 221.129 340.026C214.997 333.126 206.086 328.662 194.145 326.667ZM173.765 415.85L142.817 382.71L137.236 355.749L194.405 327.515C205.824 329.528 214.509 333.894 220.475 340.607C226.431 347.31 230.065 356.788 231.367 369.053L173.765 415.85Z" fill="black"/>
    <path d="M-147.764 333.039C-110.339 285.378 -104.269 299.219 -47.422 309.963C9.42531 320.707 115.118 293.13 163.312 364.515C182.888 393.511 154.92 570.083 154.92 570.083C154.92 570.083 -193.933 661.371 -179.694 570.083C-165.455 478.796 -130.293 510.677 -147.764 333.039Z" fill="white"/>
    <path fill-rule="evenodd" clip-rule="evenodd" d="M-90.2857 300.152C-100.376 298.381 -107.35 298.619 -114.203 301.343C-123.856 305.18 -133.531 314.204 -148.2 333.081C-143.036 385.586 -142.206 422.131 -145.055 448.864C-147.309 470.017 -151.131 483.035 -159.41 502.284C-159.784 503.152 -160.167 504.039 -160.682 505.225C-160.575 504.979 -161.671 507.505 -161.967 508.187C-163.016 510.611 -163.795 512.429 -164.561 514.254C-172.015 532.025 -176.619 547.529 -180.126 570.016C-184.927 600.796 -159.158 616.165 -103.16 616.165C-47.3446 616.165 38.7133 600.944 155.352 570.152C174.022 452.287 176.82 383.741 163.675 364.27C151.345 346.008 134.739 333.34 113.879 325.198C96.3061 318.339 76.2257 314.782 51.5457 313.38C39.6672 312.705 30.1155 312.564 9.28821 312.551C-21.674 312.532 -34.0878 312.038 -47.3403 309.533C-49.9548 309.039 -52.5508 308.521 -55.1667 307.975C-57.6118 307.465 -62.8838 306.258 -68.6637 304.935C-77.3434 302.948 -87.1684 300.699 -90.2857 300.152ZM-158.607 502.63C-150.296 483.306 -146.449 470.207 -144.185 448.956C-141.332 422.185 -142.158 385.635 -147.312 333.171C-132.884 314.813 -123.326 305.911 -113.88 302.156C-107.201 299.501 -100.381 299.269 -90.4373 301.014C-87.3442 301.557 -77.5652 303.795 -68.9016 305.778C-63.1046 307.105 -57.807 308.318 -55.3458 308.832C-52.7246 309.379 -50.1232 309.898 -47.5032 310.393C-34.176 312.912 -21.735 313.407 9.28737 313.426C30.0984 313.439 39.639 313.58 51.4957 314.254C76.0916 315.651 96.0865 319.193 113.561 326.013C134.261 334.093 150.723 346.651 162.95 364.76C175.896 383.936 173.114 452.341 154.532 569.732C38.4217 600.104 -47.4814 615.289 -103.16 615.289C-158.699 615.289 -183.953 600.228 -179.262 570.151C-175.766 547.738 -171.182 532.301 -163.754 514.592C-162.99 512.771 -162.212 510.956 -161.164 508.535C-160.869 507.853 -159.772 505.327 -159.879 505.574C-159.364 504.387 -158.98 503.499 -158.607 502.63Z" fill="black"/>
    <path d="M-46.9687 333.356C-82.123 322.496 -93.2066 300.751 -73.7935 304.42C-39.5931 310.884 38.6584 309.02 85.0607 317.638C30.6598 320.224 -11.8143 344.216 -46.9687 333.356Z" fill="black"/>
    <path d="M163.313 364.515C182.889 393.511 154.92 570.083 154.92 570.083C154.92 570.083 61.1867 589.042 23.4064 593.829C-36.4054 601.408 35.5765 595.92 55.2178 542.749C79.3268 477.484 139.755 329.622 163.313 364.515Z" fill="black"/>
    <path d="M119.042 332.532C133.3 330.781 148.396 338.074 168.494 356.733C198.332 384.436 163.391 398.822 193.072 556.906C201.973 604.315 152.322 613.873 96.165 587.048C102.764 533.593 92.4984 508.069 91.9437 462.523L119.042 332.532Z" fill="white"/>
    <path d="M168.901 599.393C187.984 594.224 196.854 579.42 192.642 556.987C181.904 499.795 178.753 458.866 179.884 420.841C180.01 416.608 181.183 392.622 181.126 387.463C181.026 378.429 179.741 372.466 176.429 366.868C174.503 363.612 171.84 360.437 168.196 357.054C148.266 338.55 133.257 331.227 119.095 332.966C118.855 332.996 118.637 332.825 118.608 332.585C118.578 332.346 118.749 332.127 118.989 332.098C133.462 330.321 148.691 337.751 168.791 356.413C172.494 359.85 175.209 363.088 177.182 366.423C180.583 372.171 181.899 378.278 182.001 387.453C182.058 392.644 180.884 416.658 180.758 420.867C179.629 458.829 182.775 499.696 193.502 556.825C197.797 579.7 188.661 594.947 169.13 600.237C150.431 605.302 123.759 600.714 95.9764 587.443C98.9785 560.687 98.5643 542.392 95.3941 513.066C95.2376 511.619 95.106 510.417 94.8266 507.877C92.4962 486.695 91.6794 476.747 91.5063 462.528C91.5033 462.287 91.6968 462.088 91.9384 462.085C92.1801 462.082 92.3783 462.276 92.3813 462.518C92.554 476.7 93.3689 486.626 95.6964 507.781C95.9759 510.321 96.1076 511.524 96.2641 512.972C99.4284 542.243 99.8532 560.571 96.6378 586.788C124.145 599.873 150.496 604.378 168.901 599.393Z" fill="black"/>
    <path d="M-85.0354 306.877C-85.0354 316.127 -44.6869 325.886 -29.3698 325.886C-14.0526 325.886 79.7076 315.673 79.7076 315.673L91.7913 319.951C91.7913 319.951 89.1898 304.426 64.6606 296.353C40.1313 288.28 -48.1778 283.623 -56.7865 279.316C-65.3953 275.008 -85.0354 297.627 -85.0354 306.877Z" fill="white"/>
    <path fill-rule="evenodd" clip-rule="evenodd" d="M-63.0722 320.269C-51.2134 323.822 -37.1989 326.323 -29.3698 326.323C-19.1399 326.323 17.1849 322.923 79.6556 316.119L91.6452 320.363C91.9595 320.475 92.2778 320.208 92.2227 319.879C90.4567 309.339 81.2886 301.365 64.7973 295.937C55.2985 292.811 36.9848 290.129 6.79008 286.908C5.73009 286.795 2.4383 286.454 -1.87685 286.008C-12.4109 284.919 -29.0436 283.2 -34.1943 282.617C-47.2256 281.14 -54.4744 279.984 -56.5908 278.925C-60.7838 276.827 -67.6121 280.539 -74.4559 287.71C-80.7963 294.354 -85.473 302.293 -85.473 306.877C-85.473 311.403 -76.8988 316.127 -63.0722 320.269ZM6.69692 287.778C36.8167 290.991 55.1091 293.67 64.5234 296.768C80.343 301.975 89.2182 309.486 91.2222 319.286L79.6598 315.239C17.1777 322.044 -19.1826 325.448 -29.3702 325.448C-37.1034 325.448 -51.0376 322.962 -62.8213 319.431C-76.2007 315.422 -84.5983 310.796 -84.5983 306.877C-84.5983 302.579 -80.0211 294.809 -73.8232 288.315C-67.2307 281.407 -60.6916 277.852 -56.9827 279.707C-54.7252 280.837 -47.4957 281.99 -34.2931 283.486C-29.1371 284.071 -12.4934 285.791 -1.95964 286.88C2.35127 287.325 5.63885 287.665 6.69692 287.778Z" fill="black"/>
    <path d="M-82.3646 159.217C-78.7524 237.57 -155.222 243.495 -166.953 271.21C-173.196 285.959 -156.5 288.437 -158.956 295.96C-169.562 328.454 -224.338 341.296 -193.052 373.682C-182.808 384.286 -207.396 409.433 -201.017 431.535C-193.458 457.722 -194.942 494.763 -125.095 487.019C-55.2491 479.275 5.10089 432.033 19.3924 414.317C28.8558 402.585 58.745 409.891 70.5898 379.452C82.4345 349.013 45.4849 351.971 42.5762 338.206C40.6136 328.918 65.8416 327.206 42.5762 295.96C36.1415 287.318 48.8459 186.674 64.4312 183.953C79.2556 181.365 75.8051 214.688 84.7711 209.5C86.2669 208.635 90.4482 173.173 91.92 172.374C109.169 163.01 120.359 155.77 129.746 149.637C134.16 146.753 127.01 178.524 129.746 176.149C149.077 159.371 218.267 85.3167 142.496 67.2547C121.07 62.1472 49.2998 13.2039 19.3924 22.0242C-10.5151 30.8446 -18.5154 51.7717 -23.1111 51.217C-50.5374 47.9063 -85.9768 80.8629 -82.3646 159.217Z" fill="black"/>
    <path d="M71.1505 189.86L63.3243 226.011C61.0088 227.63 57.5045 225.152 52.8115 218.576C45.772 208.713 50.4157 185.009 56.5106 182.675C60.5739 181.119 65.4539 183.514 71.1505 189.86Z" fill="white"/>
    <path d="M70.8316 190.152C65.2427 183.927 60.5226 181.61 56.6737 183.084C53.9262 184.136 51.2355 190.291 50.1756 197.863C49.0262 206.075 50.0109 213.89 53.1743 218.322C57.732 224.709 61.0624 227.064 63.0801 225.652C63.2782 225.514 63.551 225.562 63.6895 225.76C63.828 225.958 63.7797 226.231 63.5817 226.369C60.9685 228.197 57.2904 225.596 52.4621 218.831C49.1427 214.18 48.1315 206.154 49.309 197.742C50.4107 189.871 53.2071 183.475 56.3608 182.267C60.6386 180.629 65.6784 183.102 71.4828 189.568C71.6442 189.748 71.6293 190.024 71.4494 190.186C71.2696 190.347 70.993 190.332 70.8316 190.152Z" fill="black"/>
    <path d="M64.625 203.397C63.5025 200.897 62.5148 199.181 61.6782 198.263C60.9515 197.465 60.4844 197.358 60.0851 197.762C59.9153 197.934 59.6383 197.936 59.4663 197.766C59.2944 197.597 59.2926 197.32 59.4623 197.148C60.2835 196.316 61.3016 196.55 62.3251 197.674C63.2387 198.676 64.2659 200.46 65.4233 203.038C65.5223 203.259 65.4238 203.518 65.2034 203.617C64.9829 203.716 64.724 203.617 64.625 203.397Z" fill="black"/>
    <path d="M63.6131 192.118C59.1014 197.635 58.6743 204.666 62.364 213.277C62.4591 213.499 62.3562 213.756 62.1341 213.851C61.912 213.947 61.6548 213.844 61.5596 213.621C57.7505 204.731 58.1985 197.357 62.9357 191.564C63.0887 191.377 63.3643 191.35 63.5514 191.503C63.7384 191.656 63.7661 191.931 63.6131 192.118Z" fill="black"/>
    <path d="M105.027 245.035C105.026 244.793 105.222 244.597 105.463 244.596C105.705 244.595 105.901 244.791 105.902 245.032C105.918 250.488 107.807 253.104 111.608 253.104C111.85 253.104 112.046 253.3 112.046 253.541C112.046 253.783 111.85 253.979 111.608 253.979C107.251 253.979 105.045 250.923 105.027 245.035Z" fill="black"/>
    <path d="M389.628 256.181L421.023 283.472L403.588 303.529L372.193 276.237L366.098 255.285L389.628 256.181Z" fill="black"/>
    <path d="M387.226 257.365L418.621 284.656L401.186 304.713L369.791 277.421L365.314 255.923L387.226 257.365Z" fill="white"/>
    <path fill-rule="evenodd" clip-rule="evenodd" d="M418.908 284.326L387.513 257.034C387.441 256.972 387.35 256.934 387.255 256.928L365.343 255.487C365.054 255.468 364.827 255.729 364.886 256.013L369.363 277.511C369.382 277.604 369.432 277.689 369.504 277.752L400.899 305.043C401.082 305.201 401.358 305.182 401.516 305L418.951 284.943C419.11 284.761 419.091 284.484 418.908 284.326ZM370.189 277.188L365.86 256.398L387.05 257.791L418.004 284.699L401.143 304.095L370.189 277.188Z" fill="black"/>
    <path fill-rule="evenodd" clip-rule="evenodd" d="M356.62 311.582V306.293H351.33V302.766H356.62V290.409C364.165 287.651 369.55 280.41 369.55 271.91C369.55 261.036 360.735 252.221 349.861 252.221C338.987 252.221 330.172 261.036 330.172 271.91C330.172 280.41 335.557 287.651 343.102 290.409V334.909L356.62 320.398V315.109H351.33V311.582H356.62ZM354.857 264.858C354.857 267.617 352.62 269.853 349.861 269.853C347.102 269.853 344.865 267.617 344.865 264.858C344.865 262.099 347.102 259.862 349.861 259.862C352.62 259.862 354.857 262.099 354.857 264.858Z" fill="white"/>
    <path fill-rule="evenodd" clip-rule="evenodd" d="M357.058 306.293C357.058 306.051 356.862 305.855 356.62 305.855H351.768V303.204H356.62C356.862 303.204 357.058 303.008 357.058 302.766V290.712C364.773 287.759 369.988 280.327 369.988 271.91C369.988 260.795 360.977 251.784 349.861 251.784C338.745 251.784 329.734 260.795 329.734 271.91C329.734 280.327 334.949 287.759 342.665 290.712V334.909C342.665 335.306 343.151 335.498 343.422 335.207L356.94 320.697C357.016 320.616 357.058 320.509 357.058 320.399V315.109C357.058 314.867 356.862 314.671 356.62 314.671H351.768V312.02H356.62C356.862 312.02 357.058 311.824 357.058 311.583V306.293ZM350.893 306.293C350.893 306.535 351.089 306.731 351.331 306.731H356.183V311.145H351.331C351.089 311.145 350.893 311.341 350.893 311.583V315.109C350.893 315.351 351.089 315.547 351.331 315.547H356.183V320.226L356.3 320.101L356.182 320.399V320.227L343.54 333.798V290.409C343.54 290.225 343.425 290.061 343.252 289.998C335.722 287.246 330.61 280.061 330.61 271.91C330.61 261.278 339.229 252.659 349.861 252.659C360.494 252.659 369.113 261.278 369.113 271.91C369.113 280.061 364.001 287.246 356.47 289.998C356.297 290.061 356.183 290.225 356.183 290.409V302.329H351.331C351.089 302.329 350.893 302.525 350.893 302.767V306.293ZM356.182 311.583L356.62 311.145H356.182V311.583ZM349.861 270.291C346.86 270.291 344.428 267.858 344.428 264.858C344.428 261.857 346.86 259.424 349.861 259.424C352.862 259.424 355.294 261.857 355.294 264.858C355.294 267.858 352.862 270.291 349.861 270.291ZM354.419 264.858C354.419 267.375 352.379 269.416 349.861 269.416C347.344 269.416 345.303 267.375 345.303 264.858C345.303 262.34 347.344 260.299 349.861 260.299C352.379 260.299 354.419 262.34 354.419 264.858Z" fill="black"/>
    <path d="M318.372 291.217C321.461 291.217 329.118 291.217 341.34 291.217C352.275 291.243 357.742 292.943 357.742 296.318C357.742 299.692 349.489 302.339 332.983 304.258C319.395 307.985 311.305 311.319 308.713 314.258" fill="white"/>
    <path d="M318.372 291.654C318.13 291.654 317.934 291.458 317.934 291.217C317.934 290.975 318.13 290.779 318.372 290.779C325.289 290.779 325.289 290.779 341.342 290.779C352.526 290.806 358.179 292.564 358.179 296.318C358.179 300.066 349.849 302.738 333.099 304.68C319.6 308.383 311.554 311.698 309.041 314.547C308.881 314.729 308.605 314.746 308.424 314.586C308.242 314.426 308.225 314.15 308.385 313.969C311.056 310.939 319.19 307.588 332.933 303.823C349.129 301.94 357.304 299.319 357.304 296.318C357.304 293.323 352.023 291.68 341.34 291.654H318.372Z" fill="black"/>
    <path d="M354.374 265.724C354.542 265.898 354.538 266.175 354.364 266.343C354.191 266.511 353.914 266.507 353.746 266.333C344.494 256.797 342.587 250.538 348.454 247.827C354.092 245.222 361.868 247.619 371.791 254.931C371.986 255.074 372.027 255.348 371.884 255.542C371.741 255.737 371.467 255.778 371.272 255.635C361.58 248.494 354.093 246.185 348.821 248.622C343.777 250.953 345.486 256.563 354.374 265.724Z" fill="black"/>
    <path d="M369.348 266.755C369.114 266.815 368.876 266.673 368.817 266.439C368.758 266.204 368.899 265.966 369.134 265.907C369.919 265.708 370.323 264.967 370.323 263.546C370.323 263.305 370.519 263.109 370.761 263.109C371.003 263.109 371.198 263.305 371.198 263.546C371.198 265.325 370.589 266.441 369.348 266.755Z" fill="black"/>
    <path d="M230.413 692.626C224.634 693.045 218.798 693.258 212.912 693.258C83.022 693.258 -22.6564 589.595 -25.9059 460.488L101.093 460.488C104.49 519.053 153.058 565.497 212.474 565.497C218.581 565.497 224.573 565.006 230.413 564.062L230.413 692.626Z" fill="#F97259"/>
    <path fill-rule="evenodd" clip-rule="evenodd" d="M215.431 619.075L214.029 616.186C220.345 604.063 221.925 585.658 217.602 566.695C215.898 566.771 214.188 566.81 212.474 566.81C204.471 566.81 196.576 565.976 188.88 564.34L214.029 616.186C213.531 617.143 213.003 618.061 212.446 618.936L185.328 563.032C184.845 562.036 185.736 560.926 186.813 561.182C195.152 563.17 203.747 564.184 212.474 564.184C214.51 564.184 216.539 564.129 218.56 564.019C219.193 563.984 219.76 564.407 219.908 565.024C224.875 585.779 222.977 606.114 215.431 619.075ZM215.431 619.075L231.594 652.397C231.681 652.575 231.726 652.771 231.726 652.97V692.626C231.726 693.314 231.194 693.885 230.508 693.935C224.673 694.358 218.805 694.57 212.912 694.57C197.573 694.57 182.418 693.132 167.584 690.299C167.307 690.246 167.054 690.105 166.863 689.897C160.083 682.505 153.618 674.205 147.466 664.997C129.539 638.164 107.458 619.503 81.8709 607.635C61.5212 598.197 40.058 593.44 16.499 591.827C16.1015 591.8 15.738 591.594 15.5107 591.266C2.02269 571.854 -8.54387 550.55 -15.8002 527.992C-16.0727 527.145 -15.4411 526.278 -14.5512 526.278C55.2077 526.247 109.957 550.896 149.581 600.201C172.832 629.134 193.262 636.723 206.705 625.58C208.866 623.788 210.784 621.549 212.446 618.936L213.773 621.672C214.353 620.844 214.905 619.977 215.431 619.075ZM208.38 627.601C210.376 625.946 212.177 623.953 213.773 621.672L229.101 653.271V691.402C223.73 691.763 218.332 691.945 212.912 691.945C197.886 691.945 183.04 690.55 168.504 687.802C161.924 680.592 155.639 672.504 149.649 663.539C131.451 636.299 108.995 617.322 82.9755 605.254C62.4858 595.75 40.9183 590.927 17.3086 589.252C4.48091 570.686 -5.65077 550.381 -12.7407 528.908C55.3793 529.301 108.767 553.606 147.535 601.846C171.583 631.769 193.52 639.919 208.38 627.601ZM104.097 485.609C94.6223 484.498 84.3022 482.641 71.9801 479.712C38.8364 471.833 -16.7622 479.042 -21.5208 493.147C-21.1536 495.383 -20.7547 497.612 -20.3243 499.833C-19.1029 501.783 -17.1488 503.846 -14.4374 506.002C-8.1902 510.968 3.12119 513.505 20.0471 514.169C33.023 514.677 43.9181 514.308 74.3345 512.716C84.5137 512.184 90.2781 511.902 96.614 511.648C103.32 511.379 109.393 511.203 115.134 511.124C110.421 503.121 106.709 494.557 104.097 485.609ZM96.7196 514.271C104.301 513.966 111.068 513.782 117.454 513.722C118.476 513.713 119.095 512.591 118.559 511.721C113.25 503.114 109.146 493.81 106.38 484.047C106.235 483.535 105.794 483.161 105.264 483.101C95.6583 482.015 85.1882 480.153 72.5875 477.158C57.2047 473.501 34.5593 472.923 14.663 475.531C-6.95717 478.364 -21.7072 484.328 -24.1269 492.687C-24.181 492.874 -24.1929 493.071 -24.1616 493.263C-23.7636 495.707 -23.3282 498.142 -22.8555 500.568C-22.8261 500.719 -22.7703 500.864 -22.6908 500.996C-21.3011 503.298 -19.0995 505.649 -16.0708 508.056C-9.26071 513.47 2.49796 516.108 19.9445 516.792C33.0333 517.305 43.9638 516.934 74.4718 515.338C84.6411 514.806 90.3972 514.525 96.7196 514.271Z" fill="white"/>
    <path fill-rule="evenodd" clip-rule="evenodd" d="M328.595 543.35C329.963 546.346 331.402 549.364 333.455 553.577C340.31 567.647 340.738 568.546 342.861 573.6C344.444 577.369 345.666 580.731 346.527 583.777C357.769 583.234 370.551 583.362 384.613 584.279C450.305 588.564 486.765 588.564 492.49 584.517C493.082 584.099 493.901 584.24 494.32 584.832C494.738 585.424 494.597 586.243 494.005 586.661C487.485 591.27 451.464 591.27 384.442 586.899C370.684 586.002 358.181 585.869 347.192 586.373C347.57 588.044 347.827 589.616 347.962 591.109C349.026 602.89 342.283 609.494 326.152 610.645C313.904 611.519 304.353 610.296 299.058 607.399C293.516 604.367 293.064 599.549 298.002 595.389C305.067 589.435 321.114 585.265 343.836 583.921C343.018 581.14 341.887 578.06 340.441 574.617C338.346 569.63 337.918 568.732 331.095 554.727C329.033 550.496 327.586 547.461 326.207 544.441C321.014 533.073 317.902 524.104 316.867 516.247C296.778 515.188 270.259 512.101 237.217 507.062C236.5 506.952 236.008 506.283 236.117 505.566C236.227 504.849 236.896 504.357 237.613 504.466C270.367 509.462 296.698 512.5 316.592 513.581C316.516 512.555 316.479 511.547 316.479 510.553C316.479 492.909 326.455 484.18 340.523 485.562C353.017 486.79 364.311 495.819 364.311 505.764C364.311 514.276 349.5 517.722 319.536 516.377C320.595 523.814 323.607 532.431 328.595 543.35ZM299.694 597.396C296.161 600.373 296.403 602.954 300.318 605.096C305.085 607.704 314.175 608.868 325.966 608.027C340.727 606.973 346.269 601.545 345.348 591.345C345.212 589.843 344.939 588.238 344.528 586.51C322.079 587.781 306.342 591.795 299.694 597.396ZM361.686 505.764C361.686 511.005 351.774 514.029 331.603 514.029C327.825 514.029 323.702 513.924 319.236 513.715C319.148 512.638 319.104 511.586 319.104 510.553C319.104 494.482 327.721 486.942 340.267 488.175C351.556 489.285 361.686 497.382 361.686 505.764Z" fill="black"/>
    <path fill-rule="evenodd" clip-rule="evenodd" d="M496.874 571.623C496.874 577.181 501.379 581.686 506.937 581.686C512.495 581.686 517 577.181 517 571.623C517 566.065 512.495 561.56 506.937 561.56C501.379 561.56 496.874 566.065 496.874 571.623ZM514.375 571.623C514.375 575.731 511.045 579.061 506.937 579.061C502.829 579.061 499.499 575.731 499.499 571.623C499.499 567.515 502.829 564.185 506.937 564.185C511.045 564.185 514.375 567.515 514.375 571.623Z" fill="black"/>
    <path fill-rule="evenodd" clip-rule="evenodd" d="M203.724 501.617C203.724 507.175 208.23 511.68 213.788 511.68C219.346 511.68 223.851 507.175 223.851 501.617C223.851 496.059 219.346 491.554 213.788 491.554C208.23 491.554 203.724 496.059 203.724 501.617ZM221.226 501.617C221.226 505.725 217.896 509.055 213.788 509.055C209.68 509.055 206.35 505.725 206.35 501.617C206.35 497.509 209.68 494.179 213.788 494.179C217.896 494.179 221.226 497.509 221.226 501.617Z" fill="black"/>
</svg>
