<svg width="276" height="34" viewBox="0 0 276 34" fill="none" xmlns="http://www.w3.org/2000/svg">
    <path d="M53.5085 1.79878C55.5191 3.01485 57.1277 4.75208 58.2766 6.89468C59.4255 9.03728 60 11.4115 60 14.0753C60 14.8281 60 15.4072 59.9425 15.8125H37.0213C37.1936 18.7079 38.1128 21.1401 39.8362 23.2247C41.5596 25.2515 43.8574 26.2939 46.7872 26.2939C49.1426 26.2939 51.1532 25.8306 52.7042 24.962C54.2553 24.0355 55.5191 22.8194 56.4957 21.198L59.7128 23.3406C58.3915 25.4253 56.6681 27.0467 54.5426 28.2048C52.417 29.363 49.8319 30 46.9021 30C44.2021 30 41.7894 29.363 39.7213 28.089C37.5957 26.8151 35.9872 25.0199 34.7808 22.7615C33.5745 20.5031 33 17.8972 33 15.0018C33 12.1064 33.5745 9.55846 34.7808 7.24213C35.9298 4.98372 37.5957 3.18857 39.6638 1.91459C41.7319 0.640614 44.1447 0.00362768 46.7872 0.00362768C49.2574 -0.0542804 51.4979 0.582707 53.5085 1.79878ZM55.9787 12.4539C55.5766 9.55846 54.6 7.35795 53.0489 5.85234C51.4979 4.40464 49.3723 3.65183 46.7298 3.65183C44.1447 3.65183 42.0191 4.46255 40.4106 6.14188C38.7447 7.82121 37.7106 9.9059 37.3085 12.3959H55.9787V12.4539Z" fill="white"/>
    <path d="M67 29V1H86V4.69485H71.1636V29H67Z" fill="white"/>
    <path d="M118 0.984559V29.0734H113.867V24.9035C112.703 26.5251 111.247 27.7413 109.559 28.668C107.871 29.5946 106.008 30 104.029 30C101.351 30 98.9064 29.3629 96.8108 28.0888C94.657 26.8147 93.027 25.0193 91.8046 22.7606C90.5821 20.5019 90 17.8958 90 14.9421C90 12.0463 90.5821 9.49807 91.8046 7.23938C92.9688 4.98069 94.657 3.18533 96.7526 1.9112C98.8482 0.637067 101.293 0 103.971 0C106.008 0 107.929 0.463322 109.617 1.33205C111.306 2.25869 112.761 3.53282 113.925 5.15444V0.926644H118V0.984559ZM109.094 24.8456C110.607 23.861 111.771 22.529 112.644 20.8494C113.518 19.112 113.925 17.2008 113.925 15C113.925 12.8571 113.518 10.888 112.644 9.15058C111.771 7.41313 110.607 6.08108 109.094 5.09653C107.58 4.11197 105.892 3.64865 103.913 3.64865C101.992 3.64865 100.304 4.11197 98.8482 5.09653C97.3347 6.08108 96.1705 7.41313 95.3555 9.09267C94.4823 10.7722 94.0748 12.7413 94.0748 14.8842C94.0748 17.0849 94.4823 19.0541 95.3555 20.7915C96.2287 22.529 97.3929 23.861 98.8482 24.7876C100.362 25.7722 102.05 26.2355 103.913 26.2355C105.834 26.2934 107.58 25.8301 109.094 24.8456Z" fill="white"/>
    <path d="M123 1H149V4.7495H137.611V21.3879C137.611 22.9111 138.071 24.0828 138.934 24.9616C139.854 25.8404 141.004 26.2505 142.558 26.2505H146.124V30H142.558C139.796 30 137.553 29.1798 135.942 27.6566C134.332 26.0747 133.527 23.9071 133.527 21.0949V4.7495H123V1Z" fill="white"/>
    <path d="M159.811 28.0857C157.657 26.8117 156.027 25.0165 154.805 22.7002C153.582 20.3838 153 17.7779 153 14.9404C153 12.045 153.582 9.49701 154.805 7.23857C155.969 4.98014 157.657 3.18497 159.753 1.91099C161.848 0.636996 164.293 0 166.971 0C169.649 0 172.094 0.636996 174.189 1.91099C176.343 3.18497 177.973 4.98014 179.195 7.23857C180.418 9.49701 181 12.1029 181 14.9983C181 17.8938 180.418 20.4417 179.195 22.7581C178.031 25.0165 176.343 26.8117 174.247 28.0857C172.152 29.3597 169.707 29.9967 167.029 29.9967C164.351 30.0546 161.965 29.3597 159.811 28.0857ZM172.094 24.8428C173.607 23.8583 174.771 22.5264 175.644 20.8471C176.518 19.1098 176.925 17.1989 176.925 14.9983C176.925 12.8557 176.518 10.8868 175.644 9.14956C174.771 7.4123 173.607 6.0804 172.094 5.09596C170.58 4.11151 168.892 3.64824 166.913 3.64824C164.992 3.64824 163.304 4.11151 161.848 5.09596C160.335 6.0804 159.17 7.4123 158.356 9.09165C157.482 10.771 157.075 12.7399 157.075 14.8825C157.075 17.083 157.482 19.0519 158.356 20.7892C159.229 22.5264 160.393 23.8583 161.848 24.7849C163.362 25.7693 165.05 26.2326 166.913 26.2326C168.834 26.2905 170.58 25.8272 172.094 24.8428Z" fill="white"/>
    <path d="M3.0314 1V4.68724H7.28699V7.51028C7.28699 13.5021 6.82063 17.9383 5.8296 20.8765C4.83856 23.8148 3.55606 25.2551 1.86548 25.2551H0V28.9424H1.69059C5.24664 28.9424 7.69507 27.0988 9.09417 23.4691C10.4933 19.7819 11.1928 14.8848 11.1928 8.66255V4.74486H21.861V29H26V1.05761H3.0314V1Z" fill="white"/>
    <path d="M208.888 2.46225H205.675V11.0733H204.177V2.46225H201V1.18053H208.888V2.46225Z" fill="white"/>
    <path d="M216.93 11.0733L216.632 9.66521H216.56C216.066 10.285 215.573 10.7062 215.079 10.9289C214.592 11.1455 213.981 11.2538 213.247 11.2538C212.267 11.2538 211.496 11.0011 210.937 10.4956C210.383 9.99015 210.106 9.27106 210.106 8.33835C210.106 6.34054 211.704 5.29349 214.899 5.19721L216.578 5.14305V4.52927C216.578 3.75301 216.409 3.18135 216.072 2.81428C215.741 2.44119 215.209 2.25465 214.475 2.25465C213.65 2.25465 212.718 2.50739 211.677 3.01286L211.217 1.86652C211.704 1.60175 212.236 1.39415 212.814 1.24371C213.398 1.09327 213.981 1.01805 214.565 1.01805C215.744 1.01805 216.617 1.27981 217.182 1.80334C217.754 2.32686 218.04 3.1663 218.04 4.32166V11.0733H216.93ZM213.545 10.0172C214.478 10.0172 215.209 9.76149 215.738 9.25C216.274 8.73851 216.542 8.02243 216.542 7.10175V6.20815L215.043 6.27134C213.852 6.31346 212.992 6.5 212.462 6.83096C211.939 7.15591 211.677 7.66439 211.677 8.3564C211.677 8.89798 211.839 9.31017 212.164 9.593C212.495 9.87582 212.955 10.0172 213.545 10.0172Z" fill="white"/>
    <path d="M229.89 11.2538C228.458 11.2538 227.348 10.8146 226.56 9.936C225.777 9.05142 225.386 7.80279 225.386 6.1901C225.386 4.53528 225.783 3.25656 226.578 2.35394C227.378 1.45131 228.515 1 229.989 1C230.465 1 230.94 1.05115 231.415 1.15345C231.89 1.25574 232.264 1.37609 232.534 1.5145L232.074 2.7872C231.743 2.65481 231.382 2.5465 230.991 2.46225C230.6 2.37199 230.254 2.32686 229.953 2.32686C227.943 2.32686 226.939 3.60859 226.939 6.17205C226.939 7.38758 227.182 8.3203 227.67 8.97019C228.163 9.62008 228.891 9.94502 229.854 9.94502C230.678 9.94502 231.523 9.76751 232.39 9.41247V10.7393C231.728 11.0823 230.895 11.2538 229.89 11.2538Z" fill="white"/>
    <path d="M240.829 11.0733L240.531 9.66521H240.458C239.965 10.285 239.472 10.7062 238.978 10.9289C238.491 11.1455 237.88 11.2538 237.146 11.2538C236.165 11.2538 235.395 11.0011 234.836 10.4956C234.282 9.99015 234.005 9.27106 234.005 8.33835C234.005 6.34054 235.603 5.29349 238.798 5.19721L240.477 5.14305V4.52927C240.477 3.75301 240.308 3.18135 239.971 2.81428C239.64 2.44119 239.108 2.25465 238.374 2.25465C237.549 2.25465 236.617 2.50739 235.576 3.01286L235.116 1.86652C235.603 1.60175 236.135 1.39415 236.713 1.24371C237.297 1.09327 237.88 1.01805 238.464 1.01805C239.643 1.01805 240.516 1.27981 241.081 1.80334C241.653 2.32686 241.939 3.1663 241.939 4.32166V11.0733H240.829ZM237.444 10.0172C238.377 10.0172 239.108 9.76149 239.637 9.25C240.173 8.73851 240.44 8.02243 240.44 7.10175V6.20815L238.942 6.27134C237.751 6.31346 236.89 6.5 236.361 6.83096C235.838 7.15591 235.576 7.66439 235.576 8.3564C235.576 8.89798 235.738 9.31017 236.063 9.593C236.394 9.87582 236.854 10.0172 237.444 10.0172Z" fill="white"/>
    <path d="M250.17 9.6291L250.449 8.78966L250.838 7.72456L253.518 1.19858H255.422V11.0733H254.096V2.90454L253.915 3.42806L253.392 4.80908L250.838 11.0733H249.583L247.029 4.79103C246.71 3.98468 246.49 3.35585 246.37 2.90454V11.0733H245.034V1.19858H246.866L249.457 7.47183C249.715 8.13375 249.953 8.85284 250.17 9.6291Z" fill="white"/>
    <path d="M264.709 11.0733L264.412 9.66521H264.339C263.846 10.285 263.353 10.7062 262.859 10.9289C262.372 11.1455 261.761 11.2538 261.027 11.2538C260.046 11.2538 259.276 11.0011 258.717 10.4956C258.163 9.99015 257.886 9.27106 257.886 8.33835C257.886 6.34054 259.484 5.29349 262.679 5.19721L264.357 5.14305V4.52927C264.357 3.75301 264.189 3.18135 263.852 2.81428C263.521 2.44119 262.989 2.25465 262.255 2.25465C261.43 2.25465 260.498 2.50739 259.457 3.01286L258.996 1.86652C259.484 1.60175 260.016 1.39415 260.594 1.24371C261.177 1.09327 261.761 1.01805 262.345 1.01805C263.524 1.01805 264.397 1.27981 264.962 1.80334C265.534 2.32686 265.819 3.1663 265.819 4.32166V11.0733H264.709ZM261.325 10.0172C262.258 10.0172 262.989 9.76149 263.518 9.25C264.054 8.73851 264.321 8.02243 264.321 7.10175V6.20815L262.823 6.27134C261.632 6.31346 260.771 6.5 260.242 6.83096C259.718 7.15591 259.457 7.66439 259.457 8.3564C259.457 8.89798 259.619 9.31017 259.944 9.593C260.275 9.87582 260.735 10.0172 261.325 10.0172Z" fill="white"/>
    <path d="M269.412 11.0733H267.661L270.504 6.89415C269.739 6.72566 269.153 6.40071 268.744 5.91931C268.341 5.43189 268.139 4.82112 268.139 4.08698C268.139 3.18435 268.443 2.47429 269.051 1.95678C269.658 1.43928 270.507 1.18053 271.596 1.18053H276V11.0733H274.502V7.1198H272.002L269.412 11.0733ZM269.601 4.10503C269.601 5.24836 270.431 5.82002 272.092 5.82002H274.502V2.48031H271.785C270.329 2.48031 269.601 3.02188 269.601 4.10503Z" fill="white"/>
    <path d="M206.821 29.7396C206.177 29.7396 205.588 29.6223 205.052 29.3876C204.523 29.1469 204.078 28.7798 203.717 28.2864H203.608C203.681 28.8641 203.717 29.4117 203.717 29.9292V34H202.218V19.6663H203.437L203.644 21.0202H203.717C204.102 20.4787 204.55 20.0875 205.061 19.8468C205.573 19.6061 206.159 19.4858 206.821 19.4858C208.133 19.4858 209.144 19.9341 209.854 20.8307C210.57 21.7273 210.928 22.985 210.928 24.6037C210.928 26.2284 210.564 27.4921 209.836 28.3947C209.114 29.2913 208.109 29.7396 206.821 29.7396ZM206.605 20.7585C205.594 20.7585 204.863 21.0383 204.412 21.5979C203.96 22.1576 203.729 23.0481 203.717 24.2697V24.6037C203.717 25.9937 203.948 26.9896 204.412 27.5914C204.875 28.1871 205.618 28.485 206.641 28.485C207.495 28.485 208.163 28.139 208.644 27.4469C209.132 26.7549 209.375 25.8011 209.375 24.5856C209.375 23.352 209.132 22.4073 208.644 21.7514C208.163 21.0894 207.483 20.7585 206.605 20.7585Z" fill="white"/>
    <path d="M219.637 29.5591L219.339 28.151H219.267C218.774 28.7708 218.28 29.192 217.787 29.4147C217.3 29.6313 216.689 29.7396 215.955 29.7396C214.974 29.7396 214.204 29.4869 213.644 28.9814C213.091 28.4759 212.814 27.7568 212.814 26.8241C212.814 24.8263 214.412 23.7793 217.606 23.683L219.285 23.6288V23.015C219.285 22.2388 219.117 21.6671 218.78 21.3001C218.449 20.927 217.916 20.7404 217.182 20.7404C216.358 20.7404 215.425 20.9932 214.384 21.4986L213.924 20.3523C214.412 20.0875 214.944 19.8799 215.522 19.7295C216.105 19.579 216.689 19.5038 217.273 19.5038C218.452 19.5038 219.324 19.7656 219.89 20.2891C220.461 20.8126 220.747 21.6521 220.747 22.8074V29.5591H219.637ZM216.253 28.503C217.185 28.503 217.916 28.2473 218.446 27.7358C218.981 27.2243 219.249 26.5082 219.249 25.5875V24.6939L217.751 24.7571C216.56 24.7992 215.699 24.9858 215.17 25.3167C214.646 25.6417 214.384 26.1502 214.384 26.8422C214.384 27.3838 214.547 27.796 214.872 28.0788C215.203 28.3616 215.663 28.503 216.253 28.503Z" fill="white"/>
    <path d="M223.329 23.6288C223.329 21.4625 223.647 19.7746 224.285 18.5651C224.923 17.3496 225.934 16.5914 227.318 16.2905C229.039 15.9234 230.555 15.6255 231.866 15.3969L232.146 16.7147C230.058 17.0637 228.566 17.3405 227.67 17.5451C226.797 17.7437 226.141 18.2131 225.702 18.9532C225.269 19.6934 225.031 20.7013 224.989 21.977H225.097C225.471 21.4716 225.952 21.0744 226.542 20.7856C227.131 20.4967 227.748 20.3523 228.392 20.3523C229.607 20.3523 230.555 20.7464 231.235 21.5347C231.915 22.323 232.255 23.4152 232.255 24.8113C232.255 26.3578 231.86 27.5673 231.072 28.4398C230.284 29.3063 229.186 29.7396 227.778 29.7396C226.388 29.7396 225.299 29.2071 224.511 28.142C223.723 27.0769 223.329 25.5725 223.329 23.6288ZM227.913 28.485C229.748 28.485 230.666 27.3146 230.666 24.9737C230.666 22.7412 229.833 21.625 228.166 21.625C227.709 21.625 227.267 21.7213 226.839 21.9138C226.418 22.1004 226.03 22.3501 225.675 22.663C225.326 22.9759 225.055 23.2979 224.863 23.6288C224.863 25.2114 225.113 26.4179 225.612 27.2484C226.111 28.0728 226.878 28.485 227.913 28.485Z" fill="white"/>
    <path d="M243.41 24.6037C243.41 26.2164 243.004 27.477 242.191 28.3857C241.379 29.2883 240.257 29.7396 238.825 29.7396C237.94 29.7396 237.155 29.532 236.469 29.1168C235.783 28.7016 235.254 28.1059 234.881 27.3296C234.508 26.5533 234.321 25.6447 234.321 24.6037C234.321 22.991 234.724 21.7363 235.531 20.8397C236.337 19.9371 237.456 19.4858 238.888 19.4858C240.272 19.4858 241.37 19.9461 242.182 20.8668C243.001 21.7875 243.41 23.0331 243.41 24.6037ZM235.874 24.6037C235.874 25.8673 236.126 26.8301 236.632 27.4921C237.137 28.154 237.88 28.485 238.861 28.485C239.842 28.485 240.585 28.157 241.09 27.5011C241.602 26.8392 241.857 25.8734 241.857 24.6037C241.857 23.346 241.602 22.3922 241.09 21.7423C240.585 21.0864 239.836 20.7585 238.843 20.7585C237.862 20.7585 237.122 21.0804 236.623 21.7243C236.123 22.3682 235.874 23.328 235.874 24.6037Z" fill="white"/>
    <path d="M252.715 20.948H249.502V29.5591H248.004V20.948H244.827V19.6663H252.715V20.948Z" fill="white"/>
    <path d="M260.756 29.5591L260.458 28.151H260.386C259.893 28.7708 259.4 29.192 258.906 29.4147C258.419 29.6313 257.808 29.7396 257.074 29.7396C256.093 29.7396 255.323 29.4869 254.764 28.9814C254.21 28.4759 253.933 27.7568 253.933 26.8241C253.933 24.8263 255.531 23.7793 258.726 23.683L260.404 23.6288V23.015C260.404 22.2388 260.236 21.6671 259.899 21.3001C259.568 20.927 259.035 20.7404 258.301 20.7404C257.477 20.7404 256.545 20.9932 255.504 21.4986L255.043 20.3523C255.531 20.0875 256.063 19.8799 256.641 19.7295C257.224 19.579 257.808 19.5038 258.392 19.5038C259.571 19.5038 260.443 19.7656 261.009 20.2891C261.581 20.8126 261.866 21.6521 261.866 22.8074V29.5591H260.756ZM257.372 28.503C258.304 28.503 259.035 28.2473 259.565 27.7358C260.1 27.2243 260.368 26.5082 260.368 25.5875V24.6939L258.87 24.7571C257.679 24.7992 256.818 24.9858 256.289 25.3167C255.765 25.6417 255.504 26.1502 255.504 26.8422C255.504 27.3838 255.666 27.796 255.991 28.0788C256.322 28.3616 256.782 28.503 257.372 28.503Z" fill="white"/>
    <path d="M266.316 25.9215H265.368L264.908 16.3627H266.776L266.316 25.9215ZM264.745 28.6023C264.745 27.7839 265.106 27.3747 265.829 27.3747C266.177 27.3747 266.445 27.48 266.632 27.6906C266.824 27.9013 266.921 28.2051 266.921 28.6023C266.921 28.9874 266.824 29.2883 266.632 29.5049C266.439 29.7155 266.171 29.8208 265.829 29.8208C265.516 29.8208 265.257 29.7276 265.052 29.541C264.848 29.3485 264.745 29.0356 264.745 28.6023Z" fill="white"/>
</svg>
