<svg width="570" height="270" viewBox="0 0 570 270" fill="none" xmlns="http://www.w3.org/2000/svg">
    <path d="M71.1035 233H69.4434V220.197H64.9219V218.723H75.625V220.197H71.1035V233ZM86.2207 224.982C86.2207 225.679 86.0189 226.21 85.6152 226.574C85.2181 226.932 84.6582 227.173 83.9355 227.297V227.385C84.847 227.508 85.5111 227.775 85.9277 228.186C86.3509 228.596 86.5625 229.162 86.5625 229.885C86.5625 230.881 86.1947 231.649 85.459 232.189C84.7298 232.73 83.6621 233 82.2559 233H77.5391V222.297H82.2363C84.8926 222.297 86.2207 223.192 86.2207 224.982ZM84.9414 229.777C84.9414 229.198 84.7201 228.778 84.2773 228.518C83.8411 228.251 83.1152 228.117 82.0996 228.117H79.1602V231.643H82.1387C84.0072 231.643 84.9414 231.021 84.9414 229.777ZM84.6387 225.139C84.6387 224.618 84.4368 224.25 84.0332 224.035C83.6361 223.814 83.0306 223.703 82.2168 223.703H79.1602V226.721H81.9043C82.9069 226.721 83.6133 226.597 84.0234 226.35C84.4336 226.102 84.6387 225.699 84.6387 225.139ZM98.1641 227.639C98.1641 229.383 97.7246 230.747 96.8457 231.73C95.9668 232.707 94.7526 233.195 93.2031 233.195C92.2461 233.195 91.3965 232.971 90.6543 232.521C89.9121 232.072 89.3392 231.428 88.9355 230.588C88.5319 229.748 88.3301 228.765 88.3301 227.639C88.3301 225.894 88.7663 224.536 89.6387 223.566C90.5111 222.59 91.722 222.102 93.2715 222.102C94.7689 222.102 95.957 222.6 96.8359 223.596C97.7214 224.592 98.1641 225.939 98.1641 227.639ZM90.0098 227.639C90.0098 229.006 90.2832 230.048 90.8301 230.764C91.377 231.48 92.181 231.838 93.2422 231.838C94.3034 231.838 95.1074 231.483 95.6543 230.773C96.2077 230.057 96.4844 229.012 96.4844 227.639C96.4844 226.278 96.2077 225.246 95.6543 224.543C95.1074 223.833 94.2969 223.479 93.2227 223.479C92.1615 223.479 91.3607 223.827 90.8203 224.523C90.2799 225.22 90.0098 226.258 90.0098 227.639ZM102.539 222.297V229.084L102.471 230.861L102.441 231.418L108.232 222.297H110.254V233H108.74V226.457L108.77 225.168L108.818 223.898L103.037 233H101.016V222.297H102.539ZM105.596 220.881C104.391 220.881 103.512 220.65 102.959 220.188C102.406 219.719 102.096 218.951 102.031 217.883H103.555C103.613 218.56 103.789 219.032 104.082 219.299C104.382 219.566 104.899 219.699 105.635 219.699C106.305 219.699 106.8 219.556 107.119 219.27C107.445 218.983 107.643 218.521 107.715 217.883H109.248C109.17 218.911 108.841 219.67 108.262 220.158C107.682 220.64 106.794 220.881 105.596 220.881ZM128.125 227.639C128.125 229.383 127.686 230.747 126.807 231.73C125.928 232.707 124.714 233.195 123.164 233.195C122.207 233.195 121.357 232.971 120.615 232.521C119.873 232.072 119.3 231.428 118.896 230.588C118.493 229.748 118.291 228.765 118.291 227.639C118.291 225.894 118.727 224.536 119.6 223.566C120.472 222.59 121.683 222.102 123.232 222.102C124.73 222.102 125.918 222.6 126.797 223.596C127.682 224.592 128.125 225.939 128.125 227.639ZM119.971 227.639C119.971 229.006 120.244 230.048 120.791 230.764C121.338 231.48 122.142 231.838 123.203 231.838C124.264 231.838 125.068 231.483 125.615 230.773C126.169 230.057 126.445 229.012 126.445 227.639C126.445 226.278 126.169 225.246 125.615 224.543C125.068 223.833 124.258 223.479 123.184 223.479C122.122 223.479 121.322 223.827 120.781 224.523C120.241 225.22 119.971 226.258 119.971 227.639ZM138.193 223.684H134.717V233H133.096V223.684H129.658V222.297H138.193V223.684ZM148.994 224.982C148.994 225.679 148.792 226.21 148.389 226.574C147.992 226.932 147.432 227.173 146.709 227.297V227.385C147.62 227.508 148.285 227.775 148.701 228.186C149.124 228.596 149.336 229.162 149.336 229.885C149.336 230.881 148.968 231.649 148.232 232.189C147.503 232.73 146.436 233 145.029 233H140.312V222.297H145.01C147.666 222.297 148.994 223.192 148.994 224.982ZM147.715 229.777C147.715 229.198 147.493 228.778 147.051 228.518C146.615 228.251 145.889 228.117 144.873 228.117H141.934V231.643H144.912C146.781 231.643 147.715 231.021 147.715 229.777ZM147.412 225.139C147.412 224.618 147.21 224.25 146.807 224.035C146.41 223.814 145.804 223.703 144.99 223.703H141.934V226.721H144.678C145.68 226.721 146.387 226.597 146.797 226.35C147.207 226.102 147.412 225.699 147.412 225.139ZM156.221 233.195C154.639 233.195 153.389 232.714 152.471 231.75C151.559 230.786 151.104 229.449 151.104 227.736C151.104 226.011 151.527 224.641 152.373 223.625C153.226 222.609 154.368 222.102 155.801 222.102C157.142 222.102 158.203 222.544 158.984 223.43C159.766 224.309 160.156 225.471 160.156 226.916V227.941H152.783C152.816 229.198 153.132 230.152 153.73 230.803C154.336 231.454 155.186 231.779 156.279 231.779C157.432 231.779 158.571 231.538 159.697 231.057V232.502C159.124 232.749 158.581 232.925 158.066 233.029C157.559 233.14 156.943 233.195 156.221 233.195ZM155.781 223.459C154.922 223.459 154.235 223.739 153.721 224.299C153.213 224.859 152.913 225.633 152.822 226.623H158.418C158.418 225.601 158.19 224.82 157.734 224.279C157.279 223.732 156.628 223.459 155.781 223.459ZM170.146 223.684H166.67V233H165.049V223.684H161.611V222.297H170.146V223.684ZM179.082 233H177.461V222.297H186.445V233H184.805V223.703H179.082V233ZM194.863 233.195C194.167 233.195 193.529 233.068 192.949 232.814C192.376 232.554 191.895 232.157 191.504 231.623H191.387C191.465 232.248 191.504 232.84 191.504 233.4V237.805H189.883V222.297H191.201L191.426 223.762H191.504C191.921 223.176 192.406 222.753 192.959 222.492C193.512 222.232 194.147 222.102 194.863 222.102C196.283 222.102 197.376 222.587 198.145 223.557C198.919 224.527 199.307 225.887 199.307 227.639C199.307 229.396 198.913 230.764 198.125 231.74C197.344 232.71 196.257 233.195 194.863 233.195ZM194.629 223.479C193.535 223.479 192.744 223.781 192.256 224.387C191.768 224.992 191.517 225.956 191.504 227.277V227.639C191.504 229.143 191.755 230.22 192.256 230.871C192.757 231.516 193.561 231.838 194.668 231.838C195.592 231.838 196.315 231.464 196.836 230.715C197.363 229.966 197.627 228.934 197.627 227.619C197.627 226.285 197.363 225.262 196.836 224.553C196.315 223.837 195.579 223.479 194.629 223.479ZM203.672 222.297V229.084L203.604 230.861L203.574 231.418L209.365 222.297H211.387V233H209.873V226.457L209.902 225.168L209.951 223.898L204.17 233H202.148V222.297H203.672ZM216.445 222.297V226.779H222.441V222.297H224.062V233H222.441V228.176H216.445V233H214.824V222.297H216.445ZM228.037 233H226.143L229.219 228.479C228.392 228.296 227.757 227.945 227.314 227.424C226.878 226.896 226.66 226.236 226.66 225.441C226.66 224.465 226.989 223.697 227.646 223.137C228.304 222.577 229.222 222.297 230.4 222.297H235.166V233H233.545V228.723H230.84L228.037 233ZM228.242 225.461C228.242 226.698 229.141 227.316 230.938 227.316H233.545V223.703H230.605C229.03 223.703 228.242 224.289 228.242 225.461ZM245.83 223.684H242.354V233H240.732V223.684H237.295V222.297H245.83V223.684ZM254.668 222.297V229.084L254.6 230.861L254.57 231.418L260.361 222.297H262.383V233H260.869V226.457L260.898 225.168L260.947 223.898L255.166 233H253.145V222.297H254.668ZM276.572 231.438L276.875 230.529L277.295 229.377L280.195 222.316H282.256V233H280.82V224.162L280.625 224.729L280.059 226.223L277.295 233H275.938L273.174 226.203C272.829 225.331 272.591 224.65 272.461 224.162V233H271.016V222.316H272.998L275.801 229.104C276.081 229.82 276.338 230.598 276.572 231.438ZM287.344 226.721H290.264C291.624 226.721 292.63 226.975 293.281 227.482C293.939 227.984 294.268 228.736 294.268 229.738C294.268 230.812 293.919 231.626 293.223 232.18C292.533 232.727 291.514 233 290.166 233H285.723V222.297H287.344V226.721ZM297.686 233H296.064V222.297H297.686V233ZM287.344 228.117V231.643H290.088C291.807 231.643 292.666 231.04 292.666 229.836C292.666 229.237 292.467 228.801 292.07 228.527C291.673 228.254 290.996 228.117 290.039 228.117H287.344ZM315.566 227.639C315.566 229.383 315.127 230.747 314.248 231.73C313.369 232.707 312.155 233.195 310.605 233.195C309.648 233.195 308.799 232.971 308.057 232.521C307.314 232.072 306.742 231.428 306.338 230.588C305.934 229.748 305.732 228.765 305.732 227.639C305.732 225.894 306.169 224.536 307.041 223.566C307.913 222.59 309.124 222.102 310.674 222.102C312.171 222.102 313.359 222.6 314.238 223.596C315.124 224.592 315.566 225.939 315.566 227.639ZM307.412 227.639C307.412 229.006 307.686 230.048 308.232 230.764C308.779 231.48 309.583 231.838 310.645 231.838C311.706 231.838 312.51 231.483 313.057 230.773C313.61 230.057 313.887 229.012 313.887 227.639C313.887 226.278 313.61 225.246 313.057 224.543C312.51 223.833 311.699 223.479 310.625 223.479C309.564 223.479 308.763 223.827 308.223 224.523C307.682 225.22 307.412 226.258 307.412 227.639ZM319.844 222.297V226.203C319.844 227.453 320.557 228.078 321.982 228.078C322.575 228.078 323.141 227.987 323.682 227.805C324.222 227.622 324.834 227.313 325.518 226.877V222.297H327.139V233H325.518V228.156C324.834 228.625 324.199 228.957 323.613 229.152C323.034 229.341 322.376 229.436 321.641 229.436C320.573 229.436 319.736 229.156 319.131 228.596C318.525 228.036 318.223 227.277 318.223 226.32V222.297H319.844ZM335.107 233.195C333.525 233.195 332.275 232.714 331.357 231.75C330.446 230.786 329.99 229.449 329.99 227.736C329.99 226.011 330.413 224.641 331.26 223.625C332.113 222.609 333.255 222.102 334.688 222.102C336.029 222.102 337.09 222.544 337.871 223.43C338.652 224.309 339.043 225.471 339.043 226.916V227.941H331.67C331.702 229.198 332.018 230.152 332.617 230.803C333.223 231.454 334.072 231.779 335.166 231.779C336.318 231.779 337.458 231.538 338.584 231.057V232.502C338.011 232.749 337.467 232.925 336.953 233.029C336.445 233.14 335.83 233.195 335.107 233.195ZM334.668 223.459C333.809 223.459 333.122 223.739 332.607 224.299C332.1 224.859 331.8 225.633 331.709 226.623H337.305C337.305 225.601 337.077 224.82 336.621 224.279C336.165 223.732 335.514 223.459 334.668 223.459ZM343.438 222.297V226.779H349.434V222.297H351.055V233H349.434V228.176H343.438V233H341.816V222.297H343.438ZM356.113 226.721H359.414C362.148 226.721 363.516 227.727 363.516 229.738C363.516 230.793 363.158 231.6 362.441 232.16C361.732 232.72 360.69 233 359.316 233H354.492V222.297H356.113V226.721ZM356.113 228.117V231.643H359.238C360.098 231.643 360.755 231.493 361.211 231.193C361.667 230.894 361.895 230.441 361.895 229.836C361.895 229.243 361.683 228.811 361.26 228.537C360.843 228.257 360.153 228.117 359.189 228.117H356.113ZM380.82 236.701H379.248V233H371.768V236.701H370.205V231.604H371.045C371.917 230.419 372.601 229.029 373.096 227.434C373.59 225.839 373.848 224.126 373.867 222.297H379.287V231.604H380.82V236.701ZM377.725 231.604V223.576H375.322C375.238 225.021 374.958 226.486 374.482 227.971C374.014 229.449 373.428 230.66 372.725 231.604H377.725ZM392.207 227.639C392.207 229.383 391.768 230.747 390.889 231.73C390.01 232.707 388.796 233.195 387.246 233.195C386.289 233.195 385.439 232.971 384.697 232.521C383.955 232.072 383.382 231.428 382.979 230.588C382.575 229.748 382.373 228.765 382.373 227.639C382.373 225.894 382.809 224.536 383.682 223.566C384.554 222.59 385.765 222.102 387.314 222.102C388.812 222.102 390 222.6 390.879 223.596C391.764 224.592 392.207 225.939 392.207 227.639ZM384.053 227.639C384.053 229.006 384.326 230.048 384.873 230.764C385.42 231.48 386.224 231.838 387.285 231.838C388.346 231.838 389.15 231.483 389.697 230.773C390.251 230.057 390.527 229.012 390.527 227.639C390.527 226.278 390.251 225.246 389.697 224.543C389.15 223.833 388.34 223.479 387.266 223.479C386.204 223.479 385.404 223.827 384.863 224.523C384.323 225.22 384.053 226.258 384.053 227.639ZM403.74 224.982C403.74 225.679 403.538 226.21 403.135 226.574C402.738 226.932 402.178 227.173 401.455 227.297V227.385C402.367 227.508 403.031 227.775 403.447 228.186C403.87 228.596 404.082 229.162 404.082 229.885C404.082 230.881 403.714 231.649 402.979 232.189C402.249 232.73 401.182 233 399.775 233H395.059V222.297H399.756C402.412 222.297 403.74 223.192 403.74 224.982ZM402.461 229.777C402.461 229.198 402.24 228.778 401.797 228.518C401.361 228.251 400.635 228.117 399.619 228.117H396.68V231.643H399.658C401.527 231.643 402.461 231.021 402.461 229.777ZM402.158 225.139C402.158 224.618 401.956 224.25 401.553 224.035C401.156 223.814 400.55 223.703 399.736 223.703H396.68V226.721H399.424C400.426 226.721 401.133 226.597 401.543 226.35C401.953 226.102 402.158 225.699 402.158 225.139ZM415.684 227.639C415.684 229.383 415.244 230.747 414.365 231.73C413.486 232.707 412.272 233.195 410.723 233.195C409.766 233.195 408.916 232.971 408.174 232.521C407.432 232.072 406.859 231.428 406.455 230.588C406.051 229.748 405.85 228.765 405.85 227.639C405.85 225.894 406.286 224.536 407.158 223.566C408.031 222.59 409.242 222.102 410.791 222.102C412.288 222.102 413.477 222.6 414.355 223.596C415.241 224.592 415.684 225.939 415.684 227.639ZM407.529 227.639C407.529 229.006 407.803 230.048 408.35 230.764C408.896 231.48 409.701 231.838 410.762 231.838C411.823 231.838 412.627 231.483 413.174 230.773C413.727 230.057 414.004 229.012 414.004 227.639C414.004 226.278 413.727 225.246 413.174 224.543C412.627 223.833 411.816 223.479 410.742 223.479C409.681 223.479 408.88 223.827 408.34 224.523C407.799 225.22 407.529 226.258 407.529 227.639ZM426.514 233H424.873V223.684H421.66C421.484 226.001 421.24 227.84 420.928 229.201C420.615 230.562 420.208 231.558 419.707 232.189C419.212 232.821 418.581 233.137 417.812 233.137C417.461 233.137 417.181 233.098 416.973 233.02V231.818C417.116 231.857 417.279 231.877 417.461 231.877C418.21 231.877 418.805 231.086 419.248 229.504C419.691 227.922 420.026 225.52 420.254 222.297H426.514V233ZM431.582 226.721H434.883C437.617 226.721 438.984 227.727 438.984 229.738C438.984 230.793 438.626 231.6 437.91 232.16C437.201 232.72 436.159 233 434.785 233H429.961V222.297H431.582V226.721ZM431.582 228.117V231.643H434.707C435.566 231.643 436.224 231.493 436.68 231.193C437.135 230.894 437.363 230.441 437.363 229.836C437.363 229.243 437.152 228.811 436.729 228.537C436.312 228.257 435.622 228.117 434.658 228.117H431.582ZM443.418 222.297V226.779H449.414V222.297H451.035V233H449.414V228.176H443.418V233H441.797V222.297H443.418ZM456.094 226.721H459.014C460.374 226.721 461.38 226.975 462.031 227.482C462.689 227.984 463.018 228.736 463.018 229.738C463.018 230.812 462.669 231.626 461.973 232.18C461.283 232.727 460.264 233 458.916 233H454.473V222.297H456.094V226.721ZM466.436 233H464.814V222.297H466.436V233ZM456.094 228.117V231.643H458.838C460.557 231.643 461.416 231.04 461.416 229.836C461.416 229.237 461.217 228.801 460.82 228.527C460.423 228.254 459.746 228.117 458.789 228.117H456.094ZM479.6 233.195C478.018 233.195 476.768 232.714 475.85 231.75C474.938 230.786 474.482 229.449 474.482 227.736C474.482 226.011 474.906 224.641 475.752 223.625C476.605 222.609 477.747 222.102 479.18 222.102C480.521 222.102 481.582 222.544 482.363 223.43C483.145 224.309 483.535 225.471 483.535 226.916V227.941H476.162C476.195 229.198 476.51 230.152 477.109 230.803C477.715 231.454 478.564 231.779 479.658 231.779C480.811 231.779 481.95 231.538 483.076 231.057V232.502C482.503 232.749 481.96 232.925 481.445 233.029C480.938 233.14 480.322 233.195 479.6 233.195ZM479.16 223.459C478.301 223.459 477.614 223.739 477.1 224.299C476.592 224.859 476.292 225.633 476.201 226.623H481.797C481.797 225.601 481.569 224.82 481.113 224.279C480.658 223.732 480.007 223.459 479.16 223.459ZM492.754 223.684H487.93V233H486.309V222.297H492.754V223.684ZM504.121 227.639C504.121 229.383 503.682 230.747 502.803 231.73C501.924 232.707 500.71 233.195 499.16 233.195C498.203 233.195 497.354 232.971 496.611 232.521C495.869 232.072 495.296 231.428 494.893 230.588C494.489 229.748 494.287 228.765 494.287 227.639C494.287 225.894 494.723 224.536 495.596 223.566C496.468 222.59 497.679 222.102 499.229 222.102C500.726 222.102 501.914 222.6 502.793 223.596C503.678 224.592 504.121 225.939 504.121 227.639ZM495.967 227.639C495.967 229.006 496.24 230.048 496.787 230.764C497.334 231.48 498.138 231.838 499.199 231.838C500.26 231.838 501.064 231.483 501.611 230.773C502.165 230.057 502.441 229.012 502.441 227.639C502.441 226.278 502.165 225.246 501.611 224.543C501.064 223.833 500.254 223.479 499.18 223.479C498.118 223.479 497.318 223.827 496.777 224.523C496.237 225.22 495.967 226.258 495.967 227.639ZM88.291 263.195C87.5944 263.195 86.9564 263.068 86.377 262.814C85.804 262.554 85.3223 262.157 84.9316 261.623H84.8145C84.8926 262.248 84.9316 262.84 84.9316 263.4V267.805H83.3105V252.297H84.6289L84.8535 253.762H84.9316C85.3483 253.176 85.8333 252.753 86.3867 252.492C86.9401 252.232 87.5749 252.102 88.291 252.102C89.7103 252.102 90.804 252.587 91.5723 253.557C92.347 254.527 92.7344 255.887 92.7344 257.639C92.7344 259.396 92.3405 260.764 91.5527 261.74C90.7715 262.71 89.6842 263.195 88.291 263.195ZM88.0566 253.479C86.9629 253.479 86.1719 253.781 85.6836 254.387C85.1953 254.992 84.9447 255.956 84.9316 257.277V257.639C84.9316 259.143 85.1823 260.22 85.6836 260.871C86.1849 261.516 86.9889 261.838 88.0957 261.838C89.0202 261.838 89.7428 261.464 90.2637 260.715C90.791 259.966 91.0547 258.934 91.0547 257.619C91.0547 256.285 90.791 255.262 90.2637 254.553C89.7428 253.837 89.0072 253.479 88.0566 253.479ZM100.098 263.195C98.5156 263.195 97.2656 262.714 96.3477 261.75C95.4362 260.786 94.9805 259.449 94.9805 257.736C94.9805 256.011 95.4036 254.641 96.25 253.625C97.1029 252.609 98.2454 252.102 99.6777 252.102C101.019 252.102 102.08 252.544 102.861 253.43C103.643 254.309 104.033 255.471 104.033 256.916V257.941H96.6602C96.6927 259.198 97.0085 260.152 97.6074 260.803C98.2129 261.454 99.0625 261.779 100.156 261.779C101.309 261.779 102.448 261.538 103.574 261.057V262.502C103.001 262.749 102.458 262.925 101.943 263.029C101.436 263.14 100.82 263.195 100.098 263.195ZM99.6582 253.459C98.7988 253.459 98.112 253.739 97.5977 254.299C97.0898 254.859 96.7904 255.633 96.6992 256.623H102.295C102.295 255.601 102.067 254.82 101.611 254.279C101.156 253.732 100.505 253.459 99.6582 253.459ZM108.848 256.74C110.872 256.74 111.885 256.18 111.885 255.061C111.885 254.006 111.064 253.479 109.424 253.479C108.923 253.479 108.467 253.524 108.057 253.615C107.646 253.706 107.109 253.889 106.445 254.162L105.869 252.844C106.976 252.349 108.184 252.102 109.492 252.102C110.723 252.102 111.693 252.355 112.402 252.863C113.112 253.365 113.467 254.051 113.467 254.924C113.467 256.122 112.799 256.906 111.465 257.277V257.355C112.285 257.596 112.884 257.941 113.262 258.391C113.639 258.833 113.828 259.39 113.828 260.061C113.828 261.05 113.428 261.822 112.627 262.375C111.833 262.922 110.732 263.195 109.326 263.195C107.783 263.195 106.592 262.964 105.752 262.502V261.018C106.943 261.577 108.148 261.857 109.365 261.857C110.303 261.857 111.009 261.698 111.484 261.379C111.966 261.053 112.207 260.588 112.207 259.982C112.207 258.739 111.195 258.117 109.17 258.117H107.686V256.74H108.848ZM114.775 252.297H116.514L118.857 258.4C119.372 259.794 119.691 260.799 119.814 261.418H119.893C119.977 261.086 120.153 260.52 120.42 259.719C120.693 258.911 121.579 256.438 123.076 252.297H124.814L120.215 264.484C119.759 265.689 119.225 266.542 118.613 267.043C118.008 267.551 117.262 267.805 116.377 267.805C115.882 267.805 115.394 267.749 114.912 267.639V266.34C115.27 266.418 115.671 266.457 116.113 266.457C117.227 266.457 118.021 265.832 118.496 264.582L119.092 263.059L114.775 252.297ZM134.531 263H132.891V253.684H129.678C129.502 256.001 129.258 257.84 128.945 259.201C128.633 260.562 128.226 261.558 127.725 262.189C127.23 262.821 126.598 263.137 125.83 263.137C125.479 263.137 125.199 263.098 124.99 263.02V261.818C125.133 261.857 125.296 261.877 125.479 261.877C126.227 261.877 126.823 261.086 127.266 259.504C127.708 257.922 128.044 255.52 128.271 252.297H134.531V263ZM139.6 256.721H142.9C145.635 256.721 147.002 257.727 147.002 259.738C147.002 260.793 146.644 261.6 145.928 262.16C145.218 262.72 144.176 263 142.803 263H137.979V252.297H139.6V256.721ZM139.6 258.117V261.643H142.725C143.584 261.643 144.242 261.493 144.697 261.193C145.153 260.894 145.381 260.441 145.381 259.836C145.381 259.243 145.169 258.811 144.746 258.537C144.329 258.257 143.639 258.117 142.676 258.117H139.6ZM157.031 253.684H153.555V263H151.934V253.684H148.496V252.297H157.031V253.684ZM165.732 263L165.41 261.477H165.332C164.798 262.147 164.264 262.603 163.73 262.844C163.203 263.078 162.542 263.195 161.748 263.195C160.687 263.195 159.854 262.922 159.248 262.375C158.649 261.828 158.35 261.05 158.35 260.041C158.35 257.88 160.078 256.747 163.535 256.643L165.352 256.584V255.92C165.352 255.08 165.169 254.462 164.805 254.064C164.447 253.661 163.87 253.459 163.076 253.459C162.184 253.459 161.175 253.732 160.049 254.279L159.551 253.039C160.078 252.753 160.654 252.528 161.279 252.365C161.911 252.202 162.542 252.121 163.174 252.121C164.45 252.121 165.394 252.404 166.006 252.971C166.624 253.537 166.934 254.445 166.934 255.695V263H165.732ZM162.07 261.857C163.079 261.857 163.87 261.581 164.443 261.027C165.023 260.474 165.312 259.699 165.312 258.703V257.736L163.691 257.805C162.402 257.85 161.471 258.052 160.898 258.41C160.332 258.762 160.049 259.312 160.049 260.061C160.049 260.646 160.225 261.092 160.576 261.398C160.934 261.704 161.432 261.857 162.07 261.857ZM177.5 253.684H174.023V263H172.402V253.684H168.965V252.297H177.5V253.684ZM188.857 257.639C188.857 259.383 188.418 260.747 187.539 261.73C186.66 262.707 185.446 263.195 183.896 263.195C182.939 263.195 182.09 262.971 181.348 262.521C180.605 262.072 180.033 261.428 179.629 260.588C179.225 259.748 179.023 258.765 179.023 257.639C179.023 255.894 179.46 254.536 180.332 253.566C181.204 252.59 182.415 252.102 183.965 252.102C185.462 252.102 186.65 252.6 187.529 253.596C188.415 254.592 188.857 255.939 188.857 257.639ZM180.703 257.639C180.703 259.006 180.977 260.048 181.523 260.764C182.07 261.48 182.874 261.838 183.936 261.838C184.997 261.838 185.801 261.483 186.348 260.773C186.901 260.057 187.178 259.012 187.178 257.639C187.178 256.278 186.901 255.246 186.348 254.543C185.801 253.833 184.99 253.479 183.916 253.479C182.855 253.479 182.054 253.827 181.514 254.523C180.973 255.22 180.703 256.258 180.703 257.639ZM197.266 261.438L197.568 260.529L197.988 259.377L200.889 252.316H202.949V263H201.514V254.162L201.318 254.729L200.752 256.223L197.988 263H196.631L193.867 256.203C193.522 255.331 193.285 254.65 193.154 254.162V263H191.709V252.316H193.691L196.494 259.104C196.774 259.82 197.031 260.598 197.266 261.438ZM208.115 260.676L208.262 260.9C208.092 261.551 207.848 262.307 207.529 263.166C207.21 264.032 206.878 264.836 206.533 265.578H205.312C205.488 264.901 205.68 264.064 205.889 263.068C206.104 262.072 206.253 261.275 206.338 260.676H208.115ZM220.791 263.195C219.242 263.195 218.04 262.72 217.188 261.77C216.341 260.812 215.918 259.462 215.918 257.717C215.918 255.926 216.348 254.543 217.207 253.566C218.073 252.59 219.303 252.102 220.898 252.102C221.413 252.102 221.927 252.157 222.441 252.268C222.956 252.378 223.359 252.508 223.652 252.658L223.154 254.035C222.796 253.892 222.406 253.775 221.982 253.684C221.559 253.586 221.185 253.537 220.859 253.537C218.685 253.537 217.598 254.924 217.598 257.697C217.598 259.012 217.861 260.021 218.389 260.725C218.923 261.428 219.71 261.779 220.752 261.779C221.644 261.779 222.559 261.587 223.496 261.203V262.639C222.78 263.01 221.878 263.195 220.791 263.195ZM232.285 252.297H234.062L229.443 257.463L234.443 263H232.549L227.666 257.58V263H226.045V252.297H227.666V257.502L232.285 252.297ZM245.674 257.639C245.674 259.383 245.234 260.747 244.355 261.73C243.477 262.707 242.262 263.195 240.713 263.195C239.756 263.195 238.906 262.971 238.164 262.521C237.422 262.072 236.849 261.428 236.445 260.588C236.042 259.748 235.84 258.765 235.84 257.639C235.84 255.894 236.276 254.536 237.148 253.566C238.021 252.59 239.232 252.102 240.781 252.102C242.279 252.102 243.467 252.6 244.346 253.596C245.231 254.592 245.674 255.939 245.674 257.639ZM237.52 257.639C237.52 259.006 237.793 260.048 238.34 260.764C238.887 261.48 239.691 261.838 240.752 261.838C241.813 261.838 242.617 261.483 243.164 260.773C243.717 260.057 243.994 259.012 243.994 257.639C243.994 256.278 243.717 255.246 243.164 254.543C242.617 253.833 241.807 253.479 240.732 253.479C239.671 253.479 238.87 253.827 238.33 254.523C237.79 255.22 237.52 256.258 237.52 257.639ZM253.506 263.195C252.809 263.195 252.171 263.068 251.592 262.814C251.019 262.554 250.537 262.157 250.146 261.623H250.029C250.107 262.248 250.146 262.84 250.146 263.4V267.805H248.525V252.297H249.844L250.068 253.762H250.146C250.563 253.176 251.048 252.753 251.602 252.492C252.155 252.232 252.79 252.102 253.506 252.102C254.925 252.102 256.019 252.587 256.787 253.557C257.562 254.527 257.949 255.887 257.949 257.639C257.949 259.396 257.555 260.764 256.768 261.74C255.986 262.71 254.899 263.195 253.506 263.195ZM253.271 253.479C252.178 253.479 251.387 253.781 250.898 254.387C250.41 254.992 250.16 255.956 250.146 257.277V257.639C250.146 259.143 250.397 260.22 250.898 260.871C251.4 261.516 252.204 261.838 253.311 261.838C254.235 261.838 254.958 261.464 255.479 260.715C256.006 259.966 256.27 258.934 256.27 257.619C256.27 256.285 256.006 255.262 255.479 254.553C254.958 253.837 254.222 253.479 253.271 253.479ZM270.029 257.639C270.029 259.383 269.59 260.747 268.711 261.73C267.832 262.707 266.618 263.195 265.068 263.195C264.111 263.195 263.262 262.971 262.52 262.521C261.777 262.072 261.204 261.428 260.801 260.588C260.397 259.748 260.195 258.765 260.195 257.639C260.195 255.894 260.632 254.536 261.504 253.566C262.376 252.59 263.587 252.102 265.137 252.102C266.634 252.102 267.822 252.6 268.701 253.596C269.587 254.592 270.029 255.939 270.029 257.639ZM261.875 257.639C261.875 259.006 262.148 260.048 262.695 260.764C263.242 261.48 264.046 261.838 265.107 261.838C266.169 261.838 266.973 261.483 267.52 260.773C268.073 260.057 268.35 259.012 268.35 257.639C268.35 256.278 268.073 255.246 267.52 254.543C266.973 253.833 266.162 253.479 265.088 253.479C264.027 253.479 263.226 253.827 262.686 254.523C262.145 255.22 261.875 256.258 261.875 257.639ZM283.633 261.438L283.936 260.529L284.355 259.377L287.256 252.316H289.316V263H287.881V254.162L287.686 254.729L287.119 256.223L284.355 263H282.998L280.234 256.203C279.889 255.331 279.652 254.65 279.521 254.162V263H278.076V252.316H280.059L282.861 259.104C283.141 259.82 283.398 260.598 283.633 261.438ZM294.404 256.721H297.324C298.685 256.721 299.691 256.975 300.342 257.482C300.999 257.984 301.328 258.736 301.328 259.738C301.328 260.812 300.98 261.626 300.283 262.18C299.593 262.727 298.574 263 297.227 263H292.783V252.297H294.404V256.721ZM304.746 263H303.125V252.297H304.746V263ZM294.404 258.117V261.643H297.148C298.867 261.643 299.727 261.04 299.727 259.836C299.727 259.237 299.528 258.801 299.131 258.527C298.734 258.254 298.057 258.117 297.1 258.117H294.404ZM317.666 263.195C316.117 263.195 314.915 262.72 314.062 261.77C313.216 260.812 312.793 259.462 312.793 257.717C312.793 255.926 313.223 254.543 314.082 253.566C314.948 252.59 316.178 252.102 317.773 252.102C318.288 252.102 318.802 252.157 319.316 252.268C319.831 252.378 320.234 252.508 320.527 252.658L320.029 254.035C319.671 253.892 319.281 253.775 318.857 253.684C318.434 253.586 318.06 253.537 317.734 253.537C315.56 253.537 314.473 254.924 314.473 257.697C314.473 259.012 314.736 260.021 315.264 260.725C315.798 261.428 316.585 261.779 317.627 261.779C318.519 261.779 319.434 261.587 320.371 261.203V262.639C319.655 263.01 318.753 263.195 317.666 263.195ZM335.332 253.684H331.855V263H330.234V253.684H326.797V252.297H335.332V253.684ZM346.689 257.639C346.689 259.383 346.25 260.747 345.371 261.73C344.492 262.707 343.278 263.195 341.729 263.195C340.771 263.195 339.922 262.971 339.18 262.521C338.438 262.072 337.865 261.428 337.461 260.588C337.057 259.748 336.855 258.765 336.855 257.639C336.855 255.894 337.292 254.536 338.164 253.566C339.036 252.59 340.247 252.102 341.797 252.102C343.294 252.102 344.482 252.6 345.361 253.596C346.247 254.592 346.689 255.939 346.689 257.639ZM338.535 257.639C338.535 259.006 338.809 260.048 339.355 260.764C339.902 261.48 340.706 261.838 341.768 261.838C342.829 261.838 343.633 261.483 344.18 260.773C344.733 260.057 345.01 259.012 345.01 257.639C345.01 256.278 344.733 255.246 344.18 254.543C343.633 253.833 342.822 253.479 341.748 253.479C340.687 253.479 339.886 253.827 339.346 254.523C338.805 255.22 338.535 256.258 338.535 257.639ZM348.984 256.584C348.984 254.24 349.329 252.414 350.02 251.105C350.71 249.79 351.803 248.97 353.301 248.645C355.163 248.247 356.803 247.925 358.223 247.678L358.525 249.104C356.266 249.481 354.652 249.781 353.682 250.002C352.738 250.217 352.028 250.725 351.553 251.525C351.084 252.326 350.827 253.417 350.781 254.797H350.898C351.302 254.25 351.823 253.82 352.461 253.508C353.099 253.195 353.766 253.039 354.463 253.039C355.778 253.039 356.803 253.465 357.539 254.318C358.275 255.171 358.643 256.353 358.643 257.863C358.643 259.536 358.216 260.845 357.363 261.789C356.51 262.727 355.322 263.195 353.799 263.195C352.295 263.195 351.117 262.619 350.264 261.467C349.411 260.314 348.984 258.687 348.984 256.584ZM353.945 261.838C355.931 261.838 356.924 260.572 356.924 258.039C356.924 255.624 356.022 254.416 354.219 254.416C353.724 254.416 353.245 254.52 352.783 254.729C352.327 254.93 351.908 255.201 351.523 255.539C351.146 255.878 350.853 256.226 350.645 256.584C350.645 258.296 350.915 259.602 351.455 260.5C351.995 261.392 352.826 261.838 353.945 261.838ZM370.713 257.639C370.713 259.383 370.273 260.747 369.395 261.73C368.516 262.707 367.301 263.195 365.752 263.195C364.795 263.195 363.945 262.971 363.203 262.521C362.461 262.072 361.888 261.428 361.484 260.588C361.081 259.748 360.879 258.765 360.879 257.639C360.879 255.894 361.315 254.536 362.188 253.566C363.06 252.59 364.271 252.102 365.82 252.102C367.318 252.102 368.506 252.6 369.385 253.596C370.27 254.592 370.713 255.939 370.713 257.639ZM362.559 257.639C362.559 259.006 362.832 260.048 363.379 260.764C363.926 261.48 364.73 261.838 365.791 261.838C366.852 261.838 367.656 261.483 368.203 260.773C368.757 260.057 369.033 259.012 369.033 257.639C369.033 256.278 368.757 255.246 368.203 254.543C367.656 253.833 366.846 253.479 365.771 253.479C364.71 253.479 363.91 253.827 363.369 254.523C362.829 255.22 362.559 256.258 362.559 257.639ZM375.088 252.297V259.084L375.02 260.861L374.99 261.418L380.781 252.297H382.803V263H381.289V256.457L381.318 255.168L381.367 253.898L375.586 263H373.564V252.297H375.088ZM378.145 250.881C376.94 250.881 376.061 250.65 375.508 250.188C374.954 249.719 374.645 248.951 374.58 247.883H376.104C376.162 248.56 376.338 249.032 376.631 249.299C376.93 249.566 377.448 249.699 378.184 249.699C378.854 249.699 379.349 249.556 379.668 249.27C379.993 248.983 380.192 248.521 380.264 247.883H381.797C381.719 248.911 381.39 249.67 380.811 250.158C380.231 250.64 379.342 250.881 378.145 250.881ZM395.713 263.195C394.163 263.195 392.962 262.72 392.109 261.77C391.263 260.812 390.84 259.462 390.84 257.717C390.84 255.926 391.27 254.543 392.129 253.566C392.995 252.59 394.225 252.102 395.82 252.102C396.335 252.102 396.849 252.157 397.363 252.268C397.878 252.378 398.281 252.508 398.574 252.658L398.076 254.035C397.718 253.892 397.327 253.775 396.904 253.684C396.481 253.586 396.107 253.537 395.781 253.537C393.607 253.537 392.52 254.924 392.52 257.697C392.52 259.012 392.783 260.021 393.311 260.725C393.844 261.428 394.632 261.779 395.674 261.779C396.566 261.779 397.48 261.587 398.418 261.203V262.639C397.702 263.01 396.8 263.195 395.713 263.195ZM409.648 254.982C409.648 255.679 409.447 256.21 409.043 256.574C408.646 256.932 408.086 257.173 407.363 257.297V257.385C408.275 257.508 408.939 257.775 409.355 258.186C409.779 258.596 409.99 259.162 409.99 259.885C409.99 260.881 409.622 261.649 408.887 262.189C408.158 262.73 407.09 263 405.684 263H400.967V252.297H405.664C408.32 252.297 409.648 253.192 409.648 254.982ZM408.369 259.777C408.369 259.198 408.148 258.778 407.705 258.518C407.269 258.251 406.543 258.117 405.527 258.117H402.588V261.643H405.566C407.435 261.643 408.369 261.021 408.369 259.777ZM408.066 255.139C408.066 254.618 407.865 254.25 407.461 254.035C407.064 253.814 406.458 253.703 405.645 253.703H402.588V256.721H405.332C406.335 256.721 407.041 256.597 407.451 256.35C407.861 256.102 408.066 255.699 408.066 255.139ZM412.891 263H410.996L414.072 258.479C413.245 258.296 412.611 257.945 412.168 257.424C411.732 256.896 411.514 256.236 411.514 255.441C411.514 254.465 411.842 253.697 412.5 253.137C413.158 252.577 414.076 252.297 415.254 252.297H420.02V263H418.398V258.723H415.693L412.891 263ZM413.096 255.461C413.096 256.698 413.994 257.316 415.791 257.316H418.398V253.703H415.459C413.883 253.703 413.096 254.289 413.096 255.461ZM428.35 252.316H429.844V257.502L434.268 252.316H436.045L431.572 257.502L436.426 263H434.551L429.844 257.58V263H428.35V257.58L423.652 263H421.787L426.631 257.502L422.168 252.316H423.945L428.35 257.502V252.316ZM442.715 263.195C441.133 263.195 439.883 262.714 438.965 261.75C438.053 260.786 437.598 259.449 437.598 257.736C437.598 256.011 438.021 254.641 438.867 253.625C439.72 252.609 440.863 252.102 442.295 252.102C443.636 252.102 444.697 252.544 445.479 253.43C446.26 254.309 446.65 255.471 446.65 256.916V257.941H439.277C439.31 259.198 439.626 260.152 440.225 260.803C440.83 261.454 441.68 261.779 442.773 261.779C443.926 261.779 445.065 261.538 446.191 261.057V262.502C445.618 262.749 445.075 262.925 444.561 263.029C444.053 263.14 443.438 263.195 442.715 263.195ZM442.275 253.459C441.416 253.459 440.729 253.739 440.215 254.299C439.707 254.859 439.408 255.633 439.316 256.623H444.912C444.912 255.601 444.684 254.82 444.229 254.279C443.773 253.732 443.122 253.459 442.275 253.459ZM454.98 261.438L455.283 260.529L455.703 259.377L458.604 252.316H460.664V263H459.229V254.162L459.033 254.729L458.467 256.223L455.703 263H454.346L451.582 256.203C451.237 255.331 450.999 254.65 450.869 254.162V263H449.424V252.316H451.406L454.209 259.104C454.489 259.82 454.746 260.598 454.98 261.438ZM468.408 263.195C466.859 263.195 465.658 262.72 464.805 261.77C463.958 260.812 463.535 259.462 463.535 257.717C463.535 255.926 463.965 254.543 464.824 253.566C465.69 252.59 466.921 252.102 468.516 252.102C469.03 252.102 469.544 252.157 470.059 252.268C470.573 252.378 470.977 252.508 471.27 252.658L470.771 254.035C470.413 253.892 470.023 253.775 469.6 253.684C469.176 253.586 468.802 253.537 468.477 253.537C466.302 253.537 465.215 254.924 465.215 257.697C465.215 259.012 465.479 260.021 466.006 260.725C466.54 261.428 467.327 261.779 468.369 261.779C469.261 261.779 470.176 261.587 471.113 261.203V262.639C470.397 263.01 469.495 263.195 468.408 263.195ZM474.199 263H472.305L475.381 258.479C474.554 258.296 473.919 257.945 473.477 257.424C473.04 256.896 472.822 256.236 472.822 255.441C472.822 254.465 473.151 253.697 473.809 253.137C474.466 252.577 475.384 252.297 476.562 252.297H481.328V263H479.707V258.723H477.002L474.199 263ZM474.404 255.461C474.404 256.698 475.303 257.316 477.1 257.316H479.707V253.703H476.768C475.192 253.703 474.404 254.289 474.404 255.461ZM486.24 259.064H485.215L484.717 248.723H486.738L486.24 259.064ZM484.541 261.965C484.541 261.079 484.932 260.637 485.713 260.637C486.09 260.637 486.38 260.751 486.582 260.979C486.79 261.206 486.895 261.535 486.895 261.965C486.895 262.382 486.79 262.707 486.582 262.941C486.374 263.169 486.084 263.283 485.713 263.283C485.374 263.283 485.094 263.182 484.873 262.98C484.652 262.772 484.541 262.434 484.541 261.965Z" fill="#161746"/>
    <path d="M95.6445 172H87.168V139.078H76.3125V132.023H106.5V139.078H95.6445V172ZM120.336 153.242H124.355C129.022 153.242 132.477 153.99 134.719 155.484C136.961 156.979 138.082 159.24 138.082 162.266C138.082 165.492 136.961 167.926 134.719 169.566C132.477 171.189 129.122 172 124.656 172H111.996V141.43H120.336V153.242ZM129.742 162.375C129.742 161.19 129.268 160.333 128.32 159.805C127.372 159.276 125.96 159.012 124.082 159.012H120.336V166.23H124.191C127.892 166.23 129.742 164.945 129.742 162.375ZM150.852 172H142.512V141.43H150.852V172ZM186.59 172.547C177.074 172.547 172.316 167.324 172.316 156.879C172.316 151.684 173.611 147.719 176.199 144.984C178.788 142.232 182.497 140.855 187.328 140.855C190.865 140.855 194.036 141.548 196.844 142.934L194.383 149.387C193.07 148.858 191.849 148.43 190.719 148.102C189.589 147.755 188.458 147.582 187.328 147.582C182.99 147.582 180.82 150.663 180.82 156.824C180.82 162.803 182.99 165.793 187.328 165.793C188.932 165.793 190.418 165.583 191.785 165.164C193.152 164.727 194.52 164.052 195.887 163.141V170.277C194.538 171.134 193.171 171.727 191.785 172.055C190.418 172.383 188.686 172.547 186.59 172.547ZM230.777 141.43V172H222.41V147.691H211.336V172H202.996V141.43H230.777ZM256.316 172.547C252.725 172.547 249.909 171.243 247.867 168.637H247.43C247.721 171.189 247.867 172.665 247.867 173.066V185.453H239.527V141.43H246.309L247.484 145.395H247.867C249.818 142.368 252.707 140.855 256.535 140.855C260.145 140.855 262.97 142.25 265.012 145.039C267.053 147.828 268.074 151.702 268.074 156.66C268.074 159.923 267.591 162.758 266.625 165.164C265.677 167.57 264.319 169.402 262.551 170.66C260.783 171.918 258.704 172.547 256.316 172.547ZM253.855 147.527C251.796 147.527 250.292 148.165 249.344 149.441C248.396 150.699 247.904 152.786 247.867 155.703V156.605C247.867 159.887 248.35 162.238 249.316 163.66C250.301 165.082 251.85 165.793 253.965 165.793C257.702 165.793 259.57 162.712 259.57 156.551C259.57 153.543 259.105 151.292 258.176 149.797C257.264 148.284 255.824 147.527 253.855 147.527ZM294.379 172L292.766 167.844H292.547C291.143 169.612 289.694 170.842 288.199 171.535C286.723 172.21 284.79 172.547 282.402 172.547C279.467 172.547 277.152 171.708 275.457 170.031C273.78 168.354 272.941 165.966 272.941 162.867C272.941 159.622 274.072 157.234 276.332 155.703C278.611 154.154 282.038 153.297 286.613 153.133L291.918 152.969V151.629C291.918 148.53 290.332 146.98 287.16 146.98C284.717 146.98 281.846 147.719 278.547 149.195L275.785 143.562C279.303 141.721 283.204 140.801 287.488 140.801C291.59 140.801 294.734 141.694 296.922 143.48C299.109 145.267 300.203 147.983 300.203 151.629V172H294.379ZM291.918 157.836L288.691 157.945C286.267 158.018 284.462 158.456 283.277 159.258C282.092 160.06 281.5 161.281 281.5 162.922C281.5 165.273 282.849 166.449 285.547 166.449C287.479 166.449 289.02 165.893 290.168 164.781C291.335 163.669 291.918 162.193 291.918 160.352V157.836ZM337.035 149.441C337.035 151.082 336.516 152.486 335.477 153.652C334.456 154.801 332.943 155.539 330.938 155.867V156.086C333.107 156.341 334.82 157.089 336.078 158.328C337.354 159.549 337.992 161.062 337.992 162.867C337.992 165.839 336.826 168.108 334.492 169.676C332.159 171.225 328.823 172 324.484 172H308.816V141.43H324.484C328.677 141.43 331.812 142.113 333.891 143.48C335.987 144.829 337.035 146.816 337.035 149.441ZM329.352 162.43C329.352 161.227 328.887 160.361 327.957 159.832C327.027 159.285 325.633 159.012 323.773 159.012H317.156V166.23H323.938C325.706 166.23 327.046 165.902 327.957 165.246C328.887 164.572 329.352 163.633 329.352 162.43ZM328.586 150.098C328.586 148.238 327.109 147.309 324.156 147.309H317.156V153.352H323.199C324.967 153.352 326.307 153.096 327.219 152.586C328.13 152.076 328.586 151.246 328.586 150.098ZM352.703 141.43V153.516C352.703 154.792 352.493 157.909 352.074 162.867L366.184 141.43H376.219V172H368.152V159.805C368.152 157.635 368.335 154.573 368.699 150.617L354.645 172H344.637V141.43H352.703ZM412.367 172H404.027V147.691H396.344C395.76 154.527 395.049 159.632 394.211 163.004C393.372 166.358 392.251 168.792 390.848 170.305C389.462 171.799 387.639 172.547 385.379 172.547C383.447 172.547 381.861 172.255 380.621 171.672V165C381.514 165.365 382.408 165.547 383.301 165.547C384.34 165.547 385.206 164.799 385.898 163.305C386.609 161.81 387.238 159.322 387.785 155.84C388.35 152.34 388.833 147.536 389.234 141.43H412.367V172ZM433.559 172.547C424.043 172.547 419.285 167.324 419.285 156.879C419.285 151.684 420.579 147.719 423.168 144.984C425.757 142.232 429.466 140.855 434.297 140.855C437.833 140.855 441.005 141.548 443.812 142.934L441.352 149.387C440.039 148.858 438.818 148.43 437.688 148.102C436.557 147.755 435.427 147.582 434.297 147.582C429.958 147.582 427.789 150.663 427.789 156.824C427.789 162.803 429.958 165.793 434.297 165.793C435.901 165.793 437.387 165.583 438.754 165.164C440.121 164.727 441.488 164.052 442.855 163.141V170.277C441.507 171.134 440.139 171.727 438.754 172.055C437.387 172.383 435.655 172.547 433.559 172.547ZM454.613 172H445.59L453.82 159.914C451.852 159.094 450.357 157.909 449.336 156.359C448.333 154.81 447.832 152.987 447.832 150.891C447.832 147.938 448.935 145.622 451.141 143.945C453.365 142.268 456.391 141.43 460.219 141.43H474.438V172H466.098V160.625H461.504L454.613 172ZM456.008 150.945C456.008 152.221 456.509 153.224 457.512 153.953C458.514 154.664 459.827 155.02 461.449 155.02H466.098V147.309H460.383C459.016 147.309 457.94 147.646 457.156 148.32C456.391 148.977 456.008 149.852 456.008 150.945ZM490.16 158.738H483.488L482.094 132.023H491.555L490.16 158.738ZM481.984 168.09C481.984 166.559 482.395 165.401 483.215 164.617C484.035 163.833 485.229 163.441 486.797 163.441C488.31 163.441 489.477 163.842 490.297 164.645C491.135 165.447 491.555 166.595 491.555 168.09C491.555 169.53 491.135 170.669 490.297 171.508C489.458 172.328 488.292 172.738 486.797 172.738C485.266 172.738 484.081 172.337 483.242 171.535C482.404 170.715 481.984 169.566 481.984 168.09Z" fill="#161746"/>
    <path fill-rule="evenodd" clip-rule="evenodd" d="M285 90C309.853 90 330 69.8528 330 45C330 20.1472 309.853 0 285 0C260.147 0 240 20.1472 240 45C240 69.8528 260.147 90 285 90Z" fill="#EF705D"/>
    <path fill-rule="evenodd" clip-rule="evenodd" d="M276.955 54.6866L265.739 43.7164L262 47.3731L276.955 62L309 30.6567L305.261 27L276.955 54.6866Z" fill="white"/>
</svg>
