<svg width="399" height="668" viewBox="0 0 399 668" fill="none" xmlns="http://www.w3.org/2000/svg">
    <path d="M164.514 477.929C206.487 477.929 240.514 443.903 240.514 401.929C240.514 359.956 206.487 325.929 164.514 325.929C122.54 325.929 88.5137 359.956 88.5137 401.929C88.5137 443.903 122.54 477.929 164.514 477.929Z" fill="black"/>
    <path fill-rule="evenodd" clip-rule="evenodd" d="M93.0137 399.929C93.0137 442.731 127.712 477.429 170.514 477.429C213.316 477.429 248.014 442.731 248.014 399.929C248.014 357.127 213.316 322.429 170.514 322.429C127.712 322.429 93.0137 357.127 93.0137 399.929ZM245.014 399.929C245.014 441.074 211.659 474.429 170.514 474.429C129.368 474.429 96.0137 441.074 96.0137 399.929C96.0137 358.784 129.368 325.429 170.514 325.429C211.659 325.429 245.014 358.784 245.014 399.929Z" fill="black"/>
    <path fill-rule="evenodd" clip-rule="evenodd" d="M43.0137 399.929C43.0137 470.346 100.097 527.429 170.514 527.429C240.93 527.429 298.014 470.346 298.014 399.929C298.014 329.513 240.93 272.429 170.514 272.429C100.097 272.429 43.0137 329.513 43.0137 399.929ZM295.014 399.929C295.014 468.689 239.273 524.429 170.514 524.429C101.754 524.429 46.0137 468.689 46.0137 399.929C46.0137 331.17 101.754 275.429 170.514 275.429C239.273 275.429 295.014 331.17 295.014 399.929Z" fill="black"/>
    <path d="M66.5137 3.9292H443.514V370.929H66.5137V3.9292Z" fill="#FAB250"/>
    <path fill-rule="evenodd" clip-rule="evenodd" d="M184.009 2.4292C183.43 2.4292 182.903 2.76228 182.654 3.28505C178.478 12.0684 174.881 20.576 170.884 31.2618C141.39 43.831 106.422 57.7417 65.9843 72.9927C65.4003 73.213 65.0137 73.772 65.0137 74.3962V207.886C65.0137 208.76 65.7574 209.449 66.6285 209.382C89.5961 207.619 107.565 192.987 122.965 166.245C134.571 146.091 142.234 125.915 157.662 79.0214L158.28 77.1432C164.464 58.3453 169.092 44.7099 173.247 33.5156C197.411 23.1962 217.882 13.7803 234.662 5.26688C236.069 4.55287 235.561 2.4292 233.983 2.4292H184.009ZM169.455 35.1294C169.938 33.8074 170.414 32.5195 170.884 31.2618C172.17 30.7141 173.444 30.1689 174.709 29.6263C174.227 30.8914 173.74 32.1862 173.247 33.5156C171.993 34.0511 170.729 34.589 169.455 35.1294ZM169.455 35.1294C140.707 47.3246 106.894 60.7588 68.0137 75.4335V206.243C89.068 204.014 105.783 190.07 120.365 164.748C131.83 144.839 139.453 124.769 154.812 78.0839L155.43 76.2056C161.144 58.8373 165.535 45.858 169.455 35.1294ZM174.709 29.6263C178.151 20.5903 181.347 13.0782 184.958 5.4292H227.642C212.684 12.836 195.04 20.9018 174.709 29.6263ZM109.588 369.429H145.357C235.345 317.82 334.231 274.803 442.014 240.375L442.014 71.0742C399.633 64.7569 356.78 63.0735 318.176 66.5723C270.146 70.9255 237.286 84.3743 215.078 106.453C197.621 123.809 187.797 144.018 177.615 177.572C176.471 181.345 176.396 181.598 173.407 191.799C165.83 217.657 161.406 230.021 154.077 242.979C144.522 259.875 131.913 272.136 114.32 280.334C105.258 284.556 96.2446 287.436 87.406 289.022L86.6048 286.118C95.2729 284.589 104.13 281.772 113.053 277.614C130.054 269.692 142.206 257.876 151.466 241.502C158.644 228.81 163.015 216.596 170.528 190.956C173.521 180.741 173.596 180.488 174.745 176.701C185.058 142.712 195.072 122.114 212.963 104.325C235.707 81.7138 269.222 67.9969 317.905 63.5846C357.148 60.0278 400.714 61.7903 443.738 68.2995C444.472 68.4105 445.014 69.0409 445.014 69.7827L445.014 241.471C445.014 242.124 444.591 242.702 443.969 242.9C335.84 277.364 236.686 320.475 146.503 372.23C146.276 372.361 146.019 372.429 145.757 372.429H108.445C107.771 372.429 107.179 371.979 106.999 371.328L84.4281 289.509C85.4184 289.363 86.4111 289.201 87.406 289.022L109.588 369.429ZM83.6241 286.594L84.4281 289.509C78.324 290.408 72.3108 290.686 66.4307 290.36C65.6357 290.316 65.0137 289.659 65.0137 288.863V218.93C65.0137 217.182 67.495 216.846 67.9597 218.531L86.6048 286.118C85.6086 286.294 84.615 286.453 83.6241 286.594ZM83.6241 286.594C78.3346 287.351 73.1216 287.626 68.0137 287.431V230.008L83.6241 286.594Z" fill="white"/>
    <path d="M334.97 163.652C334.769 164.456 333.955 164.945 333.151 164.745C332.347 164.545 331.858 163.73 332.059 162.927C335.779 147.995 339.223 137.326 342.418 130.876C345.927 123.792 349.65 121.084 353.295 124.164C359.453 129.366 362.46 139.837 366.166 162.565C366.294 163.349 366.424 164.151 366.596 165.216C366.571 165.061 366.925 167.256 367.021 167.855C369.074 180.555 370.304 186.714 372.109 192.039C374.278 198.439 376.778 201.327 379.805 201.029C383.476 200.667 387.046 196.651 390.651 188.983C393.555 182.805 395.915 175.951 400.222 161.99C400.408 161.388 401.06 159.273 401.057 159.282C405.056 146.31 407.151 140.047 409.802 133.758C413.337 125.37 416.894 119.879 420.978 117.204C424.394 114.967 426.597 117.299 427.556 122.198C428.189 125.424 428.418 129.031 428.704 137.643C428.793 140.325 428.816 140.985 428.864 142.231C429.465 157.862 431.137 165.147 434.736 165.147C438.034 165.147 441.05 161.63 444.965 153.687C446.079 151.428 450.021 142.824 450.568 141.67C457.594 126.851 463.71 119.165 472.925 116.999C483.603 114.489 495.26 125.293 508.261 148.95C508.66 149.676 508.395 150.588 507.669 150.987C506.943 151.386 506.031 151.121 505.632 150.395C493.241 127.847 482.446 117.842 473.611 119.919C465.599 121.803 459.93 128.928 453.278 142.956C452.748 144.074 448.792 152.709 447.656 155.013C443.235 163.983 439.663 168.147 434.736 168.147C431.058 168.147 428.843 164.975 427.556 159.371C426.618 155.283 426.168 150.209 425.866 142.346C425.818 141.093 425.795 140.431 425.706 137.742C425.426 129.323 425.2 125.776 424.612 122.774C423.996 119.627 423.521 119.125 422.622 119.714C419.172 121.973 415.887 127.044 412.566 134.923C409.968 141.088 407.893 147.292 403.924 160.166C403.927 160.156 403.275 162.272 403.089 162.874C398.738 176.976 396.352 183.908 393.366 190.26C389.347 198.81 385.163 203.515 380.099 204.014C375.224 204.495 371.837 200.582 369.268 193.003C367.388 187.459 366.141 181.21 364.06 168.333C363.963 167.735 363.609 165.538 363.634 165.694C363.462 164.631 363.333 163.83 363.205 163.047C359.648 141.231 356.7 130.967 351.359 126.455C349.856 125.185 347.869 126.631 345.106 132.208C342.03 138.418 338.642 148.914 334.97 163.652Z" fill="black"/>
    <path d="M165.076 250.695C152.012 263.731 144.323 275.738 140.482 292.166C136.64 308.595 140.482 373.813 140.482 390.493C140.482 407.173 165.617 446.841 179.722 446.841C185.316 446.841 204.82 457.126 204.82 439.242C204.82 419.809 208.641 384.537 208.641 375.788C208.641 361.288 207.687 275.738 165.076 250.695Z" fill="white"/>
    <path d="M140.482 390.493C140.482 407.173 165.617 446.841 179.722 446.841C185.316 446.841 204.82 457.126 204.82 439.242C204.82 419.809 208.641 384.537 208.641 375.788C208.641 370.246 193.134 342.316 193.134 359.23C193.134 375.826 215.174 442.949 140.482 390.493Z" fill="black"/>
    <path fill-rule="evenodd" clip-rule="evenodd" d="M165.329 250.264C165.133 250.149 164.884 250.18 164.723 250.341C151.043 263.991 143.72 276.122 139.995 292.053C138.289 299.35 137.946 316.032 138.545 341.406C138.686 347.392 138.872 353.587 139.128 361.255C139.14 361.591 139.178 362.706 139.23 364.229C139.378 368.567 139.64 376.21 139.715 378.575C139.895 384.219 139.982 387.95 139.982 390.493C139.982 408.506 166.019 447.341 179.722 447.341C179.942 447.341 180.099 447.336 180.256 447.341C180.898 447.359 181.535 447.531 186.431 448.797C188.428 449.313 189.948 449.657 191.447 449.907C200.328 451.389 205.32 448.631 205.32 439.242C205.32 432.74 205.736 424.185 206.522 413.051C206.728 410.129 206.957 407.065 207.229 403.547C207.241 403.391 207.293 402.73 207.37 401.748C207.672 397.915 208.357 389.204 208.543 386.697C208.946 381.25 209.141 377.811 209.141 375.788C209.141 369.148 208.936 362.067 208.325 353.61C207.428 341.202 205.818 328.88 203.327 317.092C196.56 285.077 184.346 261.44 165.329 250.264ZM139.545 341.382C138.948 316.117 139.29 299.457 140.969 292.28C144.623 276.651 151.777 264.736 165.155 251.323C183.682 262.404 195.675 285.721 202.348 317.299C204.83 329.038 206.434 341.317 207.327 353.683C207.937 362.113 208.141 369.171 208.141 375.788C208.141 377.778 207.947 381.201 207.545 386.624C207.36 389.128 206.675 397.837 206.373 401.67C206.296 402.652 206.244 403.314 206.232 403.47C205.96 406.99 205.731 410.056 205.524 412.981C204.737 424.136 204.32 432.711 204.32 439.242C204.32 447.902 199.955 450.313 191.612 448.921C190.147 448.677 188.653 448.338 186.681 447.828C186.368 447.748 186.053 447.665 185.634 447.555C185.122 447.42 184.857 447.35 184.624 447.289C183.831 447.08 183.27 446.938 182.747 446.814C181.41 446.498 180.459 446.341 179.722 446.341C166.675 446.341 140.982 408.019 140.982 390.493C140.982 387.937 140.895 384.197 140.715 378.543C140.639 376.177 140.378 368.53 140.229 364.193C140.177 362.671 140.139 361.557 140.128 361.222C139.871 353.557 139.686 347.365 139.545 341.382Z" fill="black"/>
    <path d="M92.6421 425.551C92.6421 425.551 94.9811 440.404 94.9811 442.468C94.9811 451.073 136.178 493.455 160.195 489.486C184.211 485.518 203.744 471.592 206.97 451.532C210.197 431.471 189.226 410.998 169.166 401.05C162.396 397.692 151.889 390.655 144.121 385.738C141.444 384.043 140.83 389.988 138.034 388.107C132.921 384.668 122.099 376.861 122.099 376.861C122.099 376.861 90.673 364.853 86.694 392.1C82.7149 419.347 92.6421 425.551 92.6421 425.551Z" fill="white"/>
    <path d="M163.28 252.183C201.09 230.735 212.47 218.32 266.429 207.405C266.174 188.909 263.202 168.417 257.513 145.929C295.07 132.451 321.599 134.099 337.099 150.874C335.44 170.645 335.988 182.027 338.132 197.006C341.632 197.305 347.57 202.373 350.248 202.854C411.091 213.795 454.623 242.459 464.572 256.173C477.098 273.44 491.216 526.515 464.572 549.552C437.928 572.588 262.547 542.8 229.844 527.067C197.14 511.335 210.845 494.602 210.845 470.185C210.845 445.768 211.025 414.936 204.683 387.413C202.681 378.72 197.512 367.896 191.472 355.301" fill="white"/>
    <path d="M266.929 207.398C236.461 213.977 218.886 220.42 199.216 231.526C194.655 234.102 171.559 248.062 163.526 252.618C171.049 247.201 194.146 233.241 198.725 230.656C218.399 219.547 236.002 213.076 265.923 206.997C265.63 188.651 262.666 168.336 257.029 146.052C295.069 131.92 321.8 133.581 337.466 150.535C336.043 169.448 336.338 180.798 338.574 196.557C339.908 196.774 341.518 197.522 343.771 198.845C344.11 199.044 344.463 199.256 344.889 199.514C348.663 201.801 349.365 202.188 350.336 202.362C378.284 207.388 404.499 216.486 426.726 228.03C445.092 237.569 459.441 248.249 464.976 255.879C471.25 264.527 477.967 331.258 479.76 400.686C481.833 480.927 477.049 539.425 464.899 549.93C452.688 560.488 408.805 560.914 349.417 553.344C298.768 546.888 246.266 535.522 229.627 527.518C217.656 521.759 211.265 515.616 208.785 508.175C206.88 502.46 207.073 498.299 208.925 485.693C209.935 478.821 210.345 474.847 210.345 470.185C210.345 469.64 210.345 469.2 210.345 468.205C210.35 443.499 210.055 431.27 208.658 416.323C207.684 405.908 206.23 396.353 204.196 387.525C202.517 380.237 199.535 373.271 191.021 355.517C191.505 354.731 191.803 354.836 191.923 355.085C200.474 372.917 203.468 379.91 205.171 387.301C207.215 396.175 208.676 405.773 209.653 416.23C211.055 431.217 211.35 443.468 211.345 468.206C211.345 469.2 211.345 469.64 211.345 470.185C211.345 474.908 210.931 478.921 209.915 485.839C208.087 498.276 207.899 502.352 209.734 507.859C212.117 515.01 218.313 520.966 230.06 526.617C246.573 534.56 298.997 545.909 349.543 552.352C408.564 559.875 452.36 559.45 464.245 549.174C476.033 538.981 480.821 480.445 478.761 400.712C476.976 331.631 470.255 264.859 464.167 256.467C458.74 248.986 444.506 238.391 426.265 228.917C404.125 217.419 378.006 208.354 350.159 203.347C348.998 203.138 348.347 202.779 344.371 200.369C343.948 200.113 343.599 199.904 343.265 199.708C340.911 198.325 339.303 197.608 338.09 197.504C335.352 181.108 335.03 169.676 336.582 151.053C321.285 134.67 295.151 133.038 258.109 146.247C263.735 168.598 266.675 188.981 266.929 207.398Z" fill="black"/>
    <path d="M464.572 549.552C491.216 526.515 426.892 353.164 407.668 356.41C388.445 359.657 407.668 458.124 358.15 486.661C336.417 499.185 456.426 556.595 464.572 549.552Z" fill="black"/>
    <path d="M257.513 145.929C295.07 132.451 321.599 134.099 337.099 150.874C334.529 181.512 298.176 243.532 275.512 263.171C272.092 255.389 266.266 251.913 265.262 245.463C263.832 236.281 261.25 203.103 257.513 145.929Z" fill="black"/>
    <path d="M265.778 227.965C264.4 241.205 265.794 249.14 269.818 251.757C274.234 254.63 278.743 267.596 283.517 290.848C283.573 291.119 283.399 291.383 283.128 291.438C282.858 291.494 282.593 291.32 282.538 291.049C277.832 268.132 273.352 255.249 269.272 252.595C264.808 249.691 263.362 241.423 264.792 227.778L276.7 202.186L259.197 212.594C241.556 241.351 236.506 266.386 244.004 287.721C257.343 268.088 267.476 264.297 273.97 276.89C274.096 277.135 274 277.437 273.755 277.563C273.509 277.69 273.208 277.593 273.081 277.348C266.995 265.546 257.546 269.273 244.284 289.095C244.057 289.434 243.541 289.374 243.399 288.991C235.294 267.104 240.314 241.421 258.41 211.966C258.452 211.897 258.511 211.839 258.58 211.798L277.583 200.497C278.006 200.245 278.5 200.692 278.292 201.138L265.778 227.965Z" fill="black"/>
    <path d="M243.647 231.855C227.153 231.855 214.254 214.409 205.315 184.414C198.106 160.225 194.013 128.83 194.013 103.429C194.013 58.1418 230.726 21.4292 276.013 21.4292C321.301 21.4292 358.013 58.1418 358.013 103.429C358.013 124.595 340.528 155.781 314.235 184.608C288.682 212.625 260.697 231.855 243.647 231.855Z" fill="black"/>
    <path d="M243.647 230.855C260.327 230.855 288.121 211.757 313.497 183.935C339.636 155.276 357.013 124.281 357.013 103.429C357.013 58.6941 320.749 22.4292 276.013 22.4292C231.278 22.4292 195.013 58.6941 195.013 103.429C195.013 128.738 199.093 160.038 206.273 184.129C215.098 213.737 227.754 230.855 243.647 230.855Z" fill="white"/>
    <path d="M199.616 78.0583L195.185 110.125C195.185 110.125 171.575 64.8921 188.917 44.9242C206.26 24.9563 243.844 6.34954 268.113 0.929198C292.381 -4.49114 308.148 15.5721 320.336 15.5721C332.525 15.5721 361.282 29.6815 369.514 70.2603C377.745 110.839 349.804 141.876 349.804 160.838C349.804 179.799 336.26 173.749 336.26 173.749V155.88C336.26 155.88 341.737 121.984 330.241 121.984C318.745 121.984 318.745 146.745 313.028 146.745C307.311 146.745 314.661 110.538 304.152 104.377C293.642 98.2164 285.768 70.2603 285.768 70.2603L199.616 78.0583Z" fill="black"/>
    <path d="M324.513 129.127C324.513 129.127 333.266 120.164 339.509 122.362C345.752 124.56 349.923 144.983 342.712 154.27C335.502 163.557 326.808 161.583 326.808 161.583" fill="white"/>
    <path d="M324.871 129.476C330.585 123.625 335.409 121.449 339.343 122.834C342.139 123.818 344.731 129.128 345.661 135.728C346.667 142.874 345.549 149.801 342.317 153.964C337.62 160.013 332.506 162.365 326.919 161.096C326.649 161.034 326.382 161.203 326.32 161.472C326.259 161.742 326.428 162.01 326.697 162.071C332.701 163.434 338.19 160.911 343.107 154.577C349.96 145.75 346.96 124.455 339.675 121.89C335.285 120.345 330.112 122.678 324.156 128.777C323.963 128.975 323.967 129.292 324.164 129.484C324.362 129.677 324.678 129.674 324.871 129.476Z" fill="black"/>
    <path d="M330.97 143.134C330.856 143.386 330.561 143.498 330.309 143.385C330.057 143.272 329.944 142.976 330.057 142.724C331.38 139.778 332.554 137.74 333.598 136.594C334.767 135.31 335.931 135.042 336.869 135.993C337.063 136.189 337.061 136.506 336.865 136.7C336.668 136.894 336.352 136.892 336.158 136.695C335.701 136.233 335.167 136.356 334.337 137.268C333.381 138.317 332.252 140.277 330.97 143.134Z" fill="black"/>
    <path d="M334.179 133.301C333.974 133.117 333.957 132.801 334.141 132.595C334.326 132.39 334.642 132.373 334.848 132.557C338.555 135.886 338.987 141.75 336.242 150.086C336.156 150.348 335.873 150.49 335.611 150.404C335.349 150.318 335.206 150.035 335.293 149.773C337.927 141.773 337.524 136.304 334.179 133.301Z" fill="black"/>
    <path d="M257.884 184.265C246.864 196.431 236.935 199.512 228.224 193.337C227.999 193.177 227.946 192.865 228.106 192.64C228.265 192.415 228.577 192.362 228.803 192.521C237.02 198.346 246.424 195.428 257.143 183.594C257.328 183.389 257.644 183.373 257.849 183.559C258.054 183.744 258.069 184.06 257.884 184.265Z" fill="black"/>
    <path d="M239.743 121.101L221.19 171.648L243.597 175.436C243.869 175.482 244.053 175.74 244.007 176.012C243.961 176.285 243.703 176.468 243.43 176.422L220.43 172.534C220.122 172.482 219.936 172.162 220.044 171.869L238.804 120.757C238.9 120.498 239.187 120.365 239.446 120.46C239.705 120.555 239.838 120.842 239.743 121.101Z" fill="black"/>
    <path d="M270.513 132.929C267.2 132.929 264.513 130.243 264.513 126.929C264.513 123.615 267.2 120.929 270.513 120.929C273.827 120.929 276.513 123.615 276.513 126.929C276.513 130.243 273.827 132.929 270.513 132.929Z" fill="black"/>
    <path d="M213.513 132.929C210.2 132.929 207.513 130.243 207.513 126.929C207.513 123.615 210.2 120.929 213.513 120.929C216.827 120.929 219.513 123.615 219.513 126.929C219.513 130.243 216.827 132.929 213.513 132.929Z" fill="black"/>
    <path fill-rule="evenodd" clip-rule="evenodd" d="M188.96 512.872C192.413 514.692 199.874 512.374 211.52 506.004C216.286 506.659 219.047 507.351 219.134 507.663C219.567 509.215 219.015 510.897 217.501 512.944C216.364 514.481 216.142 514.714 211.836 519.037C208.253 522.636 206.315 524.942 204.955 527.598C203.704 530.04 203.225 532.447 203.615 534.907C205.559 547.147 207.366 554.828 210.08 560.88C213.433 568.354 218.041 572.531 224.484 573.256C233.46 574.266 252.033 566.434 280.351 549.763L338.227 548.239C338.418 548.234 338.589 548.12 338.669 547.946L353.527 515.339C353.629 515.115 353.553 514.849 353.347 514.714L324.62 495.787C324.516 495.719 324.389 495.691 324.266 495.711C293.904 500.535 276.208 503.257 271.199 503.876C269.464 504.09 268.175 503.813 266.868 503.032C265.925 502.468 262.129 499.25 262.169 499.281C258.327 496.254 253.934 494.126 247.192 492.588C230.123 488.693 220.11 487.889 211.333 489.525C207.318 490.274 200.657 494.877 195.003 500.487C192.332 503.139 190.201 505.726 189.004 507.814C187.603 510.256 187.45 512.077 188.96 512.872ZM271.321 504.868C276.338 504.249 293.968 501.537 324.231 496.729L352.439 515.314L337.888 547.248L280.196 548.767C280.111 548.769 280.028 548.793 279.955 548.836C251.78 565.431 233.277 573.239 224.596 572.262C218.551 571.582 214.214 567.651 210.993 560.471C208.325 554.523 206.533 546.907 204.603 534.75C204.248 532.515 204.686 530.317 205.845 528.053C207.144 525.518 209.032 523.271 212.545 519.743C216.906 515.364 217.124 515.135 218.305 513.538C219.984 511.268 220.629 509.303 220.097 507.394C219.826 506.423 217.188 505.765 211.492 504.991C211.386 504.976 211.278 504.996 211.184 505.048C199.775 511.302 192.461 513.586 189.426 511.988C188.614 511.56 188.719 510.32 189.871 508.311C191.017 506.313 193.095 503.791 195.708 501.197C201.229 495.717 207.752 491.21 211.516 490.508C220.134 488.902 230.022 489.696 246.97 493.562C253.565 495.067 257.823 497.13 261.55 500.067C261.445 499.984 265.329 503.277 266.355 503.89C267.852 504.785 269.365 505.11 271.321 504.868Z" fill="black"/>
    <path d="M225.433 506.584L205.943 531.292C195.603 535.831 183.144 539.715 179.801 534.116C177.658 530.527 194.205 512.242 202.298 509.413C207.693 507.527 215.405 506.584 225.433 506.584Z" fill="white"/>
    <path d="M225.016 506.465C215.039 506.465 207.379 507.402 202.046 509.266C194.254 511.99 177.886 530.012 179.813 533.241C182.484 537.714 192.013 536.058 205.325 530.215C205.578 530.104 205.873 530.219 205.984 530.472C206.095 530.725 205.98 531.02 205.727 531.131C191.876 537.211 182.04 538.92 178.955 533.753C176.573 529.764 193.411 511.225 201.716 508.322C207.174 506.414 214.937 505.465 225.016 505.465C225.292 505.465 225.516 505.689 225.516 505.965C225.516 506.241 225.292 506.465 225.016 506.465Z" fill="black"/>
    <path d="M210.886 526.661L215.021 547.992C204.451 552.468 185.727 555.644 182.264 550.018C180.045 546.411 188.781 539.074 208.472 528.006C208.997 527.711 209.801 527.263 210.886 526.661Z" fill="white"/>
    <path d="M211.121 527.097C210.038 527.698 209.234 528.146 208.71 528.44C189.401 539.294 180.728 546.578 182.683 549.754C185.58 554.461 202.487 552.753 214.82 547.53C215.074 547.422 215.367 547.541 215.475 547.795C215.583 548.05 215.464 548.343 215.21 548.451C202.421 553.866 185.117 555.615 181.832 550.278C179.347 546.242 188.147 538.852 208.221 527.569C208.746 527.273 209.551 526.825 210.636 526.222C210.878 526.088 211.182 526.176 211.316 526.417C211.45 526.658 211.363 526.963 211.121 527.097Z" fill="black"/>
    <path d="M216.718 544.605L222.083 561.004C211.944 563.752 193.695 565.022 189.944 560.553C187.539 557.689 195.699 552.663 214.422 545.477C214.921 545.286 215.686 544.995 216.718 544.605Z" fill="white"/>
    <path d="M216.911 545.077C215.88 545.467 215.116 545.757 214.618 545.948C205.283 549.531 198.586 552.573 194.539 555.066C190.699 557.431 189.439 559.158 190.343 560.236C193.511 564.01 210.112 563.74 221.969 560.525C222.236 560.453 222.51 560.611 222.582 560.877C222.655 561.144 222.497 561.418 222.231 561.491C209.991 564.808 193.106 565.083 189.577 560.879C188.077 559.092 189.694 556.875 194.014 554.214C198.126 551.682 204.871 548.618 214.26 545.014C214.76 544.823 215.525 544.532 216.557 544.142C216.816 544.044 217.104 544.174 217.202 544.433C217.3 544.691 217.169 544.979 216.911 545.077Z" fill="black"/>
    <path d="M223.182 558.734L224.38 572.459C212.47 572.981 200.381 572.521 199.946 567.865C199.616 564.325 206.593 563.603 223.182 558.734Z" fill="white"/>
    <path d="M223.323 559.214C219.021 560.477 208.253 563.397 206.97 563.779C203.01 564.956 201.213 565.817 200.639 566.839C200.473 567.133 200.409 567.45 200.444 567.819C200.778 571.399 209.528 572.609 224.358 571.959C224.634 571.947 224.868 572.161 224.88 572.437C224.892 572.713 224.678 572.946 224.402 572.958C208.753 573.644 199.869 572.415 199.448 567.912C199.395 567.344 199.5 566.824 199.767 566.349C200.524 565.003 202.452 564.079 206.685 562.82C207.983 562.434 218.754 559.513 223.041 558.255C223.306 558.177 223.584 558.329 223.662 558.594C223.739 558.859 223.588 559.136 223.323 559.214Z" fill="black"/>
    <path d="M406.921 340.436C406.921 340.16 407.145 339.936 407.421 339.936C407.697 339.936 450.604 254.145 450.868 254.063C464.625 249.801 477.803 268.249 490.62 309.167L490.643 309.295C495.433 421.991 497.827 484.631 497.827 497.252C497.827 510.078 487.479 522.656 466.862 535.022L466.708 535.082C411.54 546.691 375.506 553.639 358.594 555.931C356.954 556.153 355.95 555.407 354.223 553.324C354.082 553.153 354.011 553.067 353.942 552.985C352.674 551.463 351.961 550.941 351.044 551.064C324.769 554.592 312.06 556.153 311.229 555.916C311.053 555.866 310.919 555.724 310.878 555.546C301.477 513.931 298.609 493.509 302.449 492.422C305.506 491.557 309.051 490.881 316.11 489.71C316.045 489.721 318.153 489.372 318.74 489.274C325.041 488.226 328.419 487.568 330.985 486.802C331.797 485.882 332.462 484.888 333.061 483.747C333.542 482.829 333.701 482.462 334.584 480.333C336.442 475.848 338.002 473.932 341.957 472.568C358.436 466.885 384.169 459.489 419.16 450.376C411.001 406.871 406.921 370.225 406.921 340.436Z" fill="white"/>
    <path d="M406.921 340.436C406.921 340.16 407.145 339.936 407.421 339.936C407.697 339.936 407.921 340.16 407.921 340.436C407.921 370.261 412.023 407 420.229 450.65C420.278 450.908 420.118 451.16 419.864 451.226C384.665 460.387 358.803 467.816 342.283 473.513C338.655 474.765 337.267 476.469 335.507 480.716C334.611 482.878 334.448 483.255 333.946 484.211C333.288 485.466 332.55 486.559 331.636 487.574C331.575 487.642 331.497 487.692 331.409 487.718C328.77 488.52 325.362 489.186 318.904 490.261C318.316 490.359 316.209 490.708 316.273 490.697C309.254 491.861 305.729 492.534 302.721 493.384C299.87 494.191 302.829 515.331 311.772 554.965C313.877 554.908 327.386 553.231 350.911 550.073C352.301 549.886 353.228 550.565 354.711 552.345C354.78 552.429 354.852 552.516 354.993 552.685C356.503 554.507 357.297 555.097 358.459 554.94C375.331 552.654 411.323 545.714 466.42 534.121C486.718 521.932 496.827 509.63 496.827 497.252C496.827 484.656 494.433 422.027 489.646 309.403C477 269.057 464.101 251.01 451.164 255.018C450.9 255.1 450.62 254.952 450.539 254.689C450.457 254.425 450.604 254.145 450.868 254.063C464.625 249.801 477.803 268.249 490.62 309.167L490.643 309.295C495.433 421.991 497.827 484.631 497.827 497.252C497.827 510.078 487.479 522.656 466.862 535.022L466.708 535.082C411.54 546.691 375.506 553.639 358.594 555.931C356.954 556.153 355.95 555.407 354.223 553.324C354.082 553.153 354.011 553.067 353.942 552.985C352.674 551.463 351.961 550.941 351.044 551.064C324.769 554.592 312.06 556.153 311.229 555.916C311.053 555.866 310.919 555.724 310.878 555.546C301.477 513.931 298.609 493.509 302.449 492.422C305.506 491.557 309.051 490.881 316.11 489.71C316.045 489.721 318.153 489.372 318.74 489.274C325.041 488.226 328.419 487.568 330.985 486.802C331.797 485.882 332.462 484.888 333.061 483.747C333.542 482.829 333.701 482.462 334.584 480.333C336.442 475.848 338.002 473.932 341.957 472.568C358.436 466.885 384.169 459.489 419.16 450.376C411.001 406.871 406.921 370.225 406.921 340.436Z" fill="black"/>
    <path fill-rule="evenodd" clip-rule="evenodd" d="M122.277 376.394C101.052 368.283 88.903 373.513 86.1992 392.027C83.5458 410.197 85.4964 421.482 92.1832 425.851C93.7119 435.569 94.4811 441.142 94.4811 442.468C94.4811 447.132 105.243 460.138 118.26 471.075C133.966 484.27 149.307 491.792 160.276 489.98C185.584 485.798 204.323 471.136 207.464 451.611C210.408 433.308 193.027 412.325 169.388 400.602C165.968 398.905 161.538 396.265 155.227 392.255C154.734 391.941 154.225 391.617 153.689 391.275C153.558 391.191 153.065 390.874 152.366 390.425C150.129 388.989 145.779 386.196 144.389 385.315C142.997 384.435 142.147 384.922 140.763 386.641C139.643 388.032 139.191 388.282 138.313 387.692C134.91 385.403 129.602 381.657 122.277 376.394ZM92.9071 425.127C86.5136 421.131 84.5622 410.157 87.1887 392.172C89.7877 374.375 101.222 369.437 121.86 377.304C129.051 382.493 134.349 386.231 137.755 388.522C139.237 389.518 140.127 389.025 141.582 387.219C142.635 385.911 143.068 385.663 143.854 386.16C145.24 387.038 149.582 389.826 151.821 391.263C152.523 391.715 153.019 392.033 153.151 392.117C153.687 392.46 154.197 392.785 154.691 393.099C161.03 397.128 165.483 399.781 168.944 401.498C192.235 413.049 209.333 433.69 206.476 451.452C203.413 470.496 185.036 484.875 160.113 488.993C149.521 490.743 134.401 483.33 118.903 470.309C106.13 459.577 95.4811 446.707 95.4811 442.468C95.4811 441.052 94.7027 435.422 93.136 425.473C93.1135 425.33 93.03 425.203 92.9071 425.127Z" fill="black"/>
    <path d="M338.523 196.981C336.506 215.666 333.161 229.872 328.479 239.608C325.39 246.031 319.334 252.012 308.164 260.821C306.785 261.909 302.011 265.627 302.059 265.59C299.688 267.445 297.972 268.817 296.401 270.128C292.455 273.421 289.811 276.035 288.189 278.375C279.937 290.275 273.616 325.303 273.616 368.164C273.616 384.018 275.083 396.481 278.444 413.812C278.995 416.652 281.159 427.434 280.937 426.319C286.108 452.293 288.278 470.545 288.278 498.231C288.278 498.507 288.054 498.731 287.778 498.731C287.502 498.731 287.278 498.507 287.278 498.231C287.278 470.619 285.115 452.429 279.956 426.514C280.179 427.632 278.014 416.846 277.463 414.002C274.09 396.614 272.616 384.091 272.616 368.164C272.616 325.114 278.968 289.918 287.367 277.805C289.053 275.374 291.751 272.707 295.761 269.36C297.341 268.041 299.064 266.663 301.443 264.803C301.397 264.838 306.168 261.122 307.544 260.036C318.595 251.321 324.578 245.413 327.578 239.175C332.266 229.424 335.614 215.062 337.612 196.096C337.65 195.732 338.053 195.532 338.366 195.72L350.409 202.956C363.635 230.04 365.208 249.308 355.203 260.935C345.385 272.344 335.11 287.534 324.381 306.504C324.209 306.809 323.786 306.847 323.562 306.579C307.011 286.753 295.982 280.535 290.453 287.466C290.281 287.682 289.966 287.718 289.751 287.546C295.771 279.197 307.177 285.526 323.866 305.384C334.497 286.654 344.689 271.62 354.445 260.283C364.105 249.057 362.585 230.22 349.767 203.736L338.523 196.981Z" fill="black"/>
    <path d="M331.413 488.321C331.221 488.122 331.227 487.806 331.425 487.614C331.624 487.422 331.94 487.427 332.132 487.626C345.599 501.567 351.484 519.704 349.787 541.999C349.766 542.274 349.526 542.48 349.251 542.46C348.975 542.439 348.769 542.198 348.79 541.923C350.466 519.903 344.673 502.048 331.413 488.321Z" fill="black"/>
    <path d="M89.3559 419.669C97.8361 428.065 104.273 438.026 115.293 434.62C126.313 431.213 137.514 401.82 121.259 384.577C113.141 375.966 106.306 375.066 97.8361 376.997C79.5949 381.153 82.2865 412.67 89.3559 419.669Z" fill="black"/>
    <path d="M79.3559 419.669C92.0767 419.669 108.759 426.787 119.779 423.381C130.799 419.975 131.04 391.259 111.274 379.874C104.353 375.888 70.6548 362.296 65.1989 367.565C50.7496 381.518 70.1217 419.669 79.3559 419.669Z" fill="white"/>
    <path d="M105.512 384.182C103.312 377.574 98.857 372.326 91.2742 370.874C67.2646 366.278 69.1271 364.734 53.1229 366.165C37.1186 367.597 33.1232 375.226 27.5288 381.268C21.9344 387.31 -1.27316 398.428 0.623331 404.044C2.51982 409.66 20.2061 408.569 30.0947 400.603C39.9832 392.637 46.635 420.669 59.3559 420.669C72.0767 420.669 85.8994 424.938 96.9194 421.532C99.9518 420.594 102.706 416.685 104.605 411.415" fill="white"/>
    <path d="M105.987 384.024C106.074 384.286 105.932 384.569 105.67 384.657C105.408 384.744 105.125 384.602 105.038 384.34C102.687 377.277 98.0574 372.682 91.1802 371.365C84.8349 370.151 69.4911 366.725 66.7152 366.403C63.2598 366.001 59.7919 366.071 53.1674 366.664C42.5461 367.614 37.3459 370.717 31.2449 377.767C31.035 378.01 30.8222 378.258 30.5385 378.59C30.3628 378.795 30.3628 378.795 30.1873 379C30.0119 379.206 30.0119 379.206 29.8364 379.41C29.0372 380.343 28.4758 380.981 27.8957 381.608C25.9832 383.673 24.4148 384.765 14.8942 391.007C13.8987 391.66 13.0799 392.201 12.3051 392.72C4.07794 398.228 0.364134 401.714 1.09705 403.884C2.94053 409.343 20.5485 407.651 29.781 400.213C33.1475 397.501 36.3365 398.425 39.9943 402.319C40.8658 403.247 41.7707 404.34 42.8556 405.751C43.2789 406.302 43.7124 406.877 44.2963 407.662C44.4695 407.894 44.6591 408.149 45.0238 408.64C45.3219 409.041 45.5408 409.335 45.7575 409.624C51.3321 417.068 54.8733 420.169 59.3559 420.169C62.5296 420.169 65.7831 420.412 70.3563 420.924C71.1823 421.016 71.8954 421.099 73.2972 421.263C85.7795 422.727 90.9639 422.849 96.7718 421.054C99.5154 420.206 102.21 416.585 104.134 411.246C104.228 410.986 104.515 410.851 104.774 410.945C105.034 411.038 105.169 411.325 105.075 411.585C103.055 417.191 100.186 421.045 97.0671 422.009C91.0753 423.861 85.8092 423.737 73.1808 422.256C71.7807 422.092 71.0688 422.01 70.2451 421.918C65.7058 421.41 62.4846 421.169 59.3559 421.169C54.4291 421.169 50.7244 417.925 44.9571 410.223C44.7395 409.933 44.52 409.638 44.2213 409.237C43.8564 408.746 43.6671 408.491 43.4943 408.259C42.9131 407.478 42.4824 406.907 42.0628 406.361C40.9963 404.973 40.1107 403.904 39.2654 403.004C35.9219 399.444 33.2797 398.679 30.4083 400.992C20.7213 408.796 2.29811 410.567 0.149609 404.204C-0.824064 401.321 2.94486 397.784 11.7487 391.889C12.5265 391.368 13.3479 390.825 14.3459 390.171C23.7364 384.014 25.3355 382.901 27.162 380.928C27.7316 380.313 28.2856 379.683 29.0772 378.76C29.252 378.555 29.252 378.555 29.4272 378.351C29.6025 378.145 29.6026 378.145 29.7785 377.94C30.0634 377.607 30.2773 377.357 30.4887 377.113C36.7471 369.881 42.1724 366.643 53.0783 365.667C59.7652 365.069 63.2934 364.998 66.8307 365.409C69.6676 365.739 85.0693 369.177 91.3682 370.383C98.6266 371.773 103.528 376.638 105.987 384.024Z" fill="black"/>
    <path d="M64.9242 420.282C63.9683 413.771 67.7708 381.929 74.7993 381.929C81.8278 381.929 82.6929 420.391 78.1289 424.503C73.5649 428.615 65.8801 426.793 64.9242 420.282Z" fill="white"/>
    <path fill-rule="evenodd" clip-rule="evenodd" d="M66.3768 398.568C64.7496 406.919 63.9085 416.806 64.4295 420.354C65.4155 427.07 73.4474 429.393 78.4636 424.874C80.7893 422.779 81.8803 412.655 81.3106 401.648C80.6926 389.71 78.4405 381.429 74.7993 381.429C71.26 381.429 68.4418 387.971 66.3768 398.568ZM77.7942 424.131C73.3454 428.139 66.2832 426.096 65.4189 420.209C64.9181 416.798 65.751 407.009 67.3584 398.76C69.3088 388.75 72.0319 382.429 74.7993 382.429C77.5448 382.429 79.7304 390.465 80.3119 401.7C80.863 412.346 79.7863 422.337 77.7942 424.131Z" fill="black"/>
    <path d="M99.9479 420.031C97.3445 422.225 80.5562 429.726 79.9156 420.031C79.275 410.336 80.0254 386.1 85.4862 385.93C88.1046 385.848 91.927 396.808 90.856 408.212" fill="white"/>
    <path d="M99.6257 419.649C99.8368 419.471 100.152 419.498 100.33 419.709C100.508 419.92 100.481 420.235 100.27 420.413C98.5442 421.868 93.3747 424.148 89.2955 424.979C83.5176 426.157 79.7273 424.765 79.4167 420.064C78.3902 404.527 80.4425 385.586 85.4706 385.43C88.9453 385.322 92.3512 397.639 91.3538 408.259C91.328 408.534 91.0842 408.736 90.8092 408.71C90.5343 408.684 90.3324 408.44 90.3582 408.165C91.3021 398.115 88.0488 386.35 85.5018 386.429C81.4904 386.554 79.4494 405.391 80.4145 419.998C80.6733 423.915 83.8271 425.073 89.0959 424C93.0211 423.2 98.0381 420.987 99.6257 419.649Z" fill="black"/>
    <path d="M31.5534 411.574C30.8786 401.36 38.8993 382.176 44.4278 384.058C46.8388 384.879 47.0312 394.535 47.0312 402.619C47.0312 413.106 50.1398 422.177 48.6717 423.414C46.0683 425.608 32.2282 421.788 31.5534 411.574Z" fill="white"/>
    <path fill-rule="evenodd" clip-rule="evenodd" d="M44.5889 383.585C38.7921 381.612 30.3232 400.539 31.0545 411.607C31.3709 416.396 34.4929 420.231 39.1637 422.593C43.054 424.561 47.4367 425.109 48.9939 423.796C49.5896 423.294 49.6729 422.259 49.4658 420.341C49.388 419.621 49.271 418.794 49.0786 417.563C49.1023 417.714 48.6698 414.988 48.5428 414.15C47.8735 409.736 47.5312 406.234 47.5312 402.619C47.5312 390.154 46.9603 384.392 44.5889 383.585ZM39.615 421.701C35.2332 419.484 32.3426 415.934 32.0523 411.541C31.3615 401.085 39.4949 382.907 44.2667 384.531C45.9262 385.096 46.5312 391.202 46.5312 402.619C46.5312 406.293 46.8779 409.841 47.5541 414.3C48.8137 422.606 48.8171 422.638 48.3495 423.032C47.1926 424.007 43.1829 423.506 39.615 421.701Z" fill="black"/>
    <path d="M64.9978 421.656C62.3865 431.553 49.0916 429.477 47.5183 419.505C45.9449 409.533 50.4828 378.519 58.4357 380.065C63.7498 381.098 63.634 395.54 63.8017 407.539C63.8849 413.497 65.8643 418.372 64.9978 421.656Z" fill="white"/>
    <path fill-rule="evenodd" clip-rule="evenodd" d="M46.9908 419.58C48.6638 430.183 62.7213 432.114 65.4478 421.78C65.5592 421.357 65.646 421.044 65.6995 420.725C65.8763 419.671 65.6912 418.556 64.8382 413.264C64.4785 411.033 64.293 409.311 64.2681 407.528C64.2712 407.749 64.215 403.355 64.1942 402.117C63.9419 387.112 62.7347 380.394 58.4976 379.571C54.4618 378.786 51.161 384.97 48.8827 395.355C46.9725 404.063 46.1781 414.429 46.9908 419.58ZM64.4809 421.525C62.0484 430.744 49.4927 429.02 47.9786 419.424C47.1883 414.415 47.9737 404.166 49.8595 395.57C52.0102 385.766 55.1234 379.933 58.3068 380.552C61.7573 381.223 62.9548 387.887 63.1943 402.134C63.2151 403.369 63.2712 407.761 63.2682 407.542C63.2939 409.382 63.4842 411.148 63.851 413.423C64.6889 418.622 64.8604 419.662 64.691 420.644C64.6445 420.913 64.5722 421.179 64.4809 421.525Z" fill="black"/>
    <path fill-rule="evenodd" clip-rule="evenodd" d="M234.514 527.929C236.723 527.929 238.514 526.138 238.514 523.929C238.514 521.72 236.723 519.929 234.514 519.929C232.305 519.929 230.514 521.72 230.514 523.929C230.514 526.138 232.305 527.929 234.514 527.929ZM238.514 551.929C238.514 554.138 236.723 555.929 234.514 555.929C232.305 555.929 230.514 554.138 230.514 551.929C230.514 549.72 232.305 547.929 234.514 547.929C236.723 547.929 238.514 549.72 238.514 551.929ZM234.514 583.929C236.723 583.929 238.514 582.138 238.514 579.929C238.514 577.72 236.723 575.929 234.514 575.929C232.305 575.929 230.514 577.72 230.514 579.929C230.514 582.138 232.305 583.929 234.514 583.929ZM238.514 607.929C238.514 610.138 236.723 611.929 234.514 611.929C232.305 611.929 230.514 610.138 230.514 607.929C230.514 605.72 232.305 603.929 234.514 603.929C236.723 603.929 238.514 605.72 238.514 607.929ZM234.514 639.929C236.723 639.929 238.514 638.138 238.514 635.929C238.514 633.72 236.723 631.929 234.514 631.929C232.305 631.929 230.514 633.72 230.514 635.929C230.514 638.138 232.305 639.929 234.514 639.929ZM234.514 667.929C236.723 667.929 238.514 666.138 238.514 663.929C238.514 661.72 236.723 659.929 234.514 659.929C232.305 659.929 230.514 661.72 230.514 663.929C230.514 666.138 232.305 667.929 234.514 667.929ZM266.514 663.929C266.514 666.138 264.723 667.929 262.514 667.929C260.305 667.929 258.514 666.138 258.514 663.929C258.514 661.72 260.305 659.929 262.514 659.929C264.723 659.929 266.514 661.72 266.514 663.929ZM290.514 667.929C292.723 667.929 294.514 666.138 294.514 663.929C294.514 661.72 292.723 659.929 290.514 659.929C288.305 659.929 286.514 661.72 286.514 663.929C286.514 666.138 288.305 667.929 290.514 667.929ZM266.514 635.929C266.514 638.138 264.723 639.929 262.514 639.929C260.305 639.929 258.514 638.138 258.514 635.929C258.514 633.72 260.305 631.929 262.514 631.929C264.723 631.929 266.514 633.72 266.514 635.929ZM290.514 639.929C292.723 639.929 294.514 638.138 294.514 635.929C294.514 633.72 292.723 631.929 290.514 631.929C288.305 631.929 286.514 633.72 286.514 635.929C286.514 638.138 288.305 639.929 290.514 639.929ZM266.514 607.929C266.514 610.138 264.723 611.929 262.514 611.929C260.305 611.929 258.514 610.138 258.514 607.929C258.514 605.72 260.305 603.929 262.514 603.929C264.723 603.929 266.514 605.72 266.514 607.929ZM290.514 611.929C292.723 611.929 294.514 610.138 294.514 607.929C294.514 605.72 292.723 603.929 290.514 603.929C288.305 603.929 286.514 605.72 286.514 607.929C286.514 610.138 288.305 611.929 290.514 611.929ZM266.514 579.929C266.514 582.138 264.723 583.929 262.514 583.929C260.305 583.929 258.514 582.138 258.514 579.929C258.514 577.72 260.305 575.929 262.514 575.929C264.723 575.929 266.514 577.72 266.514 579.929ZM290.514 583.929C292.723 583.929 294.514 582.138 294.514 579.929C294.514 577.72 292.723 575.929 290.514 575.929C288.305 575.929 286.514 577.72 286.514 579.929C286.514 582.138 288.305 583.929 290.514 583.929ZM266.514 551.929C266.514 554.138 264.723 555.929 262.514 555.929C260.305 555.929 258.514 554.138 258.514 551.929C258.514 549.72 260.305 547.929 262.514 547.929C264.723 547.929 266.514 549.72 266.514 551.929ZM290.514 555.929C292.723 555.929 294.514 554.138 294.514 551.929C294.514 549.72 292.723 547.929 290.514 547.929C288.305 547.929 286.514 549.72 286.514 551.929C286.514 554.138 288.305 555.929 290.514 555.929ZM266.514 523.929C266.514 526.138 264.723 527.929 262.514 527.929C260.305 527.929 258.514 526.138 258.514 523.929C258.514 521.72 260.305 519.929 262.514 519.929C264.723 519.929 266.514 521.72 266.514 523.929ZM290.514 527.929C292.723 527.929 294.514 526.138 294.514 523.929C294.514 521.72 292.723 519.929 290.514 519.929C288.305 519.929 286.514 521.72 286.514 523.929C286.514 526.138 288.305 527.929 290.514 527.929ZM322.514 663.929C322.514 666.138 320.723 667.929 318.514 667.929C316.305 667.929 314.514 666.138 314.514 663.929C314.514 661.72 316.305 659.929 318.514 659.929C320.723 659.929 322.514 661.72 322.514 663.929ZM346.514 667.929C348.723 667.929 350.514 666.138 350.514 663.929C350.514 661.72 348.723 659.929 346.514 659.929C344.305 659.929 342.514 661.72 342.514 663.929C342.514 666.138 344.305 667.929 346.514 667.929ZM322.514 635.929C322.514 638.138 320.723 639.929 318.514 639.929C316.305 639.929 314.514 638.138 314.514 635.929C314.514 633.72 316.305 631.929 318.514 631.929C320.723 631.929 322.514 633.72 322.514 635.929ZM346.514 639.929C348.723 639.929 350.514 638.138 350.514 635.929C350.514 633.72 348.723 631.929 346.514 631.929C344.305 631.929 342.514 633.72 342.514 635.929C342.514 638.138 344.305 639.929 346.514 639.929ZM322.514 607.929C322.514 610.138 320.723 611.929 318.514 611.929C316.305 611.929 314.514 610.138 314.514 607.929C314.514 605.72 316.305 603.929 318.514 603.929C320.723 603.929 322.514 605.72 322.514 607.929ZM346.514 611.929C348.723 611.929 350.514 610.138 350.514 607.929C350.514 605.72 348.723 603.929 346.514 603.929C344.305 603.929 342.514 605.72 342.514 607.929C342.514 610.138 344.305 611.929 346.514 611.929ZM322.514 579.929C322.514 582.138 320.723 583.929 318.514 583.929C316.305 583.929 314.514 582.138 314.514 579.929C314.514 577.72 316.305 575.929 318.514 575.929C320.723 575.929 322.514 577.72 322.514 579.929ZM346.514 583.929C348.723 583.929 350.514 582.138 350.514 579.929C350.514 577.72 348.723 575.929 346.514 575.929C344.305 575.929 342.514 577.72 342.514 579.929C342.514 582.138 344.305 583.929 346.514 583.929ZM322.514 551.929C322.514 554.138 320.723 555.929 318.514 555.929C316.305 555.929 314.514 554.138 314.514 551.929C314.514 549.72 316.305 547.929 318.514 547.929C320.723 547.929 322.514 549.72 322.514 551.929ZM346.514 555.929C348.723 555.929 350.514 554.138 350.514 551.929C350.514 549.72 348.723 547.929 346.514 547.929C344.305 547.929 342.514 549.72 342.514 551.929C342.514 554.138 344.305 555.929 346.514 555.929ZM322.514 523.929C322.514 526.138 320.723 527.929 318.514 527.929C316.305 527.929 314.514 526.138 314.514 523.929C314.514 521.72 316.305 519.929 318.514 519.929C320.723 519.929 322.514 521.72 322.514 523.929ZM346.514 527.929C348.723 527.929 350.514 526.138 350.514 523.929C350.514 521.72 348.723 519.929 346.514 519.929C344.305 519.929 342.514 521.72 342.514 523.929C342.514 526.138 344.305 527.929 346.514 527.929ZM378.514 663.929C378.514 666.138 376.723 667.929 374.514 667.929C372.305 667.929 370.514 666.138 370.514 663.929C370.514 661.72 372.305 659.929 374.514 659.929C376.723 659.929 378.514 661.72 378.514 663.929ZM402.514 667.929C404.723 667.929 406.514 666.138 406.514 663.929C406.514 661.72 404.723 659.929 402.514 659.929C400.305 659.929 398.514 661.72 398.514 663.929C398.514 666.138 400.305 667.929 402.514 667.929ZM378.514 635.929C378.514 638.138 376.723 639.929 374.514 639.929C372.305 639.929 370.514 638.138 370.514 635.929C370.514 633.72 372.305 631.929 374.514 631.929C376.723 631.929 378.514 633.72 378.514 635.929ZM402.514 639.929C404.723 639.929 406.514 638.138 406.514 635.929C406.514 633.72 404.723 631.929 402.514 631.929C400.305 631.929 398.514 633.72 398.514 635.929C398.514 638.138 400.305 639.929 402.514 639.929ZM378.514 607.929C378.514 610.138 376.723 611.929 374.514 611.929C372.305 611.929 370.514 610.138 370.514 607.929C370.514 605.72 372.305 603.929 374.514 603.929C376.723 603.929 378.514 605.72 378.514 607.929ZM402.514 611.929C404.723 611.929 406.514 610.138 406.514 607.929C406.514 605.72 404.723 603.929 402.514 603.929C400.305 603.929 398.514 605.72 398.514 607.929C398.514 610.138 400.305 611.929 402.514 611.929ZM378.514 579.929C378.514 582.138 376.723 583.929 374.514 583.929C372.305 583.929 370.514 582.138 370.514 579.929C370.514 577.72 372.305 575.929 374.514 575.929C376.723 575.929 378.514 577.72 378.514 579.929ZM402.514 583.929C404.723 583.929 406.514 582.138 406.514 579.929C406.514 577.72 404.723 575.929 402.514 575.929C400.305 575.929 398.514 577.72 398.514 579.929C398.514 582.138 400.305 583.929 402.514 583.929ZM378.514 551.929C378.514 554.138 376.723 555.929 374.514 555.929C372.305 555.929 370.514 554.138 370.514 551.929C370.514 549.72 372.305 547.929 374.514 547.929C376.723 547.929 378.514 549.72 378.514 551.929ZM402.514 555.929C404.723 555.929 406.514 554.138 406.514 551.929C406.514 549.72 404.723 547.929 402.514 547.929C400.305 547.929 398.514 549.72 398.514 551.929C398.514 554.138 400.305 555.929 402.514 555.929ZM378.514 523.929C378.514 526.138 376.723 527.929 374.514 527.929C372.305 527.929 370.514 526.138 370.514 523.929C370.514 521.72 372.305 519.929 374.514 519.929C376.723 519.929 378.514 521.72 378.514 523.929ZM402.514 527.929C404.723 527.929 406.514 526.138 406.514 523.929C406.514 521.72 404.723 519.929 402.514 519.929C400.305 519.929 398.514 521.72 398.514 523.929C398.514 526.138 400.305 527.929 402.514 527.929Z" fill="black"/>
    <path d="M302.514 484.917L320.199 476.929L435.095 484.917L451.514 609.242L435.095 617.929H302.514V484.917Z" fill="#F3A0C8"/>
    <path d="M319.514 475.929H451.514V607.929H319.514V475.929Z" fill="white"/>
    <path fill-rule="evenodd" clip-rule="evenodd" d="M451.514 475.429H319.514C319.238 475.429 319.014 475.653 319.014 475.929V607.929C319.014 608.205 319.238 608.429 319.514 608.429H451.514C451.79 608.429 452.014 608.205 452.014 607.929V475.929C452.014 475.653 451.79 475.429 451.514 475.429ZM320.014 607.429V476.429H451.014V607.429H320.014Z" fill="black"/>
</svg>
