<svg width="71" height="71" viewBox="0 0 71 71" fill="none" xmlns="http://www.w3.org/2000/svg">
    <g clip-path="url(#clip0)">
        <path d="M66.7129 26.0754C66.2339 25.7895 65.64 25.776 65.149 26.0403L54.901 31.5562V26.8293C54.901 25.9541 54.1913 25.2445 53.3162 25.2445H50.7389C53.9532 22.6376 56.0117 18.6585 56.0117 14.207C56.0119 6.37335 49.6385 0 41.8046 0C35.1181 0 29.4965 4.6437 27.9931 10.8752C26.0265 8.50223 23.0582 6.98794 19.7426 6.98794C13.8352 6.98794 9.02939 11.7939 9.02939 17.7012C9.02939 20.6409 10.22 23.3071 12.1438 25.2449H10.6968C9.82148 25.2449 9.1119 25.9545 9.1119 26.8298V34.0239H5.09971C4.22441 34.0239 3.51483 34.7335 3.51483 35.6088V41.8412C3.51483 42.7165 4.22441 43.4261 5.09971 43.4261H9.11176V50.6203C9.11176 51.4956 9.82134 52.2051 10.6966 52.2051H29.393L20.8029 68.6828C20.3982 69.4588 20.6994 70.4161 21.4756 70.8207C21.7097 70.9427 21.9601 71.0006 22.2068 71.0006C22.7785 71.0006 23.3307 70.6901 23.6133 70.1481L32.0062 54.0486L40.3991 70.1481C40.6817 70.6903 41.2341 71.0006 41.8058 71.0006C42.0525 71.0006 42.3031 70.9427 42.537 70.8207C43.3132 70.4161 43.6144 69.4588 43.2096 68.6828L34.6194 52.2051H53.3161C54.1913 52.2051 54.901 51.4956 54.901 50.6203V45.8932L65.149 51.4092C65.3839 51.5355 65.6419 51.5985 65.9 51.5985C66.1815 51.5985 66.4629 51.5234 66.7129 51.3742C67.1919 51.0881 67.4849 50.5715 67.4849 50.0137V27.4359C67.4849 26.878 67.1919 26.3615 66.7129 26.0754ZM9.1119 40.256H6.68459V37.1931H9.1119V40.256ZM41.8046 3.16962C47.8906 3.16962 52.8421 8.12103 52.8421 14.2072C52.8421 20.2933 47.8907 25.2446 41.8046 25.2446C35.7185 25.2446 30.7671 20.2932 30.7671 14.2072C30.7673 8.12116 35.7187 3.16962 41.8046 3.16962ZM29.7023 21.6403C30.5487 23.0137 31.6225 24.2324 32.8705 25.2446H27.3414C28.3549 24.2237 29.1626 22.9994 29.7023 21.6403ZM19.7426 10.1574C23.9021 10.1574 27.2862 13.5414 27.2862 17.701C27.2862 21.8606 23.9022 25.2447 19.7426 25.2447C15.5831 25.2447 12.199 21.8607 12.199 17.701C12.1991 13.5414 15.5831 10.1574 19.7426 10.1574ZM51.7314 34.209V43.2397V49.0348H32.0349C32.032 49.0348 32.0292 49.0348 32.0263 49.0348H31.9844C31.9826 49.0348 31.9808 49.0348 31.979 49.0348H12.2815V41.8407V35.6082V28.4141H51.7314V34.209ZM64.3153 47.3604L54.901 42.293V35.1559L64.3153 30.0886V47.3604Z" fill="white"/>
        <path d="M19.7428 12.887C17.0882 12.887 14.9287 15.0466 14.9287 17.7011C14.9287 20.3557 17.0884 22.5152 19.7428 22.5152C22.3974 22.5152 24.557 20.3555 24.557 17.7011C24.5571 15.0466 22.3974 12.887 19.7428 12.887ZM19.7428 19.6625C18.6612 19.6625 17.7813 18.7826 17.7813 17.7009C17.7813 16.6193 18.6612 15.7394 19.7428 15.7394C20.8245 15.7394 21.7043 16.6193 21.7043 17.7009C21.7043 18.7826 20.8243 19.6625 19.7428 19.6625Z" fill="white"/>
        <path d="M41.8046 7.29346C37.9924 7.29346 34.891 10.395 34.891 14.2072C34.891 18.0193 37.9924 21.1208 41.8046 21.1208C45.6168 21.1208 48.7182 18.0193 48.7182 14.2072C48.7182 10.395 45.617 7.29346 41.8046 7.29346ZM41.8046 17.9512C39.7402 17.9512 38.0606 16.2716 38.0606 14.2072C38.0606 12.1428 39.7402 10.4631 41.8046 10.4631C43.869 10.4631 45.5486 12.1427 45.5486 14.2072C45.5486 16.2718 43.869 17.9512 41.8046 17.9512Z" fill="white"/>
        <path d="M36.6915 33.0229H19.4601C18.6285 33.0229 17.9546 33.697 17.9546 34.5285V42.9208C17.9546 43.7524 18.6287 44.4263 19.4601 44.4263H36.6915C37.5231 44.4263 38.1971 43.7522 38.1971 42.9208V34.5285C38.1971 33.6972 37.523 33.0229 36.6915 33.0229ZM35.1858 41.4152H20.9657V36.0342H35.1859V41.4152H35.1858Z" fill="white"/>
        <path d="M45.0039 37.6981C45.8792 37.6981 46.5888 36.9885 46.5888 36.1132C46.5888 35.2379 45.8792 34.5283 45.0039 34.5283C44.1286 34.5283 43.419 35.2379 43.419 36.1132C43.419 36.9885 44.1286 37.6981 45.0039 37.6981Z" fill="white"/>
        <path d="M45.0039 42.92C45.8792 42.92 46.5888 42.2104 46.5888 41.3351C46.5888 40.4598 45.8792 39.7502 45.0039 39.7502C44.1286 39.7502 43.419 40.4598 43.419 41.3351C43.419 42.2104 44.1286 42.92 45.0039 42.92Z" fill="white"/>
    </g>
    <defs>
        <clipPath id="clip0">
            <rect width="71" height="71" fill="white"/>
        </clipPath>
    </defs>
</svg>
