<svg width="26" height="16" viewBox="0 0 26 16" fill="none" xmlns="http://www.w3.org/2000/svg">
    <path d="M25.8622 13.9797C25.8307 13.9118 25.8013 13.8555 25.7741 13.8104C25.323 12.998 24.4609 12.0008 23.1885 10.8185L23.1616 10.7914L23.1481 10.7781L23.1345 10.7645H23.1209C22.5434 10.214 22.1777 9.84385 22.0245 9.65433C21.7443 9.29332 21.6815 8.9279 21.8347 8.55764C21.9429 8.2779 22.3493 7.68711 23.053 6.78449C23.4232 6.30612 23.7163 5.92273 23.9328 5.63389C25.4942 3.55809 26.1712 2.23163 25.9635 1.65398L25.8828 1.51899C25.8286 1.43772 25.6888 1.36337 25.4634 1.29557C25.2375 1.22791 24.9488 1.21672 24.5968 1.26181L20.6982 1.28874C20.635 1.26637 20.5448 1.26845 20.4274 1.29557C20.31 1.32269 20.2513 1.3363 20.2513 1.3363L20.1835 1.3702L20.1296 1.41093C20.0845 1.43786 20.0348 1.48523 19.9806 1.55294C19.9267 1.62041 19.8816 1.69959 19.8456 1.78982C19.4211 2.88182 18.9385 3.8971 18.3969 4.83562C18.063 5.39525 17.7563 5.88025 17.4762 6.2909C17.1965 6.70142 16.9619 7.00387 16.7725 7.19775C16.5829 7.39182 16.4117 7.54729 16.258 7.66473C16.1045 7.78223 15.9873 7.83187 15.9062 7.81371C15.8249 7.79555 15.7483 7.77753 15.6758 7.75951C15.5496 7.67825 15.448 7.56772 15.3714 7.42785C15.2945 7.28798 15.2427 7.11193 15.2157 6.89985C15.1887 6.68762 15.1728 6.50508 15.1683 6.3516C15.164 6.19831 15.166 5.98148 15.1751 5.70174C15.1845 5.42185 15.1887 5.23248 15.1887 5.13319C15.1887 4.7902 15.1954 4.41795 15.2088 4.01635C15.2225 3.61475 15.2335 3.29655 15.2428 3.06213C15.252 2.82748 15.2563 2.57922 15.2563 2.31749C15.2563 2.05577 15.2403 1.85051 15.2088 1.70153C15.1777 1.55275 15.13 1.40832 15.0671 1.26831C15.0038 1.12844 14.9111 1.02024 14.7896 0.943426C14.6678 0.86671 14.5163 0.80583 14.3361 0.760597C13.8577 0.65235 13.2486 0.593793 12.5084 0.58469C10.8299 0.566672 9.75136 0.675061 9.27305 0.909715C9.08353 1.00886 8.91204 1.14432 8.7587 1.31568C8.59621 1.51429 8.57355 1.62268 8.69085 1.64051C9.23242 1.72164 9.61581 1.9157 9.84145 2.22252L9.92277 2.38511C9.98602 2.50241 10.0492 2.71008 10.1124 3.00784C10.1755 3.30561 10.2162 3.63499 10.2341 3.99582C10.2792 4.65473 10.2792 5.21877 10.2341 5.68798C10.189 6.15739 10.1463 6.52281 10.1055 6.78453C10.0648 7.04626 10.0039 7.25835 9.92277 7.42074C9.84145 7.58318 9.78735 7.68247 9.76023 7.7185C9.73316 7.75454 9.71059 7.77725 9.69267 7.78616C9.57536 7.83111 9.45337 7.85401 9.3271 7.85401C9.20065 7.85401 9.04731 7.79076 8.86685 7.66435C8.68644 7.53795 8.4992 7.36432 8.30513 7.14318C8.11107 6.92199 7.8922 6.6129 7.64845 6.21585C7.40488 5.8188 7.15216 5.34954 6.89043 4.80807L6.67389 4.41539C6.53852 4.16276 6.35361 3.79492 6.11896 3.3122C5.88416 2.82928 5.67663 2.36216 5.49622 1.91091C5.4241 1.7214 5.31576 1.57712 5.17138 1.47783L5.10363 1.4371C5.05858 1.40107 4.98628 1.36281 4.88708 1.32203C4.78775 1.2813 4.6841 1.25209 4.57572 1.23412L0.866543 1.26105C0.487514 1.26105 0.230339 1.34692 0.0949234 1.51842L0.0407289 1.59955C0.0136553 1.64473 0 1.7169 0 1.81623C0 1.91551 0.0270736 2.03737 0.0812681 2.18165C0.622739 3.45425 1.21158 4.68157 1.84778 5.8638C2.48399 7.04602 3.03684 7.99834 3.506 8.71989C3.97526 9.44196 4.45358 10.1234 4.94095 10.764C5.42832 11.4048 5.75093 11.8155 5.90877 11.9959C6.0668 12.1766 6.19093 12.3118 6.28116 12.402L6.61965 12.7268C6.83624 12.9435 7.15429 13.2029 7.57396 13.5052C7.99372 13.8076 8.45842 14.1054 8.96832 14.3989C9.4783 14.692 10.0716 14.9312 10.7485 15.1161C11.4254 15.3013 12.0841 15.3756 12.725 15.3397H14.2818C14.5975 15.3125 14.8367 15.2132 14.9993 15.0418L15.0531 14.974C15.0894 14.9201 15.1233 14.8364 15.1546 14.7238C15.1862 14.611 15.202 14.4867 15.202 14.3516C15.1927 13.9636 15.2223 13.6139 15.2898 13.3026C15.3572 12.9914 15.4342 12.7567 15.5202 12.5987C15.6061 12.4408 15.7031 12.3075 15.8111 12.1995C15.9193 12.0913 15.9964 12.0257 16.0416 12.0031C16.0866 11.9804 16.1225 11.965 16.1495 11.9558C16.3661 11.8836 16.621 11.9535 16.9146 12.1658C17.208 12.3779 17.4831 12.6397 17.7405 12.951C17.9977 13.2625 18.3067 13.612 18.6677 13.9999C19.0288 14.3881 19.3446 14.6766 19.6152 14.8664L19.8859 15.0288C20.0666 15.1372 20.3013 15.2365 20.5901 15.3267C20.8785 15.4169 21.1311 15.4395 21.348 15.3944L24.8134 15.3403C25.1561 15.3403 25.4228 15.2836 25.612 15.171C25.8016 15.0582 25.9142 14.9339 25.9505 14.7987C25.9867 14.6634 25.9887 14.5099 25.9574 14.3382C25.9253 14.167 25.8937 14.0473 25.8622 13.9797Z" fill="white"/>
</svg>
